<svg width="1245" height="390" viewBox="0 0 1245 390" fill="none" xmlns="http://www.w3.org/2000/svg">
<g filter="url(#filter0_d_75_10)">
<path fill-rule="evenodd" clip-rule="evenodd" d="M416.001 328.999C479.166 329.836 603.209 308.48 665.001 301.897C744.509 293.426 971.324 406.171 1026.5 376.397C1083.62 345.573 1229.34 343.494 1240.5 301.897C1240.5 250.397 1240.5 137.397 1240.5 59.3967C1143.73 26.6692 1145.23 51.7398 1017.5 22C939.414 8.9298 926.474 27.4462 849 13.5C778.251 0.764315 824.5 -6.60327 619.5 22C478.5 -6.60327 337 -3 200.456 13.5C137.196 48.9396 29.141 -10.9948 5.00391 34.8967C5.0037 85.3967 5 269.5 5 303.5C69.6262 332.453 98.4946 368.719 184.001 376.397C244.429 381.822 354.623 328.187 416.001 328.999Z" fill="#2C2C2C"/>
<path fill-rule="evenodd" clip-rule="evenodd" d="M416.001 328.999C479.166 329.836 603.209 308.48 665.001 301.897C744.509 293.426 971.324 406.171 1026.5 376.397C1083.62 345.573 1229.34 343.494 1240.5 301.897C1240.5 250.397 1240.5 137.397 1240.5 59.3967C1143.73 26.6692 1145.23 51.7398 1017.5 22C939.414 8.9298 926.474 27.4462 849 13.5C778.251 0.764315 824.5 -6.60327 619.5 22C478.5 -6.60327 337 -3 200.456 13.5C137.196 48.9396 29.141 -10.9948 5.00391 34.8967C5.0037 85.3967 5 269.5 5 303.5C69.6262 332.453 98.4946 368.719 184.001 376.397C244.429 381.822 354.623 328.187 416.001 328.999Z" stroke="#2C2C2C"/>
</g>
<defs>
<filter id="filter0_d_75_10" x="0.5" y="0.286133" width="1244.5" height="389.631" filterUnits="userSpaceOnUse" color-interpolation-filters="sRGB">
<feFlood flood-opacity="0" result="BackgroundImageFix"/>
<feColorMatrix in="SourceAlpha" type="matrix" values="0 0 0 0 0 0 0 0 0 0 0 0 0 0 0 0 0 0 127 0" result="hardAlpha"/>
<feOffset dy="4"/>
<feGaussianBlur stdDeviation="2"/>
<feComposite in2="hardAlpha" operator="out"/>
<feColorMatrix type="matrix" values="0 0 0 0 0 0 0 0 0 0 0 0 0 0 0 0 0 0 0.25 0"/>
<feBlend mode="normal" in2="BackgroundImageFix" result="effect1_dropShadow_75_10"/>
<feBlend mode="normal" in="SourceGraphic" in2="effect1_dropShadow_75_10" result="shape"/>
</filter>
</defs>
</svg>
