<svg width="130" height="22" viewBox="0 0 130 22" fill="none" xmlns="http://www.w3.org/2000/svg">
<path d="M9.91104 21.35C8.5277 21.35 7.24437 21.1333 6.06104 20.7C4.89437 20.25 3.8777 19.6167 3.01104 18.8C2.16104 17.9833 1.49437 17.025 1.01104 15.925C0.527702 14.8083 0.286035 13.5833 0.286035 12.25C0.286035 10.9167 0.527702 9.7 1.01104 8.6C1.49437 7.48333 2.16104 6.51667 3.01104 5.7C3.8777 4.88333 4.89437 4.25833 6.06104 3.825C7.24437 3.375 8.5277 3.15 9.91104 3.15C11.5277 3.15 12.9694 3.43333 14.236 4C15.5194 4.56667 16.586 5.38333 17.436 6.45L14.286 9.3C13.7194 8.63333 13.0944 8.125 12.411 7.775C11.7444 7.425 10.9944 7.25 10.161 7.25C9.44437 7.25 8.78604 7.36667 8.18604 7.6C7.58604 7.83333 7.06937 8.175 6.63604 8.625C6.21937 9.05833 5.88604 9.58333 5.63604 10.2C5.4027 10.8167 5.28604 11.5 5.28604 12.25C5.28604 13 5.4027 13.6833 5.63604 14.3C5.88604 14.9167 6.21937 15.45 6.63604 15.9C7.06937 16.3333 7.58604 16.6667 8.18604 16.9C8.78604 17.1333 9.44437 17.25 10.161 17.25C10.9944 17.25 11.7444 17.075 12.411 16.725C13.0944 16.375 13.7194 15.8667 14.286 15.2L17.436 18.05C16.586 19.1 15.5194 19.9167 14.236 20.5C12.9694 21.0667 11.5277 21.35 9.91104 21.35ZM28.2431 7.225C29.2931 7.225 30.2431 7.44167 31.0931 7.875C31.9431 8.29167 32.6097 8.94167 33.0931 9.825C33.5931 10.7083 33.8431 11.85 33.8431 13.25V21H29.0931V14.025C29.0931 13.0583 28.8931 12.3583 28.4931 11.925C28.1097 11.475 27.5681 11.25 26.8681 11.25C26.3681 11.25 25.9097 11.3667 25.4931 11.6C25.0764 11.8167 24.7514 12.1583 24.5181 12.625C24.2847 13.0917 24.1681 13.7 24.1681 14.45V21H19.4181V2.45H24.1681V11.3L23.0681 10.175C23.5847 9.19167 24.2931 8.45833 25.1931 7.975C26.0931 7.475 27.1097 7.225 28.2431 7.225ZM36.8253 21V7.45H41.5753V21H36.8253ZM39.2003 5.95C38.3336 5.95 37.6336 5.70833 37.1003 5.225C36.567 4.74167 36.3003 4.14167 36.3003 3.425C36.3003 2.70833 36.567 2.10833 37.1003 1.625C37.6336 1.14167 38.3336 0.899999 39.2003 0.899999C40.067 0.899999 40.767 1.13333 41.3003 1.6C41.8336 2.05 42.1003 2.63333 42.1003 3.35C42.1003 4.1 41.8336 4.725 41.3003 5.225C40.7836 5.70833 40.0836 5.95 39.2003 5.95ZM56.8626 21.225C55.7126 21.225 54.5876 21.0917 53.4876 20.825C52.4043 20.5583 51.5293 20.225 50.8626 19.825L52.2876 16.575C52.9209 16.9583 53.6626 17.2667 54.5126 17.5C55.3626 17.7167 56.1959 17.825 57.0126 17.825C57.8126 17.825 58.3626 17.7417 58.6626 17.575C58.9793 17.4083 59.1376 17.1833 59.1376 16.9C59.1376 16.6333 58.9876 16.4417 58.6876 16.325C58.4043 16.1917 58.0209 16.0917 57.5376 16.025C57.0709 15.9583 56.5543 15.8833 55.9876 15.8C55.4209 15.7167 54.8459 15.6083 54.2626 15.475C53.6959 15.325 53.1709 15.1083 52.6876 14.825C52.2209 14.525 51.8459 14.125 51.5626 13.625C51.2793 13.125 51.1376 12.4917 51.1376 11.725C51.1376 10.8583 51.3876 10.0917 51.8876 9.425C52.4043 8.74167 53.1543 8.20833 54.1376 7.825C55.1209 7.425 56.3209 7.225 57.7376 7.225C58.6876 7.225 59.6459 7.325 60.6126 7.525C61.5959 7.70833 62.4209 7.99167 63.0876 8.375L61.6626 11.6C60.9959 11.2167 60.3293 10.9583 59.6626 10.825C58.9959 10.675 58.3626 10.6 57.7626 10.6C56.9626 10.6 56.3959 10.6917 56.0626 10.875C55.7459 11.0583 55.5876 11.2833 55.5876 11.55C55.5876 11.8167 55.7293 12.025 56.0126 12.175C56.2959 12.3083 56.6709 12.4167 57.1376 12.5C57.6209 12.5667 58.1459 12.6417 58.7126 12.725C59.2793 12.7917 59.8459 12.9 60.4126 13.05C60.9959 13.2 61.5209 13.425 61.9876 13.725C62.4709 14.0083 62.8543 14.4 63.1376 14.9C63.4209 15.3833 63.5626 16.0083 63.5626 16.775C63.5626 17.6083 63.3043 18.3583 62.7876 19.025C62.2876 19.6917 61.5376 20.225 60.5376 20.625C59.5543 21.025 58.3293 21.225 56.8626 21.225ZM65.6095 21V7.45H70.3595V21H65.6095ZM67.9845 5.95C67.1178 5.95 66.4178 5.70833 65.8845 5.225C65.3511 4.74167 65.0845 4.14167 65.0845 3.425C65.0845 2.70833 65.3511 2.10833 65.8845 1.625C66.4178 1.14167 67.1178 0.899999 67.9845 0.899999C68.8511 0.899999 69.5511 1.13333 70.0845 1.6C70.6178 2.05 70.8845 2.63333 70.8845 3.35C70.8845 4.1 70.6178 4.725 70.0845 5.225C69.5678 5.70833 68.8678 5.95 67.9845 5.95ZM81.7214 21V18.475L81.3964 17.85V13.2C81.3964 12.45 81.1631 11.875 80.6964 11.475C80.2464 11.0583 79.5214 10.85 78.5214 10.85C77.8714 10.85 77.2131 10.9583 76.5464 11.175C75.8797 11.375 75.3131 11.6583 74.8464 12.025L73.2464 8.8C74.0131 8.3 74.9297 7.91667 75.9964 7.65C77.0797 7.36667 78.1547 7.225 79.2214 7.225C81.4214 7.225 83.1214 7.73333 84.3214 8.75C85.5381 9.75 86.1464 11.325 86.1464 13.475V21H81.7214ZM77.7214 21.225C76.6381 21.225 75.7214 21.0417 74.9714 20.675C74.2214 20.3083 73.6464 19.8083 73.2464 19.175C72.8631 18.5417 72.6714 17.8333 72.6714 17.05C72.6714 16.2167 72.8797 15.5 73.2964 14.9C73.7297 14.2833 74.3881 13.8167 75.2714 13.5C76.1547 13.1667 77.2964 13 78.6964 13H81.8964V15.475H79.3464C78.5797 15.475 78.0381 15.6 77.7214 15.85C77.4214 16.1 77.2714 16.4333 77.2714 16.85C77.2714 17.2667 77.4297 17.6 77.7464 17.85C78.0631 18.1 78.4964 18.225 79.0464 18.225C79.5631 18.225 80.0297 18.1 80.4464 17.85C80.8797 17.5833 81.1964 17.1833 81.3964 16.65L82.0464 18.4C81.7964 19.3333 81.3047 20.0417 80.5714 20.525C79.8547 20.9917 78.9047 21.225 77.7214 21.225ZM106.795 7.225C107.845 7.225 108.778 7.44167 109.595 7.875C110.428 8.29167 111.078 8.94167 111.545 9.825C112.028 10.7083 112.27 11.85 112.27 13.25V21H107.52V14.025C107.52 13.0583 107.336 12.3583 106.97 11.925C106.603 11.475 106.103 11.25 105.47 11.25C105.02 11.25 104.611 11.3583 104.245 11.575C103.878 11.7917 103.595 12.125 103.395 12.575C103.195 13.0083 103.095 13.575 103.095 14.275V21H98.3446V14.025C98.3446 13.0583 98.1613 12.3583 97.7946 11.925C97.4446 11.475 96.9446 11.25 96.2946 11.25C95.828 11.25 95.4113 11.3583 95.0446 11.575C94.6946 11.7917 94.4113 12.125 94.1946 12.575C93.9946 13.0083 93.8946 13.575 93.8946 14.275V21H89.1446V7.45H93.6696V11.225L92.7696 10.15C93.2696 9.18333 93.953 8.45833 94.8196 7.975C95.6863 7.475 96.653 7.225 97.7196 7.225C98.9363 7.225 100.003 7.54167 100.92 8.175C101.853 8.79167 102.478 9.75833 102.795 11.075L101.245 10.75C101.728 9.65 102.453 8.79167 103.42 8.175C104.403 7.54167 105.528 7.225 106.795 7.225ZM122.239 21.225C120.755 21.225 119.439 20.925 118.289 20.325C117.139 19.725 116.23 18.9 115.564 17.85C114.914 16.7833 114.589 15.5667 114.589 14.2C114.589 12.8333 114.914 11.625 115.564 10.575C116.23 9.525 117.139 8.70833 118.289 8.125C119.439 7.525 120.755 7.225 122.239 7.225C123.722 7.225 125.039 7.525 126.189 8.125C127.355 8.70833 128.264 9.525 128.914 10.575C129.564 11.625 129.889 12.8333 129.889 14.2C129.889 15.5667 129.564 16.7833 128.914 17.85C128.264 18.9 127.355 19.725 126.189 20.325C125.039 20.925 123.722 21.225 122.239 21.225ZM122.239 17.45C122.789 17.45 123.272 17.325 123.689 17.075C124.122 16.825 124.464 16.4583 124.714 15.975C124.964 15.475 125.089 14.8833 125.089 14.2C125.089 13.5167 124.964 12.9417 124.714 12.475C124.464 11.9917 124.122 11.625 123.689 11.375C123.272 11.125 122.789 11 122.239 11C121.705 11 121.222 11.125 120.789 11.375C120.372 11.625 120.03 11.9917 119.764 12.475C119.514 12.9417 119.389 13.5167 119.389 14.2C119.389 14.8833 119.514 15.475 119.764 15.975C120.03 16.4583 120.372 16.825 120.789 17.075C121.222 17.325 121.705 17.45 122.239 17.45Z" fill="#FF6474"/>
</svg>
