<svg width="411" height="450" viewBox="0 0 411 450" fill="none" xmlns="http://www.w3.org/2000/svg">
<rect y="7" width="406" height="443" rx="34" fill="#FF6474"/>
<rect x="9" width="401.693" height="441.392" rx="34" fill="white"/>
<path d="M35.58 77L44.85 56H50.7L60 77H53.82L46.56 58.91H48.9L41.64 77H35.58ZM40.65 72.92L42.18 68.54H52.44L53.97 72.92H40.65ZM61.414 77V60.74H66.844V65.48L66.034 64.13C66.514 62.91 67.294 62 68.374 61.4C69.454 60.78 70.764 60.47 72.304 60.47V65.6C72.044 65.56 71.814 65.54 71.614 65.54C71.434 65.52 71.234 65.51 71.014 65.51C69.854 65.51 68.914 65.83 68.194 66.47C67.474 67.09 67.114 68.11 67.114 69.53V77H61.414ZM83.0297 77.27C81.1097 77.27 79.4297 76.91 77.9897 76.19C76.5697 75.45 75.4597 74.45 74.6597 73.19C73.8797 71.91 73.4897 70.46 73.4897 68.84C73.4897 67.22 73.8697 65.78 74.6297 64.52C75.4097 63.24 76.4797 62.25 77.8397 61.55C79.1997 60.83 80.7297 60.47 82.4297 60.47C84.0297 60.47 85.4897 60.8 86.8097 61.46C88.1297 62.1 89.1797 63.05 89.9597 64.31C90.7397 65.57 91.1297 67.1 91.1297 68.9C91.1297 69.1 91.1197 69.33 91.0997 69.59C91.0797 69.85 91.0597 70.09 91.0397 70.31H78.1697V67.31H88.0097L85.8497 68.15C85.8697 67.41 85.7297 66.77 85.4297 66.23C85.1497 65.69 84.7497 65.27 84.2297 64.97C83.7297 64.67 83.1397 64.52 82.4597 64.52C81.7797 64.52 81.1797 64.67 80.6597 64.97C80.1597 65.27 79.7697 65.7 79.4897 66.26C79.2097 66.8 79.0697 67.44 79.0697 68.18V69.05C79.0697 69.85 79.2297 70.54 79.5497 71.12C79.8897 71.7 80.3697 72.15 80.9897 72.47C81.6097 72.77 82.3497 72.92 83.2097 72.92C84.0097 72.92 84.6897 72.81 85.2497 72.59C85.8297 72.35 86.3997 71.99 86.9597 71.51L89.9597 74.63C89.1797 75.49 88.2197 76.15 87.0797 76.61C85.9397 77.05 84.5897 77.27 83.0297 77.27ZM103.248 77V73.97L102.858 73.22V67.64C102.858 66.74 102.578 66.05 102.018 65.57C101.478 65.07 100.608 64.82 99.4083 64.82C98.6283 64.82 97.8383 64.95 97.0383 65.21C96.2383 65.45 95.5583 65.79 94.9983 66.23L93.0783 62.36C93.9983 61.76 95.0983 61.3 96.3783 60.98C97.6783 60.64 98.9683 60.47 100.248 60.47C102.888 60.47 104.928 61.08 106.368 62.3C107.828 63.5 108.558 65.39 108.558 67.97V77H103.248ZM98.4483 77.27C97.1483 77.27 96.0483 77.05 95.1483 76.61C94.2483 76.17 93.5583 75.57 93.0783 74.81C92.6183 74.05 92.3883 73.2 92.3883 72.26C92.3883 71.26 92.6383 70.4 93.1383 69.68C93.6583 68.94 94.4483 68.38 95.5083 68C96.5683 67.6 97.9383 67.4 99.6183 67.4H103.458V70.37H100.398C99.4783 70.37 98.8283 70.52 98.4483 70.82C98.0883 71.12 97.9083 71.52 97.9083 72.02C97.9083 72.52 98.0983 72.92 98.4783 73.22C98.8583 73.52 99.3783 73.67 100.038 73.67C100.658 73.67 101.218 73.52 101.718 73.22C102.238 72.9 102.618 72.42 102.858 71.78L103.638 73.88C103.338 75 102.748 75.85 101.868 76.43C101.008 76.99 99.8683 77.27 98.4483 77.27ZM129.197 77.27C127.397 77.27 125.787 76.91 124.367 76.19C122.967 75.47 121.867 74.48 121.067 73.22C120.267 71.94 119.867 70.48 119.867 68.84C119.867 67.2 120.267 65.75 121.067 64.49C121.867 63.23 122.967 62.25 124.367 61.55C125.787 60.83 127.397 60.47 129.197 60.47C131.037 60.47 132.627 60.86 133.967 61.64C135.307 62.42 136.257 63.52 136.817 64.94L132.407 67.19C132.027 66.43 131.557 65.88 130.997 65.54C130.437 65.18 129.827 65 129.167 65C128.507 65 127.907 65.15 127.367 65.45C126.827 65.75 126.397 66.19 126.077 66.77C125.777 67.33 125.627 68.02 125.627 68.84C125.627 69.68 125.777 70.39 126.077 70.97C126.397 71.55 126.827 71.99 127.367 72.29C127.907 72.59 128.507 72.74 129.167 72.74C129.827 72.74 130.437 72.57 130.997 72.23C131.557 71.87 132.027 71.31 132.407 70.55L136.817 72.8C136.257 74.22 135.307 75.32 133.967 76.1C132.627 76.88 131.037 77.27 129.197 77.27ZM146.947 77.27C145.167 77.27 143.587 76.91 142.207 76.19C140.827 75.47 139.737 74.48 138.937 73.22C138.157 71.94 137.767 70.48 137.767 68.84C137.767 67.2 138.157 65.75 138.937 64.49C139.737 63.23 140.827 62.25 142.207 61.55C143.587 60.83 145.167 60.47 146.947 60.47C148.727 60.47 150.307 60.83 151.687 61.55C153.087 62.25 154.177 63.23 154.957 64.49C155.737 65.75 156.127 67.2 156.127 68.84C156.127 70.48 155.737 71.94 154.957 73.22C154.177 74.48 153.087 75.47 151.687 76.19C150.307 76.91 148.727 77.27 146.947 77.27ZM146.947 72.74C147.607 72.74 148.187 72.59 148.687 72.29C149.207 71.99 149.617 71.55 149.917 70.97C150.217 70.37 150.367 69.66 150.367 68.84C150.367 68.02 150.217 67.33 149.917 66.77C149.617 66.19 149.207 65.75 148.687 65.45C148.187 65.15 147.607 65 146.947 65C146.307 65 145.727 65.15 145.207 65.45C144.707 65.75 144.297 66.19 143.977 66.77C143.677 67.33 143.527 68.02 143.527 68.84C143.527 69.66 143.677 70.37 143.977 70.97C144.297 71.55 144.707 71.99 145.207 72.29C145.727 72.59 146.307 72.74 146.947 72.74ZM179.948 60.47C181.208 60.47 182.328 60.73 183.308 61.25C184.308 61.75 185.088 62.53 185.648 63.59C186.228 64.65 186.518 66.02 186.518 67.7V77H180.818V68.63C180.818 67.47 180.598 66.63 180.158 66.11C179.718 65.57 179.118 65.3 178.358 65.3C177.818 65.3 177.328 65.43 176.888 65.69C176.448 65.95 176.108 66.35 175.868 66.89C175.628 67.41 175.508 68.09 175.508 68.93V77H169.808V68.63C169.808 67.47 169.588 66.63 169.148 66.11C168.728 65.57 168.128 65.3 167.348 65.3C166.788 65.3 166.288 65.43 165.848 65.69C165.428 65.95 165.088 66.35 164.828 66.89C164.588 67.41 164.468 68.09 164.468 68.93V77H158.768V60.74H164.198V65.27L163.118 63.98C163.718 62.82 164.538 61.95 165.578 61.37C166.618 60.77 167.778 60.47 169.058 60.47C170.518 60.47 171.798 60.85 172.898 61.61C174.018 62.35 174.768 63.51 175.148 65.09L173.288 64.7C173.868 63.38 174.738 62.35 175.898 61.61C177.078 60.85 178.428 60.47 179.948 60.47ZM196.955 77.27C195.635 77.27 194.445 77.01 193.385 76.49C192.345 75.97 191.525 75.16 190.925 74.06C190.345 72.94 190.055 71.53 190.055 69.83V60.74H195.755V68.9C195.755 70.16 195.985 71.06 196.445 71.6C196.925 72.14 197.595 72.41 198.455 72.41C199.015 72.41 199.525 72.28 199.985 72.02C200.445 71.76 200.815 71.35 201.095 70.79C201.375 70.21 201.515 69.47 201.515 68.57V60.74H207.215V77H201.785V72.41L202.835 73.7C202.275 74.9 201.465 75.8 200.405 76.4C199.345 76.98 198.195 77.27 196.955 77.27ZM221.477 60.47C222.737 60.47 223.877 60.73 224.897 61.25C225.917 61.75 226.717 62.53 227.297 63.59C227.897 64.65 228.197 66.02 228.197 67.7V77H222.497V68.63C222.497 67.47 222.257 66.63 221.777 66.11C221.317 65.57 220.667 65.3 219.827 65.3C219.227 65.3 218.677 65.44 218.177 65.72C217.677 65.98 217.287 66.39 217.007 66.95C216.727 67.51 216.587 68.24 216.587 69.14V77H210.887V60.74H216.317V65.36L215.267 64.01C215.887 62.83 216.737 61.95 217.817 61.37C218.897 60.77 220.117 60.47 221.477 60.47ZM231.775 77V60.74H237.475V77H231.775ZM234.625 58.94C233.585 58.94 232.745 58.65 232.105 58.07C231.465 57.49 231.145 56.77 231.145 55.91C231.145 55.05 231.465 54.33 232.105 53.75C232.745 53.17 233.585 52.88 234.625 52.88C235.665 52.88 236.505 53.16 237.145 53.72C237.785 54.26 238.105 54.96 238.105 55.82C238.105 56.72 237.785 57.47 237.145 58.07C236.525 58.65 235.685 58.94 234.625 58.94ZM249.49 77.27C247.69 77.27 246.08 76.91 244.66 76.19C243.26 75.47 242.16 74.48 241.36 73.22C240.56 71.94 240.16 70.48 240.16 68.84C240.16 67.2 240.56 65.75 241.36 64.49C242.16 63.23 243.26 62.25 244.66 61.55C246.08 60.83 247.69 60.47 249.49 60.47C251.33 60.47 252.92 60.86 254.26 61.64C255.6 62.42 256.55 63.52 257.11 64.94L252.7 67.19C252.32 66.43 251.85 65.88 251.29 65.54C250.73 65.18 250.12 65 249.46 65C248.8 65 248.2 65.15 247.66 65.45C247.12 65.75 246.69 66.19 246.37 66.77C246.07 67.33 245.92 68.02 245.92 68.84C245.92 69.68 246.07 70.39 246.37 70.97C246.69 71.55 247.12 71.99 247.66 72.29C248.2 72.59 248.8 72.74 249.46 72.74C250.12 72.74 250.73 72.57 251.29 72.23C251.85 71.87 252.32 71.31 252.7 70.55L257.11 72.8C256.55 74.22 255.6 75.32 254.26 76.1C252.92 76.88 251.33 77.27 249.49 77.27ZM269.186 77V73.97L268.796 73.22V67.64C268.796 66.74 268.516 66.05 267.956 65.57C267.416 65.07 266.546 64.82 265.346 64.82C264.566 64.82 263.776 64.95 262.976 65.21C262.176 65.45 261.496 65.79 260.936 66.23L259.016 62.36C259.936 61.76 261.036 61.3 262.316 60.98C263.616 60.64 264.906 60.47 266.186 60.47C268.826 60.47 270.866 61.08 272.306 62.3C273.766 63.5 274.496 65.39 274.496 67.97V77H269.186ZM264.386 77.27C263.086 77.27 261.986 77.05 261.086 76.61C260.186 76.17 259.496 75.57 259.016 74.81C258.556 74.05 258.326 73.2 258.326 72.26C258.326 71.26 258.576 70.4 259.076 69.68C259.596 68.94 260.386 68.38 261.446 68C262.506 67.6 263.876 67.4 265.556 67.4H269.396V70.37H266.336C265.416 70.37 264.766 70.52 264.386 70.82C264.026 71.12 263.846 71.52 263.846 72.02C263.846 72.52 264.036 72.92 264.416 73.22C264.796 73.52 265.316 73.67 265.976 73.67C266.596 73.67 267.156 73.52 267.656 73.22C268.176 72.9 268.556 72.42 268.796 71.78L269.576 73.88C269.276 75 268.686 75.85 267.806 76.43C266.946 76.99 265.806 77.27 264.386 77.27ZM277.254 77V73.64L286.374 63.14L287.334 64.97H277.464V60.74H291.954V64.07L282.804 74.6L281.844 72.74H292.254V77H277.254ZM294.764 77V60.74H300.464V77H294.764ZM297.614 58.94C296.574 58.94 295.734 58.65 295.094 58.07C294.454 57.49 294.134 56.77 294.134 55.91C294.134 55.05 294.454 54.33 295.094 53.75C295.734 53.17 296.574 52.88 297.614 52.88C298.654 52.88 299.494 53.16 300.134 53.72C300.774 54.26 301.094 54.96 301.094 55.82C301.094 56.72 300.774 57.47 300.134 58.07C299.514 58.65 298.674 58.94 297.614 58.94ZM312.328 77.27C310.548 77.27 308.968 76.91 307.588 76.19C306.208 75.47 305.118 74.48 304.318 73.22C303.538 71.94 303.148 70.48 303.148 68.84C303.148 67.2 303.538 65.75 304.318 64.49C305.118 63.23 306.208 62.25 307.588 61.55C308.968 60.83 310.548 60.47 312.328 60.47C314.108 60.47 315.688 60.83 317.068 61.55C318.468 62.25 319.558 63.23 320.338 64.49C321.118 65.75 321.508 67.2 321.508 68.84C321.508 70.48 321.118 71.94 320.338 73.22C319.558 74.48 318.468 75.47 317.068 76.19C315.688 76.91 314.108 77.27 312.328 77.27ZM312.328 72.74C312.988 72.74 313.568 72.59 314.068 72.29C314.588 71.99 314.998 71.55 315.298 70.97C315.598 70.37 315.748 69.66 315.748 68.84C315.748 68.02 315.598 67.33 315.298 66.77C314.998 66.19 314.588 65.75 314.068 65.45C313.568 65.15 312.988 65 312.328 65C311.688 65 311.108 65.15 310.588 65.45C310.088 65.75 309.678 66.19 309.358 66.77C309.058 67.33 308.908 68.02 308.908 68.84C308.908 69.66 309.058 70.37 309.358 70.97C309.678 71.55 310.088 71.99 310.588 72.29C311.108 72.59 311.688 72.74 312.328 72.74ZM334.738 60.47C335.998 60.47 337.138 60.73 338.158 61.25C339.178 61.75 339.978 62.53 340.558 63.59C341.158 64.65 341.458 66.02 341.458 67.7V77H335.758V68.63C335.758 67.47 335.518 66.63 335.038 66.11C334.578 65.57 333.928 65.3 333.088 65.3C332.488 65.3 331.938 65.44 331.438 65.72C330.938 65.98 330.548 66.39 330.268 66.95C329.988 67.51 329.848 68.24 329.848 69.14V77H324.148V60.74H329.578V65.36L328.528 64.01C329.148 62.83 329.998 61.95 331.078 61.37C332.158 60.77 333.378 60.47 334.738 60.47ZM353.762 77.27C351.842 77.27 350.162 76.91 348.722 76.19C347.302 75.45 346.192 74.45 345.392 73.19C344.612 71.91 344.222 70.46 344.222 68.84C344.222 67.22 344.602 65.78 345.362 64.52C346.142 63.24 347.212 62.25 348.572 61.55C349.932 60.83 351.462 60.47 353.162 60.47C354.762 60.47 356.222 60.8 357.542 61.46C358.862 62.1 359.912 63.05 360.692 64.31C361.472 65.57 361.862 67.1 361.862 68.9C361.862 69.1 361.852 69.33 361.832 69.59C361.812 69.85 361.792 70.09 361.772 70.31H348.902V67.31H358.742L356.582 68.15C356.602 67.41 356.462 66.77 356.162 66.23C355.882 65.69 355.482 65.27 354.962 64.97C354.462 64.67 353.872 64.52 353.192 64.52C352.512 64.52 351.912 64.67 351.392 64.97C350.892 65.27 350.502 65.7 350.222 66.26C349.942 66.8 349.802 67.44 349.802 68.18V69.05C349.802 69.85 349.962 70.54 350.282 71.12C350.622 71.7 351.102 72.15 351.722 72.47C352.342 72.77 353.082 72.92 353.942 72.92C354.742 72.92 355.422 72.81 355.982 72.59C356.562 72.35 357.132 71.99 357.692 71.51L360.692 74.63C359.912 75.49 358.952 76.15 357.812 76.61C356.672 77.05 355.322 77.27 353.762 77.27Z" fill="#4EC79F"/>
</svg>
