<svg width="411" height="450" viewBox="0 0 411 450" fill="none" xmlns="http://www.w3.org/2000/svg">
<rect y="7" width="406" height="443" rx="34" fill="#FF6474"/>
<rect x="9" width="401.693" height="441.392" rx="34" fill="white"/>
<path d="M35.58 77L44.85 56H50.7L60 77H53.82L46.56 58.91H48.9L41.64 77H35.58ZM40.65 72.92L42.18 68.54H52.44L53.97 72.92H40.65ZM61.414 77V60.74H66.844V65.48L66.034 64.13C66.514 62.91 67.294 62 68.374 61.4C69.454 60.78 70.764 60.47 72.304 60.47V65.6C72.044 65.56 71.814 65.54 71.614 65.54C71.434 65.52 71.234 65.51 71.014 65.51C69.854 65.51 68.914 65.83 68.194 66.47C67.474 67.09 67.114 68.11 67.114 69.53V77H61.414ZM83.0297 77.27C81.1097 77.27 79.4297 76.91 77.9897 76.19C76.5697 75.45 75.4597 74.45 74.6597 73.19C73.8797 71.91 73.4897 70.46 73.4897 68.84C73.4897 67.22 73.8697 65.78 74.6297 64.52C75.4097 63.24 76.4797 62.25 77.8397 61.55C79.1997 60.83 80.7297 60.47 82.4297 60.47C84.0297 60.47 85.4897 60.8 86.8097 61.46C88.1297 62.1 89.1797 63.05 89.9597 64.31C90.7397 65.57 91.1297 67.1 91.1297 68.9C91.1297 69.1 91.1197 69.33 91.0997 69.59C91.0797 69.85 91.0597 70.09 91.0397 70.31H78.1697V67.31H88.0097L85.8497 68.15C85.8697 67.41 85.7297 66.77 85.4297 66.23C85.1497 65.69 84.7497 65.27 84.2297 64.97C83.7297 64.67 83.1397 64.52 82.4597 64.52C81.7797 64.52 81.1797 64.67 80.6597 64.97C80.1597 65.27 79.7697 65.7 79.4897 66.26C79.2097 66.8 79.0697 67.44 79.0697 68.18V69.05C79.0697 69.85 79.2297 70.54 79.5497 71.12C79.8897 71.7 80.3697 72.15 80.9897 72.47C81.6097 72.77 82.3497 72.92 83.2097 72.92C84.0097 72.92 84.6897 72.81 85.2497 72.59C85.8297 72.35 86.3997 71.99 86.9597 71.51L89.9597 74.63C89.1797 75.49 88.2197 76.15 87.0797 76.61C85.9397 77.05 84.5897 77.27 83.0297 77.27ZM103.248 77V73.97L102.858 73.22V67.64C102.858 66.74 102.578 66.05 102.018 65.57C101.478 65.07 100.608 64.82 99.4083 64.82C98.6283 64.82 97.8383 64.95 97.0383 65.21C96.2383 65.45 95.5583 65.79 94.9983 66.23L93.0783 62.36C93.9983 61.76 95.0983 61.3 96.3783 60.98C97.6783 60.64 98.9683 60.47 100.248 60.47C102.888 60.47 104.928 61.08 106.368 62.3C107.828 63.5 108.558 65.39 108.558 67.97V77H103.248ZM98.4483 77.27C97.1483 77.27 96.0483 77.05 95.1483 76.61C94.2483 76.17 93.5583 75.57 93.0783 74.81C92.6183 74.05 92.3883 73.2 92.3883 72.26C92.3883 71.26 92.6383 70.4 93.1383 69.68C93.6583 68.94 94.4483 68.38 95.5083 68C96.5683 67.6 97.9383 67.4 99.6183 67.4H103.458V70.37H100.398C99.4783 70.37 98.8283 70.52 98.4483 70.82C98.0883 71.12 97.9083 71.52 97.9083 72.02C97.9083 72.52 98.0983 72.92 98.4783 73.22C98.8583 73.52 99.3783 73.67 100.038 73.67C100.658 73.67 101.218 73.52 101.718 73.22C102.238 72.9 102.618 72.42 102.858 71.78L103.638 73.88C103.338 75 102.748 75.85 101.868 76.43C101.008 76.99 99.8683 77.27 98.4483 77.27ZM129.407 77.27C127.487 77.27 125.807 76.91 124.367 76.19C122.947 75.45 121.837 74.45 121.037 73.19C120.257 71.91 119.867 70.46 119.867 68.84C119.867 67.22 120.247 65.78 121.007 64.52C121.787 63.24 122.857 62.25 124.217 61.55C125.577 60.83 127.107 60.47 128.807 60.47C130.407 60.47 131.867 60.8 133.187 61.46C134.507 62.1 135.557 63.05 136.337 64.31C137.117 65.57 137.507 67.1 137.507 68.9C137.507 69.1 137.497 69.33 137.477 69.59C137.457 69.85 137.437 70.09 137.417 70.31H124.547V67.31H134.387L132.227 68.15C132.247 67.41 132.107 66.77 131.807 66.23C131.527 65.69 131.127 65.27 130.607 64.97C130.107 64.67 129.517 64.52 128.837 64.52C128.157 64.52 127.557 64.67 127.037 64.97C126.537 65.27 126.147 65.7 125.867 66.26C125.587 66.8 125.447 67.44 125.447 68.18V69.05C125.447 69.85 125.607 70.54 125.927 71.12C126.267 71.7 126.747 72.15 127.367 72.47C127.987 72.77 128.727 72.92 129.587 72.92C130.387 72.92 131.067 72.81 131.627 72.59C132.207 72.35 132.777 71.99 133.337 71.51L136.337 74.63C135.557 75.49 134.597 76.15 133.457 76.61C132.317 77.05 130.967 77.27 129.407 77.27ZM144.372 77L137.682 60.74H143.532L148.872 74.33H145.932L151.542 60.74H156.972L150.252 77H144.372ZM166.526 77.27C164.606 77.27 162.926 76.91 161.486 76.19C160.066 75.45 158.956 74.45 158.156 73.19C157.376 71.91 156.986 70.46 156.986 68.84C156.986 67.22 157.366 65.78 158.126 64.52C158.906 63.24 159.976 62.25 161.336 61.55C162.696 60.83 164.226 60.47 165.926 60.47C167.526 60.47 168.986 60.8 170.306 61.46C171.626 62.1 172.676 63.05 173.456 64.31C174.236 65.57 174.626 67.1 174.626 68.9C174.626 69.1 174.616 69.33 174.596 69.59C174.576 69.85 174.556 70.09 174.536 70.31H161.666V67.31H171.506L169.346 68.15C169.366 67.41 169.226 66.77 168.926 66.23C168.646 65.69 168.246 65.27 167.726 64.97C167.226 64.67 166.636 64.52 165.956 64.52C165.276 64.52 164.676 64.67 164.156 64.97C163.656 65.27 163.266 65.7 162.986 66.26C162.706 66.8 162.566 67.44 162.566 68.18V69.05C162.566 69.85 162.726 70.54 163.046 71.12C163.386 71.7 163.866 72.15 164.486 72.47C165.106 72.77 165.846 72.92 166.706 72.92C167.506 72.92 168.186 72.81 168.746 72.59C169.326 72.35 169.896 71.99 170.456 71.51L173.456 74.63C172.676 75.49 171.716 76.15 170.576 76.61C169.436 77.05 168.086 77.27 166.526 77.27ZM187.844 60.47C189.104 60.47 190.244 60.73 191.264 61.25C192.284 61.75 193.084 62.53 193.664 63.59C194.264 64.65 194.564 66.02 194.564 67.7V77H188.864V68.63C188.864 67.47 188.624 66.63 188.144 66.11C187.684 65.57 187.034 65.3 186.194 65.3C185.594 65.3 185.044 65.44 184.544 65.72C184.044 65.98 183.654 66.39 183.374 66.95C183.094 67.51 182.954 68.24 182.954 69.14V77H177.254V60.74H182.684V65.36L181.634 64.01C182.254 62.83 183.104 61.95 184.184 61.37C185.264 60.77 186.484 60.47 187.844 60.47ZM205.403 77.27C203.323 77.27 201.703 76.76 200.543 75.74C199.383 74.7 198.803 73.14 198.803 71.06V57.11H204.503V71C204.503 71.58 204.663 72.04 204.983 72.38C205.303 72.7 205.713 72.86 206.213 72.86C206.893 72.86 207.473 72.69 207.953 72.35L209.363 76.34C208.883 76.66 208.293 76.89 207.593 77.03C206.893 77.19 206.163 77.27 205.403 77.27ZM196.433 65.6V61.34H208.223V65.6H196.433ZM211.56 77V60.74H217.26V77H211.56ZM214.41 58.94C213.37 58.94 212.53 58.65 211.89 58.07C211.25 57.49 210.93 56.77 210.93 55.91C210.93 55.05 211.25 54.33 211.89 53.75C212.53 53.17 213.37 52.88 214.41 52.88C215.45 52.88 216.29 53.16 216.93 53.72C217.57 54.26 217.89 54.96 217.89 55.82C217.89 56.72 217.57 57.47 216.93 58.07C216.31 58.65 215.47 58.94 214.41 58.94Z" fill="#4EC79F"/>
</svg>
