<svg width="56" height="23" viewBox="0 0 56 23" fill="none" xmlns="http://www.w3.org/2000/svg">
<path d="M5.3959 8.175H13.4709V12H5.3959V8.175ZM5.7459 18H0.795898V0.499999H14.5209V4.325H5.7459V18ZM14.0523 18L21.7773 0.499999H26.6523L34.4023 18H29.2523L23.2023 2.925H25.1523L19.1023 18H14.0523ZM18.2773 14.6L19.5523 10.95H28.1023L29.3773 14.6H18.2773ZM44.3865 18.35C42.9865 18.35 41.6949 18.125 40.5115 17.675C39.3282 17.225 38.2949 16.5917 37.4115 15.775C36.5449 14.9417 35.8699 13.975 35.3865 12.875C34.9032 11.775 34.6615 10.5667 34.6615 9.25C34.6615 7.93333 34.9032 6.725 35.3865 5.625C35.8699 4.525 36.5449 3.56667 37.4115 2.75C38.2949 1.91667 39.3282 1.275 40.5115 0.824999C41.6949 0.374999 42.9865 0.149999 44.3865 0.149999C45.8032 0.149999 47.0949 0.374999 48.2615 0.824999C49.4449 1.275 50.4699 1.90833 51.3365 2.725C52.2032 3.54167 52.8782 4.50833 53.3615 5.625C53.8615 6.725 54.1115 7.93333 54.1115 9.25C54.1115 10.5667 53.8615 11.7833 53.3615 12.9C52.8782 14 52.2032 14.9583 51.3365 15.775C50.4699 16.5917 49.4449 17.225 48.2615 17.675C47.0949 18.125 45.8032 18.35 44.3865 18.35ZM50.1115 22.225C49.3615 22.225 48.6615 22.1417 48.0115 21.975C47.3615 21.825 46.7199 21.575 46.0865 21.225C45.4699 20.875 44.8199 20.4 44.1365 19.8C43.4699 19.2 42.7199 18.4583 41.8865 17.575L47.0615 16.275C47.4782 16.8917 47.8532 17.375 48.1865 17.725C48.5199 18.075 48.8449 18.325 49.1615 18.475C49.4949 18.625 49.8449 18.7 50.2115 18.7C51.1782 18.7 52.0615 18.2917 52.8615 17.475L55.0115 20.025C53.7949 21.4917 52.1615 22.225 50.1115 22.225ZM44.3865 14.25C45.0532 14.25 45.6699 14.1333 46.2365 13.9C46.8199 13.6667 47.3199 13.3333 47.7365 12.9C48.1699 12.45 48.5032 11.9167 48.7365 11.3C48.9865 10.6833 49.1115 10 49.1115 9.25C49.1115 8.48333 48.9865 7.8 48.7365 7.2C48.5032 6.58333 48.1699 6.05833 47.7365 5.625C47.3199 5.175 46.8199 4.83333 46.2365 4.6C45.6699 4.36667 45.0532 4.25 44.3865 4.25C43.7199 4.25 43.0949 4.36667 42.5115 4.6C41.9449 4.83333 41.4449 5.175 41.0115 5.625C40.5949 6.05833 40.2615 6.58333 40.0115 7.2C39.7782 7.8 39.6615 8.48333 39.6615 9.25C39.6615 10 39.7782 10.6833 40.0115 11.3C40.2615 11.9167 40.5949 12.45 41.0115 12.9C41.4449 13.3333 41.9449 13.6667 42.5115 13.9C43.0949 14.1333 43.7199 14.25 44.3865 14.25Z" fill="#FF6474"/>
</svg>
