<svg width="411" height="450" viewBox="0 0 411 450" fill="none" xmlns="http://www.w3.org/2000/svg">
<rect y="7" width="406" height="443" rx="34" fill="#FF6474"/>
<rect x="9" width="401.693" height="441.392" rx="34" fill="white"/>
<path d="M35.58 77L44.85 56H50.7L60 77H53.82L46.56 58.91H48.9L41.64 77H35.58ZM40.65 72.92L42.18 68.54H52.44L53.97 72.92H40.65ZM61.414 77V60.74H66.844V65.48L66.034 64.13C66.514 62.91 67.294 62 68.374 61.4C69.454 60.78 70.764 60.47 72.304 60.47V65.6C72.044 65.56 71.814 65.54 71.614 65.54C71.434 65.52 71.234 65.51 71.014 65.51C69.854 65.51 68.914 65.83 68.194 66.47C67.474 67.09 67.114 68.11 67.114 69.53V77H61.414ZM83.0297 77.27C81.1097 77.27 79.4297 76.91 77.9897 76.19C76.5697 75.45 75.4597 74.45 74.6597 73.19C73.8797 71.91 73.4897 70.46 73.4897 68.84C73.4897 67.22 73.8697 65.78 74.6297 64.52C75.4097 63.24 76.4797 62.25 77.8397 61.55C79.1997 60.83 80.7297 60.47 82.4297 60.47C84.0297 60.47 85.4897 60.8 86.8097 61.46C88.1297 62.1 89.1797 63.05 89.9597 64.31C90.7397 65.57 91.1297 67.1 91.1297 68.9C91.1297 69.1 91.1197 69.33 91.0997 69.59C91.0797 69.85 91.0597 70.09 91.0397 70.31H78.1697V67.31H88.0097L85.8497 68.15C85.8697 67.41 85.7297 66.77 85.4297 66.23C85.1497 65.69 84.7497 65.27 84.2297 64.97C83.7297 64.67 83.1397 64.52 82.4597 64.52C81.7797 64.52 81.1797 64.67 80.6597 64.97C80.1597 65.27 79.7697 65.7 79.4897 66.26C79.2097 66.8 79.0697 67.44 79.0697 68.18V69.05C79.0697 69.85 79.2297 70.54 79.5497 71.12C79.8897 71.7 80.3697 72.15 80.9897 72.47C81.6097 72.77 82.3497 72.92 83.2097 72.92C84.0097 72.92 84.6897 72.81 85.2497 72.59C85.8297 72.35 86.3997 71.99 86.9597 71.51L89.9597 74.63C89.1797 75.49 88.2197 76.15 87.0797 76.61C85.9397 77.05 84.5897 77.27 83.0297 77.27ZM103.248 77V73.97L102.858 73.22V67.64C102.858 66.74 102.578 66.05 102.018 65.57C101.478 65.07 100.608 64.82 99.4083 64.82C98.6283 64.82 97.8383 64.95 97.0383 65.21C96.2383 65.45 95.5583 65.79 94.9983 66.23L93.0783 62.36C93.9983 61.76 95.0983 61.3 96.3783 60.98C97.6783 60.64 98.9683 60.47 100.248 60.47C102.888 60.47 104.928 61.08 106.368 62.3C107.828 63.5 108.558 65.39 108.558 67.97V77H103.248ZM98.4483 77.27C97.1483 77.27 96.0483 77.05 95.1483 76.61C94.2483 76.17 93.5583 75.57 93.0783 74.81C92.6183 74.05 92.3883 73.2 92.3883 72.26C92.3883 71.26 92.6383 70.4 93.1383 69.68C93.6583 68.94 94.4483 68.38 95.5083 68C96.5683 67.6 97.9383 67.4 99.6183 67.4H103.458V70.37H100.398C99.4783 70.37 98.8283 70.52 98.4483 70.82C98.0883 71.12 97.9083 71.52 97.9083 72.02C97.9083 72.52 98.0983 72.92 98.4783 73.22C98.8583 73.52 99.3783 73.67 100.038 73.67C100.658 73.67 101.218 73.52 101.718 73.22C102.238 72.9 102.618 72.42 102.858 71.78L103.638 73.88C103.338 75 102.748 75.85 101.868 76.43C101.008 76.99 99.8683 77.27 98.4483 77.27ZM135.197 56H141.137V77H135.197V56ZM127.097 77H121.157V56H127.097V77ZM135.617 68.81H126.677V63.89H135.617V68.81ZM145.327 77V56H154.927C156.847 56 158.497 56.31 159.877 56.93C161.277 57.55 162.357 58.45 163.117 59.63C163.877 60.79 164.257 62.17 164.257 63.77C164.257 65.35 163.877 66.72 163.117 67.88C162.357 69.02 161.277 69.9 159.877 70.52C158.497 71.12 156.847 71.42 154.927 71.42H148.627L151.267 68.93V77H145.327ZM158.317 77L153.097 69.35H159.427L164.677 77H158.317ZM151.267 69.56L148.627 66.83H154.567C155.807 66.83 156.727 66.56 157.327 66.02C157.947 65.48 158.257 64.73 158.257 63.77C158.257 62.79 157.947 62.03 157.327 61.49C156.727 60.95 155.807 60.68 154.567 60.68H148.627L151.267 57.95V69.56Z" fill="#4EC79F"/>
</svg>
