<svg width="147" height="16" viewBox="0 0 147 16" fill="none" xmlns="http://www.w3.org/2000/svg">
<path d="M0.0835938 15V0.999999H4.04359V15H0.0835938ZM6.68094 15V0.159999H10.4809V15H6.68094ZM25.8308 3.98C26.6708 3.98 27.4308 4.15333 28.1108 4.5C28.7908 4.83333 29.3241 5.35333 29.7108 6.06C30.1108 6.76667 30.3108 7.68 30.3108 8.8V15H26.5108V9.42C26.5108 8.64667 26.3508 8.08667 26.0308 7.74C25.7241 7.38 25.2908 7.2 24.7308 7.2C24.3308 7.2 23.9641 7.29333 23.6308 7.48C23.2974 7.65333 23.0374 7.92667 22.8508 8.3C22.6641 8.67333 22.5708 9.16 22.5708 9.76V15H18.7708V4.16H22.3908V7.24L21.6908 6.34C22.1041 5.55333 22.6708 4.96667 23.3908 4.58C24.1108 4.18 24.9241 3.98 25.8308 3.98ZM38.2733 15.18C37.0866 15.18 36.0333 14.94 35.1133 14.46C34.1933 13.98 33.4666 13.32 32.9333 12.48C32.4133 11.6267 32.1533 10.6533 32.1533 9.56C32.1533 8.46667 32.4133 7.5 32.9333 6.66C33.4666 5.82 34.1933 5.16667 35.1133 4.7C36.0333 4.22 37.0866 3.98 38.2733 3.98C39.4599 3.98 40.5133 4.22 41.4333 4.7C42.3666 5.16667 43.0933 5.82 43.6133 6.66C44.1333 7.5 44.3933 8.46667 44.3933 9.56C44.3933 10.6533 44.1333 11.6267 43.6133 12.48C43.0933 13.32 42.3666 13.98 41.4333 14.46C40.5133 14.94 39.4599 15.18 38.2733 15.18ZM38.2733 12.16C38.7133 12.16 39.0999 12.06 39.4333 11.86C39.7799 11.66 40.0533 11.3667 40.2533 10.98C40.4533 10.58 40.5533 10.1067 40.5533 9.56C40.5533 9.01333 40.4533 8.55333 40.2533 8.18C40.0533 7.79333 39.7799 7.5 39.4333 7.3C39.0999 7.1 38.7133 7 38.2733 7C37.8466 7 37.4599 7.1 37.1133 7.3C36.7799 7.5 36.5066 7.79333 36.2933 8.18C36.0933 8.55333 35.9933 9.01333 35.9933 9.56C35.9933 10.1067 36.0933 10.58 36.2933 10.98C36.5066 11.3667 36.7799 11.66 37.1133 11.86C37.4599 12.06 37.8466 12.16 38.2733 12.16ZM50.0936 15.18C49.1736 15.18 48.2736 15.0733 47.3936 14.86C46.5269 14.6467 45.8269 14.38 45.2936 14.06L46.4336 11.46C46.9403 11.7667 47.5336 12.0133 48.2136 12.2C48.8936 12.3733 49.5603 12.46 50.2136 12.46C50.8536 12.46 51.2936 12.3933 51.5336 12.26C51.7869 12.1267 51.9136 11.9467 51.9136 11.72C51.9136 11.5067 51.7936 11.3533 51.5536 11.26C51.3269 11.1533 51.0203 11.0733 50.6336 11.02C50.2603 10.9667 49.8469 10.9067 49.3936 10.84C48.9403 10.7733 48.4803 10.6867 48.0136 10.58C47.5603 10.46 47.1403 10.2867 46.7536 10.06C46.3803 9.82 46.0803 9.5 45.8536 9.1C45.6269 8.7 45.5136 8.19333 45.5136 7.58C45.5136 6.88667 45.7136 6.27333 46.1136 5.74C46.5269 5.19333 47.1269 4.76667 47.9136 4.46C48.7003 4.14 49.6603 3.98 50.7936 3.98C51.5536 3.98 52.3203 4.06 53.0936 4.22C53.8803 4.36667 54.5403 4.59333 55.0736 4.9L53.9336 7.48C53.4003 7.17333 52.8669 6.96667 52.3336 6.86C51.8003 6.74 51.2936 6.68 50.8136 6.68C50.1736 6.68 49.7203 6.75333 49.4536 6.9C49.2003 7.04667 49.0736 7.22667 49.0736 7.44C49.0736 7.65333 49.1869 7.82 49.4136 7.94C49.6403 8.04667 49.9403 8.13333 50.3136 8.2C50.7003 8.25333 51.1203 8.31333 51.5736 8.38C52.0269 8.43333 52.4803 8.52 52.9336 8.64C53.4003 8.76 53.8203 8.94 54.1936 9.18C54.5803 9.40667 54.8869 9.72 55.1136 10.12C55.3403 10.5067 55.4536 11.0067 55.4536 11.62C55.4536 12.2867 55.2469 12.8867 54.8336 13.42C54.4336 13.9533 53.8336 14.38 53.0336 14.7C52.2469 15.02 51.2669 15.18 50.0936 15.18ZM61.9311 15.18C60.5444 15.18 59.4644 14.84 58.6911 14.16C57.9178 13.4667 57.5311 12.4267 57.5311 11.04V1.74H61.3311V11C61.3311 11.3867 61.4378 11.6933 61.6511 11.92C61.8644 12.1333 62.1378 12.24 62.4711 12.24C62.9244 12.24 63.3111 12.1267 63.6311 11.9L64.5711 14.56C64.2511 14.7733 63.8578 14.9267 63.3911 15.02C62.9244 15.1267 62.4378 15.18 61.9311 15.18ZM55.9511 7.4V4.56H63.8111V7.4H55.9511ZM66.0364 15V4.16H69.6564V7.32L69.1164 6.42C69.4364 5.60667 69.9564 5 70.6764 4.6C71.3964 4.18667 72.2697 3.98 73.2964 3.98V7.4C73.1231 7.37333 72.9697 7.36 72.8364 7.36C72.7164 7.34667 72.5831 7.34 72.4364 7.34C71.6631 7.34 71.0364 7.55333 70.5564 7.98C70.0764 8.39333 69.8364 9.07333 69.8364 10.02V15H66.0364ZM80.2069 15.18C79.0202 15.18 77.9669 14.94 77.0469 14.46C76.1269 13.98 75.4002 13.32 74.8669 12.48C74.3469 11.6267 74.0869 10.6533 74.0869 9.56C74.0869 8.46667 74.3469 7.5 74.8669 6.66C75.4002 5.82 76.1269 5.16667 77.0469 4.7C77.9669 4.22 79.0202 3.98 80.2069 3.98C81.3935 3.98 82.4469 4.22 83.3669 4.7C84.3002 5.16667 85.0269 5.82 85.5469 6.66C86.0669 7.5 86.3269 8.46667 86.3269 9.56C86.3269 10.6533 86.0669 11.6267 85.5469 12.48C85.0269 13.32 84.3002 13.98 83.3669 14.46C82.4469 14.94 81.3935 15.18 80.2069 15.18ZM80.2069 12.16C80.6469 12.16 81.0335 12.06 81.3669 11.86C81.7135 11.66 81.9869 11.3667 82.1869 10.98C82.3869 10.58 82.4869 10.1067 82.4869 9.56C82.4869 9.01333 82.3869 8.55333 82.1869 8.18C81.9869 7.79333 81.7135 7.5 81.3669 7.3C81.0335 7.1 80.6469 7 80.2069 7C79.7802 7 79.3935 7.1 79.0469 7.3C78.7135 7.5 78.4402 7.79333 78.2269 8.18C78.0269 8.55333 77.9269 9.01333 77.9269 9.56C77.9269 10.1067 78.0269 10.58 78.2269 10.98C78.4402 11.3667 78.7135 11.66 79.0469 11.86C79.3935 12.06 79.7802 12.16 80.2069 12.16ZM98.7475 15.18C97.3608 15.18 96.2808 14.84 95.5075 14.16C94.7342 13.4667 94.3475 12.4267 94.3475 11.04V1.74H98.1475V11C98.1475 11.3867 98.2542 11.6933 98.4675 11.92C98.6808 12.1333 98.9542 12.24 99.2875 12.24C99.7408 12.24 100.128 12.1267 100.448 11.9L101.388 14.56C101.068 14.7733 100.674 14.9267 100.208 15.02C99.7408 15.1267 99.2542 15.18 98.7475 15.18ZM92.7675 7.4V4.56H100.628V7.4H92.7675ZM108.22 15.18C106.94 15.18 105.82 14.94 104.86 14.46C103.914 13.9667 103.174 13.3 102.64 12.46C102.12 11.6067 101.86 10.64 101.86 9.56C101.86 8.48 102.114 7.52 102.62 6.68C103.14 5.82667 103.854 5.16667 104.76 4.7C105.667 4.22 106.687 3.98 107.82 3.98C108.887 3.98 109.86 4.2 110.74 4.64C111.62 5.06667 112.32 5.7 112.84 6.54C113.36 7.38 113.62 8.4 113.62 9.6C113.62 9.73333 113.614 9.88667 113.6 10.06C113.587 10.2333 113.574 10.3933 113.56 10.54H104.98V8.54H111.54L110.1 9.1C110.114 8.60667 110.02 8.18 109.82 7.82C109.634 7.46 109.367 7.18 109.02 6.98C108.687 6.78 108.294 6.68 107.84 6.68C107.387 6.68 106.987 6.78 106.64 6.98C106.307 7.18 106.047 7.46667 105.86 7.84C105.674 8.2 105.58 8.62667 105.58 9.12V9.7C105.58 10.2333 105.687 10.6933 105.9 11.08C106.127 11.4667 106.447 11.7667 106.86 11.98C107.274 12.18 107.767 12.28 108.34 12.28C108.874 12.28 109.327 12.2067 109.7 12.06C110.087 11.9 110.467 11.66 110.84 11.34L112.84 13.42C112.32 13.9933 111.68 14.4333 110.92 14.74C110.16 15.0333 109.26 15.18 108.22 15.18ZM121.699 15V12.98L121.439 12.48V8.76C121.439 8.16 121.253 7.7 120.879 7.38C120.519 7.04667 119.939 6.88 119.139 6.88C118.619 6.88 118.093 6.96667 117.559 7.14C117.026 7.3 116.573 7.52667 116.199 7.82L114.919 5.24C115.533 4.84 116.266 4.53333 117.119 4.32C117.986 4.09333 118.846 3.98 119.699 3.98C121.459 3.98 122.819 4.38667 123.779 5.2C124.753 6 125.239 7.26 125.239 8.98V15H121.699ZM118.499 15.18C117.633 15.18 116.899 15.0333 116.299 14.74C115.699 14.4467 115.239 14.0467 114.919 13.54C114.613 13.0333 114.459 12.4667 114.459 11.84C114.459 11.1733 114.626 10.6 114.959 10.12C115.306 9.62667 115.833 9.25333 116.539 9C117.246 8.73333 118.159 8.6 119.279 8.6H121.839V10.58H119.799C119.186 10.58 118.753 10.68 118.499 10.88C118.259 11.08 118.139 11.3467 118.139 11.68C118.139 12.0133 118.266 12.28 118.519 12.48C118.773 12.68 119.119 12.78 119.559 12.78C119.973 12.78 120.346 12.68 120.679 12.48C121.026 12.2667 121.279 11.9467 121.439 11.52L121.959 12.92C121.759 13.6667 121.366 14.2333 120.779 14.62C120.206 14.9933 119.446 15.18 118.499 15.18ZM141.758 3.98C142.598 3.98 143.345 4.15333 143.998 4.5C144.665 4.83333 145.185 5.35333 145.558 6.06C145.945 6.76667 146.138 7.68 146.138 8.8V15H142.338V9.42C142.338 8.64667 142.191 8.08667 141.898 7.74C141.605 7.38 141.205 7.2 140.698 7.2C140.338 7.2 140.011 7.28667 139.718 7.46C139.425 7.63333 139.198 7.9 139.038 8.26C138.878 8.60667 138.798 9.06 138.798 9.62V15H134.998V9.42C134.998 8.64667 134.851 8.08667 134.558 7.74C134.278 7.38 133.878 7.2 133.358 7.2C132.985 7.2 132.651 7.28667 132.358 7.46C132.078 7.63333 131.851 7.9 131.678 8.26C131.518 8.60667 131.438 9.06 131.438 9.62V15H127.638V4.16H131.258V7.18L130.538 6.32C130.938 5.54667 131.485 4.96667 132.178 4.58C132.871 4.18 133.645 3.98 134.498 3.98C135.471 3.98 136.325 4.23333 137.058 4.74C137.805 5.23333 138.305 6.00667 138.558 7.06L137.318 6.8C137.705 5.92 138.285 5.23333 139.058 4.74C139.845 4.23333 140.745 3.98 141.758 3.98Z" fill="black"/>
</svg>
