<svg width="896" height="138" viewBox="0 0 896 138" fill="none" xmlns="http://www.w3.org/2000/svg">
<path d="M3.85 53V14.5H23.54C28.6 14.5 32.3767 15.435 34.87 17.305C37.3633 19.1383 38.61 21.5583 38.61 24.565C38.61 26.545 38.0783 28.2867 37.015 29.79C35.9883 31.2567 34.5217 32.43 32.615 33.31C30.745 34.1533 28.5083 34.575 25.905 34.575L27.005 31.935C29.7183 31.935 32.0833 32.3567 34.1 33.2C36.1167 34.0067 37.675 35.1983 38.775 36.775C39.9117 38.315 40.48 40.2033 40.48 42.44C40.48 45.7767 39.1233 48.38 36.41 50.25C33.7333 52.0833 29.81 53 24.64 53H3.85ZM14.63 45.135H23.76C25.63 45.135 27.0417 44.8233 27.995 44.2C28.985 43.54 29.48 42.55 29.48 41.23C29.48 39.91 28.985 38.9383 27.995 38.315C27.0417 37.655 25.63 37.325 23.76 37.325H13.86V29.79H22.11C23.9433 29.79 25.3183 29.4783 26.235 28.855C27.1517 28.2317 27.61 27.2967 27.61 26.05C27.61 24.8033 27.1517 23.8867 26.235 23.3C25.3183 22.6767 23.9433 22.365 22.11 22.365H14.63V45.135ZM61.2455 53.495C57.7255 53.495 54.6455 52.835 52.0055 51.515C49.4022 50.1583 47.3672 48.325 45.9005 46.015C44.4705 43.6683 43.7555 41.01 43.7555 38.04C43.7555 35.07 44.4522 32.43 45.8455 30.12C47.2755 27.7733 49.2372 25.9583 51.7305 24.675C54.2238 23.355 57.0288 22.695 60.1455 22.695C63.0788 22.695 65.7555 23.3 68.1755 24.51C70.5955 25.6833 72.5205 27.425 73.9505 29.735C75.3805 32.045 76.0955 34.85 76.0955 38.15C76.0955 38.5167 76.0772 38.9383 76.0405 39.415C76.0038 39.8917 75.9672 40.3317 75.9305 40.735H52.3355V35.235H70.3755L66.4155 36.775C66.4522 35.4183 66.1955 34.245 65.6455 33.255C65.1322 32.265 64.3988 31.495 63.4455 30.945C62.5288 30.395 61.4472 30.12 60.2005 30.12C58.9538 30.12 57.8538 30.395 56.9005 30.945C55.9838 31.495 55.2688 32.2833 54.7555 33.31C54.2422 34.3 53.9855 35.4733 53.9855 36.83V38.425C53.9855 39.8917 54.2788 41.1567 54.8655 42.22C55.4888 43.2833 56.3688 44.1083 57.5055 44.695C58.6422 45.245 59.9988 45.52 61.5755 45.52C63.0422 45.52 64.2888 45.3183 65.3155 44.915C66.3788 44.475 67.4238 43.815 68.4505 42.935L73.9505 48.655C72.5205 50.2317 70.7605 51.4417 68.6705 52.285C66.5805 53.0917 64.1055 53.495 61.2455 53.495ZM100.329 22.695C102.639 22.695 104.729 23.1717 106.599 24.125C108.469 25.0417 109.935 26.4717 110.999 28.415C112.099 30.3583 112.649 32.87 112.649 35.95V53H102.199V37.655C102.199 35.5283 101.759 33.9883 100.879 33.035C100.035 32.045 98.8436 31.55 97.3036 31.55C96.2036 31.55 95.1953 31.8067 94.2786 32.32C93.3619 32.7967 92.6469 33.5483 92.1336 34.575C91.6203 35.6017 91.3636 36.94 91.3636 38.59V53H80.9136V23.19H90.8686V31.66L88.9436 29.185C90.0803 27.0217 91.6386 25.4083 93.6186 24.345C95.5986 23.245 97.8353 22.695 100.329 22.695ZM126.977 53L114.712 23.19H125.437L135.227 48.105H129.837L140.122 23.19H150.077L137.757 53H126.977ZM167.593 53.495C164.073 53.495 160.993 52.835 158.353 51.515C155.75 50.1583 153.715 48.325 152.248 46.015C150.818 43.6683 150.103 41.01 150.103 38.04C150.103 35.07 150.8 32.43 152.193 30.12C153.623 27.7733 155.585 25.9583 158.078 24.675C160.571 23.355 163.376 22.695 166.493 22.695C169.426 22.695 172.103 23.3 174.523 24.51C176.943 25.6833 178.868 27.425 180.298 29.735C181.728 32.045 182.443 34.85 182.443 38.15C182.443 38.5167 182.425 38.9383 182.388 39.415C182.351 39.8917 182.315 40.3317 182.278 40.735H158.683V35.235H176.723L172.763 36.775C172.8 35.4183 172.543 34.245 171.993 33.255C171.48 32.265 170.746 31.495 169.793 30.945C168.876 30.395 167.795 30.12 166.548 30.12C165.301 30.12 164.201 30.395 163.248 30.945C162.331 31.495 161.616 32.2833 161.103 33.31C160.59 34.3 160.333 35.4733 160.333 36.83V38.425C160.333 39.8917 160.626 41.1567 161.213 42.22C161.836 43.2833 162.716 44.1083 163.853 44.695C164.99 45.245 166.346 45.52 167.923 45.52C169.39 45.52 170.636 45.3183 171.663 44.915C172.726 44.475 173.771 43.815 174.798 42.935L180.298 48.655C178.868 50.2317 177.108 51.4417 175.018 52.285C172.928 53.0917 170.453 53.495 167.593 53.495ZM206.676 22.695C208.986 22.695 211.076 23.1717 212.946 24.125C214.816 25.0417 216.283 26.4717 217.346 28.415C218.446 30.3583 218.996 32.87 218.996 35.95V53H208.546V37.655C208.546 35.5283 208.106 33.9883 207.226 33.035C206.383 32.045 205.191 31.55 203.651 31.55C202.551 31.55 201.543 31.8067 200.626 32.32C199.71 32.7967 198.995 33.5483 198.481 34.575C197.968 35.6017 197.711 36.94 197.711 38.59V53H187.261V23.19H197.216V31.66L195.291 29.185C196.428 27.0217 197.986 25.4083 199.966 24.345C201.946 23.245 204.183 22.695 206.676 22.695ZM238.097 53.495C235.677 53.495 233.495 53.0183 231.552 52.065C229.645 51.1117 228.142 49.6267 227.042 47.61C225.979 45.5567 225.447 42.9717 225.447 39.855V23.19H235.897V38.15C235.897 40.46 236.319 42.11 237.162 43.1C238.042 44.09 239.27 44.585 240.847 44.585C241.874 44.585 242.809 44.3467 243.652 43.87C244.495 43.3933 245.174 42.6417 245.687 41.615C246.2 40.5517 246.457 39.195 246.457 37.545V23.19H256.907V53H246.952V44.585L248.877 46.95C247.85 49.15 246.365 50.8 244.422 51.9C242.479 52.9633 240.37 53.495 238.097 53.495ZM276.948 53.495C273.135 53.495 270.165 52.56 268.038 50.69C265.912 48.7833 264.848 45.9233 264.848 42.11V16.535H275.298V42C275.298 43.0633 275.592 43.9067 276.178 44.53C276.765 45.1167 277.517 45.41 278.433 45.41C279.68 45.41 280.743 45.0983 281.623 44.475L284.208 51.79C283.328 52.3767 282.247 52.7983 280.963 53.055C279.68 53.3483 278.342 53.495 276.948 53.495ZM260.503 32.1V24.29H282.118V32.1H260.503ZM302.338 53.495C299.075 53.495 296.178 52.835 293.648 51.515C291.118 50.195 289.12 48.38 287.653 46.07C286.223 43.7233 285.508 41.0467 285.508 38.04C285.508 35.0333 286.223 32.375 287.653 30.065C289.12 27.755 291.118 25.9583 293.648 24.675C296.178 23.355 299.075 22.695 302.338 22.695C305.602 22.695 308.498 23.355 311.028 24.675C313.595 25.9583 315.593 27.755 317.023 30.065C318.453 32.375 319.168 35.0333 319.168 38.04C319.168 41.0467 318.453 43.7233 317.023 46.07C315.593 48.38 313.595 50.195 311.028 51.515C308.498 52.835 305.602 53.495 302.338 53.495ZM302.338 45.19C303.548 45.19 304.612 44.915 305.528 44.365C306.482 43.815 307.233 43.0083 307.783 41.945C308.333 40.845 308.608 39.5433 308.608 38.04C308.608 36.5367 308.333 35.2717 307.783 34.245C307.233 33.1817 306.482 32.375 305.528 31.825C304.612 31.275 303.548 31 302.338 31C301.165 31 300.102 31.275 299.148 31.825C298.232 32.375 297.48 33.1817 296.893 34.245C296.343 35.2717 296.068 36.5367 296.068 38.04C296.068 39.5433 296.343 40.845 296.893 41.945C297.48 43.0083 298.232 43.815 299.148 44.365C300.102 44.915 301.165 45.19 302.338 45.19ZM340.015 53V23.19H350.465V53H340.015ZM345.24 19.89C343.333 19.89 341.793 19.3583 340.62 18.295C339.447 17.2317 338.86 15.9117 338.86 14.335C338.86 12.7583 339.447 11.4383 340.62 10.375C341.793 9.31167 343.333 8.78 345.24 8.78C347.147 8.78 348.687 9.29333 349.86 10.32C351.033 11.31 351.62 12.5933 351.62 14.17C351.62 15.82 351.033 17.195 349.86 18.295C348.723 19.3583 347.183 19.89 345.24 19.89ZM376.671 22.695C378.981 22.695 381.071 23.1717 382.941 24.125C384.811 25.0417 386.278 26.4717 387.341 28.415C388.441 30.3583 388.991 32.87 388.991 35.95V53H378.541V37.655C378.541 35.5283 378.101 33.9883 377.221 33.035C376.378 32.045 375.186 31.55 373.646 31.55C372.546 31.55 371.538 31.8067 370.621 32.32C369.705 32.7967 368.99 33.5483 368.476 34.575C367.963 35.6017 367.706 36.94 367.706 38.59V53H357.256V23.19H367.211V31.66L365.286 29.185C366.423 27.0217 367.981 25.4083 369.961 24.345C371.941 23.245 374.178 22.695 376.671 22.695ZM425.583 53.77C422.43 53.77 419.386 53.385 416.453 52.615C413.556 51.8083 411.191 50.7817 409.358 49.535L412.933 41.505C414.656 42.605 416.636 43.5217 418.873 44.255C421.146 44.9517 423.401 45.3 425.638 45.3C427.141 45.3 428.351 45.1717 429.268 44.915C430.185 44.6217 430.845 44.255 431.248 43.815C431.688 43.3383 431.908 42.7883 431.908 42.165C431.908 41.285 431.505 40.5883 430.698 40.075C429.891 39.5617 428.846 39.14 427.563 38.81C426.28 38.48 424.85 38.15 423.273 37.82C421.733 37.49 420.175 37.0683 418.598 36.555C417.058 36.0417 415.646 35.3817 414.363 34.575C413.08 33.7317 412.035 32.65 411.228 31.33C410.421 29.9733 410.018 28.2683 410.018 26.215C410.018 23.905 410.641 21.815 411.888 19.945C413.171 18.075 415.078 16.5717 417.608 15.435C420.138 14.2983 423.291 13.73 427.068 13.73C429.598 13.73 432.073 14.0233 434.493 14.61C436.95 15.16 439.131 15.985 441.038 17.085L437.683 25.17C435.85 24.18 434.035 23.4467 432.238 22.97C430.441 22.4567 428.7 22.2 427.013 22.2C425.51 22.2 424.3 22.365 423.383 22.695C422.466 22.9883 421.806 23.3917 421.403 23.905C421 24.4183 420.798 25.005 420.798 25.665C420.798 26.5083 421.183 27.1867 421.953 27.7C422.76 28.1767 423.805 28.58 425.088 28.91C426.408 29.2033 427.838 29.515 429.378 29.845C430.955 30.175 432.513 30.5967 434.053 31.11C435.63 31.5867 437.06 32.2467 438.343 33.09C439.626 33.8967 440.653 34.9783 441.423 36.335C442.23 37.655 442.633 39.3233 442.633 41.34C442.633 43.5767 441.991 45.6483 440.708 47.555C439.461 49.425 437.573 50.9283 435.043 52.065C432.55 53.2017 429.396 53.77 425.583 53.77ZM460.478 53.495C456.665 53.495 453.695 52.56 451.568 50.69C449.442 48.7833 448.378 45.9233 448.378 42.11V16.535H458.828V42C458.828 43.0633 459.122 43.9067 459.708 44.53C460.295 45.1167 461.047 45.41 461.963 45.41C463.21 45.41 464.273 45.0983 465.153 44.475L467.738 51.79C466.858 52.3767 465.777 52.7983 464.493 53.055C463.21 53.3483 461.872 53.495 460.478 53.495ZM444.033 32.1V24.29H465.648V32.1H444.033ZM489.973 53V47.445L489.258 46.07V35.84C489.258 34.19 488.745 32.925 487.718 32.045C486.728 31.1283 485.133 30.67 482.933 30.67C481.503 30.67 480.055 30.9083 478.588 31.385C477.121 31.825 475.875 32.4483 474.848 33.255L471.328 26.16C473.015 25.06 475.031 24.2167 477.378 23.63C479.761 23.0067 482.126 22.695 484.473 22.695C489.313 22.695 493.053 23.8133 495.693 26.05C498.37 28.25 499.708 31.715 499.708 36.445V53H489.973ZM481.173 53.495C478.79 53.495 476.773 53.0917 475.123 52.285C473.473 51.4783 472.208 50.3783 471.328 48.985C470.485 47.5917 470.063 46.0333 470.063 44.31C470.063 42.4767 470.521 40.9 471.438 39.58C472.391 38.2233 473.84 37.1967 475.783 36.5C477.726 35.7667 480.238 35.4 483.318 35.4H490.358V40.845H484.748C483.061 40.845 481.87 41.12 481.173 41.67C480.513 42.22 480.183 42.9533 480.183 43.87C480.183 44.7867 480.531 45.52 481.228 46.07C481.925 46.62 482.878 46.895 484.088 46.895C485.225 46.895 486.251 46.62 487.168 46.07C488.121 45.4833 488.818 44.6033 489.258 43.43L490.688 47.28C490.138 49.3333 489.056 50.8917 487.443 51.955C485.866 52.9817 483.776 53.495 481.173 53.495ZM506.304 53V23.19H516.259V31.88L514.774 29.405C515.654 27.1683 517.084 25.5 519.064 24.4C521.044 23.2633 523.446 22.695 526.269 22.695V32.1C525.793 32.0267 525.371 31.99 525.004 31.99C524.674 31.9533 524.308 31.935 523.904 31.935C521.778 31.935 520.054 32.5217 518.734 33.695C517.414 34.8317 516.754 36.7017 516.754 39.305V53H506.304ZM544.805 53.495C540.991 53.495 538.021 52.56 535.895 50.69C533.768 48.7833 532.705 45.9233 532.705 42.11V16.535H543.155V42C543.155 43.0633 543.448 43.9067 544.035 44.53C544.621 45.1167 545.373 45.41 546.29 45.41C547.536 45.41 548.6 45.0983 549.48 44.475L552.065 51.79C551.185 52.3767 550.103 52.7983 548.82 53.055C547.536 53.3483 546.198 53.495 544.805 53.495ZM528.36 32.1V24.29H549.975V32.1H528.36ZM556.094 53V23.19H566.544V53H556.094ZM561.319 19.89C559.413 19.89 557.873 19.3583 556.699 18.295C555.526 17.2317 554.939 15.9117 554.939 14.335C554.939 12.7583 555.526 11.4383 556.699 10.375C557.873 9.31167 559.413 8.78 561.319 8.78C563.226 8.78 564.766 9.29333 565.939 10.32C567.113 11.31 567.699 12.5933 567.699 14.17C567.699 15.82 567.113 17.195 565.939 18.295C564.803 19.3583 563.263 19.89 561.319 19.89ZM592.75 22.695C595.06 22.695 597.15 23.1717 599.02 24.125C600.89 25.0417 602.357 26.4717 603.42 28.415C604.52 30.3583 605.07 32.87 605.07 35.95V53H594.62V37.655C594.62 35.5283 594.18 33.9883 593.3 33.035C592.457 32.045 591.265 31.55 589.725 31.55C588.625 31.55 587.617 31.8067 586.7 32.32C585.784 32.7967 585.069 33.5483 584.555 34.575C584.042 35.6017 583.785 36.94 583.785 38.59V53H573.335V23.19H583.29V31.66L581.365 29.185C582.502 27.0217 584.06 25.4083 586.04 24.345C588.02 23.245 590.257 22.695 592.75 22.695ZM626.582 64.165C623.722 64.165 620.991 63.835 618.387 63.175C615.821 62.515 613.621 61.5433 611.787 60.26L615.582 52.945C616.829 53.935 618.369 54.705 620.202 55.255C622.072 55.8417 623.887 56.135 625.647 56.135C628.471 56.135 630.506 55.5117 631.752 54.265C632.999 53.055 633.622 51.2767 633.622 48.93V45.41L634.172 37.05L634.117 28.635V23.19H644.072V47.555C644.072 53.2017 642.551 57.3817 639.507 60.095C636.464 62.8083 632.156 64.165 626.582 64.165ZM624.767 51.46C622.127 51.46 619.689 50.8733 617.452 49.7C615.252 48.49 613.474 46.8217 612.117 44.695C610.797 42.5317 610.137 39.9833 610.137 37.05C610.137 34.1167 610.797 31.5867 612.117 29.46C613.474 27.2967 615.252 25.6283 617.452 24.455C619.689 23.2817 622.127 22.695 624.767 22.695C627.297 22.695 629.461 23.2083 631.257 24.235C633.054 25.225 634.411 26.7833 635.327 28.91C636.281 31.0367 636.757 33.75 636.757 37.05C636.757 40.35 636.281 43.0633 635.327 45.19C634.411 47.3167 633.054 48.8933 631.257 49.92C629.461 50.9467 627.297 51.46 624.767 51.46ZM627.242 43.155C628.489 43.155 629.589 42.8983 630.542 42.385C631.532 41.8717 632.302 41.1567 632.852 40.24C633.439 39.3233 633.732 38.26 633.732 37.05C633.732 35.84 633.439 34.7767 632.852 33.86C632.302 32.9433 631.532 32.2467 630.542 31.77C629.589 31.2567 628.489 31 627.242 31C625.996 31 624.877 31.2567 623.887 31.77C622.897 32.2467 622.109 32.9433 621.522 33.86C620.972 34.7767 620.697 35.84 620.697 37.05C620.697 38.26 620.972 39.3233 621.522 40.24C622.109 41.1567 622.897 41.8717 623.887 42.385C624.877 42.8983 625.996 43.155 627.242 43.155ZM677.408 31.385H695.173V39.8H677.408V31.385ZM678.178 53H667.288V14.5H697.483V22.915H678.178V53ZM702.081 53V23.19H712.531V53H702.081ZM707.306 19.89C705.399 19.89 703.859 19.3583 702.686 18.295C701.512 17.2317 700.926 15.9117 700.926 14.335C700.926 12.7583 701.512 11.4383 702.686 10.375C703.859 9.31167 705.399 8.78 707.306 8.78C709.212 8.78 710.752 9.29333 711.926 10.32C713.099 11.31 713.686 12.5933 713.686 14.17C713.686 15.82 713.099 17.195 711.926 18.295C710.789 19.3583 709.249 19.89 707.306 19.89ZM738.737 22.695C741.047 22.695 743.137 23.1717 745.007 24.125C746.877 25.0417 748.343 26.4717 749.407 28.415C750.507 30.3583 751.057 32.87 751.057 35.95V53H740.607V37.655C740.607 35.5283 740.167 33.9883 739.287 33.035C738.443 32.045 737.252 31.55 735.712 31.55C734.612 31.55 733.603 31.8067 732.687 32.32C731.77 32.7967 731.055 33.5483 730.542 34.575C730.028 35.6017 729.772 36.94 729.772 38.59V53H719.322V23.19H729.277V31.66L727.352 29.185C728.488 27.0217 730.047 25.4083 732.027 24.345C734.007 23.245 736.243 22.695 738.737 22.695ZM775.823 53V47.445L775.108 46.07V35.84C775.108 34.19 774.594 32.925 773.568 32.045C772.578 31.1283 770.983 30.67 768.783 30.67C767.353 30.67 765.904 30.9083 764.438 31.385C762.971 31.825 761.724 32.4483 760.698 33.255L757.178 26.16C758.864 25.06 760.881 24.2167 763.228 23.63C765.611 23.0067 767.976 22.695 770.323 22.695C775.163 22.695 778.903 23.8133 781.543 26.05C784.219 28.25 785.558 31.715 785.558 36.445V53H775.823ZM767.023 53.495C764.639 53.495 762.623 53.0917 760.973 52.285C759.323 51.4783 758.058 50.3783 757.178 48.985C756.334 47.5917 755.913 46.0333 755.913 44.31C755.913 42.4767 756.371 40.9 757.288 39.58C758.241 38.2233 759.689 37.1967 761.633 36.5C763.576 35.7667 766.088 35.4 769.168 35.4H776.208V40.845H770.598C768.911 40.845 767.719 41.12 767.023 41.67C766.363 42.22 766.033 42.9533 766.033 43.87C766.033 44.7867 766.381 45.52 767.078 46.07C767.774 46.62 768.728 46.895 769.938 46.895C771.074 46.895 772.101 46.62 773.018 46.07C773.971 45.4833 774.668 44.6033 775.108 43.43L776.538 47.28C775.988 49.3333 774.906 50.8917 773.293 51.955C771.716 52.9817 769.626 53.495 767.023 53.495ZM811.569 22.695C813.879 22.695 815.969 23.1717 817.839 24.125C819.709 25.0417 821.175 26.4717 822.239 28.415C823.339 30.3583 823.889 32.87 823.889 35.95V53H813.439V37.655C813.439 35.5283 812.999 33.9883 812.119 33.035C811.275 32.045 810.084 31.55 808.544 31.55C807.444 31.55 806.435 31.8067 805.519 32.32C804.602 32.7967 803.887 33.5483 803.374 34.575C802.86 35.6017 802.604 36.94 802.604 38.59V53H792.154V23.19H802.109V31.66L800.184 29.185C801.32 27.0217 802.879 25.4083 804.859 24.345C806.839 23.245 809.075 22.695 811.569 22.695ZM846.061 53.495C842.761 53.495 839.809 52.835 837.206 51.515C834.639 50.195 832.622 48.38 831.156 46.07C829.689 43.7233 828.956 41.0467 828.956 38.04C828.956 35.0333 829.689 32.375 831.156 30.065C832.622 27.755 834.639 25.9583 837.206 24.675C839.809 23.355 842.761 22.695 846.061 22.695C849.434 22.695 852.349 23.41 854.806 24.84C857.262 26.27 859.004 28.2867 860.031 30.89L851.946 35.015C851.249 33.6217 850.387 32.6133 849.361 31.99C848.334 31.33 847.216 31 846.006 31C844.796 31 843.696 31.275 842.706 31.825C841.716 32.375 840.927 33.1817 840.341 34.245C839.791 35.2717 839.516 36.5367 839.516 38.04C839.516 39.58 839.791 40.8817 840.341 41.945C840.927 43.0083 841.716 43.815 842.706 44.365C843.696 44.915 844.796 45.19 846.006 45.19C847.216 45.19 848.334 44.8783 849.361 44.255C850.387 43.595 851.249 42.5683 851.946 41.175L860.031 45.3C859.004 47.9033 857.262 49.92 854.806 51.35C852.349 52.78 849.434 53.495 846.061 53.495ZM879.263 53.495C875.743 53.495 872.663 52.835 870.023 51.515C867.42 50.1583 865.385 48.325 863.918 46.015C862.488 43.6683 861.773 41.01 861.773 38.04C861.773 35.07 862.47 32.43 863.863 30.12C865.293 27.7733 867.255 25.9583 869.748 24.675C872.241 23.355 875.046 22.695 878.163 22.695C881.096 22.695 883.773 23.3 886.193 24.51C888.613 25.6833 890.538 27.425 891.968 29.735C893.398 32.045 894.113 34.85 894.113 38.15C894.113 38.5167 894.095 38.9383 894.058 39.415C894.021 39.8917 893.985 40.3317 893.948 40.735H870.353V35.235H888.393L884.433 36.775C884.47 35.4183 884.213 34.245 883.663 33.255C883.15 32.265 882.416 31.495 881.463 30.945C880.546 30.395 879.465 30.12 878.218 30.12C876.971 30.12 875.871 30.395 874.918 30.945C874.001 31.495 873.286 32.2833 872.773 33.31C872.26 34.3 872.003 35.4733 872.003 36.83V38.425C872.003 39.8917 872.296 41.1567 872.883 42.22C873.506 43.2833 874.386 44.1083 875.523 44.695C876.66 45.245 878.016 45.52 879.593 45.52C881.06 45.52 882.306 45.3183 883.333 44.915C884.396 44.475 885.441 43.815 886.468 42.935L891.968 48.655C890.538 50.2317 888.778 51.4417 886.688 52.285C884.598 53.0917 882.123 53.495 879.263 53.495Z" fill="#4EC79F"/>
<path d="M250.33 121.98C246.457 121.98 242.863 121.373 239.55 120.16C236.283 118.9 233.437 117.127 231.01 114.84C228.63 112.553 226.763 109.87 225.41 106.79C224.057 103.663 223.38 100.233 223.38 96.5C223.38 92.7667 224.057 89.36 225.41 86.28C226.763 83.1533 228.63 80.4467 231.01 78.16C233.437 75.8733 236.283 74.1233 239.55 72.91C242.863 71.65 246.457 71.02 250.33 71.02C254.857 71.02 258.893 71.8133 262.44 73.4C266.033 74.9867 269.02 77.2733 271.4 80.26L262.58 88.24C260.993 86.3733 259.243 84.95 257.33 83.97C255.463 82.99 253.363 82.5 251.03 82.5C249.023 82.5 247.18 82.8267 245.5 83.48C243.82 84.1333 242.373 85.09 241.16 86.35C239.993 87.5633 239.06 89.0333 238.36 90.76C237.707 92.4867 237.38 94.4 237.38 96.5C237.38 98.6 237.707 100.513 238.36 102.24C239.06 103.967 239.993 105.46 241.16 106.72C242.373 107.933 243.82 108.867 245.5 109.52C247.18 110.173 249.023 110.5 251.03 110.5C253.363 110.5 255.463 110.01 257.33 109.03C259.243 108.05 260.993 106.627 262.58 104.76L271.4 112.74C269.02 115.68 266.033 117.967 262.44 119.6C258.893 121.187 254.857 121.98 250.33 121.98ZM276.95 121V69.06H290.25V121H276.95ZM314.853 121.63C311.773 121.63 308.996 121.023 306.523 119.81C304.096 118.597 302.183 116.707 300.783 114.14C299.43 111.527 298.753 108.237 298.753 104.27V83.06H312.053V102.1C312.053 105.04 312.59 107.14 313.663 108.4C314.783 109.66 316.346 110.29 318.353 110.29C319.66 110.29 320.85 109.987 321.923 109.38C322.996 108.773 323.86 107.817 324.513 106.51C325.166 105.157 325.493 103.43 325.493 101.33V83.06H338.793V121H326.123V110.29L328.573 113.3C327.266 116.1 325.376 118.2 322.903 119.6C320.43 120.953 317.746 121.63 314.853 121.63ZM371.23 121.63C367.823 121.63 364.977 120.93 362.69 119.53C360.45 118.13 358.77 115.983 357.65 113.09C356.53 110.197 355.97 106.487 355.97 101.96C355.97 97.5267 356.553 93.8633 357.72 90.97C358.933 88.0767 360.683 85.93 362.97 84.53C365.257 83.13 368.01 82.43 371.23 82.43C374.683 82.43 377.81 83.2233 380.61 84.81C383.457 86.3967 385.697 88.66 387.33 91.6C389.01 94.4933 389.85 97.9467 389.85 101.96C389.85 106.02 389.01 109.52 387.33 112.46C385.697 115.353 383.457 117.617 380.61 119.25C377.81 120.837 374.683 121.63 371.23 121.63ZM347.36 121V69.06H360.66V89.43L359.96 101.96L360.03 114.49V121H347.36ZM368.43 111.06C369.923 111.06 371.253 110.71 372.42 110.01C373.633 109.31 374.59 108.283 375.29 106.93C376.037 105.53 376.41 103.873 376.41 101.96C376.41 100.047 376.037 98.4367 375.29 97.13C374.59 95.7767 373.633 94.75 372.42 94.05C371.253 93.35 369.923 93 368.43 93C366.937 93 365.583 93.35 364.37 94.05C363.203 94.75 362.247 95.7767 361.5 97.13C360.8 98.4367 360.45 100.047 360.45 101.96C360.45 103.873 360.8 105.53 361.5 106.93C362.247 108.283 363.203 109.31 364.37 110.01C365.583 110.71 366.937 111.06 368.43 111.06ZM434.253 121.98C430.239 121.98 426.366 121.49 422.633 120.51C418.946 119.483 415.936 118.177 413.603 116.59L418.153 106.37C420.346 107.77 422.866 108.937 425.713 109.87C428.606 110.757 431.476 111.2 434.323 111.2C436.236 111.2 437.776 111.037 438.943 110.71C440.109 110.337 440.949 109.87 441.463 109.31C442.023 108.703 442.303 108.003 442.303 107.21C442.303 106.09 441.789 105.203 440.763 104.55C439.736 103.897 438.406 103.36 436.773 102.94C435.139 102.52 433.319 102.1 431.313 101.68C429.353 101.26 427.369 100.723 425.363 100.07C423.403 99.4167 421.606 98.5767 419.973 97.55C418.339 96.4767 417.009 95.1 415.983 93.42C414.956 91.6933 414.443 89.5233 414.443 86.91C414.443 83.97 415.236 81.31 416.823 78.93C418.456 76.55 420.883 74.6367 424.103 73.19C427.323 71.7433 431.336 71.02 436.143 71.02C439.363 71.02 442.513 71.3933 445.593 72.14C448.719 72.84 451.496 73.89 453.923 75.29L449.653 85.58C447.319 84.32 445.009 83.3867 442.723 82.78C440.436 82.1267 438.219 81.8 436.073 81.8C434.159 81.8 432.619 82.01 431.453 82.43C430.286 82.8033 429.446 83.3167 428.933 83.97C428.419 84.6233 428.163 85.37 428.163 86.21C428.163 87.2833 428.653 88.1467 429.633 88.8C430.659 89.4067 431.989 89.92 433.623 90.34C435.303 90.7133 437.123 91.11 439.083 91.53C441.089 91.95 443.073 92.4867 445.033 93.14C447.039 93.7467 448.859 94.5867 450.493 95.66C452.126 96.6867 453.433 98.0633 454.413 99.79C455.439 101.47 455.953 103.593 455.953 106.16C455.953 109.007 455.136 111.643 453.503 114.07C451.916 116.45 449.513 118.363 446.293 119.81C443.119 121.257 439.106 121.98 434.253 121.98ZM478.665 121.63C473.812 121.63 470.032 120.44 467.325 118.06C464.618 115.633 463.265 111.993 463.265 107.14V74.59H476.565V107C476.565 108.353 476.938 109.427 477.685 110.22C478.432 110.967 479.388 111.34 480.555 111.34C482.142 111.34 483.495 110.943 484.615 110.15L487.905 119.46C486.785 120.207 485.408 120.743 483.775 121.07C482.142 121.443 480.438 121.63 478.665 121.63ZM457.735 94.4V84.46H485.245V94.4H457.735ZM516.204 121V113.93L515.294 112.18V99.16C515.294 97.06 514.64 95.45 513.334 94.33C512.074 93.1633 510.044 92.58 507.244 92.58C505.424 92.58 503.58 92.8833 501.714 93.49C499.847 94.05 498.26 94.8433 496.954 95.87L492.474 86.84C494.62 85.44 497.187 84.3667 500.174 83.62C503.207 82.8267 506.217 82.43 509.204 82.43C515.364 82.43 520.124 83.8533 523.484 86.7C526.89 89.5 528.594 93.91 528.594 99.93V121H516.204ZM505.004 121.63C501.97 121.63 499.404 121.117 497.304 120.09C495.204 119.063 493.594 117.663 492.474 115.89C491.4 114.117 490.864 112.133 490.864 109.94C490.864 107.607 491.447 105.6 492.614 103.92C493.827 102.193 495.67 100.887 498.144 100C500.617 99.0667 503.814 98.6 507.734 98.6H516.694V105.53H509.554C507.407 105.53 505.89 105.88 505.004 106.58C504.164 107.28 503.744 108.213 503.744 109.38C503.744 110.547 504.187 111.48 505.074 112.18C505.96 112.88 507.174 113.23 508.714 113.23C510.16 113.23 511.467 112.88 512.634 112.18C513.847 111.433 514.734 110.313 515.294 108.82L517.114 113.72C516.414 116.333 515.037 118.317 512.984 119.67C510.977 120.977 508.317 121.63 505.004 121.63ZM553.929 121.63C549.075 121.63 545.295 120.44 542.589 118.06C539.882 115.633 538.529 111.993 538.529 107.14V74.59H551.829V107C551.829 108.353 552.202 109.427 552.949 110.22C553.695 110.967 554.652 111.34 555.819 111.34C557.405 111.34 558.759 110.943 559.879 110.15L563.169 119.46C562.049 120.207 560.672 120.743 559.039 121.07C557.405 121.443 555.702 121.63 553.929 121.63ZM532.999 94.4V84.46H560.509V94.4H532.999ZM591.467 121V113.93L590.557 112.18V99.16C590.557 97.06 589.904 95.45 588.597 94.33C587.337 93.1633 585.307 92.58 582.507 92.58C580.687 92.58 578.844 92.8833 576.977 93.49C575.111 94.05 573.524 94.8433 572.217 95.87L567.737 86.84C569.884 85.44 572.451 84.3667 575.437 83.62C578.471 82.8267 581.481 82.43 584.467 82.43C590.627 82.43 595.387 83.8533 598.747 86.7C602.154 89.5 603.857 93.91 603.857 99.93V121H591.467ZM580.267 121.63C577.234 121.63 574.667 121.117 572.567 120.09C570.467 119.063 568.857 117.663 567.737 115.89C566.664 114.117 566.127 112.133 566.127 109.94C566.127 107.607 566.711 105.6 567.877 103.92C569.091 102.193 570.934 100.887 573.407 100C575.881 99.0667 579.077 98.6 582.997 98.6H591.957V105.53H584.817C582.671 105.53 581.154 105.88 580.267 106.58C579.427 107.28 579.007 108.213 579.007 109.38C579.007 110.547 579.451 111.48 580.337 112.18C581.224 112.88 582.437 113.23 583.977 113.23C585.424 113.23 586.731 112.88 587.897 112.18C589.111 111.433 589.997 110.313 590.557 108.82L592.377 113.72C591.677 116.333 590.301 118.317 588.247 119.67C586.241 120.977 583.581 121.63 580.267 121.63ZM612.252 121V69.06H625.552V121H612.252ZM654.076 121.63C649.596 121.63 645.676 120.79 642.316 119.11C639.002 117.383 636.412 115.05 634.546 112.11C632.726 109.123 631.816 105.74 631.816 101.96C631.816 98.18 632.702 94.82 634.476 91.88C636.296 88.8933 638.792 86.5833 641.966 84.95C645.139 83.27 648.709 82.43 652.676 82.43C656.409 82.43 659.816 83.2 662.896 84.74C665.976 86.2333 668.426 88.45 670.246 91.39C672.066 94.33 672.976 97.9 672.976 102.1C672.976 102.567 672.952 103.103 672.906 103.71C672.859 104.317 672.812 104.877 672.766 105.39H642.736V98.39H665.696L660.656 100.35C660.702 98.6233 660.376 97.13 659.676 95.87C659.022 94.61 658.089 93.63 656.876 92.93C655.709 92.23 654.332 91.88 652.746 91.88C651.159 91.88 649.759 92.23 648.546 92.93C647.379 93.63 646.469 94.6333 645.816 95.94C645.162 97.2 644.836 98.6933 644.836 100.42V102.45C644.836 104.317 645.209 105.927 645.956 107.28C646.749 108.633 647.869 109.683 649.316 110.43C650.762 111.13 652.489 111.48 654.496 111.48C656.362 111.48 657.949 111.223 659.256 110.71C660.609 110.15 661.939 109.31 663.246 108.19L670.246 115.47C668.426 117.477 666.186 119.017 663.526 120.09C660.866 121.117 657.716 121.63 654.076 121.63Z" fill="#004082"/>
</svg>
