<svg width="160" height="18" viewBox="0 0 160 18" fill="none" xmlns="http://www.w3.org/2000/svg">
<path d="M4.38 14V3.14H0.08V-9.53674e-07H12.62V3.14H8.34V14H4.38ZM18.2616 14.18C17.0749 14.18 16.0216 13.94 15.1016 13.46C14.1816 12.98 13.4549 12.32 12.9216 11.48C12.4016 10.6267 12.1416 9.65333 12.1416 8.56C12.1416 7.46667 12.4016 6.5 12.9216 5.66C13.4549 4.82 14.1816 4.16667 15.1016 3.7C16.0216 3.22 17.0749 2.98 18.2616 2.98C19.4482 2.98 20.5016 3.22 21.4216 3.7C22.3549 4.16667 23.0816 4.82 23.6016 5.66C24.1216 6.5 24.3816 7.46667 24.3816 8.56C24.3816 9.65333 24.1216 10.6267 23.6016 11.48C23.0816 12.32 22.3549 12.98 21.4216 13.46C20.5016 13.94 19.4482 14.18 18.2616 14.18ZM18.2616 11.16C18.7016 11.16 19.0882 11.06 19.4216 10.86C19.7682 10.66 20.0416 10.3667 20.2416 9.98C20.4416 9.58 20.5416 9.10667 20.5416 8.56C20.5416 8.01333 20.4416 7.55333 20.2416 7.18C20.0416 6.79333 19.7682 6.5 19.4216 6.3C19.0882 6.1 18.7016 6 18.2616 6C17.8349 6 17.4482 6.1 17.1016 6.3C16.7682 6.5 16.4949 6.79333 16.2816 7.18C16.0816 7.55333 15.9816 8.01333 15.9816 8.56C15.9816 9.10667 16.0816 9.58 16.2816 9.98C16.4949 10.3667 16.7682 10.66 17.1016 10.86C17.4482 11.06 17.8349 11.16 18.2616 11.16ZM40.2619 2.98C41.1019 2.98 41.8485 3.15333 42.5019 3.5C43.1685 3.83333 43.6885 4.35333 44.0619 5.06C44.4485 5.76667 44.6419 6.68 44.6419 7.8V14H40.8419V8.42C40.8419 7.64667 40.6952 7.08667 40.4019 6.74C40.1085 6.38 39.7085 6.2 39.2019 6.2C38.8419 6.2 38.5152 6.28667 38.2219 6.46C37.9285 6.63333 37.7019 6.9 37.5419 7.26C37.3819 7.60667 37.3019 8.06 37.3019 8.62V14H33.5019V8.42C33.5019 7.64667 33.3552 7.08667 33.0619 6.74C32.7819 6.38 32.3819 6.2 31.8619 6.2C31.4885 6.2 31.1552 6.28667 30.8619 6.46C30.5819 6.63333 30.3552 6.9 30.1819 7.26C30.0219 7.60667 29.9419 8.06 29.9419 8.62V14H26.1419V3.16H29.7619V6.18L29.0419 5.32C29.4419 4.54667 29.9885 3.96667 30.6819 3.58C31.3752 3.18 32.1485 2.98 33.0019 2.98C33.9752 2.98 34.8285 3.23333 35.5619 3.74C36.3085 4.23333 36.8085 5.00667 37.0619 6.06L35.8219 5.8C36.2085 4.92 36.7885 4.23333 37.5619 3.74C38.3485 3.23333 39.2485 2.98 40.2619 2.98ZM61.1603 2.98C62.0003 2.98 62.747 3.15333 63.4003 3.5C64.067 3.83333 64.587 4.35333 64.9603 5.06C65.347 5.76667 65.5403 6.68 65.5403 7.8V14H61.7403V8.42C61.7403 7.64667 61.5936 7.08667 61.3003 6.74C61.007 6.38 60.607 6.2 60.1003 6.2C59.7403 6.2 59.4136 6.28667 59.1203 6.46C58.827 6.63333 58.6003 6.9 58.4403 7.26C58.2803 7.60667 58.2003 8.06 58.2003 8.62V14H54.4003V8.42C54.4003 7.64667 54.2536 7.08667 53.9603 6.74C53.6803 6.38 53.2803 6.2 52.7603 6.2C52.387 6.2 52.0536 6.28667 51.7603 6.46C51.4803 6.63333 51.2536 6.9 51.0803 7.26C50.9203 7.60667 50.8403 8.06 50.8403 8.62V14H47.0403V3.16H50.6603V6.18L49.9403 5.32C50.3403 4.54667 50.887 3.96667 51.5803 3.58C52.2736 3.18 53.047 2.98 53.9003 2.98C54.8736 2.98 55.727 3.23333 56.4603 3.74C57.207 4.23333 57.707 5.00667 57.9603 6.06L56.7203 5.8C57.107 4.92 57.687 4.23333 58.4603 3.74C59.247 3.23333 60.147 2.98 61.1603 2.98ZM74.5588 14V11.98L74.2988 11.48V7.76C74.2988 7.16 74.1121 6.7 73.7388 6.38C73.3788 6.04667 72.7988 5.88 71.9987 5.88C71.4788 5.88 70.9521 5.96667 70.4188 6.14C69.8854 6.3 69.4321 6.52667 69.0588 6.82L67.7788 4.24C68.3921 3.84 69.1254 3.53333 69.9788 3.32C70.8454 3.09333 71.7054 2.98 72.5588 2.98C74.3188 2.98 75.6788 3.38667 76.6388 4.2C77.6121 5 78.0988 6.26 78.0988 7.98V14H74.5588ZM71.3588 14.18C70.4921 14.18 69.7588 14.0333 69.1588 13.74C68.5588 13.4467 68.0988 13.0467 67.7788 12.54C67.4721 12.0333 67.3188 11.4667 67.3188 10.84C67.3188 10.1733 67.4854 9.6 67.8188 9.12C68.1654 8.62667 68.6921 8.25333 69.3988 8C70.1054 7.73333 71.0188 7.6 72.1388 7.6H74.6988V9.58H72.6588C72.0454 9.58 71.6121 9.68 71.3588 9.88C71.1188 10.08 70.9988 10.3467 70.9988 10.68C70.9988 11.0133 71.1254 11.28 71.3788 11.48C71.6321 11.68 71.9788 11.78 72.4188 11.78C72.8321 11.78 73.2054 11.68 73.5388 11.48C73.8854 11.2667 74.1388 10.9467 74.2988 10.52L74.8188 11.92C74.6188 12.6667 74.2254 13.2333 73.6388 13.62C73.0654 13.9933 72.3054 14.18 71.3588 14.18ZM84.4373 14.18C83.5173 14.18 82.6173 14.0733 81.7373 13.86C80.8707 13.6467 80.1707 13.38 79.6373 13.06L80.7773 10.46C81.284 10.7667 81.8773 11.0133 82.5573 11.2C83.2373 11.3733 83.904 11.46 84.5573 11.46C85.1973 11.46 85.6373 11.3933 85.8773 11.26C86.1307 11.1267 86.2573 10.9467 86.2573 10.72C86.2573 10.5067 86.1373 10.3533 85.8973 10.26C85.6707 10.1533 85.364 10.0733 84.9773 10.02C84.604 9.96667 84.1907 9.90667 83.7373 9.84C83.284 9.77333 82.824 9.68667 82.3573 9.58C81.904 9.46 81.484 9.28667 81.0973 9.06C80.724 8.82 80.424 8.5 80.1973 8.1C79.9707 7.7 79.8573 7.19333 79.8573 6.58C79.8573 5.88667 80.0573 5.27333 80.4573 4.74C80.8707 4.19333 81.4707 3.76667 82.2573 3.46C83.044 3.14 84.004 2.98 85.1373 2.98C85.8973 2.98 86.664 3.06 87.4373 3.22C88.224 3.36667 88.884 3.59333 89.4173 3.9L88.2773 6.48C87.744 6.17333 87.2107 5.96667 86.6773 5.86C86.144 5.74 85.6373 5.68 85.1573 5.68C84.5173 5.68 84.064 5.75333 83.7973 5.9C83.544 6.04667 83.4173 6.22667 83.4173 6.44C83.4173 6.65333 83.5307 6.82 83.7573 6.94C83.984 7.04667 84.284 7.13333 84.6573 7.2C85.044 7.25333 85.464 7.31333 85.9173 7.38C86.3707 7.43333 86.824 7.52 87.2773 7.64C87.744 7.76 88.164 7.94 88.5373 8.18C88.924 8.40667 89.2307 8.72 89.4573 9.12C89.684 9.50667 89.7973 10.0067 89.7973 10.62C89.7973 11.2867 89.5907 11.8867 89.1773 12.42C88.7773 12.9533 88.1773 13.38 87.3773 13.7C86.5907 14.02 85.6107 14.18 84.4373 14.18ZM96.8748 14.18C95.6882 14.18 94.6348 13.94 93.7148 13.46C92.7948 12.98 92.0682 12.32 91.5348 11.48C91.0148 10.6267 90.7548 9.65333 90.7548 8.56C90.7548 7.46667 91.0148 6.5 91.5348 5.66C92.0682 4.82 92.7948 4.16667 93.7148 3.7C94.6348 3.22 95.6882 2.98 96.8748 2.98C98.0615 2.98 99.1148 3.22 100.035 3.7C100.968 4.16667 101.695 4.82 102.215 5.66C102.735 6.5 102.995 7.46667 102.995 8.56C102.995 9.65333 102.735 10.6267 102.215 11.48C101.695 12.32 100.968 12.98 100.035 13.46C99.1148 13.94 98.0615 14.18 96.8748 14.18ZM96.8748 11.16C97.3148 11.16 97.7015 11.06 98.0348 10.86C98.3815 10.66 98.6548 10.3667 98.8548 9.98C99.0548 9.58 99.1548 9.10667 99.1548 8.56C99.1548 8.01333 99.0548 7.55333 98.8548 7.18C98.6548 6.79333 98.3815 6.5 98.0348 6.3C97.7015 6.1 97.3148 6 96.8748 6C96.4482 6 96.0615 6.1 95.7148 6.3C95.3815 6.5 95.1082 6.79333 94.8948 7.18C94.6948 7.55333 94.5948 8.01333 94.5948 8.56C94.5948 9.10667 94.6948 9.58 94.8948 9.98C95.1082 10.3667 95.3815 10.66 95.7148 10.86C96.0615 11.06 96.4482 11.16 96.8748 11.16ZM113.735 14V3.14H109.435V-9.53674e-07H121.975V3.14H117.695V14H113.735ZM127.617 14.18C126.43 14.18 125.377 13.94 124.457 13.46C123.537 12.98 122.81 12.32 122.277 11.48C121.757 10.6267 121.497 9.65333 121.497 8.56C121.497 7.46667 121.757 6.5 122.277 5.66C122.81 4.82 123.537 4.16667 124.457 3.7C125.377 3.22 126.43 2.98 127.617 2.98C128.804 2.98 129.857 3.22 130.777 3.7C131.71 4.16667 132.437 4.82 132.957 5.66C133.477 6.5 133.737 7.46667 133.737 8.56C133.737 9.65333 133.477 10.6267 132.957 11.48C132.437 12.32 131.71 12.98 130.777 13.46C129.857 13.94 128.804 14.18 127.617 14.18ZM127.617 11.16C128.057 11.16 128.444 11.06 128.777 10.86C129.124 10.66 129.397 10.3667 129.597 9.98C129.797 9.58 129.897 9.10667 129.897 8.56C129.897 8.01333 129.797 7.55333 129.597 7.18C129.397 6.79333 129.124 6.5 128.777 6.3C128.444 6.1 128.057 6 127.617 6C127.19 6 126.804 6.1 126.457 6.3C126.124 6.5 125.85 6.79333 125.637 7.18C125.437 7.55333 125.337 8.01333 125.337 8.56C125.337 9.10667 125.437 9.58 125.637 9.98C125.85 10.3667 126.124 10.66 126.457 10.86C126.804 11.06 127.19 11.16 127.617 11.16ZM142.317 14.18C141.397 14.18 140.611 13.98 139.957 13.58C139.304 13.1667 138.804 12.5533 138.457 11.74C138.124 10.9133 137.957 9.86 137.957 8.58C137.957 7.28667 138.117 6.23333 138.437 5.42C138.757 4.59333 139.237 3.98 139.877 3.58C140.531 3.18 141.344 2.98 142.317 2.98C143.304 2.98 144.197 3.21333 144.997 3.68C145.811 4.13333 146.451 4.78 146.917 5.62C147.397 6.44667 147.637 7.43333 147.637 8.58C147.637 9.72667 147.397 10.72 146.917 11.56C146.451 12.4 145.811 13.0467 144.997 13.5C144.197 13.9533 143.304 14.18 142.317 14.18ZM135.497 17.88V3.16H139.117V5L139.097 8.58L139.297 12.18V17.88H135.497ZM141.517 11.16C141.944 11.16 142.324 11.06 142.657 10.86C143.004 10.66 143.277 10.3667 143.477 9.98C143.691 9.59333 143.797 9.12667 143.797 8.58C143.797 8.03333 143.691 7.56667 143.477 7.18C143.277 6.79333 143.004 6.5 142.657 6.3C142.324 6.1 141.944 6 141.517 6C141.091 6 140.704 6.1 140.357 6.3C140.024 6.5 139.751 6.79333 139.537 7.18C139.337 7.56667 139.237 8.03333 139.237 8.58C139.237 9.12667 139.337 9.59333 139.537 9.98C139.751 10.3667 140.024 10.66 140.357 10.86C140.704 11.06 141.091 11.16 141.517 11.16ZM155.789 14V11.98L155.529 11.48V7.76C155.529 7.16 155.343 6.7 154.969 6.38C154.609 6.04667 154.029 5.88 153.229 5.88C152.709 5.88 152.183 5.96667 151.649 6.14C151.116 6.3 150.663 6.52667 150.289 6.82L149.009 4.24C149.623 3.84 150.356 3.53333 151.209 3.32C152.076 3.09333 152.936 2.98 153.789 2.98C155.549 2.98 156.909 3.38667 157.869 4.2C158.843 5 159.329 6.26 159.329 7.98V14H155.789ZM152.589 14.18C151.723 14.18 150.989 14.0333 150.389 13.74C149.789 13.4467 149.329 13.0467 149.009 12.54C148.703 12.0333 148.549 11.4667 148.549 10.84C148.549 10.1733 148.716 9.6 149.049 9.12C149.396 8.62667 149.923 8.25333 150.629 8C151.336 7.73333 152.249 7.6 153.369 7.6H155.929V9.58H153.889C153.276 9.58 152.843 9.68 152.589 9.88C152.349 10.08 152.229 10.3467 152.229 10.68C152.229 11.0133 152.356 11.28 152.609 11.48C152.863 11.68 153.209 11.78 153.649 11.78C154.063 11.78 154.436 11.68 154.769 11.48C155.116 11.2667 155.369 10.9467 155.529 10.52L156.049 11.92C155.849 12.6667 155.456 13.2333 154.869 13.62C154.296 13.9933 153.536 14.18 152.589 14.18Z" fill="#4EC79F"/>
</svg>
