<svg width="207" height="18" viewBox="0 0 207 18" fill="none" xmlns="http://www.w3.org/2000/svg">
<path d="M0.72 17L6.9 3H10.8L17 17H12.88L8.04 4.94H9.6L4.76 17H0.72ZM4.1 14.28L5.12 11.36H11.96L12.98 14.28H4.1ZM17.9427 17V2.16H21.7427V17H17.9427ZM29.8922 17.18C28.6122 17.18 27.4922 16.94 26.5322 16.46C25.5855 15.9667 24.8455 15.3 24.3122 14.46C23.7922 13.6067 23.5322 12.64 23.5322 11.56C23.5322 10.48 23.7855 9.52 24.2922 8.68C24.8122 7.82667 25.5255 7.16667 26.4322 6.7C27.3389 6.22 28.3589 5.98 29.4922 5.98C30.5589 5.98 31.5322 6.2 32.4122 6.64C33.2922 7.06667 33.9922 7.7 34.5122 8.54C35.0322 9.38 35.2922 10.4 35.2922 11.6C35.2922 11.7333 35.2855 11.8867 35.2722 12.06C35.2589 12.2333 35.2455 12.3933 35.2322 12.54H26.6522V10.54H33.2122L31.7722 11.1C31.7855 10.6067 31.6922 10.18 31.4922 9.82C31.3055 9.46 31.0389 9.18 30.6922 8.98C30.3589 8.78 29.9655 8.68 29.5122 8.68C29.0589 8.68 28.6589 8.78 28.3122 8.98C27.9789 9.18 27.7189 9.46667 27.5322 9.84C27.3455 10.2 27.2522 10.6267 27.2522 11.12V11.7C27.2522 12.2333 27.3589 12.6933 27.5722 13.08C27.7989 13.4667 28.1189 13.7667 28.5322 13.98C28.9455 14.18 29.4389 14.28 30.0122 14.28C30.5455 14.28 30.9989 14.2067 31.3722 14.06C31.7589 13.9 32.1389 13.66 32.5122 13.34L34.5122 15.42C33.9922 15.9933 33.3522 16.4333 32.5922 16.74C31.8322 17.0333 30.9322 17.18 29.8922 17.18ZM40.9842 17.18C40.0642 17.18 39.1642 17.0733 38.2842 16.86C37.4176 16.6467 36.7176 16.38 36.1842 16.06L37.3242 13.46C37.8309 13.7667 38.4242 14.0133 39.1042 14.2C39.7842 14.3733 40.4509 14.46 41.1042 14.46C41.7442 14.46 42.1842 14.3933 42.4242 14.26C42.6776 14.1267 42.8042 13.9467 42.8042 13.72C42.8042 13.5067 42.6842 13.3533 42.4442 13.26C42.2176 13.1533 41.9109 13.0733 41.5242 13.02C41.1509 12.9667 40.7376 12.9067 40.2842 12.84C39.8309 12.7733 39.3709 12.6867 38.9042 12.58C38.4509 12.46 38.0309 12.2867 37.6442 12.06C37.2709 11.82 36.9709 11.5 36.7442 11.1C36.5176 10.7 36.4042 10.1933 36.4042 9.58C36.4042 8.88667 36.6042 8.27333 37.0042 7.74C37.4176 7.19333 38.0176 6.76667 38.8042 6.46C39.5909 6.14 40.5509 5.98 41.6842 5.98C42.4442 5.98 43.2109 6.06 43.9842 6.22C44.7709 6.36667 45.4309 6.59333 45.9642 6.9L44.8242 9.48C44.2909 9.17333 43.7576 8.96667 43.2242 8.86C42.6909 8.74 42.1842 8.68 41.7042 8.68C41.0642 8.68 40.6109 8.75333 40.3442 8.9C40.0909 9.04667 39.9642 9.22667 39.9642 9.44C39.9642 9.65333 40.0776 9.82 40.3042 9.94C40.5309 10.0467 40.8309 10.1333 41.2042 10.2C41.5909 10.2533 42.0109 10.3133 42.4642 10.38C42.9176 10.4333 43.3709 10.52 43.8242 10.64C44.2909 10.76 44.7109 10.94 45.0842 11.18C45.4709 11.4067 45.7776 11.72 46.0042 12.12C46.2309 12.5067 46.3442 13.0067 46.3442 13.62C46.3442 14.2867 46.1376 14.8867 45.7242 15.42C45.3242 15.9533 44.7242 16.38 43.9242 16.7C43.1376 17.02 42.1576 17.18 40.9842 17.18ZM51.9217 17.18C51.0017 17.18 50.1017 17.0733 49.2217 16.86C48.3551 16.6467 47.6551 16.38 47.1217 16.06L48.2617 13.46C48.7684 13.7667 49.3617 14.0133 50.0417 14.2C50.7217 14.3733 51.3884 14.46 52.0417 14.46C52.6817 14.46 53.1217 14.3933 53.3617 14.26C53.6151 14.1267 53.7417 13.9467 53.7417 13.72C53.7417 13.5067 53.6217 13.3533 53.3817 13.26C53.1551 13.1533 52.8484 13.0733 52.4617 13.02C52.0884 12.9667 51.6751 12.9067 51.2217 12.84C50.7684 12.7733 50.3084 12.6867 49.8417 12.58C49.3884 12.46 48.9684 12.2867 48.5817 12.06C48.2084 11.82 47.9084 11.5 47.6817 11.1C47.4551 10.7 47.3417 10.1933 47.3417 9.58C47.3417 8.88667 47.5417 8.27333 47.9417 7.74C48.3551 7.19333 48.9551 6.76667 49.7417 6.46C50.5284 6.14 51.4884 5.98 52.6217 5.98C53.3817 5.98 54.1484 6.06 54.9217 6.22C55.7084 6.36667 56.3684 6.59333 56.9017 6.9L55.7617 9.48C55.2284 9.17333 54.6951 8.96667 54.1617 8.86C53.6284 8.74 53.1217 8.68 52.6417 8.68C52.0017 8.68 51.5484 8.75333 51.2817 8.9C51.0284 9.04667 50.9017 9.22667 50.9017 9.44C50.9017 9.65333 51.0151 9.82 51.2417 9.94C51.4684 10.0467 51.7684 10.1333 52.1417 10.2C52.5284 10.2533 52.9484 10.3133 53.4017 10.38C53.8551 10.4333 54.3084 10.52 54.7617 10.64C55.2284 10.76 55.6484 10.94 56.0217 11.18C56.4084 11.4067 56.7151 11.72 56.9417 12.12C57.1684 12.5067 57.2817 13.0067 57.2817 13.62C57.2817 14.2867 57.0751 14.8867 56.6617 15.42C56.2617 15.9533 55.6617 16.38 54.8617 16.7C54.0751 17.02 53.0951 17.18 51.9217 17.18ZM65.5392 17V14.98L65.2792 14.48V10.76C65.2792 10.16 65.0926 9.7 64.7192 9.38C64.3592 9.04667 63.7792 8.88 62.9792 8.88C62.4592 8.88 61.9326 8.96667 61.3992 9.14C60.8659 9.3 60.4126 9.52667 60.0392 9.82L58.7592 7.24C59.3726 6.84 60.1059 6.53333 60.9592 6.32C61.8259 6.09333 62.6859 5.98 63.5392 5.98C65.2992 5.98 66.6592 6.38667 67.6192 7.2C68.5926 8 69.0792 9.26 69.0792 10.98V17H65.5392ZM62.3392 17.18C61.4726 17.18 60.7392 17.0333 60.1392 16.74C59.5392 16.4467 59.0792 16.0467 58.7592 15.54C58.4526 15.0333 58.2992 14.4667 58.2992 13.84C58.2992 13.1733 58.4659 12.6 58.7992 12.12C59.1459 11.6267 59.6726 11.2533 60.3792 11C61.0859 10.7333 61.9992 10.6 63.1192 10.6H65.6792V12.58H63.6392C63.0259 12.58 62.5926 12.68 62.3392 12.88C62.0992 13.08 61.9792 13.3467 61.9792 13.68C61.9792 14.0133 62.1059 14.28 62.3592 14.48C62.6126 14.68 62.9592 14.78 63.3992 14.78C63.8126 14.78 64.1859 14.68 64.5192 14.48C64.8659 14.2667 65.1192 13.9467 65.2792 13.52L65.7992 14.92C65.5992 15.6667 65.2059 16.2333 64.6192 16.62C64.0459 16.9933 63.2859 17.18 62.3392 17.18ZM78.5378 5.98C79.3778 5.98 80.1378 6.15333 80.8178 6.5C81.4978 6.83333 82.0311 7.35333 82.4178 8.06C82.8178 8.76667 83.0178 9.68 83.0178 10.8V17H79.2178V11.42C79.2178 10.6467 79.0578 10.0867 78.7378 9.74C78.4311 9.38 77.9978 9.2 77.4378 9.2C77.0378 9.2 76.6711 9.29333 76.3378 9.48C76.0045 9.65333 75.7445 9.92667 75.5578 10.3C75.3711 10.6733 75.2778 11.16 75.2778 11.76V17H71.4778V6.16H75.0978V9.24L74.3978 8.34C74.8111 7.55333 75.3778 6.96667 76.0978 6.58C76.8178 6.18 77.6311 5.98 78.5378 5.98ZM90.2603 17.18C89.2736 17.18 88.3736 16.9533 87.5603 16.5C86.7603 16.0333 86.1203 15.3867 85.6403 14.56C85.1603 13.72 84.9203 12.72 84.9203 11.56C84.9203 10.4133 85.1603 9.42667 85.6403 8.6C86.1203 7.76 86.7603 7.11333 87.5603 6.66C88.3736 6.20667 89.2736 5.98 90.2603 5.98C91.1936 5.98 91.9803 6.18 92.6203 6.58C93.2736 6.98 93.767 7.59333 94.1003 8.42C94.4336 9.24667 94.6003 10.2933 94.6003 11.56C94.6003 12.8533 94.4403 13.9133 94.1203 14.74C93.8003 15.5667 93.3203 16.18 92.6803 16.58C92.0403 16.98 91.2336 17.18 90.2603 17.18ZM91.0603 14.16C91.487 14.16 91.867 14.06 92.2003 13.86C92.547 13.66 92.8203 13.3667 93.0203 12.98C93.2203 12.58 93.3203 12.1067 93.3203 11.56C93.3203 11.0133 93.2203 10.5533 93.0203 10.18C92.8203 9.79333 92.547 9.5 92.2003 9.3C91.867 9.1 91.487 9 91.0603 9C90.6203 9 90.227 9.1 89.8803 9.3C89.547 9.5 89.2803 9.79333 89.0803 10.18C88.8803 10.5533 88.7803 11.0133 88.7803 11.56C88.7803 12.1067 88.8803 12.58 89.0803 12.98C89.2803 13.3667 89.547 13.66 89.8803 13.86C90.227 14.06 90.6203 14.16 91.0603 14.16ZM93.4403 17V15.14L93.4603 11.56L93.2603 7.98V2.16H97.0603V17H93.4403ZM99.5052 17V6.16H103.125V9.32L102.585 8.42C102.905 7.60667 103.425 7 104.145 6.6C104.865 6.18667 105.738 5.98 106.765 5.98V9.4C106.592 9.37333 106.438 9.36 106.305 9.36C106.185 9.34667 106.052 9.34 105.905 9.34C105.132 9.34 104.505 9.55333 104.025 9.98C103.545 10.3933 103.305 11.0733 103.305 12.02V17H99.5052ZM113.676 17.18C112.489 17.18 111.436 16.94 110.516 16.46C109.596 15.98 108.869 15.32 108.336 14.48C107.816 13.6267 107.556 12.6533 107.556 11.56C107.556 10.4667 107.816 9.5 108.336 8.66C108.869 7.82 109.596 7.16667 110.516 6.7C111.436 6.22 112.489 5.98 113.676 5.98C114.862 5.98 115.916 6.22 116.836 6.7C117.769 7.16667 118.496 7.82 119.016 8.66C119.536 9.5 119.796 10.4667 119.796 11.56C119.796 12.6533 119.536 13.6267 119.016 14.48C118.496 15.32 117.769 15.98 116.836 16.46C115.916 16.94 114.862 17.18 113.676 17.18ZM113.676 14.16C114.116 14.16 114.502 14.06 114.836 13.86C115.182 13.66 115.456 13.3667 115.656 12.98C115.856 12.58 115.956 12.1067 115.956 11.56C115.956 11.0133 115.856 10.5533 115.656 10.18C115.456 9.79333 115.182 9.5 114.836 9.3C114.502 9.1 114.116 9 113.676 9C113.249 9 112.862 9.1 112.516 9.3C112.182 9.5 111.909 9.79333 111.696 10.18C111.496 10.5533 111.396 11.0133 111.396 11.56C111.396 12.1067 111.496 12.58 111.696 12.98C111.909 13.3667 112.182 13.66 112.516 13.86C112.862 14.06 113.249 14.16 113.676 14.16ZM127.556 17V3H131.516V13.86H138.196V17H127.556ZM139.583 17V6.16H143.383V17H139.583ZM141.483 4.96C140.79 4.96 140.23 4.76667 139.803 4.38C139.377 3.99333 139.163 3.51333 139.163 2.94C139.163 2.36667 139.377 1.88667 139.803 1.5C140.23 1.11333 140.79 0.92 141.483 0.92C142.177 0.92 142.737 1.10667 143.163 1.48C143.59 1.84 143.803 2.30667 143.803 2.88C143.803 3.48 143.59 3.98 143.163 4.38C142.75 4.76667 142.19 4.96 141.483 4.96ZM152.673 17.18C151.699 17.18 150.886 16.98 150.233 16.58C149.593 16.18 149.113 15.5667 148.793 14.74C148.473 13.9133 148.313 12.8533 148.313 11.56C148.313 10.2933 148.479 9.24667 148.813 8.42C149.159 7.59333 149.659 6.98 150.313 6.58C150.966 6.18 151.753 5.98 152.673 5.98C153.659 5.98 154.553 6.20667 155.353 6.66C156.166 7.11333 156.806 7.76 157.273 8.6C157.753 9.42667 157.993 10.4133 157.993 11.56C157.993 12.72 157.753 13.72 157.273 14.56C156.806 15.3867 156.166 16.0333 155.353 16.5C154.553 16.9533 153.659 17.18 152.673 17.18ZM145.853 17V2.16H149.653V7.98L149.453 11.56L149.473 15.14V17H145.853ZM151.873 14.16C152.299 14.16 152.679 14.06 153.013 13.86C153.359 13.66 153.633 13.3667 153.833 12.98C154.046 12.58 154.153 12.1067 154.153 11.56C154.153 11.0133 154.046 10.5533 153.833 10.18C153.633 9.79333 153.359 9.5 153.013 9.3C152.679 9.1 152.299 9 151.873 9C151.446 9 151.059 9.1 150.713 9.3C150.379 9.5 150.106 9.79333 149.893 10.18C149.693 10.5533 149.593 11.0133 149.593 11.56C149.593 12.1067 149.693 12.58 149.893 12.98C150.106 13.3667 150.379 13.66 150.713 13.86C151.059 14.06 151.446 14.16 151.873 14.16ZM165.439 17.18C164.159 17.18 163.039 16.94 162.079 16.46C161.132 15.9667 160.392 15.3 159.859 14.46C159.339 13.6067 159.079 12.64 159.079 11.56C159.079 10.48 159.332 9.52 159.839 8.68C160.359 7.82667 161.072 7.16667 161.979 6.7C162.886 6.22 163.906 5.98 165.039 5.98C166.106 5.98 167.079 6.2 167.959 6.64C168.839 7.06667 169.539 7.7 170.059 8.54C170.579 9.38 170.839 10.4 170.839 11.6C170.839 11.7333 170.832 11.8867 170.819 12.06C170.806 12.2333 170.792 12.3933 170.779 12.54H162.199V10.54H168.759L167.319 11.1C167.332 10.6067 167.239 10.18 167.039 9.82C166.852 9.46 166.586 9.18 166.239 8.98C165.906 8.78 165.512 8.68 165.059 8.68C164.606 8.68 164.206 8.78 163.859 8.98C163.526 9.18 163.266 9.46667 163.079 9.84C162.892 10.2 162.799 10.6267 162.799 11.12V11.7C162.799 12.2333 162.906 12.6933 163.119 13.08C163.346 13.4667 163.666 13.7667 164.079 13.98C164.492 14.18 164.986 14.28 165.559 14.28C166.092 14.28 166.546 14.2067 166.919 14.06C167.306 13.9 167.686 13.66 168.059 13.34L170.059 15.42C169.539 15.9933 168.899 16.4333 168.139 16.74C167.379 17.0333 166.479 17.18 165.439 17.18ZM172.591 17V6.16H176.211V9.32L175.671 8.42C175.991 7.60667 176.511 7 177.231 6.6C177.951 6.18667 178.824 5.98 179.851 5.98V9.4C179.678 9.37333 179.524 9.36 179.391 9.36C179.271 9.34667 179.138 9.34 178.991 9.34C178.218 9.34 177.591 9.55333 177.111 9.98C176.631 10.3933 176.391 11.0733 176.391 12.02V17H172.591ZM187.395 17V14.98L187.135 14.48V10.76C187.135 10.16 186.948 9.7 186.575 9.38C186.215 9.04667 185.635 8.88 184.835 8.88C184.315 8.88 183.788 8.96667 183.255 9.14C182.721 9.3 182.268 9.52667 181.895 9.82L180.615 7.24C181.228 6.84 181.961 6.53333 182.815 6.32C183.681 6.09333 184.541 5.98 185.395 5.98C187.155 5.98 188.515 6.38667 189.475 7.2C190.448 8 190.935 9.26 190.935 10.98V17H187.395ZM184.195 17.18C183.328 17.18 182.595 17.0333 181.995 16.74C181.395 16.4467 180.935 16.0467 180.615 15.54C180.308 15.0333 180.155 14.4667 180.155 13.84C180.155 13.1733 180.321 12.6 180.655 12.12C181.001 11.6267 181.528 11.2533 182.235 11C182.941 10.7333 183.855 10.6 184.975 10.6H187.535V12.58H185.495C184.881 12.58 184.448 12.68 184.195 12.88C183.955 13.08 183.835 13.3467 183.835 13.68C183.835 14.0133 183.961 14.28 184.215 14.48C184.468 14.68 184.815 14.78 185.255 14.78C185.668 14.78 186.041 14.68 186.375 14.48C186.721 14.2667 186.975 13.9467 187.135 13.52L187.655 14.92C187.455 15.6667 187.061 16.2333 186.475 16.62C185.901 16.9933 185.141 17.18 184.195 17.18ZM198.173 17.18C196.787 17.18 195.707 16.84 194.933 16.16C194.16 15.4667 193.773 14.4267 193.773 13.04V3.74H197.573V13C197.573 13.3867 197.68 13.6933 197.893 13.92C198.107 14.1333 198.38 14.24 198.713 14.24C199.167 14.24 199.553 14.1267 199.873 13.9L200.813 16.56C200.493 16.7733 200.1 16.9267 199.633 17.02C199.167 17.1267 198.68 17.18 198.173 17.18ZM192.193 9.4V6.56H200.053V9.4H192.193ZM202.279 17V6.16H206.079V17H202.279ZM204.179 4.96C203.485 4.96 202.925 4.76667 202.499 4.38C202.072 3.99333 201.859 3.51333 201.859 2.94C201.859 2.36667 202.072 1.88667 202.499 1.5C202.925 1.11333 203.485 0.92 204.179 0.92C204.872 0.92 205.432 1.10667 205.859 1.48C206.285 1.84 206.499 2.30667 206.499 2.88C206.499 3.48 206.285 3.98 205.859 4.38C205.445 4.76667 204.885 4.96 204.179 4.96Z" fill="#4EC79F"/>
</svg>
