<svg width="333" height="143" viewBox="0 0 333 143" fill="none" xmlns="http://www.w3.org/2000/svg">
<rect y="7.93726" width="322.513" height="135.063" rx="34" fill="#FF6474"/>
<rect x="9.65625" width="322.513" height="135.063" rx="34" fill="white"/>
<path d="M36.65 62L44.375 44.5H49.25L57 62H51.85L45.8 46.925H47.75L41.7 62H36.65ZM40.875 58.6L42.15 54.95H50.7L51.975 58.6H40.875ZM58.1783 62V43.45H62.9283V62H58.1783ZM73.1152 62.225C71.5152 62.225 70.1152 61.925 68.9152 61.325C67.7319 60.7083 66.8069 59.875 66.1402 58.825C65.4902 57.7583 65.1652 56.55 65.1652 55.2C65.1652 53.85 65.4819 52.65 66.1152 51.6C66.7652 50.5333 67.6569 49.7083 68.7902 49.125C69.9236 48.525 71.1986 48.225 72.6152 48.225C73.9486 48.225 75.1652 48.5 76.2652 49.05C77.3652 49.5833 78.2402 50.375 78.8902 51.425C79.5402 52.475 79.8652 53.75 79.8652 55.25C79.8652 55.4167 79.8569 55.6083 79.8402 55.825C79.8236 56.0417 79.8069 56.2417 79.7902 56.425H69.0652V53.925H77.2652L75.4652 54.625C75.4819 54.0083 75.3652 53.475 75.1152 53.025C74.8819 52.575 74.5486 52.225 74.1152 51.975C73.6986 51.725 73.2069 51.6 72.6402 51.6C72.0736 51.6 71.5736 51.725 71.1402 51.975C70.7236 52.225 70.3986 52.5833 70.1652 53.05C69.9319 53.5 69.8152 54.0333 69.8152 54.65V55.375C69.8152 56.0417 69.9486 56.6167 70.2152 57.1C70.4986 57.5833 70.8986 57.9583 71.4152 58.225C71.9319 58.475 72.5486 58.6 73.2652 58.6C73.9319 58.6 74.4986 58.5083 74.9652 58.325C75.4486 58.125 75.9236 57.825 76.3902 57.425L78.8902 60.025C78.2402 60.7417 77.4402 61.2917 76.4902 61.675C75.5402 62.0417 74.4152 62.225 73.1152 62.225ZM86.9803 62.225C85.8303 62.225 84.7053 62.0917 83.6053 61.825C82.5219 61.5583 81.6469 61.225 80.9803 60.825L82.4053 57.575C83.0386 57.9583 83.7803 58.2667 84.6303 58.5C85.4803 58.7167 86.3136 58.825 87.1303 58.825C87.9303 58.825 88.4803 58.7417 88.7803 58.575C89.0969 58.4083 89.2553 58.1833 89.2553 57.9C89.2553 57.6333 89.1053 57.4417 88.8053 57.325C88.5219 57.1917 88.1386 57.0917 87.6553 57.025C87.1886 56.9583 86.6719 56.8833 86.1053 56.8C85.5386 56.7167 84.9636 56.6083 84.3803 56.475C83.8136 56.325 83.2886 56.1083 82.8053 55.825C82.3386 55.525 81.9636 55.125 81.6803 54.625C81.3969 54.125 81.2553 53.4917 81.2553 52.725C81.2553 51.8583 81.5053 51.0917 82.0053 50.425C82.5219 49.7417 83.2719 49.2083 84.2553 48.825C85.2386 48.425 86.4386 48.225 87.8553 48.225C88.8053 48.225 89.7636 48.325 90.7303 48.525C91.7136 48.7083 92.5386 48.9917 93.2053 49.375L91.7803 52.6C91.1136 52.2167 90.4469 51.9583 89.7803 51.825C89.1136 51.675 88.4803 51.6 87.8803 51.6C87.0803 51.6 86.5136 51.6917 86.1803 51.875C85.8636 52.0583 85.7053 52.2833 85.7053 52.55C85.7053 52.8167 85.8469 53.025 86.1303 53.175C86.4136 53.3083 86.7886 53.4167 87.2553 53.5C87.7386 53.5667 88.2636 53.6417 88.8303 53.725C89.3969 53.7917 89.9636 53.9 90.5303 54.05C91.1136 54.2 91.6386 54.425 92.1053 54.725C92.5886 55.0083 92.9719 55.4 93.2553 55.9C93.5386 56.3833 93.6803 57.0083 93.6803 57.775C93.6803 58.6083 93.4219 59.3583 92.9053 60.025C92.4053 60.6917 91.6553 61.225 90.6553 61.625C89.6719 62.025 88.4469 62.225 86.9803 62.225ZM100.652 62.225C99.5021 62.225 98.3771 62.0917 97.2771 61.825C96.1938 61.5583 95.3188 61.225 94.6521 60.825L96.0771 57.575C96.7105 57.9583 97.4521 58.2667 98.3021 58.5C99.1521 58.7167 99.9855 58.825 100.802 58.825C101.602 58.825 102.152 58.7417 102.452 58.575C102.769 58.4083 102.927 58.1833 102.927 57.9C102.927 57.6333 102.777 57.4417 102.477 57.325C102.194 57.1917 101.81 57.0917 101.327 57.025C100.86 56.9583 100.344 56.8833 99.7771 56.8C99.2105 56.7167 98.6355 56.6083 98.0521 56.475C97.4855 56.325 96.9605 56.1083 96.4771 55.825C96.0105 55.525 95.6355 55.125 95.3521 54.625C95.0688 54.125 94.9271 53.4917 94.9271 52.725C94.9271 51.8583 95.1771 51.0917 95.6771 50.425C96.1938 49.7417 96.9438 49.2083 97.9271 48.825C98.9105 48.425 100.11 48.225 101.527 48.225C102.477 48.225 103.435 48.325 104.402 48.525C105.385 48.7083 106.21 48.9917 106.877 49.375L105.452 52.6C104.785 52.2167 104.119 51.9583 103.452 51.825C102.785 51.675 102.152 51.6 101.552 51.6C100.752 51.6 100.185 51.6917 99.8521 51.875C99.5355 52.0583 99.3771 52.2833 99.3771 52.55C99.3771 52.8167 99.5188 53.025 99.8021 53.175C100.085 53.3083 100.46 53.4167 100.927 53.5C101.41 53.5667 101.935 53.6417 102.502 53.725C103.069 53.7917 103.635 53.9 104.202 54.05C104.785 54.2 105.31 54.425 105.777 54.725C106.26 55.0083 106.644 55.4 106.927 55.9C107.21 56.3833 107.352 57.0083 107.352 57.775C107.352 58.6083 107.094 59.3583 106.577 60.025C106.077 60.6917 105.327 61.225 104.327 61.625C103.344 62.025 102.119 62.225 100.652 62.225ZM117.674 62V59.475L117.349 58.85V54.2C117.349 53.45 117.116 52.875 116.649 52.475C116.199 52.0583 115.474 51.85 114.474 51.85C113.824 51.85 113.166 51.9583 112.499 52.175C111.832 52.375 111.266 52.6583 110.799 53.025L109.199 49.8C109.966 49.3 110.882 48.9167 111.949 48.65C113.032 48.3667 114.107 48.225 115.174 48.225C117.374 48.225 119.074 48.7333 120.274 49.75C121.491 50.75 122.099 52.325 122.099 54.475V62H117.674ZM113.674 62.225C112.591 62.225 111.674 62.0417 110.924 61.675C110.174 61.3083 109.599 60.8083 109.199 60.175C108.816 59.5417 108.624 58.8333 108.624 58.05C108.624 57.2167 108.832 56.5 109.249 55.9C109.682 55.2833 110.341 54.8167 111.224 54.5C112.107 54.1667 113.249 54 114.649 54H117.849V56.475H115.299C114.532 56.475 113.991 56.6 113.674 56.85C113.374 57.1 113.224 57.4333 113.224 57.85C113.224 58.2667 113.382 58.6 113.699 58.85C114.016 59.1 114.449 59.225 114.999 59.225C115.516 59.225 115.982 59.1 116.399 58.85C116.832 58.5833 117.149 58.1833 117.349 57.65L117.999 59.4C117.749 60.3333 117.257 61.0417 116.524 61.525C115.807 61.9917 114.857 62.225 113.674 62.225ZM133.922 48.225C134.972 48.225 135.922 48.4417 136.772 48.875C137.622 49.2917 138.289 49.9417 138.772 50.825C139.272 51.7083 139.522 52.85 139.522 54.25V62H134.772V55.025C134.772 54.0583 134.572 53.3583 134.172 52.925C133.789 52.475 133.247 52.25 132.547 52.25C132.047 52.25 131.589 52.3667 131.172 52.6C130.756 52.8167 130.431 53.1583 130.197 53.625C129.964 54.0917 129.847 54.7 129.847 55.45V62H125.097V48.45H129.622V52.3L128.747 51.175C129.264 50.1917 129.972 49.4583 130.872 48.975C131.772 48.475 132.789 48.225 133.922 48.225ZM148.575 62.225C147.342 62.225 146.217 61.9417 145.2 61.375C144.2 60.7917 143.4 59.9833 142.8 58.95C142.2 57.9 141.9 56.65 141.9 55.2C141.9 53.7667 142.2 52.5333 142.8 51.5C143.4 50.45 144.2 49.6417 145.2 49.075C146.217 48.5083 147.342 48.225 148.575 48.225C149.742 48.225 150.725 48.475 151.525 48.975C152.342 49.475 152.959 50.2417 153.375 51.275C153.792 52.3083 154 53.6167 154 55.2C154 56.8167 153.8 58.1417 153.4 59.175C153 60.2083 152.4 60.975 151.6 61.475C150.8 61.975 149.792 62.225 148.575 62.225ZM149.575 58.45C150.109 58.45 150.584 58.325 151 58.075C151.434 57.825 151.775 57.4583 152.025 56.975C152.275 56.475 152.4 55.8833 152.4 55.2C152.4 54.5167 152.275 53.9417 152.025 53.475C151.775 52.9917 151.434 52.625 151 52.375C150.584 52.125 150.109 52 149.575 52C149.025 52 148.534 52.125 148.1 52.375C147.684 52.625 147.35 52.9917 147.1 53.475C146.85 53.9417 146.725 54.5167 146.725 55.2C146.725 55.8833 146.85 56.475 147.1 56.975C147.35 57.4583 147.684 57.825 148.1 58.075C148.534 58.325 149.025 58.45 149.575 58.45ZM152.55 62V59.675L152.575 55.2L152.325 50.725V43.45H157.075V62H152.55ZM160.131 62V48.45H164.656V52.4L163.981 51.275C164.381 50.2583 165.031 49.5 165.931 49C166.831 48.4833 167.923 48.225 169.206 48.225V52.5C168.99 52.4667 168.798 52.45 168.631 52.45C168.481 52.4333 168.315 52.425 168.131 52.425C167.165 52.425 166.381 52.6917 165.781 53.225C165.181 53.7417 164.881 54.5917 164.881 55.775V62H160.131ZM177.845 62.225C176.361 62.225 175.045 61.925 173.895 61.325C172.745 60.725 171.836 59.9 171.17 58.85C170.52 57.7833 170.195 56.5667 170.195 55.2C170.195 53.8333 170.52 52.625 171.17 51.575C171.836 50.525 172.745 49.7083 173.895 49.125C175.045 48.525 176.361 48.225 177.845 48.225C179.328 48.225 180.645 48.525 181.795 49.125C182.961 49.7083 183.87 50.525 184.52 51.575C185.17 52.625 185.495 53.8333 185.495 55.2C185.495 56.5667 185.17 57.7833 184.52 58.85C183.87 59.9 182.961 60.725 181.795 61.325C180.645 61.925 179.328 62.225 177.845 62.225ZM177.845 58.45C178.395 58.45 178.878 58.325 179.295 58.075C179.728 57.825 180.07 57.4583 180.32 56.975C180.57 56.475 180.695 55.8833 180.695 55.2C180.695 54.5167 180.57 53.9417 180.32 53.475C180.07 52.9917 179.728 52.625 179.295 52.375C178.878 52.125 178.395 52 177.845 52C177.311 52 176.828 52.125 176.395 52.375C175.978 52.625 175.636 52.9917 175.37 53.475C175.12 53.9417 174.995 54.5167 174.995 55.2C174.995 55.8833 175.12 56.475 175.37 56.975C175.636 57.4583 175.978 57.825 176.395 58.075C176.828 58.325 177.311 58.45 177.845 58.45ZM195.195 62V44.5H200.145V58.075H208.495V62H195.195ZM210.229 62V48.45H214.979V62H210.229ZM212.604 46.95C211.737 46.95 211.037 46.7083 210.504 46.225C209.971 45.7417 209.704 45.1417 209.704 44.425C209.704 43.7083 209.971 43.1083 210.504 42.625C211.037 42.1417 211.737 41.9 212.604 41.9C213.471 41.9 214.171 42.1333 214.704 42.6C215.237 43.05 215.504 43.6333 215.504 44.35C215.504 45.1 215.237 45.725 214.704 46.225C214.187 46.7083 213.487 46.95 212.604 46.95ZM226.591 62.225C225.374 62.225 224.358 61.975 223.541 61.475C222.741 60.975 222.141 60.2083 221.741 59.175C221.341 58.1417 221.141 56.8167 221.141 55.2C221.141 53.6167 221.349 52.3083 221.766 51.275C222.199 50.2417 222.824 49.475 223.641 48.975C224.458 48.475 225.441 48.225 226.591 48.225C227.824 48.225 228.941 48.5083 229.941 49.075C230.958 49.6417 231.758 50.45 232.341 51.5C232.941 52.5333 233.241 53.7667 233.241 55.2C233.241 56.65 232.941 57.9 232.341 58.95C231.758 59.9833 230.958 60.7917 229.941 61.375C228.941 61.9417 227.824 62.225 226.591 62.225ZM218.066 62V43.45H222.816V50.725L222.566 55.2L222.591 59.675V62H218.066ZM225.591 58.45C226.124 58.45 226.599 58.325 227.016 58.075C227.449 57.825 227.791 57.4583 228.041 56.975C228.308 56.475 228.441 55.8833 228.441 55.2C228.441 54.5167 228.308 53.9417 228.041 53.475C227.791 52.9917 227.449 52.625 227.016 52.375C226.599 52.125 226.124 52 225.591 52C225.058 52 224.574 52.125 224.141 52.375C223.724 52.625 223.383 52.9917 223.116 53.475C222.866 53.9417 222.741 54.5167 222.741 55.2C222.741 55.8833 222.866 56.475 223.116 56.975C223.383 57.4583 223.724 57.825 224.141 58.075C224.574 58.325 225.058 58.45 225.591 58.45ZM242.549 62.225C240.949 62.225 239.549 61.925 238.349 61.325C237.165 60.7083 236.24 59.875 235.574 58.825C234.924 57.7583 234.599 56.55 234.599 55.2C234.599 53.85 234.915 52.65 235.549 51.6C236.199 50.5333 237.09 49.7083 238.224 49.125C239.357 48.525 240.632 48.225 242.049 48.225C243.382 48.225 244.599 48.5 245.699 49.05C246.799 49.5833 247.674 50.375 248.324 51.425C248.974 52.475 249.299 53.75 249.299 55.25C249.299 55.4167 249.29 55.6083 249.274 55.825C249.257 56.0417 249.24 56.2417 249.224 56.425H238.499V53.925H246.699L244.899 54.625C244.915 54.0083 244.799 53.475 244.549 53.025C244.315 52.575 243.982 52.225 243.549 51.975C243.132 51.725 242.64 51.6 242.074 51.6C241.507 51.6 241.007 51.725 240.574 51.975C240.157 52.225 239.832 52.5833 239.599 53.05C239.365 53.5 239.249 54.0333 239.249 54.65V55.375C239.249 56.0417 239.382 56.6167 239.649 57.1C239.932 57.5833 240.332 57.9583 240.849 58.225C241.365 58.475 241.982 58.6 242.699 58.6C243.365 58.6 243.932 58.5083 244.399 58.325C244.882 58.125 245.357 57.825 245.824 57.425L248.324 60.025C247.674 60.7417 246.874 61.2917 245.924 61.675C244.974 62.0417 243.849 62.225 242.549 62.225ZM251.489 62V48.45H256.014V52.4L255.339 51.275C255.739 50.2583 256.389 49.5 257.289 49C258.189 48.4833 259.281 48.225 260.564 48.225V52.5C260.347 52.4667 260.156 52.45 259.989 52.45C259.839 52.4333 259.672 52.425 259.489 52.425C258.522 52.425 257.739 52.6917 257.139 53.225C256.539 53.7417 256.239 54.5917 256.239 55.775V62H251.489ZM269.993 62V59.475L269.668 58.85V54.2C269.668 53.45 269.435 52.875 268.968 52.475C268.518 52.0583 267.793 51.85 266.793 51.85C266.143 51.85 265.485 51.9583 264.818 52.175C264.152 52.375 263.585 52.6583 263.118 53.025L261.518 49.8C262.285 49.3 263.202 48.9167 264.268 48.65C265.352 48.3667 266.427 48.225 267.493 48.225C269.693 48.225 271.393 48.7333 272.593 49.75C273.81 50.75 274.418 52.325 274.418 54.475V62H269.993ZM265.993 62.225C264.91 62.225 263.993 62.0417 263.243 61.675C262.493 61.3083 261.918 60.8083 261.518 60.175C261.135 59.5417 260.943 58.8333 260.943 58.05C260.943 57.2167 261.152 56.5 261.568 55.9C262.002 55.2833 262.66 54.8167 263.543 54.5C264.427 54.1667 265.568 54 266.968 54H270.168V56.475H267.618C266.852 56.475 266.31 56.6 265.993 56.85C265.693 57.1 265.543 57.4333 265.543 57.85C265.543 58.2667 265.702 58.6 266.018 58.85C266.335 59.1 266.768 59.225 267.318 59.225C267.835 59.225 268.302 59.1 268.718 58.85C269.152 58.5833 269.468 58.1833 269.668 57.65L270.318 59.4C270.068 60.3333 269.577 61.0417 268.843 61.525C268.127 61.9917 267.177 62.225 265.993 62.225ZM283.467 62.225C281.733 62.225 280.383 61.8 279.417 60.95C278.45 60.0833 277.967 58.7833 277.967 57.05V45.425H282.717V57C282.717 57.4833 282.85 57.8667 283.117 58.15C283.383 58.4167 283.725 58.55 284.142 58.55C284.708 58.55 285.192 58.4083 285.592 58.125L286.767 61.45C286.367 61.7167 285.875 61.9083 285.292 62.025C284.708 62.1583 284.1 62.225 283.467 62.225ZM275.992 52.5V48.95H285.817V52.5H275.992ZM288.598 62V48.45H293.348V62H288.598ZM290.973 46.95C290.107 46.95 289.407 46.7083 288.873 46.225C288.34 45.7417 288.073 45.1417 288.073 44.425C288.073 43.7083 288.34 43.1083 288.873 42.625C289.407 42.1417 290.107 41.9 290.973 41.9C291.84 41.9 292.54 42.1333 293.073 42.6C293.607 43.05 293.873 43.6333 293.873 44.35C293.873 45.1 293.607 45.725 293.073 46.225C292.557 46.7083 291.857 46.95 290.973 46.95Z" fill="#4EC79F"/>
<path d="M48.07 81.5H51.04V92H48.07V81.5ZM44.02 92H41.05V81.5H44.02V92ZM48.28 87.905H43.81V85.445H48.28V87.905ZM57.26 92.135C56.3 92.135 55.46 91.955 54.74 91.595C54.03 91.225 53.475 90.725 53.075 90.095C52.685 89.455 52.49 88.73 52.49 87.92C52.49 87.11 52.68 86.39 53.06 85.76C53.45 85.12 53.985 84.625 54.665 84.275C55.345 83.915 56.11 83.735 56.96 83.735C57.76 83.735 58.49 83.9 59.15 84.23C59.81 84.55 60.335 85.025 60.725 85.655C61.115 86.285 61.31 87.05 61.31 87.95C61.31 88.05 61.305 88.165 61.295 88.295C61.285 88.425 61.275 88.545 61.265 88.655H54.83V87.155H59.75L58.67 87.575C58.68 87.205 58.61 86.885 58.46 86.615C58.32 86.345 58.12 86.135 57.86 85.985C57.61 85.835 57.315 85.76 56.975 85.76C56.635 85.76 56.335 85.835 56.075 85.985C55.825 86.135 55.63 86.35 55.49 86.63C55.35 86.9 55.28 87.22 55.28 87.59V88.025C55.28 88.425 55.36 88.77 55.52 89.06C55.69 89.35 55.93 89.575 56.24 89.735C56.55 89.885 56.92 89.96 57.35 89.96C57.75 89.96 58.09 89.905 58.37 89.795C58.66 89.675 58.945 89.495 59.225 89.255L60.725 90.815C60.335 91.245 59.855 91.575 59.285 91.805C58.715 92.025 58.04 92.135 57.26 92.135ZM67.3693 92V90.485L67.1743 90.11V87.32C67.1743 86.87 67.0343 86.525 66.7543 86.285C66.4843 86.035 66.0493 85.91 65.4493 85.91C65.0593 85.91 64.6643 85.975 64.2643 86.105C63.8643 86.225 63.5243 86.395 63.2443 86.615L62.2843 84.68C62.7443 84.38 63.2943 84.15 63.9343 83.99C64.5843 83.82 65.2293 83.735 65.8693 83.735C67.1893 83.735 68.2093 84.04 68.9293 84.65C69.6593 85.25 70.0243 86.195 70.0243 87.485V92H67.3693ZM64.9693 92.135C64.3193 92.135 63.7693 92.025 63.3193 91.805C62.8693 91.585 62.5243 91.285 62.2843 90.905C62.0543 90.525 61.9393 90.1 61.9393 89.63C61.9393 89.13 62.0643 88.7 62.3143 88.34C62.5743 87.97 62.9693 87.69 63.4993 87.5C64.0293 87.3 64.7143 87.2 65.5543 87.2H67.4743V88.685H65.9443C65.4843 88.685 65.1593 88.76 64.9693 88.91C64.7893 89.06 64.6993 89.26 64.6993 89.51C64.6993 89.76 64.7943 89.96 64.9843 90.11C65.1743 90.26 65.4343 90.335 65.7643 90.335C66.0743 90.335 66.3543 90.26 66.6043 90.11C66.8643 89.95 67.0543 89.71 67.1743 89.39L67.5643 90.44C67.4143 91 67.1193 91.425 66.6793 91.715C66.2493 91.995 65.6793 92.135 64.9693 92.135ZM75.4657 92.135C74.7257 92.135 74.0507 91.965 73.4407 91.625C72.8407 91.275 72.3607 90.79 72.0007 90.17C71.6407 89.54 71.4607 88.79 71.4607 87.92C71.4607 87.06 71.6407 86.32 72.0007 85.7C72.3607 85.07 72.8407 84.585 73.4407 84.245C74.0507 83.905 74.7257 83.735 75.4657 83.735C76.1657 83.735 76.7557 83.885 77.2357 84.185C77.7257 84.485 78.0957 84.945 78.3457 85.565C78.5957 86.185 78.7207 86.97 78.7207 87.92C78.7207 88.89 78.6007 89.685 78.3607 90.305C78.1207 90.925 77.7607 91.385 77.2807 91.685C76.8007 91.985 76.1957 92.135 75.4657 92.135ZM76.0657 89.87C76.3857 89.87 76.6707 89.795 76.9207 89.645C77.1807 89.495 77.3857 89.275 77.5357 88.985C77.6857 88.685 77.7607 88.33 77.7607 87.92C77.7607 87.51 77.6857 87.165 77.5357 86.885C77.3857 86.595 77.1807 86.375 76.9207 86.225C76.6707 86.075 76.3857 86 76.0657 86C75.7357 86 75.4407 86.075 75.1807 86.225C74.9307 86.375 74.7307 86.595 74.5807 86.885C74.4307 87.165 74.3557 87.51 74.3557 87.92C74.3557 88.33 74.4307 88.685 74.5807 88.985C74.7307 89.275 74.9307 89.495 75.1807 89.645C75.4407 89.795 75.7357 89.87 76.0657 89.87ZM77.8507 92V90.605L77.8657 87.92L77.7157 85.235V80.87H80.5657V92H77.8507ZM85.6396 92L90.2746 81.5H93.1996L97.8496 92H94.7596L91.1296 82.955H92.2996L88.6696 92H85.6396ZM88.1746 89.96L88.9396 87.77H94.0696L94.8346 89.96H88.1746ZM98.5566 92V83.87H101.272V86.24L100.867 85.565C101.107 84.955 101.497 84.5 102.037 84.2C102.577 83.89 103.232 83.735 104.002 83.735V86.3C103.872 86.28 103.757 86.27 103.657 86.27C103.567 86.26 103.467 86.255 103.357 86.255C102.777 86.255 102.307 86.415 101.947 86.735C101.587 87.045 101.407 87.555 101.407 88.265V92H98.5566ZM109.364 92.135C108.404 92.135 107.564 91.955 106.844 91.595C106.134 91.225 105.579 90.725 105.179 90.095C104.789 89.455 104.594 88.73 104.594 87.92C104.594 87.11 104.784 86.39 105.164 85.76C105.554 85.12 106.089 84.625 106.769 84.275C107.449 83.915 108.214 83.735 109.064 83.735C109.864 83.735 110.594 83.9 111.254 84.23C111.914 84.55 112.439 85.025 112.829 85.655C113.219 86.285 113.414 87.05 113.414 87.95C113.414 88.05 113.409 88.165 113.399 88.295C113.389 88.425 113.379 88.545 113.369 88.655H106.934V87.155H111.854L110.774 87.575C110.784 87.205 110.714 86.885 110.564 86.615C110.424 86.345 110.224 86.135 109.964 85.985C109.714 85.835 109.419 85.76 109.079 85.76C108.739 85.76 108.439 85.835 108.179 85.985C107.929 86.135 107.734 86.35 107.594 86.63C107.454 86.9 107.384 87.22 107.384 87.59V88.025C107.384 88.425 107.464 88.77 107.624 89.06C107.794 89.35 108.034 89.575 108.344 89.735C108.654 89.885 109.024 89.96 109.454 89.96C109.854 89.96 110.194 89.905 110.474 89.795C110.764 89.675 111.049 89.495 111.329 89.255L112.829 90.815C112.439 91.245 111.959 91.575 111.389 91.805C110.819 92.025 110.144 92.135 109.364 92.135ZM119.474 92V90.485L119.279 90.11V87.32C119.279 86.87 119.139 86.525 118.859 86.285C118.589 86.035 118.154 85.91 117.554 85.91C117.164 85.91 116.769 85.975 116.369 86.105C115.969 86.225 115.629 86.395 115.349 86.615L114.389 84.68C114.849 84.38 115.399 84.15 116.039 83.99C116.689 83.82 117.334 83.735 117.974 83.735C119.294 83.735 120.314 84.04 121.034 84.65C121.764 85.25 122.129 86.195 122.129 87.485V92H119.474ZM117.074 92.135C116.424 92.135 115.874 92.025 115.424 91.805C114.974 91.585 114.629 91.285 114.389 90.905C114.159 90.525 114.044 90.1 114.044 89.63C114.044 89.13 114.169 88.7 114.419 88.34C114.679 87.97 115.074 87.69 115.604 87.5C116.134 87.3 116.819 87.2 117.659 87.2H119.579V88.685H118.049C117.589 88.685 117.264 88.76 117.074 88.91C116.894 89.06 116.804 89.26 116.804 89.51C116.804 89.76 116.899 89.96 117.089 90.11C117.279 90.26 117.539 90.335 117.869 90.335C118.179 90.335 118.459 90.26 118.709 90.11C118.969 89.95 119.159 89.71 119.279 89.39L119.669 90.44C119.519 91 119.224 91.425 118.784 91.715C118.354 91.995 117.784 92.135 117.074 92.135ZM131.158 85.565H136.033V87.785H131.158V85.565ZM131.368 89.705H136.858V92H128.428V81.5H136.663V83.795H131.368V89.705ZM141.882 92.135C141.142 92.135 140.467 91.965 139.857 91.625C139.257 91.275 138.777 90.79 138.417 90.17C138.057 89.54 137.877 88.79 137.877 87.92C137.877 87.06 138.057 86.32 138.417 85.7C138.777 85.07 139.257 84.585 139.857 84.245C140.467 83.905 141.142 83.735 141.882 83.735C142.582 83.735 143.172 83.885 143.652 84.185C144.142 84.485 144.512 84.945 144.762 85.565C145.012 86.185 145.137 86.97 145.137 87.92C145.137 88.89 145.017 89.685 144.777 90.305C144.537 90.925 144.177 91.385 143.697 91.685C143.217 91.985 142.612 92.135 141.882 92.135ZM142.482 89.87C142.802 89.87 143.087 89.795 143.337 89.645C143.597 89.495 143.802 89.275 143.952 88.985C144.102 88.685 144.177 88.33 144.177 87.92C144.177 87.51 144.102 87.165 143.952 86.885C143.802 86.595 143.597 86.375 143.337 86.225C143.087 86.075 142.802 86 142.482 86C142.152 86 141.857 86.075 141.597 86.225C141.347 86.375 141.147 86.595 140.997 86.885C140.847 87.165 140.772 87.51 140.772 87.92C140.772 88.33 140.847 88.685 140.997 88.985C141.147 89.275 141.347 89.495 141.597 89.645C141.857 89.795 142.152 89.87 142.482 89.87ZM144.267 92V90.605L144.282 87.92L144.132 85.235V80.87H146.982V92H144.267ZM148.815 92V83.87H151.665V92H148.815ZM150.24 82.97C149.72 82.97 149.3 82.825 148.98 82.535C148.66 82.245 148.5 81.885 148.5 81.455C148.5 81.025 148.66 80.665 148.98 80.375C149.3 80.085 149.72 79.94 150.24 79.94C150.76 79.94 151.18 80.08 151.5 80.36C151.82 80.63 151.98 80.98 151.98 81.41C151.98 81.86 151.82 82.235 151.5 82.535C151.19 82.825 150.77 82.97 150.24 82.97ZM157.148 92.135C156.108 92.135 155.298 91.88 154.718 91.37C154.138 90.85 153.848 90.07 153.848 89.03V82.055H156.698V89C156.698 89.29 156.778 89.52 156.938 89.69C157.098 89.85 157.303 89.93 157.553 89.93C157.893 89.93 158.183 89.845 158.423 89.675L159.128 91.67C158.888 91.83 158.593 91.945 158.243 92.015C157.893 92.095 157.528 92.135 157.148 92.135ZM152.663 86.3V84.17H158.558V86.3H152.663ZM164.072 92.135C163.182 92.135 162.392 91.955 161.702 91.595C161.012 91.235 160.467 90.74 160.067 90.11C159.677 89.47 159.482 88.74 159.482 87.92C159.482 87.1 159.677 86.375 160.067 85.745C160.467 85.115 161.012 84.625 161.702 84.275C162.392 83.915 163.182 83.735 164.072 83.735C164.962 83.735 165.752 83.915 166.442 84.275C167.142 84.625 167.687 85.115 168.077 85.745C168.467 86.375 168.662 87.1 168.662 87.92C168.662 88.74 168.467 89.47 168.077 90.11C167.687 90.74 167.142 91.235 166.442 91.595C165.752 91.955 164.962 92.135 164.072 92.135ZM164.072 89.87C164.402 89.87 164.692 89.795 164.942 89.645C165.202 89.495 165.407 89.275 165.557 88.985C165.707 88.685 165.782 88.33 165.782 87.92C165.782 87.51 165.707 87.165 165.557 86.885C165.407 86.595 165.202 86.375 164.942 86.225C164.692 86.075 164.402 86 164.072 86C163.752 86 163.462 86.075 163.202 86.225C162.952 86.375 162.747 86.595 162.587 86.885C162.437 87.165 162.362 87.51 162.362 87.92C162.362 88.33 162.437 88.685 162.587 88.985C162.747 89.275 162.952 89.495 163.202 89.645C163.462 89.795 163.752 89.87 164.072 89.87ZM169.982 92V83.87H172.697V86.24L172.292 85.565C172.532 84.955 172.922 84.5 173.462 84.2C174.002 83.89 174.657 83.735 175.427 83.735V86.3C175.297 86.28 175.182 86.27 175.082 86.27C174.992 86.26 174.892 86.255 174.782 86.255C174.202 86.255 173.732 86.415 173.372 86.735C173.012 87.045 172.832 87.555 172.832 88.265V92H169.982ZM176.603 92V83.87H179.453V92H176.603ZM178.028 82.97C177.508 82.97 177.088 82.825 176.768 82.535C176.448 82.245 176.288 81.885 176.288 81.455C176.288 81.025 176.448 80.665 176.768 80.375C177.088 80.085 177.508 79.94 178.028 79.94C178.548 79.94 178.968 80.08 179.288 80.36C179.608 80.63 179.768 80.98 179.768 81.41C179.768 81.86 179.608 82.235 179.288 82.535C178.978 82.825 178.558 82.97 178.028 82.97ZM186.271 92V90.485L186.076 90.11V87.32C186.076 86.87 185.936 86.525 185.656 86.285C185.386 86.035 184.951 85.91 184.351 85.91C183.961 85.91 183.566 85.975 183.166 86.105C182.766 86.225 182.426 86.395 182.146 86.615L181.186 84.68C181.646 84.38 182.196 84.15 182.836 83.99C183.486 83.82 184.131 83.735 184.771 83.735C186.091 83.735 187.111 84.04 187.831 84.65C188.561 85.25 188.926 86.195 188.926 87.485V92H186.271ZM183.871 92.135C183.221 92.135 182.671 92.025 182.221 91.805C181.771 91.585 181.426 91.285 181.186 90.905C180.956 90.525 180.841 90.1 180.841 89.63C180.841 89.13 180.966 88.7 181.216 88.34C181.476 87.97 181.871 87.69 182.401 87.5C182.931 87.3 183.616 87.2 184.456 87.2H186.376V88.685H184.846C184.386 88.685 184.061 88.76 183.871 88.91C183.691 89.06 183.601 89.26 183.601 89.51C183.601 89.76 183.696 89.96 183.886 90.11C184.076 90.26 184.336 90.335 184.666 90.335C184.976 90.335 185.256 90.26 185.506 90.11C185.766 89.95 185.956 89.71 186.076 89.39L186.466 90.44C186.316 91 186.021 91.425 185.581 91.715C185.151 91.995 184.581 92.135 183.871 92.135ZM190.725 92V80.87H193.575V92H190.725ZM199.687 92.135C198.727 92.135 197.887 91.955 197.167 91.595C196.457 91.225 195.902 90.725 195.502 90.095C195.112 89.455 194.917 88.73 194.917 87.92C194.917 87.11 195.107 86.39 195.487 85.76C195.877 85.12 196.412 84.625 197.092 84.275C197.772 83.915 198.537 83.735 199.387 83.735C200.187 83.735 200.917 83.9 201.577 84.23C202.237 84.55 202.762 85.025 203.152 85.655C203.542 86.285 203.737 87.05 203.737 87.95C203.737 88.05 203.732 88.165 203.722 88.295C203.712 88.425 203.702 88.545 203.692 88.655H197.257V87.155H202.177L201.097 87.575C201.107 87.205 201.037 86.885 200.887 86.615C200.747 86.345 200.547 86.135 200.287 85.985C200.037 85.835 199.742 85.76 199.402 85.76C199.062 85.76 198.762 85.835 198.502 85.985C198.252 86.135 198.057 86.35 197.917 86.63C197.777 86.9 197.707 87.22 197.707 87.59V88.025C197.707 88.425 197.787 88.77 197.947 89.06C198.117 89.35 198.357 89.575 198.667 89.735C198.977 89.885 199.347 89.96 199.777 89.96C200.177 89.96 200.517 89.905 200.797 89.795C201.087 89.675 201.372 89.495 201.652 89.255L203.152 90.815C202.762 91.245 202.282 91.575 201.712 91.805C201.142 92.025 200.467 92.135 199.687 92.135Z" fill="black"/>
</svg>
