<svg width="80" height="14" viewBox="0 0 80 14" fill="none" xmlns="http://www.w3.org/2000/svg">
<path d="M0.212687 13L5.72069 0.399999H9.89669L15.4047 13H11.0127L6.94469 2.416H8.60069L4.53269 13H0.212687ZM3.48869 10.804L4.56869 7.744H10.3647L11.4447 10.804H3.48869ZM15.9566 13V3.154H19.8266V6.124L19.1966 5.278C19.4966 4.51 19.9766 3.934 20.6366 3.55C21.2966 3.166 22.0886 2.974 23.0126 2.974V6.574C22.8326 6.55 22.6706 6.532 22.5266 6.52C22.3946 6.508 22.2566 6.502 22.1126 6.502C21.5006 6.502 20.9966 6.664 20.6006 6.988C20.2166 7.3 20.0246 7.846 20.0246 8.626V13H15.9566ZM29.5137 13.18C28.3137 13.18 27.2637 12.958 26.3637 12.514C25.4757 12.07 24.7857 11.464 24.2937 10.696C23.8017 9.916 23.5557 9.04 23.5557 8.068C23.5557 7.072 23.7957 6.19 24.2757 5.422C24.7677 4.654 25.4337 4.054 26.2737 3.622C27.1257 3.19 28.0797 2.974 29.1357 2.974C30.1077 2.974 31.0017 3.166 31.8177 3.55C32.6457 3.934 33.3057 4.504 33.7977 5.26C34.3017 6.016 34.5537 6.952 34.5537 8.068C34.5537 8.212 34.5477 8.374 34.5357 8.554C34.5237 8.722 34.5117 8.878 34.4997 9.022H26.9217V7.06H32.3397L30.8097 7.582C30.8097 7.198 30.7377 6.874 30.5937 6.61C30.4617 6.334 30.2757 6.124 30.0357 5.98C29.7957 5.824 29.5077 5.746 29.1717 5.746C28.8357 5.746 28.5417 5.824 28.2897 5.98C28.0497 6.124 27.8637 6.334 27.7317 6.61C27.5997 6.874 27.5337 7.198 27.5337 7.582V8.194C27.5337 8.614 27.6177 8.974 27.7857 9.274C27.9537 9.574 28.1937 9.802 28.5057 9.958C28.8177 10.102 29.1957 10.174 29.6397 10.174C30.0957 10.174 30.4677 10.114 30.7557 9.994C31.0557 9.874 31.3677 9.694 31.6917 9.454L33.8157 11.596C33.3357 12.112 32.7417 12.508 32.0337 12.784C31.3377 13.048 30.4977 13.18 29.5137 13.18ZM41.5318 13V11.254L41.2438 10.786V7.474C41.2438 6.994 41.0938 6.628 40.7938 6.376C40.5058 6.124 40.0318 5.998 39.3718 5.998C38.9278 5.998 38.4778 6.07 38.0218 6.214C37.5658 6.346 37.1758 6.532 36.8518 6.772L35.5558 4.09C36.1318 3.73 36.8218 3.454 37.6258 3.262C38.4298 3.07 39.2158 2.974 39.9838 2.974C41.6758 2.974 42.9838 3.352 43.9078 4.108C44.8438 4.864 45.3118 6.064 45.3118 7.708V13H41.5318ZM38.7418 13.18C37.9378 13.18 37.2658 13.042 36.7258 12.766C36.1858 12.49 35.7778 12.124 35.5018 11.668C35.2258 11.2 35.0878 10.684 35.0878 10.12C35.0878 9.484 35.2498 8.944 35.5738 8.5C35.8978 8.056 36.3898 7.72 37.0498 7.492C37.7218 7.264 38.5678 7.15 39.5878 7.15H41.6398V9.112H40.2358C39.8038 9.112 39.4858 9.184 39.2818 9.328C39.0898 9.46 38.9938 9.664 38.9938 9.94C38.9938 10.168 39.0778 10.36 39.2458 10.516C39.4258 10.66 39.6658 10.732 39.9658 10.732C40.2418 10.732 40.4938 10.66 40.7218 10.516C40.9618 10.36 41.1358 10.12 41.2438 9.796L41.7658 11.002C41.6098 11.734 41.2798 12.28 40.7758 12.64C40.2718 13 39.5938 13.18 38.7418 13.18ZM60.7644 0.399999H65.0124V13H60.7644V0.399999ZM56.8404 13H52.5924V0.399999H56.8404V13ZM61.0524 8.356H56.5524V4.864H61.0524V8.356ZM67.0592 13V0.399999H73.1252C74.3012 0.399999 75.3152 0.591999 76.1672 0.975999C77.0312 1.36 77.6972 1.912 78.1652 2.632C78.6332 3.34 78.8672 4.18 78.8672 5.152C78.8672 6.124 78.6332 6.964 78.1652 7.672C77.6972 8.368 77.0312 8.902 76.1672 9.274C75.3152 9.646 74.3012 9.832 73.1252 9.832H69.4172L71.3072 8.086V13H67.0592ZM74.6012 13L71.5052 8.41H76.0052L79.1372 13H74.6012ZM71.3072 8.554L69.4172 6.628H72.8552C73.4432 6.628 73.8752 6.496 74.1512 6.232C74.4392 5.968 74.5832 5.608 74.5832 5.152C74.5832 4.696 74.4392 4.336 74.1512 4.072C73.8752 3.808 73.4432 3.676 72.8552 3.676H69.4172L71.3072 1.75V8.554Z" fill="#4EC79F"/>
</svg>
