<svg width="203" height="16" viewBox="0 0 203 16" fill="none" xmlns="http://www.w3.org/2000/svg">
<path d="M0.856242 15L6.36424 2.4H10.5402L16.0482 15H11.6562L7.58824 4.416H9.24424L5.17624 15H0.856242ZM4.13224 12.804L5.21224 9.744H11.0082L12.0882 12.804H4.13224ZM16.6002 15V5.154H20.4702V8.124L19.8402 7.278C20.1402 6.51 20.6202 5.934 21.2802 5.55C21.9402 5.166 22.7322 4.974 23.6562 4.974V8.574C23.4762 8.55 23.3142 8.532 23.1702 8.52C23.0382 8.508 22.9002 8.502 22.7562 8.502C22.1442 8.502 21.6402 8.664 21.2442 8.988C20.8602 9.3 20.6682 9.846 20.6682 10.626V15H16.6002ZM30.1573 15.18C28.9573 15.18 27.9073 14.958 27.0073 14.514C26.1193 14.07 25.4293 13.464 24.9373 12.696C24.4453 11.916 24.1993 11.04 24.1993 10.068C24.1993 9.072 24.4393 8.19 24.9193 7.422C25.4113 6.654 26.0773 6.054 26.9173 5.622C27.7693 5.19 28.7233 4.974 29.7793 4.974C30.7513 4.974 31.6453 5.166 32.4613 5.55C33.2893 5.934 33.9493 6.504 34.4413 7.26C34.9453 8.016 35.1973 8.952 35.1973 10.068C35.1973 10.212 35.1913 10.374 35.1793 10.554C35.1673 10.722 35.1553 10.878 35.1433 11.022H27.5653V9.06H32.9833L31.4533 9.582C31.4533 9.198 31.3813 8.874 31.2373 8.61C31.1053 8.334 30.9193 8.124 30.6793 7.98C30.4393 7.824 30.1513 7.746 29.8153 7.746C29.4793 7.746 29.1853 7.824 28.9333 7.98C28.6933 8.124 28.5073 8.334 28.3753 8.61C28.2433 8.874 28.1773 9.198 28.1773 9.582V10.194C28.1773 10.614 28.2613 10.974 28.4293 11.274C28.5973 11.574 28.8373 11.802 29.1493 11.958C29.4613 12.102 29.8393 12.174 30.2833 12.174C30.7393 12.174 31.1113 12.114 31.3993 11.994C31.6993 11.874 32.0113 11.694 32.3353 11.454L34.4593 13.596C33.9793 14.112 33.3853 14.508 32.6773 14.784C31.9813 15.048 31.1413 15.18 30.1573 15.18ZM42.1754 15V13.254L41.8874 12.786V9.474C41.8874 8.994 41.7374 8.628 41.4374 8.376C41.1494 8.124 40.6754 7.998 40.0154 7.998C39.5714 7.998 39.1214 8.07 38.6654 8.214C38.2094 8.346 37.8194 8.532 37.4954 8.772L36.1994 6.09C36.7754 5.73 37.4654 5.454 38.2694 5.262C39.0734 5.07 39.8594 4.974 40.6274 4.974C42.3194 4.974 43.6274 5.352 44.5514 6.108C45.4874 6.864 45.9554 8.064 45.9554 9.708V15H42.1754ZM39.3854 15.18C38.5814 15.18 37.9094 15.042 37.3694 14.766C36.8294 14.49 36.4214 14.124 36.1454 13.668C35.8694 13.2 35.7314 12.684 35.7314 12.12C35.7314 11.484 35.8934 10.944 36.2174 10.5C36.5414 10.056 37.0334 9.72 37.6934 9.492C38.3654 9.264 39.2114 9.15 40.2314 9.15H42.2834V11.112H40.8794C40.4474 11.112 40.1294 11.184 39.9254 11.328C39.7334 11.46 39.6374 11.664 39.6374 11.94C39.6374 12.168 39.7214 12.36 39.8894 12.516C40.0694 12.66 40.3094 12.732 40.6094 12.732C40.8854 12.732 41.1374 12.66 41.3654 12.516C41.6054 12.36 41.7794 12.12 41.8874 11.796L42.4094 13.002C42.2534 13.734 41.9234 14.28 41.4194 14.64C40.9154 15 40.2374 15.18 39.3854 15.18ZM59.752 15.288C58.744 15.288 57.808 15.132 56.944 14.82C56.092 14.496 55.348 14.04 54.712 13.452C54.088 12.864 53.602 12.168 53.254 11.364C52.906 10.56 52.732 9.672 52.732 8.7C52.732 7.728 52.906 6.84 53.254 6.036C53.602 5.232 54.088 4.536 54.712 3.948C55.348 3.36 56.092 2.91 56.944 2.598C57.808 2.274 58.744 2.112 59.752 2.112C60.988 2.112 62.08 2.328 63.028 2.76C63.988 3.192 64.78 3.816 65.404 4.632L62.722 7.026C62.35 6.558 61.936 6.198 61.48 5.946C61.036 5.682 60.532 5.55 59.968 5.55C59.524 5.55 59.122 5.622 58.762 5.766C58.402 5.91 58.09 6.12 57.826 6.396C57.574 6.672 57.376 7.008 57.232 7.404C57.088 7.788 57.016 8.22 57.016 8.7C57.016 9.18 57.088 9.618 57.232 10.014C57.376 10.398 57.574 10.728 57.826 11.004C58.09 11.28 58.402 11.49 58.762 11.634C59.122 11.778 59.524 11.85 59.968 11.85C60.532 11.85 61.036 11.724 61.48 11.472C61.936 11.208 62.35 10.842 62.722 10.374L65.404 12.768C64.78 13.572 63.988 14.196 63.028 14.64C62.08 15.072 60.988 15.288 59.752 15.288ZM71.4252 15.18C70.3092 15.18 69.3192 14.964 68.4552 14.532C67.6032 14.088 66.9312 13.482 66.4392 12.714C65.9472 11.946 65.7012 11.064 65.7012 10.068C65.7012 9.072 65.9472 8.19 66.4392 7.422C66.9312 6.654 67.6032 6.054 68.4552 5.622C69.3192 5.19 70.3092 4.974 71.4252 4.974C72.5412 4.974 73.5312 5.19 74.3952 5.622C75.2592 6.054 75.9312 6.654 76.4112 7.422C76.9032 8.19 77.1492 9.072 77.1492 10.068C77.1492 11.064 76.9032 11.946 76.4112 12.714C75.9312 13.482 75.2592 14.088 74.3952 14.532C73.5312 14.964 72.5412 15.18 71.4252 15.18ZM71.4252 12.012C71.7252 12.012 71.9952 11.94 72.2352 11.796C72.4752 11.652 72.6672 11.436 72.8112 11.148C72.9552 10.848 73.0272 10.488 73.0272 10.068C73.0272 9.636 72.9552 9.282 72.8112 9.006C72.6672 8.718 72.4752 8.502 72.2352 8.358C71.9952 8.214 71.7252 8.142 71.4252 8.142C71.1252 8.142 70.8552 8.214 70.6152 8.358C70.3752 8.502 70.1832 8.718 70.0392 9.006C69.8952 9.282 69.8232 9.636 69.8232 10.068C69.8232 10.488 69.8952 10.848 70.0392 11.148C70.1832 11.436 70.3752 11.652 70.6152 11.796C70.8552 11.94 71.1252 12.012 71.4252 12.012ZM91.4545 4.974C92.1985 4.974 92.8645 5.13 93.4525 5.442C94.0525 5.742 94.5205 6.216 94.8565 6.864C95.2045 7.512 95.3785 8.352 95.3785 9.384V15H91.3105V10.086C91.3105 9.474 91.2085 9.042 91.0045 8.79C90.8005 8.526 90.5365 8.394 90.2125 8.394C89.9725 8.394 89.7565 8.454 89.5645 8.574C89.3725 8.694 89.2165 8.886 89.0965 9.15C88.9885 9.402 88.9345 9.75 88.9345 10.194V15H84.8665V10.086C84.8665 9.474 84.7705 9.042 84.5785 8.79C84.3865 8.526 84.1165 8.394 83.7685 8.394C83.5285 8.394 83.3125 8.454 83.1205 8.574C82.9285 8.694 82.7725 8.886 82.6525 9.15C82.5445 9.402 82.4905 9.75 82.4905 10.194V15H78.4225V5.154H82.2925V7.98L81.5005 7.188C81.8725 6.444 82.3705 5.892 82.9945 5.532C83.6185 5.16 84.3145 4.974 85.0825 4.974C85.9465 4.974 86.7085 5.202 87.3685 5.658C88.0405 6.102 88.4905 6.81 88.7185 7.782L87.4765 7.584C87.8365 6.768 88.3585 6.132 89.0425 5.676C89.7385 5.208 90.5425 4.974 91.4545 4.974ZM101.247 15.18C100.467 15.18 99.7592 15.024 99.1232 14.712C98.4992 14.388 98.0072 13.89 97.6472 13.218C97.2872 12.534 97.1072 11.658 97.1072 10.59V5.154H101.175V9.888C101.175 10.584 101.289 11.07 101.517 11.346C101.745 11.622 102.057 11.76 102.453 11.76C102.693 11.76 102.915 11.7 103.119 11.58C103.335 11.448 103.509 11.238 103.641 10.95C103.773 10.65 103.839 10.26 103.839 9.78V5.154H107.907V15H104.037V12.156L104.811 12.93C104.463 13.698 103.965 14.268 103.317 14.64C102.681 15 101.991 15.18 101.247 15.18ZM116.552 4.974C117.308 4.974 117.992 5.13 118.604 5.442C119.216 5.742 119.696 6.216 120.044 6.864C120.404 7.512 120.584 8.352 120.584 9.384V15H116.516V10.086C116.516 9.474 116.408 9.042 116.192 8.79C115.976 8.526 115.682 8.394 115.31 8.394C115.034 8.394 114.776 8.46 114.536 8.592C114.308 8.712 114.122 8.916 113.978 9.204C113.846 9.492 113.78 9.882 113.78 10.374V15H109.712V5.154H113.582V8.034L112.808 7.206C113.192 6.462 113.708 5.904 114.356 5.532C115.016 5.16 115.748 4.974 116.552 4.974ZM122.35 15V5.154H126.418V15H122.35ZM124.384 4.362C123.64 4.362 123.046 4.164 122.602 3.768C122.158 3.372 121.936 2.88 121.936 2.292C121.936 1.704 122.158 1.212 122.602 0.815999C123.046 0.419999 123.64 0.221999 124.384 0.221999C125.128 0.221999 125.722 0.407999 126.166 0.78C126.61 1.152 126.832 1.632 126.832 2.22C126.832 2.844 126.61 3.36 126.166 3.768C125.722 4.164 125.128 4.362 124.384 4.362ZM133.513 15.18C132.385 15.18 131.383 14.964 130.507 14.532C129.631 14.1 128.941 13.5 128.437 12.732C127.945 11.952 127.699 11.064 127.699 10.068C127.699 9.072 127.945 8.19 128.437 7.422C128.941 6.654 129.631 6.054 130.507 5.622C131.383 5.19 132.385 4.974 133.513 4.974C134.713 4.974 135.739 5.232 136.591 5.748C137.443 6.264 138.031 6.978 138.355 7.89L135.205 9.438C135.001 8.982 134.749 8.652 134.449 8.448C134.161 8.244 133.843 8.142 133.495 8.142C133.195 8.142 132.913 8.214 132.649 8.358C132.397 8.502 132.193 8.718 132.037 9.006C131.893 9.282 131.821 9.636 131.821 10.068C131.821 10.5 131.893 10.86 132.037 11.148C132.193 11.436 132.397 11.652 132.649 11.796C132.913 11.94 133.195 12.012 133.495 12.012C133.843 12.012 134.161 11.91 134.449 11.706C134.749 11.502 135.001 11.172 135.205 10.716L138.355 12.264C138.031 13.176 137.443 13.89 136.591 14.406C135.739 14.922 134.713 15.18 133.513 15.18ZM145.254 15V13.254L144.966 12.786V9.474C144.966 8.994 144.816 8.628 144.516 8.376C144.228 8.124 143.754 7.998 143.094 7.998C142.65 7.998 142.2 8.07 141.744 8.214C141.288 8.346 140.898 8.532 140.574 8.772L139.278 6.09C139.854 5.73 140.544 5.454 141.348 5.262C142.152 5.07 142.938 4.974 143.706 4.974C145.398 4.974 146.706 5.352 147.63 6.108C148.566 6.864 149.034 8.064 149.034 9.708V15H145.254ZM142.464 15.18C141.66 15.18 140.988 15.042 140.448 14.766C139.908 14.49 139.5 14.124 139.224 13.668C138.948 13.2 138.81 12.684 138.81 12.12C138.81 11.484 138.972 10.944 139.296 10.5C139.62 10.056 140.112 9.72 140.772 9.492C141.444 9.264 142.29 9.15 143.31 9.15H145.362V11.112H143.958C143.526 11.112 143.208 11.184 143.004 11.328C142.812 11.46 142.716 11.664 142.716 11.94C142.716 12.168 142.8 12.36 142.968 12.516C143.148 12.66 143.388 12.732 143.688 12.732C143.964 12.732 144.216 12.66 144.444 12.516C144.684 12.36 144.858 12.12 144.966 11.796L145.488 13.002C145.332 13.734 145.002 14.28 144.498 14.64C143.994 15 143.316 15.18 142.464 15.18ZM150.432 15V12.66L155.67 6.828L156.336 8.124H150.576V5.154H159.63V7.494L154.392 13.326L153.726 12.03H159.828V15H150.432ZM161.057 15V5.154H165.125V15H161.057ZM163.091 4.362C162.347 4.362 161.753 4.164 161.309 3.768C160.865 3.372 160.643 2.88 160.643 2.292C160.643 1.704 160.865 1.212 161.309 0.815999C161.753 0.419999 162.347 0.221999 163.091 0.221999C163.835 0.221999 164.429 0.407999 164.873 0.78C165.317 1.152 165.539 1.632 165.539 2.22C165.539 2.844 165.317 3.36 164.873 3.768C164.429 4.164 163.835 4.362 163.091 4.362ZM172.13 15.18C171.014 15.18 170.024 14.964 169.16 14.532C168.308 14.088 167.636 13.482 167.144 12.714C166.652 11.946 166.406 11.064 166.406 10.068C166.406 9.072 166.652 8.19 167.144 7.422C167.636 6.654 168.308 6.054 169.16 5.622C170.024 5.19 171.014 4.974 172.13 4.974C173.246 4.974 174.236 5.19 175.1 5.622C175.964 6.054 176.636 6.654 177.116 7.422C177.608 8.19 177.854 9.072 177.854 10.068C177.854 11.064 177.608 11.946 177.116 12.714C176.636 13.482 175.964 14.088 175.1 14.532C174.236 14.964 173.246 15.18 172.13 15.18ZM172.13 12.012C172.43 12.012 172.7 11.94 172.94 11.796C173.18 11.652 173.372 11.436 173.516 11.148C173.66 10.848 173.732 10.488 173.732 10.068C173.732 9.636 173.66 9.282 173.516 9.006C173.372 8.718 173.18 8.502 172.94 8.358C172.7 8.214 172.43 8.142 172.13 8.142C171.83 8.142 171.56 8.214 171.32 8.358C171.08 8.502 170.888 8.718 170.744 9.006C170.6 9.282 170.528 9.636 170.528 10.068C170.528 10.488 170.6 10.848 170.744 11.148C170.888 11.436 171.08 11.652 171.32 11.796C171.56 11.94 171.83 12.012 172.13 12.012ZM185.968 4.974C186.724 4.974 187.408 5.13 188.02 5.442C188.632 5.742 189.112 6.216 189.46 6.864C189.82 7.512 190 8.352 190 9.384V15H185.932V10.086C185.932 9.474 185.824 9.042 185.608 8.79C185.392 8.526 185.098 8.394 184.726 8.394C184.45 8.394 184.192 8.46 183.952 8.592C183.724 8.712 183.538 8.916 183.394 9.204C183.262 9.492 183.196 9.882 183.196 10.374V15H179.128V5.154H182.998V8.034L182.224 7.206C182.608 6.462 183.124 5.904 183.772 5.532C184.432 5.16 185.164 4.974 185.968 4.974ZM197.378 15.18C196.178 15.18 195.128 14.958 194.228 14.514C193.34 14.07 192.65 13.464 192.158 12.696C191.666 11.916 191.42 11.04 191.42 10.068C191.42 9.072 191.66 8.19 192.14 7.422C192.632 6.654 193.298 6.054 194.138 5.622C194.99 5.19 195.944 4.974 197 4.974C197.972 4.974 198.866 5.166 199.682 5.55C200.51 5.934 201.17 6.504 201.662 7.26C202.166 8.016 202.418 8.952 202.418 10.068C202.418 10.212 202.412 10.374 202.4 10.554C202.388 10.722 202.376 10.878 202.364 11.022H194.786V9.06H200.204L198.674 9.582C198.674 9.198 198.602 8.874 198.458 8.61C198.326 8.334 198.14 8.124 197.9 7.98C197.66 7.824 197.372 7.746 197.036 7.746C196.7 7.746 196.406 7.824 196.154 7.98C195.914 8.124 195.728 8.334 195.596 8.61C195.464 8.874 195.398 9.198 195.398 9.582V10.194C195.398 10.614 195.482 10.974 195.65 11.274C195.818 11.574 196.058 11.802 196.37 11.958C196.682 12.102 197.06 12.174 197.504 12.174C197.96 12.174 198.332 12.114 198.62 11.994C198.92 11.874 199.232 11.694 199.556 11.454L201.68 13.596C201.2 14.112 200.606 14.508 199.898 14.784C199.202 15.048 198.362 15.18 197.378 15.18Z" fill="#4EC79F"/>
</svg>
