<svg width="146" height="16" viewBox="0 0 146 16" fill="none" xmlns="http://www.w3.org/2000/svg">
<path d="M0.104289 15L5.61229 2.4H9.78829L15.2963 15H10.9043L6.83629 4.416H8.49229L4.42429 15H0.104289ZM3.38029 12.804L4.46029 9.744H10.2563L11.3363 12.804H3.38029ZM15.8482 15V5.154H19.7182V8.124L19.0882 7.278C19.3882 6.51 19.8682 5.934 20.5282 5.55C21.1882 5.166 21.9802 4.974 22.9042 4.974V8.574C22.7242 8.55 22.5622 8.532 22.4182 8.52C22.2862 8.508 22.1482 8.502 22.0042 8.502C21.3922 8.502 20.8882 8.664 20.4922 8.988C20.1082 9.3 19.9162 9.846 19.9162 10.626V15H15.8482ZM29.4053 15.18C28.2053 15.18 27.1553 14.958 26.2553 14.514C25.3673 14.07 24.6773 13.464 24.1853 12.696C23.6933 11.916 23.4473 11.04 23.4473 10.068C23.4473 9.072 23.6873 8.19 24.1673 7.422C24.6593 6.654 25.3253 6.054 26.1653 5.622C27.0173 5.19 27.9713 4.974 29.0273 4.974C29.9993 4.974 30.8933 5.166 31.7093 5.55C32.5373 5.934 33.1973 6.504 33.6893 7.26C34.1933 8.016 34.4453 8.952 34.4453 10.068C34.4453 10.212 34.4393 10.374 34.4273 10.554C34.4153 10.722 34.4033 10.878 34.3913 11.022H26.8133V9.06H32.2313L30.7013 9.582C30.7013 9.198 30.6293 8.874 30.4853 8.61C30.3533 8.334 30.1673 8.124 29.9273 7.98C29.6873 7.824 29.3993 7.746 29.0633 7.746C28.7273 7.746 28.4333 7.824 28.1813 7.98C27.9413 8.124 27.7553 8.334 27.6233 8.61C27.4913 8.874 27.4253 9.198 27.4253 9.582V10.194C27.4253 10.614 27.5093 10.974 27.6773 11.274C27.8453 11.574 28.0853 11.802 28.3973 11.958C28.7093 12.102 29.0873 12.174 29.5313 12.174C29.9873 12.174 30.3593 12.114 30.6473 11.994C30.9473 11.874 31.2593 11.694 31.5833 11.454L33.7073 13.596C33.2273 14.112 32.6333 14.508 31.9253 14.784C31.2293 15.048 30.3893 15.18 29.4053 15.18ZM41.4234 15V13.254L41.1354 12.786V9.474C41.1354 8.994 40.9854 8.628 40.6854 8.376C40.3974 8.124 39.9234 7.998 39.2634 7.998C38.8194 7.998 38.3694 8.07 37.9134 8.214C37.4574 8.346 37.0674 8.532 36.7434 8.772L35.4474 6.09C36.0234 5.73 36.7134 5.454 37.5174 5.262C38.3214 5.07 39.1074 4.974 39.8754 4.974C41.5674 4.974 42.8754 5.352 43.7994 6.108C44.7354 6.864 45.2034 8.064 45.2034 9.708V15H41.4234ZM38.6334 15.18C37.8294 15.18 37.1574 15.042 36.6174 14.766C36.0774 14.49 35.6694 14.124 35.3934 13.668C35.1174 13.2 34.9794 12.684 34.9794 12.12C34.9794 11.484 35.1414 10.944 35.4654 10.5C35.7894 10.056 36.2814 9.72 36.9414 9.492C37.6134 9.264 38.4594 9.15 39.4794 9.15H41.5314V11.112H40.1274C39.6954 11.112 39.3774 11.184 39.1734 11.328C38.9814 11.46 38.8854 11.664 38.8854 11.94C38.8854 12.168 38.9694 12.36 39.1374 12.516C39.3174 12.66 39.5574 12.732 39.8574 12.732C40.1334 12.732 40.3854 12.66 40.6134 12.516C40.8534 12.36 41.0274 12.12 41.1354 11.796L41.6574 13.002C41.5014 13.734 41.1714 14.28 40.6674 14.64C40.1634 15 39.4854 15.18 38.6334 15.18ZM56.372 7.08H61.988V10.14H56.372V7.08ZM56.66 11.796H62.96V15H52.484V2.4H62.726V5.604H56.66V11.796ZM68.7893 15.18C67.9373 15.18 67.1453 14.976 66.4133 14.568C65.6933 14.148 65.1173 13.56 64.6853 12.804C64.2533 12.036 64.0373 11.124 64.0373 10.068C64.0373 9.012 64.2533 8.106 64.6853 7.35C65.1173 6.582 65.6933 5.994 66.4133 5.586C67.1453 5.178 67.9373 4.974 68.7893 4.974C69.6533 4.974 70.3613 5.16 70.9133 5.532C71.4653 5.892 71.8733 6.45 72.1373 7.206C72.4013 7.95 72.5333 8.904 72.5333 10.068C72.5333 11.244 72.4073 12.21 72.1553 12.966C71.9153 13.722 71.5193 14.28 70.9673 14.64C70.4273 15 69.7013 15.18 68.7893 15.18ZM69.7613 12.012C70.0613 12.012 70.3313 11.94 70.5713 11.796C70.8113 11.652 71.0033 11.436 71.1473 11.148C71.2913 10.848 71.3633 10.488 71.3633 10.068C71.3633 9.636 71.2913 9.282 71.1473 9.006C71.0033 8.718 70.8113 8.502 70.5713 8.358C70.3313 8.214 70.0613 8.142 69.7613 8.142C69.4613 8.142 69.1913 8.214 68.9513 8.358C68.7113 8.502 68.5193 8.718 68.3753 9.006C68.2313 9.282 68.1593 9.636 68.1593 10.068C68.1593 10.488 68.2313 10.848 68.3753 11.148C68.5193 11.436 68.7113 11.652 68.9513 11.796C69.1913 11.94 69.4613 12.012 69.7613 12.012ZM71.4893 15V13.668L71.4713 10.068L71.2913 6.468V1.644H75.3593V15H71.4893ZM77.1607 15V5.154H81.2287V15H77.1607ZM79.1947 4.362C78.4507 4.362 77.8567 4.164 77.4127 3.768C76.9687 3.372 76.7467 2.88 76.7467 2.292C76.7467 1.704 76.9687 1.212 77.4127 0.815999C77.8567 0.419999 78.4507 0.221999 79.1947 0.221999C79.9387 0.221999 80.5327 0.407999 80.9767 0.78C81.4207 1.152 81.6427 1.632 81.6427 2.22C81.6427 2.844 81.4207 3.36 80.9767 3.768C80.5327 4.164 79.9387 4.362 79.1947 4.362ZM87.7838 15.18C86.4278 15.18 85.3718 14.856 84.6158 14.208C83.8598 13.548 83.4818 12.54 83.4818 11.184V2.94H87.5498V11.148C87.5498 11.448 87.6278 11.682 87.7838 11.85C87.9518 12.018 88.1558 12.102 88.3958 12.102C88.7438 12.102 89.0498 12.012 89.3138 11.832L90.2858 14.658C89.9738 14.838 89.5958 14.97 89.1518 15.054C88.7198 15.138 88.2638 15.18 87.7838 15.18ZM82.1318 8.664V5.694H89.5658V8.664H82.1318ZM96.2495 15.18C95.1335 15.18 94.1435 14.964 93.2795 14.532C92.4275 14.088 91.7555 13.482 91.2635 12.714C90.7715 11.946 90.5255 11.064 90.5255 10.068C90.5255 9.072 90.7715 8.19 91.2635 7.422C91.7555 6.654 92.4275 6.054 93.2795 5.622C94.1435 5.19 95.1335 4.974 96.2495 4.974C97.3655 4.974 98.3555 5.19 99.2195 5.622C100.083 6.054 100.755 6.654 101.235 7.422C101.727 8.19 101.973 9.072 101.973 10.068C101.973 11.064 101.727 11.946 101.235 12.714C100.755 13.482 100.083 14.088 99.2195 14.532C98.3555 14.964 97.3655 15.18 96.2495 15.18ZM96.2495 12.012C96.5495 12.012 96.8195 11.94 97.0595 11.796C97.2995 11.652 97.4915 11.436 97.6355 11.148C97.7795 10.848 97.8515 10.488 97.8515 10.068C97.8515 9.636 97.7795 9.282 97.6355 9.006C97.4915 8.718 97.2995 8.502 97.0595 8.358C96.8195 8.214 96.5495 8.142 96.2495 8.142C95.9495 8.142 95.6795 8.214 95.4395 8.358C95.1995 8.502 95.0075 8.718 94.8635 9.006C94.7195 9.282 94.6475 9.636 94.6475 10.068C94.6475 10.488 94.7195 10.848 94.8635 11.148C95.0075 11.436 95.1995 11.652 95.4395 11.796C95.6795 11.94 95.9495 12.012 96.2495 12.012ZM103.247 15V5.154H107.117V8.124L106.487 7.278C106.787 6.51 107.267 5.934 107.927 5.55C108.587 5.166 109.379 4.974 110.303 4.974V8.574C110.123 8.55 109.961 8.532 109.817 8.52C109.685 8.508 109.547 8.502 109.403 8.502C108.791 8.502 108.287 8.664 107.891 8.988C107.507 9.3 107.315 9.846 107.315 10.626V15H103.247ZM111.456 15V5.154H115.524V15H111.456ZM113.49 4.362C112.746 4.362 112.152 4.164 111.708 3.768C111.264 3.372 111.042 2.88 111.042 2.292C111.042 1.704 111.264 1.212 111.708 0.815999C112.152 0.419999 112.746 0.221999 113.49 0.221999C114.234 0.221999 114.828 0.407999 115.272 0.78C115.716 1.152 115.938 1.632 115.938 2.22C115.938 2.844 115.716 3.36 115.272 3.768C114.828 4.164 114.234 4.362 113.49 4.362ZM123.285 15V13.254L122.997 12.786V9.474C122.997 8.994 122.847 8.628 122.547 8.376C122.259 8.124 121.785 7.998 121.125 7.998C120.681 7.998 120.231 8.07 119.775 8.214C119.319 8.346 118.929 8.532 118.605 8.772L117.309 6.09C117.885 5.73 118.575 5.454 119.379 5.262C120.183 5.07 120.969 4.974 121.737 4.974C123.429 4.974 124.737 5.352 125.661 6.108C126.597 6.864 127.065 8.064 127.065 9.708V15H123.285ZM120.495 15.18C119.691 15.18 119.019 15.042 118.479 14.766C117.939 14.49 117.531 14.124 117.255 13.668C116.979 13.2 116.841 12.684 116.841 12.12C116.841 11.484 117.003 10.944 117.327 10.5C117.651 10.056 118.143 9.72 118.803 9.492C119.475 9.264 120.321 9.15 121.341 9.15H123.393V11.112H121.989C121.557 11.112 121.239 11.184 121.035 11.328C120.843 11.46 120.747 11.664 120.747 11.94C120.747 12.168 120.831 12.36 120.999 12.516C121.179 12.66 121.419 12.732 121.719 12.732C121.995 12.732 122.247 12.66 122.475 12.516C122.715 12.36 122.889 12.12 122.997 11.796L123.519 13.002C123.363 13.734 123.033 14.28 122.529 14.64C122.025 15 121.347 15.18 120.495 15.18ZM128.823 15V1.644H132.891V15H128.823ZM140.13 15.18C138.93 15.18 137.88 14.958 136.98 14.514C136.092 14.07 135.402 13.464 134.91 12.696C134.418 11.916 134.172 11.04 134.172 10.068C134.172 9.072 134.412 8.19 134.892 7.422C135.384 6.654 136.05 6.054 136.89 5.622C137.742 5.19 138.696 4.974 139.752 4.974C140.724 4.974 141.618 5.166 142.434 5.55C143.262 5.934 143.922 6.504 144.414 7.26C144.918 8.016 145.17 8.952 145.17 10.068C145.17 10.212 145.164 10.374 145.152 10.554C145.14 10.722 145.128 10.878 145.116 11.022H137.538V9.06H142.956L141.426 9.582C141.426 9.198 141.354 8.874 141.21 8.61C141.078 8.334 140.892 8.124 140.652 7.98C140.412 7.824 140.124 7.746 139.788 7.746C139.452 7.746 139.158 7.824 138.906 7.98C138.666 8.124 138.48 8.334 138.348 8.61C138.216 8.874 138.15 9.198 138.15 9.582V10.194C138.15 10.614 138.234 10.974 138.402 11.274C138.57 11.574 138.81 11.802 139.122 11.958C139.434 12.102 139.812 12.174 140.256 12.174C140.712 12.174 141.084 12.114 141.372 11.994C141.672 11.874 141.984 11.694 142.308 11.454L144.432 13.596C143.952 14.112 143.358 14.508 142.65 14.784C141.954 15.048 141.114 15.18 140.13 15.18Z" fill="#4EC79F"/>
</svg>
