<svg width="113" height="16" viewBox="0 0 113 16" fill="none" xmlns="http://www.w3.org/2000/svg">
<path d="M0.161906 15L5.66991 2.4H9.84591L15.3539 15H10.9619L6.89391 4.416H8.54991L4.48191 15H0.161906ZM3.43791 12.804L4.51791 9.744H10.3139L11.3939 12.804H3.43791ZM15.9059 15V5.154H19.7759V8.124L19.1459 7.278C19.4459 6.51 19.9259 5.934 20.5859 5.55C21.2459 5.166 22.0379 4.974 22.9619 4.974V8.574C22.7819 8.55 22.6199 8.532 22.4759 8.52C22.3439 8.508 22.2059 8.502 22.0619 8.502C21.4499 8.502 20.9459 8.664 20.5499 8.988C20.1659 9.3 19.9739 9.846 19.9739 10.626V15H15.9059ZM29.463 15.18C28.263 15.18 27.213 14.958 26.313 14.514C25.425 14.07 24.735 13.464 24.243 12.696C23.751 11.916 23.505 11.04 23.505 10.068C23.505 9.072 23.745 8.19 24.225 7.422C24.717 6.654 25.383 6.054 26.223 5.622C27.075 5.19 28.029 4.974 29.085 4.974C30.057 4.974 30.951 5.166 31.767 5.55C32.595 5.934 33.255 6.504 33.747 7.26C34.251 8.016 34.503 8.952 34.503 10.068C34.503 10.212 34.497 10.374 34.485 10.554C34.473 10.722 34.461 10.878 34.449 11.022H26.871V9.06H32.289L30.759 9.582C30.759 9.198 30.687 8.874 30.543 8.61C30.411 8.334 30.225 8.124 29.985 7.98C29.745 7.824 29.457 7.746 29.121 7.746C28.785 7.746 28.491 7.824 28.239 7.98C27.999 8.124 27.813 8.334 27.681 8.61C27.549 8.874 27.483 9.198 27.483 9.582V10.194C27.483 10.614 27.567 10.974 27.735 11.274C27.903 11.574 28.143 11.802 28.455 11.958C28.767 12.102 29.145 12.174 29.589 12.174C30.045 12.174 30.417 12.114 30.705 11.994C31.005 11.874 31.317 11.694 31.641 11.454L33.765 13.596C33.285 14.112 32.691 14.508 31.983 14.784C31.287 15.048 30.447 15.18 29.463 15.18ZM41.481 15V13.254L41.193 12.786V9.474C41.193 8.994 41.043 8.628 40.743 8.376C40.455 8.124 39.981 7.998 39.321 7.998C38.877 7.998 38.427 8.07 37.971 8.214C37.515 8.346 37.125 8.532 36.801 8.772L35.505 6.09C36.081 5.73 36.771 5.454 37.575 5.262C38.379 5.07 39.165 4.974 39.933 4.974C41.625 4.974 42.933 5.352 43.857 6.108C44.793 6.864 45.261 8.064 45.261 9.708V15H41.481ZM38.691 15.18C37.887 15.18 37.215 15.042 36.675 14.766C36.135 14.49 35.727 14.124 35.451 13.668C35.175 13.2 35.037 12.684 35.037 12.12C35.037 11.484 35.199 10.944 35.523 10.5C35.847 10.056 36.339 9.72 36.999 9.492C37.671 9.264 38.517 9.15 39.537 9.15H41.589V11.112H40.185C39.753 11.112 39.435 11.184 39.231 11.328C39.039 11.46 38.943 11.664 38.943 11.94C38.943 12.168 39.027 12.36 39.195 12.516C39.375 12.66 39.615 12.732 39.915 12.732C40.191 12.732 40.443 12.66 40.671 12.516C40.911 12.36 41.085 12.12 41.193 11.796L41.715 13.002C41.559 13.734 41.229 14.28 40.725 14.64C40.221 15 39.543 15.18 38.691 15.18ZM56.4296 7.08H62.0456V10.14H56.4296V7.08ZM56.7176 11.796H63.0176V15H52.5416V2.4H62.7836V5.604H56.7176V11.796ZM67.317 15L63.357 5.154H67.533L70.539 13.146H68.433L71.637 5.154H75.489L71.529 15H67.317ZM81.2833 15.18C80.0833 15.18 79.0333 14.958 78.1333 14.514C77.2453 14.07 76.5553 13.464 76.0633 12.696C75.5713 11.916 75.3253 11.04 75.3253 10.068C75.3253 9.072 75.5653 8.19 76.0453 7.422C76.5373 6.654 77.2033 6.054 78.0433 5.622C78.8953 5.19 79.8493 4.974 80.9053 4.974C81.8773 4.974 82.7713 5.166 83.5873 5.55C84.4153 5.934 85.0753 6.504 85.5673 7.26C86.0713 8.016 86.3233 8.952 86.3233 10.068C86.3233 10.212 86.3173 10.374 86.3053 10.554C86.2933 10.722 86.2813 10.878 86.2693 11.022H78.6913V9.06H84.1093L82.5793 9.582C82.5793 9.198 82.5073 8.874 82.3633 8.61C82.2313 8.334 82.0453 8.124 81.8053 7.98C81.5653 7.824 81.2773 7.746 80.9413 7.746C80.6053 7.746 80.3113 7.824 80.0593 7.98C79.8193 8.124 79.6333 8.334 79.5013 8.61C79.3693 8.874 79.3033 9.198 79.3033 9.582V10.194C79.3033 10.614 79.3873 10.974 79.5553 11.274C79.7233 11.574 79.9633 11.802 80.2753 11.958C80.5873 12.102 80.9653 12.174 81.4093 12.174C81.8653 12.174 82.2373 12.114 82.5253 11.994C82.8253 11.874 83.1373 11.694 83.4613 11.454L85.5853 13.596C85.1053 14.112 84.5113 14.508 83.8033 14.784C83.1073 15.048 82.2673 15.18 81.2833 15.18ZM94.447 4.974C95.203 4.974 95.887 5.13 96.499 5.442C97.111 5.742 97.591 6.216 97.939 6.864C98.299 7.512 98.479 8.352 98.479 9.384V15H94.411V10.086C94.411 9.474 94.303 9.042 94.087 8.79C93.871 8.526 93.577 8.394 93.205 8.394C92.929 8.394 92.671 8.46 92.431 8.592C92.203 8.712 92.017 8.916 91.873 9.204C91.741 9.492 91.675 9.882 91.675 10.374V15H87.607V5.154H91.477V8.034L90.703 7.206C91.087 6.462 91.603 5.904 92.251 5.532C92.911 5.16 93.643 4.974 94.447 4.974ZM104.998 15.18C103.642 15.18 102.586 14.856 101.83 14.208C101.074 13.548 100.696 12.54 100.696 11.184V2.94H104.764V11.148C104.764 11.448 104.842 11.682 104.998 11.85C105.166 12.018 105.37 12.102 105.61 12.102C105.958 12.102 106.264 12.012 106.528 11.832L107.5 14.658C107.188 14.838 106.81 14.97 106.366 15.054C105.934 15.138 105.478 15.18 104.998 15.18ZM99.3457 8.664V5.694H106.78V8.664H99.3457ZM108.525 15V5.154H112.593V15H108.525ZM110.559 4.362C109.815 4.362 109.221 4.164 108.777 3.768C108.333 3.372 108.111 2.88 108.111 2.292C108.111 1.704 108.333 1.212 108.777 0.815999C109.221 0.419999 109.815 0.221999 110.559 0.221999C111.303 0.221999 111.897 0.407999 112.341 0.78C112.785 1.152 113.007 1.632 113.007 2.22C113.007 2.844 112.785 3.36 112.341 3.768C111.897 4.164 111.303 4.362 110.559 4.362Z" fill="#4EC79F"/>
</svg>
