<svg width="73" height="16" viewBox="0 0 73 16" fill="none" xmlns="http://www.w3.org/2000/svg">
<path d="M0.631633 15L6.13963 2.4H10.3156L15.8236 15H11.4316L7.36363 4.416H9.01963L4.95163 15H0.631633ZM3.90763 12.804L4.98763 9.744H10.7836L11.8636 12.804H3.90763ZM16.3756 15V5.154H20.2456V8.124L19.6156 7.278C19.9156 6.51 20.3956 5.934 21.0556 5.55C21.7156 5.166 22.5076 4.974 23.4316 4.974V8.574C23.2516 8.55 23.0896 8.532 22.9456 8.52C22.8136 8.508 22.6756 8.502 22.5316 8.502C21.9196 8.502 21.4156 8.664 21.0196 8.988C20.6356 9.3 20.4436 9.846 20.4436 10.626V15H16.3756ZM29.6002 15.18C28.2442 15.18 27.1882 14.856 26.4322 14.208C25.6762 13.548 25.2982 12.54 25.2982 11.184V2.94H29.3662V11.148C29.3662 11.448 29.4442 11.682 29.6002 11.85C29.7682 12.018 29.9722 12.102 30.2122 12.102C30.5602 12.102 30.8662 12.012 31.1302 11.832L32.1022 14.658C31.7902 14.838 31.4122 14.97 30.9682 15.054C30.5362 15.138 30.0802 15.18 29.6002 15.18ZM23.9482 8.664V5.694H31.3822V8.664H23.9482ZM33.1275 15V5.154H37.1955V15H33.1275ZM35.1615 4.362C34.4175 4.362 33.8235 4.164 33.3795 3.768C32.9355 3.372 32.7135 2.88 32.7135 2.292C32.7135 1.704 32.9355 1.212 33.3795 0.815999C33.8235 0.419999 34.4175 0.221999 35.1615 0.221999C35.9055 0.221999 36.4995 0.407999 36.9435 0.78C37.3875 1.152 37.6095 1.632 37.6095 2.22C37.6095 2.844 37.3875 3.36 36.9435 3.768C36.4995 4.164 35.9055 4.362 35.1615 4.362ZM44.2906 15.18C43.1626 15.18 42.1606 14.964 41.2846 14.532C40.4086 14.1 39.7186 13.5 39.2146 12.732C38.7226 11.952 38.4766 11.064 38.4766 10.068C38.4766 9.072 38.7226 8.19 39.2146 7.422C39.7186 6.654 40.4086 6.054 41.2846 5.622C42.1606 5.19 43.1626 4.974 44.2906 4.974C45.4906 4.974 46.5166 5.232 47.3686 5.748C48.2206 6.264 48.8086 6.978 49.1326 7.89L45.9826 9.438C45.7786 8.982 45.5266 8.652 45.2266 8.448C44.9386 8.244 44.6206 8.142 44.2726 8.142C43.9726 8.142 43.6906 8.214 43.4266 8.358C43.1746 8.502 42.9706 8.718 42.8146 9.006C42.6706 9.282 42.5986 9.636 42.5986 10.068C42.5986 10.5 42.6706 10.86 42.8146 11.148C42.9706 11.436 43.1746 11.652 43.4266 11.796C43.6906 11.94 43.9726 12.012 44.2726 12.012C44.6206 12.012 44.9386 11.91 45.2266 11.706C45.5266 11.502 45.7786 11.172 45.9826 10.716L49.1326 12.264C48.8086 13.176 48.2206 13.89 47.3686 14.406C46.5166 14.922 45.4906 15.18 44.2906 15.18ZM55.187 15.18C54.071 15.18 53.081 14.964 52.217 14.532C51.365 14.088 50.693 13.482 50.201 12.714C49.709 11.946 49.463 11.064 49.463 10.068C49.463 9.072 49.709 8.19 50.201 7.422C50.693 6.654 51.365 6.054 52.217 5.622C53.081 5.19 54.071 4.974 55.187 4.974C56.303 4.974 57.293 5.19 58.157 5.622C59.021 6.054 59.693 6.654 60.173 7.422C60.665 8.19 60.911 9.072 60.911 10.068C60.911 11.064 60.665 11.946 60.173 12.714C59.693 13.482 59.021 14.088 58.157 14.532C57.293 14.964 56.303 15.18 55.187 15.18ZM55.187 12.012C55.487 12.012 55.757 11.94 55.997 11.796C56.237 11.652 56.429 11.436 56.573 11.148C56.717 10.848 56.789 10.488 56.789 10.068C56.789 9.636 56.717 9.282 56.573 9.006C56.429 8.718 56.237 8.502 55.997 8.358C55.757 8.214 55.487 8.142 55.187 8.142C54.887 8.142 54.617 8.214 54.377 8.358C54.137 8.502 53.945 8.718 53.801 9.006C53.657 9.282 53.585 9.636 53.585 10.068C53.585 10.488 53.657 10.848 53.801 11.148C53.945 11.436 54.137 11.652 54.377 11.796C54.617 11.94 54.887 12.012 55.187 12.012ZM62.1842 15V1.644H66.2522V15H62.1842ZM68.0553 15V5.154H72.1233V15H68.0553ZM70.0893 4.362C69.3453 4.362 68.7513 4.164 68.3073 3.768C67.8633 3.372 67.6413 2.88 67.6413 2.292C67.6413 1.704 67.8633 1.212 68.3073 0.815999C68.7513 0.419999 69.3453 0.221999 70.0893 0.221999C70.8333 0.221999 71.4273 0.407999 71.8713 0.78C72.3153 1.152 72.5373 1.632 72.5373 2.22C72.5373 2.844 72.3153 3.36 71.8713 3.768C71.4273 4.164 70.8333 4.362 70.0893 4.362Z" fill="#4EC79F"/>
</svg>
