<svg width="226" height="22" viewBox="0 0 226 22" fill="none" xmlns="http://www.w3.org/2000/svg">
<path d="M0.907227 21V3.5H5.85723V17.075H14.2072V21H0.907227ZM22.9922 21.225C21.3922 21.225 19.9922 20.925 18.7922 20.325C17.6089 19.7083 16.6839 18.875 16.0172 17.825C15.3672 16.7583 15.0422 15.55 15.0422 14.2C15.0422 12.85 15.3589 11.65 15.9922 10.6C16.6422 9.53333 17.5339 8.70833 18.6672 8.125C19.8005 7.525 21.0755 7.225 22.4922 7.225C23.8255 7.225 25.0422 7.5 26.1422 8.05C27.2422 8.58333 28.1172 9.375 28.7672 10.425C29.4172 11.475 29.7422 12.75 29.7422 14.25C29.7422 14.4167 29.7339 14.6083 29.7172 14.825C29.7005 15.0417 29.6839 15.2417 29.6672 15.425H18.9422V12.925H27.1422L25.3422 13.625C25.3589 13.0083 25.2422 12.475 24.9922 12.025C24.7589 11.575 24.4255 11.225 23.9922 10.975C23.5755 10.725 23.0839 10.6 22.5172 10.6C21.9505 10.6 21.4505 10.725 21.0172 10.975C20.6005 11.225 20.2755 11.5833 20.0422 12.05C19.8089 12.5 19.6922 13.0333 19.6922 13.65V14.375C19.6922 15.0417 19.8255 15.6167 20.0922 16.1C20.3755 16.5833 20.7755 16.9583 21.2922 17.225C21.8089 17.475 22.4255 17.6 23.1422 17.6C23.8089 17.6 24.3755 17.5083 24.8422 17.325C25.3255 17.125 25.8005 16.825 26.2672 16.425L28.7672 19.025C28.1172 19.7417 27.3172 20.2917 26.3672 20.675C25.4172 21.0417 24.2922 21.225 22.9922 21.225ZM48.0326 7.225C49.0826 7.225 50.0326 7.44167 50.8826 7.875C51.7326 8.29167 52.3993 8.94167 52.8826 9.825C53.3826 10.7083 53.6326 11.85 53.6326 13.25V21H48.8826V14.025C48.8826 13.0583 48.6826 12.3583 48.2826 11.925C47.8993 11.475 47.3576 11.25 46.6576 11.25C46.1576 11.25 45.6993 11.3667 45.2826 11.6C44.866 11.8167 44.541 12.1583 44.3076 12.625C44.0743 13.0917 43.9576 13.7 43.9576 14.45V21H39.2076V7.45H43.7326V11.3L42.8576 10.175C43.3743 9.19167 44.0826 8.45833 44.9826 7.975C45.8826 7.475 46.8993 7.225 48.0326 7.225ZM63.5857 21.225C62.1024 21.225 60.7857 20.925 59.6357 20.325C58.4857 19.725 57.5774 18.9 56.9107 17.85C56.2607 16.7833 55.9357 15.5667 55.9357 14.2C55.9357 12.8333 56.2607 11.625 56.9107 10.575C57.5774 9.525 58.4857 8.70833 59.6357 8.125C60.7857 7.525 62.1024 7.225 63.5857 7.225C65.0691 7.225 66.3857 7.525 67.5357 8.125C68.7024 8.70833 69.6107 9.525 70.2607 10.575C70.9107 11.625 71.2357 12.8333 71.2357 14.2C71.2357 15.5667 70.9107 16.7833 70.2607 17.85C69.6107 18.9 68.7024 19.725 67.5357 20.325C66.3857 20.925 65.0691 21.225 63.5857 21.225ZM63.5857 17.45C64.1357 17.45 64.6191 17.325 65.0357 17.075C65.4691 16.825 65.8107 16.4583 66.0607 15.975C66.3107 15.475 66.4357 14.8833 66.4357 14.2C66.4357 13.5167 66.3107 12.9417 66.0607 12.475C65.8107 11.9917 65.4691 11.625 65.0357 11.375C64.6191 11.125 64.1357 11 63.5857 11C63.0524 11 62.5691 11.125 62.1357 11.375C61.7191 11.625 61.3774 11.9917 61.1107 12.475C60.8607 12.9417 60.7357 13.5167 60.7357 14.2C60.7357 14.8833 60.8607 15.475 61.1107 15.975C61.3774 16.4583 61.7191 16.825 62.1357 17.075C62.5691 17.325 63.0524 17.45 63.5857 17.45ZM78.3611 21.225C77.2111 21.225 76.0861 21.0917 74.9861 20.825C73.9028 20.5583 73.0278 20.225 72.3611 19.825L73.7861 16.575C74.4195 16.9583 75.1611 17.2667 76.0111 17.5C76.8611 17.7167 77.6945 17.825 78.5111 17.825C79.3111 17.825 79.8611 17.7417 80.1611 17.575C80.4778 17.4083 80.6361 17.1833 80.6361 16.9C80.6361 16.6333 80.4861 16.4417 80.1861 16.325C79.9028 16.1917 79.5195 16.0917 79.0361 16.025C78.5695 15.9583 78.0528 15.8833 77.4861 15.8C76.9195 15.7167 76.3445 15.6083 75.7611 15.475C75.1945 15.325 74.6695 15.1083 74.1861 14.825C73.7195 14.525 73.3445 14.125 73.0611 13.625C72.7778 13.125 72.6361 12.4917 72.6361 11.725C72.6361 10.8583 72.8861 10.0917 73.3861 9.425C73.9028 8.74167 74.6528 8.20833 75.6361 7.825C76.6195 7.425 77.8195 7.225 79.2361 7.225C80.1861 7.225 81.1445 7.325 82.1111 7.525C83.0945 7.70833 83.9195 7.99167 84.5861 8.375L83.1611 11.6C82.4945 11.2167 81.8278 10.9583 81.1611 10.825C80.4945 10.675 79.8611 10.6 79.2611 10.6C78.4611 10.6 77.8945 10.6917 77.5611 10.875C77.2445 11.0583 77.0861 11.2833 77.0861 11.55C77.0861 11.8167 77.2278 12.025 77.5111 12.175C77.7945 12.3083 78.1695 12.4167 78.6361 12.5C79.1195 12.5667 79.6445 12.6417 80.2111 12.725C80.7778 12.7917 81.3445 12.9 81.9111 13.05C82.4945 13.2 83.0195 13.425 83.4861 13.725C83.9695 14.0083 84.3528 14.4 84.6361 14.9C84.9195 15.3833 85.0611 16.0083 85.0611 16.775C85.0611 17.6083 84.8028 18.3583 84.2861 19.025C83.7861 19.6917 83.0361 20.225 82.0361 20.625C81.0528 21.025 79.8278 21.225 78.3611 21.225ZM93.158 21.225C91.4247 21.225 90.0747 20.8 89.108 19.95C88.1413 19.0833 87.658 17.7833 87.658 16.05V4.425H92.408V16C92.408 16.4833 92.5413 16.8667 92.808 17.15C93.0747 17.4167 93.4163 17.55 93.833 17.55C94.3997 17.55 94.883 17.4083 95.283 17.125L96.458 20.45C96.058 20.7167 95.5663 20.9083 94.983 21.025C94.3997 21.1583 93.7913 21.225 93.158 21.225ZM85.683 11.5V7.95H95.508V11.5H85.683ZM98.2896 21V7.45H102.815V11.4L102.14 10.275C102.54 9.25833 103.19 8.5 104.09 8C104.99 7.48333 106.081 7.225 107.365 7.225V11.5C107.148 11.4667 106.956 11.45 106.79 11.45C106.64 11.4333 106.473 11.425 106.29 11.425C105.323 11.425 104.54 11.6917 103.94 12.225C103.34 12.7417 103.04 13.5917 103.04 14.775V21H98.2896ZM116.303 21.225C114.703 21.225 113.303 20.925 112.103 20.325C110.919 19.7083 109.994 18.875 109.328 17.825C108.678 16.7583 108.353 15.55 108.353 14.2C108.353 12.85 108.669 11.65 109.303 10.6C109.953 9.53333 110.844 8.70833 111.978 8.125C113.111 7.525 114.386 7.225 115.803 7.225C117.136 7.225 118.353 7.5 119.453 8.05C120.553 8.58333 121.428 9.375 122.078 10.425C122.728 11.475 123.053 12.75 123.053 14.25C123.053 14.4167 123.044 14.6083 123.028 14.825C123.011 15.0417 122.994 15.2417 122.978 15.425H112.253V12.925H120.453L118.653 13.625C118.669 13.0083 118.553 12.475 118.303 12.025C118.069 11.575 117.736 11.225 117.303 10.975C116.886 10.725 116.394 10.6 115.828 10.6C115.261 10.6 114.761 10.725 114.328 10.975C113.911 11.225 113.586 11.5833 113.353 12.05C113.119 12.5 113.003 13.0333 113.003 13.65V14.375C113.003 15.0417 113.136 15.6167 113.403 16.1C113.686 16.5833 114.086 16.9583 114.603 17.225C115.119 17.475 115.736 17.6 116.453 17.6C117.119 17.6 117.686 17.5083 118.153 17.325C118.636 17.125 119.111 16.825 119.578 16.425L122.078 19.025C121.428 19.7417 120.628 20.2917 119.678 20.675C118.728 21.0417 117.603 21.225 116.303 21.225ZM140.793 21V18.475L140.468 17.85V13.2C140.468 12.45 140.235 11.875 139.768 11.475C139.318 11.0583 138.593 10.85 137.593 10.85C136.943 10.85 136.285 10.9583 135.618 11.175C134.951 11.375 134.385 11.6583 133.918 12.025L132.318 8.8C133.085 8.3 134.001 7.91667 135.068 7.65C136.151 7.36667 137.226 7.225 138.293 7.225C140.493 7.225 142.193 7.73333 143.393 8.75C144.61 9.75 145.218 11.325 145.218 13.475V21H140.793ZM136.793 21.225C135.71 21.225 134.793 21.0417 134.043 20.675C133.293 20.3083 132.718 19.8083 132.318 19.175C131.935 18.5417 131.743 17.8333 131.743 17.05C131.743 16.2167 131.951 15.5 132.368 14.9C132.801 14.2833 133.46 13.8167 134.343 13.5C135.226 13.1667 136.368 13 137.768 13H140.968V15.475H138.418C137.651 15.475 137.11 15.6 136.793 15.85C136.493 16.1 136.343 16.4333 136.343 16.85C136.343 17.2667 136.501 17.6 136.818 17.85C137.135 18.1 137.568 18.225 138.118 18.225C138.635 18.225 139.101 18.1 139.518 17.85C139.951 17.5833 140.268 17.1833 140.468 16.65L141.118 18.4C140.868 19.3333 140.376 20.0417 139.643 20.525C138.926 20.9917 137.976 21.225 136.793 21.225ZM154.266 21.225C152.533 21.225 151.183 20.8 150.216 19.95C149.25 19.0833 148.766 17.7833 148.766 16.05V4.425H153.516V16C153.516 16.4833 153.65 16.8667 153.916 17.15C154.183 17.4167 154.525 17.55 154.941 17.55C155.508 17.55 155.991 17.4083 156.391 17.125L157.566 20.45C157.166 20.7167 156.675 20.9083 156.091 21.025C155.508 21.1583 154.9 21.225 154.266 21.225ZM146.791 11.5V7.95H156.616V11.5H146.791ZM165.179 21.225C163.446 21.225 162.096 20.8 161.129 19.95C160.163 19.0833 159.679 17.7833 159.679 16.05V4.425H164.429V16C164.429 16.4833 164.563 16.8667 164.829 17.15C165.096 17.4167 165.438 17.55 165.854 17.55C166.421 17.55 166.904 17.4083 167.304 17.125L168.479 20.45C168.079 20.7167 167.588 20.9083 167.004 21.025C166.421 21.1583 165.813 21.225 165.179 21.225ZM157.704 11.5V7.95H167.529V11.5H157.704ZM170.311 21V7.45H175.061V21H170.311ZM172.686 5.95C171.819 5.95 171.119 5.70833 170.586 5.225C170.053 4.74167 169.786 4.14167 169.786 3.425C169.786 2.70833 170.053 2.10833 170.586 1.625C171.119 1.14167 171.819 0.899999 172.686 0.899999C173.553 0.899999 174.253 1.13333 174.786 1.6C175.319 2.05 175.586 2.63333 175.586 3.35C175.586 4.1 175.319 4.725 174.786 5.225C174.269 5.70833 173.569 5.95 172.686 5.95ZM181.923 21L176.348 7.45H181.223L185.673 18.775H183.223L187.898 7.45H192.423L186.823 21H181.923ZM193.651 21V7.45H198.401V21H193.651ZM196.026 5.95C195.159 5.95 194.459 5.70833 193.926 5.225C193.393 4.74167 193.126 4.14167 193.126 3.425C193.126 2.70833 193.393 2.10833 193.926 1.625C194.459 1.14167 195.159 0.899999 196.026 0.899999C196.893 0.899999 197.593 1.13333 198.126 1.6C198.659 2.05 198.926 2.63333 198.926 3.35C198.926 4.1 198.659 4.725 198.126 5.225C197.609 5.70833 196.909 5.95 196.026 5.95ZM207.538 21.225C205.805 21.225 204.455 20.8 203.488 19.95C202.521 19.0833 202.038 17.7833 202.038 16.05V4.425H206.788V16C206.788 16.4833 206.921 16.8667 207.188 17.15C207.455 17.4167 207.796 17.55 208.213 17.55C208.78 17.55 209.263 17.4083 209.663 17.125L210.838 20.45C210.438 20.7167 209.946 20.9083 209.363 21.025C208.78 21.1583 208.171 21.225 207.538 21.225ZM200.063 11.5V7.95H209.888V11.5H200.063ZM220.945 21V18.475L220.62 17.85V13.2C220.62 12.45 220.386 11.875 219.92 11.475C219.47 11.0583 218.745 10.85 217.745 10.85C217.095 10.85 216.436 10.9583 215.77 11.175C215.103 11.375 214.536 11.6583 214.07 12.025L212.47 8.8C213.236 8.3 214.153 7.91667 215.22 7.65C216.303 7.36667 217.378 7.225 218.445 7.225C220.645 7.225 222.345 7.73333 223.545 8.75C224.761 9.75 225.37 11.325 225.37 13.475V21H220.945ZM216.945 21.225C215.861 21.225 214.945 21.0417 214.195 20.675C213.445 20.3083 212.87 19.8083 212.47 19.175C212.086 18.5417 211.895 17.8333 211.895 17.05C211.895 16.2167 212.103 15.5 212.52 14.9C212.953 14.2833 213.611 13.8167 214.495 13.5C215.378 13.1667 216.52 13 217.92 13H221.12V15.475H218.57C217.803 15.475 217.261 15.6 216.945 15.85C216.645 16.1 216.495 16.4333 216.495 16.85C216.495 17.2667 216.653 17.6 216.97 17.85C217.286 18.1 217.72 18.225 218.27 18.225C218.786 18.225 219.253 18.1 219.67 17.85C220.103 17.5833 220.42 17.1833 220.62 16.65L221.27 18.4C221.02 19.3333 220.528 20.0417 219.795 20.525C219.078 20.9917 218.128 21.225 216.945 21.225ZM218.02 5.825L213.32 2.025H218.07L221.42 5.825H218.02Z" fill="#FF6474"/>
</svg>
