<svg width="61" height="16" viewBox="0 0 61 16" fill="none" xmlns="http://www.w3.org/2000/svg">
<path d="M3.92377 7.08H9.53977V10.14H3.92377V7.08ZM4.21177 11.796H10.5118V15H0.0357657V2.4H10.2778V5.604H4.21177V11.796ZM14.8111 15L10.8511 5.154H15.0271L18.0331 13.146H15.9271L19.1311 5.154H22.9831L19.0231 15H14.8111ZM28.7774 15.18C27.5774 15.18 26.5274 14.958 25.6274 14.514C24.7394 14.07 24.0494 13.464 23.5574 12.696C23.0654 11.916 22.8194 11.04 22.8194 10.068C22.8194 9.072 23.0594 8.19 23.5394 7.422C24.0314 6.654 24.6974 6.054 25.5374 5.622C26.3894 5.19 27.3434 4.974 28.3994 4.974C29.3714 4.974 30.2654 5.166 31.0814 5.55C31.9094 5.934 32.5694 6.504 33.0614 7.26C33.5654 8.016 33.8174 8.952 33.8174 10.068C33.8174 10.212 33.8114 10.374 33.7994 10.554C33.7874 10.722 33.7754 10.878 33.7634 11.022H26.1854V9.06H31.6034L30.0734 9.582C30.0734 9.198 30.0014 8.874 29.8574 8.61C29.7254 8.334 29.5394 8.124 29.2994 7.98C29.0594 7.824 28.7714 7.746 28.4354 7.746C28.0994 7.746 27.8054 7.824 27.5534 7.98C27.3134 8.124 27.1274 8.334 26.9954 8.61C26.8634 8.874 26.7974 9.198 26.7974 9.582V10.194C26.7974 10.614 26.8814 10.974 27.0494 11.274C27.2174 11.574 27.4574 11.802 27.7694 11.958C28.0814 12.102 28.4594 12.174 28.9034 12.174C29.3594 12.174 29.7314 12.114 30.0194 11.994C30.3194 11.874 30.6314 11.694 30.9554 11.454L33.0794 13.596C32.5994 14.112 32.0054 14.508 31.2974 14.784C30.6014 15.048 29.7614 15.18 28.7774 15.18ZM41.9412 4.974C42.6972 4.974 43.3812 5.13 43.9932 5.442C44.6052 5.742 45.0852 6.216 45.4332 6.864C45.7932 7.512 45.9732 8.352 45.9732 9.384V15H41.9052V10.086C41.9052 9.474 41.7972 9.042 41.5812 8.79C41.3652 8.526 41.0712 8.394 40.6992 8.394C40.4232 8.394 40.1652 8.46 39.9252 8.592C39.6972 8.712 39.5112 8.916 39.3672 9.204C39.2352 9.492 39.1692 9.882 39.1692 10.374V15H35.1012V5.154H38.9712V8.034L38.1972 7.206C38.5812 6.462 39.0972 5.904 39.7452 5.532C40.4052 5.16 41.1372 4.974 41.9412 4.974ZM52.4918 15.18C51.1358 15.18 50.0798 14.856 49.3238 14.208C48.5678 13.548 48.1898 12.54 48.1898 11.184V2.94H52.2578V11.148C52.2578 11.448 52.3358 11.682 52.4918 11.85C52.6598 12.018 52.8638 12.102 53.1038 12.102C53.4518 12.102 53.7578 12.012 54.0218 11.832L54.9938 14.658C54.6818 14.838 54.3038 14.97 53.8598 15.054C53.4278 15.138 52.9718 15.18 52.4918 15.18ZM46.8398 8.664V5.694H54.2738V8.664H46.8398ZM56.0191 15V5.154H60.0871V15H56.0191ZM58.0531 4.362C57.3091 4.362 56.7151 4.164 56.2711 3.768C55.8271 3.372 55.6051 2.88 55.6051 2.292C55.6051 1.704 55.8271 1.212 56.2711 0.815999C56.7151 0.419999 57.3091 0.221999 58.0531 0.221999C58.7971 0.221999 59.3911 0.407999 59.8351 0.78C60.2791 1.152 60.5011 1.632 60.5011 2.22C60.5011 2.844 60.2791 3.36 59.8351 3.768C59.3911 4.164 58.7971 4.362 58.0531 4.362Z" fill="#4EC79F"/>
</svg>
