<svg width="1236" height="203" viewBox="0 0 1236 203" fill="none" xmlns="http://www.w3.org/2000/svg">
<path d="M1236 203H0V54.7093C0 54.7093 233.5 -68.3866 618 54.7093C1002.5 177.805 1236 54.7093 1236 54.7093V203Z" fill="#004082"/>
<path d="M153.48 113.84H192.24V132.2H153.48V113.84ZM155.16 161H131.4V77H197.28V95.36H155.16V161ZM195.031 161L232.111 77H255.511L292.711 161H267.991L238.951 88.64H248.311L219.271 161H195.031ZM215.311 144.68L221.431 127.16H262.471L268.591 144.68H215.311ZM340.635 162.68C333.915 162.68 327.715 161.6 322.035 159.44C316.355 157.28 311.395 154.24 307.155 150.32C302.995 146.32 299.755 141.68 297.435 136.4C295.115 131.12 293.955 125.32 293.955 119C293.955 112.68 295.115 106.88 297.435 101.6C299.755 96.32 302.995 91.72 307.155 87.8C311.395 83.8 316.355 80.72 322.035 78.56C327.715 76.4 333.915 75.32 340.635 75.32C347.435 75.32 353.635 76.4 359.235 78.56C364.915 80.72 369.835 83.76 373.995 87.68C378.155 91.6 381.395 96.24 383.715 101.6C386.115 106.88 387.315 112.68 387.315 119C387.315 125.32 386.115 131.16 383.715 136.52C381.395 141.8 378.155 146.4 373.995 150.32C369.835 154.24 364.915 157.28 359.235 159.44C353.635 161.6 347.435 162.68 340.635 162.68ZM368.115 181.28C364.515 181.28 361.155 180.88 358.035 180.08C354.915 179.36 351.835 178.16 348.795 176.48C345.835 174.8 342.715 172.52 339.435 169.64C336.235 166.76 332.635 163.2 328.635 158.96L353.475 152.72C355.475 155.68 357.275 158 358.875 159.68C360.475 161.36 362.035 162.56 363.555 163.28C365.155 164 366.835 164.36 368.595 164.36C373.235 164.36 377.475 162.4 381.315 158.48L391.635 170.72C385.795 177.76 377.955 181.28 368.115 181.28ZM340.635 143C343.835 143 346.795 142.44 349.515 141.32C352.315 140.2 354.715 138.6 356.715 136.52C358.795 134.36 360.395 131.8 361.515 128.84C362.715 125.88 363.315 122.6 363.315 119C363.315 115.32 362.715 112.04 361.515 109.16C360.395 106.2 358.795 103.68 356.715 101.6C354.715 99.44 352.315 97.8 349.515 96.68C346.795 95.56 343.835 95 340.635 95C337.435 95 334.435 95.56 331.635 96.68C328.915 97.8 326.515 99.44 324.435 101.6C322.435 103.68 320.835 106.2 319.635 109.16C318.515 112.04 317.955 115.32 317.955 119C317.955 122.6 318.515 125.88 319.635 128.84C320.835 131.8 322.435 134.36 324.435 136.52C326.515 138.6 328.915 140.2 331.635 141.32C334.435 142.44 337.435 143 340.635 143Z" fill="#FF6474"/>
</svg>
