<svg width="113" height="13" viewBox="0 0 113 13" fill="none" xmlns="http://www.w3.org/2000/svg">
<path d="M-0.0102343 12V1.5H3.52977V12H-0.0102343ZM5.12891 12V0.869999H8.51891V12H5.12891ZM20.2186 3.645C20.8486 3.645 21.4186 3.775 21.9286 4.035C22.4386 4.285 22.8386 4.68 23.1286 5.22C23.4286 5.76 23.5786 6.46 23.5786 7.32V12H20.1886V7.905C20.1886 7.395 20.0986 7.035 19.9186 6.825C19.7386 6.605 19.4936 6.495 19.1836 6.495C18.9536 6.495 18.7386 6.55 18.5386 6.66C18.3486 6.76 18.1936 6.93 18.0736 7.17C17.9636 7.41 17.9086 7.735 17.9086 8.145V12H14.5186V3.795H17.7436V6.195L17.0986 5.505C17.4186 4.885 17.8486 4.42 18.3886 4.11C18.9386 3.8 19.5486 3.645 20.2186 3.645ZM29.5323 12.15C28.6023 12.15 27.7773 11.97 27.0573 11.61C26.3473 11.24 25.7873 10.735 25.3773 10.095C24.9673 9.455 24.7623 8.72 24.7623 7.89C24.7623 7.06 24.9673 6.325 25.3773 5.685C25.7873 5.045 26.3473 4.545 27.0573 4.185C27.7773 3.825 28.6023 3.645 29.5323 3.645C30.4623 3.645 31.2873 3.825 32.0073 4.185C32.7273 4.545 33.2873 5.045 33.6873 5.685C34.0973 6.325 34.3023 7.06 34.3023 7.89C34.3023 8.72 34.0973 9.455 33.6873 10.095C33.2873 10.735 32.7273 11.24 32.0073 11.61C31.2873 11.97 30.4623 12.15 29.5323 12.15ZM29.5323 9.51C29.7823 9.51 30.0073 9.45 30.2073 9.33C30.4073 9.21 30.5673 9.03 30.6873 8.79C30.8073 8.54 30.8673 8.24 30.8673 7.89C30.8673 7.53 30.8073 7.235 30.6873 7.005C30.5673 6.765 30.4073 6.585 30.2073 6.465C30.0073 6.345 29.7823 6.285 29.5323 6.285C29.2823 6.285 29.0573 6.345 28.8573 6.465C28.6573 6.585 28.4973 6.765 28.3773 7.005C28.2573 7.235 28.1973 7.53 28.1973 7.89C28.1973 8.24 28.2573 8.54 28.3773 8.79C28.4973 9.03 28.6573 9.21 28.8573 9.33C29.0573 9.45 29.2823 9.51 29.5323 9.51ZM38.5733 12.15C37.8733 12.15 37.1833 12.075 36.5033 11.925C35.8233 11.775 35.2733 11.58 34.8533 11.34L35.7833 9.105C36.1733 9.335 36.6233 9.515 37.1333 9.645C37.6533 9.775 38.1583 9.84 38.6483 9.84C39.0583 9.84 39.3333 9.805 39.4733 9.735C39.6233 9.665 39.6983 9.57 39.6983 9.45C39.6983 9.33 39.6133 9.245 39.4433 9.195C39.2733 9.135 39.0483 9.09 38.7683 9.06C38.4883 9.03 38.1783 8.995 37.8383 8.955C37.5083 8.905 37.1733 8.835 36.8333 8.745C36.4933 8.655 36.1833 8.52 35.9033 8.34C35.6233 8.16 35.3983 7.92 35.2283 7.62C35.0583 7.31 34.9733 6.92 34.9733 6.45C34.9733 5.93 35.1283 5.46 35.4383 5.04C35.7583 4.62 36.2283 4.285 36.8483 4.035C37.4783 3.775 38.2533 3.645 39.1733 3.645C39.7733 3.645 40.3733 3.7 40.9733 3.81C41.5733 3.92 42.0883 4.09 42.5183 4.32L41.5883 6.555C41.1683 6.325 40.7533 6.17 40.3433 6.09C39.9433 6 39.5683 5.955 39.2183 5.955C38.7883 5.955 38.4933 5.995 38.3333 6.075C38.1833 6.155 38.1083 6.245 38.1083 6.345C38.1083 6.465 38.1933 6.555 38.3633 6.615C38.5333 6.675 38.7583 6.72 39.0383 6.75C39.3183 6.78 39.6233 6.82 39.9533 6.87C40.2933 6.91 40.6283 6.98 40.9583 7.08C41.2983 7.17 41.6083 7.305 41.8883 7.485C42.1683 7.665 42.3933 7.91 42.5633 8.22C42.7333 8.52 42.8183 8.905 42.8183 9.375C42.8183 9.865 42.6633 10.325 42.3533 10.755C42.0433 11.175 41.5733 11.515 40.9433 11.775C40.3133 12.025 39.5233 12.15 38.5733 12.15ZM47.8047 12.15C46.6747 12.15 45.7947 11.88 45.1647 11.34C44.5347 10.79 44.2197 9.95 44.2197 8.82V1.95H47.6097V8.79C47.6097 9.04 47.6747 9.235 47.8047 9.375C47.9447 9.515 48.1147 9.585 48.3147 9.585C48.6047 9.585 48.8597 9.51 49.0797 9.36L49.8897 11.715C49.6297 11.865 49.3147 11.975 48.9447 12.045C48.5847 12.115 48.2047 12.15 47.8047 12.15ZM43.0947 6.72V4.245H49.2897V6.72H43.0947ZM50.7441 12V3.795H53.9691V6.27L53.4441 5.565C53.6941 4.925 54.0941 4.445 54.6441 4.125C55.1941 3.805 55.8541 3.645 56.6241 3.645V6.645C56.4741 6.625 56.3391 6.61 56.2191 6.6C56.1091 6.59 55.9941 6.585 55.8741 6.585C55.3641 6.585 54.9441 6.72 54.6141 6.99C54.2941 7.25 54.1341 7.705 54.1341 8.355V12H50.7441ZM61.8467 12.15C60.9167 12.15 60.0917 11.97 59.3717 11.61C58.6617 11.24 58.1017 10.735 57.6917 10.095C57.2817 9.455 57.0767 8.72 57.0767 7.89C57.0767 7.06 57.2817 6.325 57.6917 5.685C58.1017 5.045 58.6617 4.545 59.3717 4.185C60.0917 3.825 60.9167 3.645 61.8467 3.645C62.7767 3.645 63.6017 3.825 64.3217 4.185C65.0417 4.545 65.6017 5.045 66.0017 5.685C66.4117 6.325 66.6167 7.06 66.6167 7.89C66.6167 8.72 66.4117 9.455 66.0017 10.095C65.6017 10.735 65.0417 11.24 64.3217 11.61C63.6017 11.97 62.7767 12.15 61.8467 12.15ZM61.8467 9.51C62.0967 9.51 62.3217 9.45 62.5217 9.33C62.7217 9.21 62.8817 9.03 63.0017 8.79C63.1217 8.54 63.1817 8.24 63.1817 7.89C63.1817 7.53 63.1217 7.235 63.0017 7.005C62.8817 6.765 62.7217 6.585 62.5217 6.465C62.3217 6.345 62.0967 6.285 61.8467 6.285C61.5967 6.285 61.3717 6.345 61.1717 6.465C60.9717 6.585 60.8117 6.765 60.6917 7.005C60.5717 7.235 60.5117 7.53 60.5117 7.89C60.5117 8.24 60.5717 8.54 60.6917 8.79C60.8117 9.03 60.9717 9.21 61.1717 9.33C61.3717 9.45 61.5967 9.51 61.8467 9.51ZM76.1348 12.15C75.0048 12.15 74.1248 11.88 73.4948 11.34C72.8648 10.79 72.5498 9.95 72.5498 8.82V1.95H75.9398V8.79C75.9398 9.04 76.0048 9.235 76.1348 9.375C76.2748 9.515 76.4448 9.585 76.6448 9.585C76.9348 9.585 77.1898 9.51 77.4098 9.36L78.2198 11.715C77.9598 11.865 77.6448 11.975 77.2748 12.045C76.9148 12.115 76.5348 12.15 76.1348 12.15ZM71.4248 6.72V4.245H77.6198V6.72H71.4248ZM83.3845 12.15C82.3845 12.15 81.5095 11.965 80.7595 11.595C80.0195 11.225 79.4445 10.72 79.0345 10.08C78.6245 9.43 78.4195 8.7 78.4195 7.89C78.4195 7.06 78.6195 6.325 79.0195 5.685C79.4295 5.045 79.9845 4.545 80.6845 4.185C81.3945 3.825 82.1895 3.645 83.0695 3.645C83.8795 3.645 84.6245 3.805 85.3045 4.125C85.9945 4.445 86.5445 4.92 86.9545 5.55C87.3745 6.18 87.5845 6.96 87.5845 7.89C87.5845 8.01 87.5795 8.145 87.5695 8.295C87.5595 8.435 87.5495 8.565 87.5395 8.685H81.2245V7.05H85.7395L84.4645 7.485C84.4645 7.165 84.4045 6.895 84.2845 6.675C84.1745 6.445 84.0195 6.27 83.8195 6.15C83.6195 6.02 83.3795 5.955 83.0995 5.955C82.8195 5.955 82.5745 6.02 82.3645 6.15C82.1645 6.27 82.0095 6.445 81.8995 6.675C81.7895 6.895 81.7345 7.165 81.7345 7.485V7.995C81.7345 8.345 81.8045 8.645 81.9445 8.895C82.0845 9.145 82.2845 9.335 82.5445 9.465C82.8045 9.585 83.1195 9.645 83.4895 9.645C83.8695 9.645 84.1795 9.595 84.4195 9.495C84.6695 9.395 84.9295 9.245 85.1995 9.045L86.9695 10.83C86.5695 11.26 86.0745 11.59 85.4845 11.82C84.9045 12.04 84.2045 12.15 83.3845 12.15ZM93.3996 12V10.545L93.1596 10.155V7.395C93.1596 6.995 93.0346 6.69 92.7846 6.48C92.5446 6.27 92.1496 6.165 91.5996 6.165C91.2296 6.165 90.8546 6.225 90.4746 6.345C90.0946 6.455 89.7696 6.61 89.4996 6.81L88.4196 4.575C88.8996 4.275 89.4746 4.045 90.1446 3.885C90.8146 3.725 91.4696 3.645 92.1096 3.645C93.5196 3.645 94.6096 3.96 95.3796 4.59C96.1596 5.22 96.5496 6.22 96.5496 7.59V12H93.3996ZM91.0746 12.15C90.4046 12.15 89.8446 12.035 89.3946 11.805C88.9446 11.575 88.6046 11.27 88.3746 10.89C88.1446 10.5 88.0296 10.07 88.0296 9.6C88.0296 9.07 88.1646 8.62 88.4346 8.25C88.7046 7.88 89.1146 7.6 89.6646 7.41C90.2246 7.22 90.9296 7.125 91.7796 7.125H93.4896V8.76H92.3196C91.9596 8.76 91.6946 8.82 91.5246 8.94C91.3646 9.05 91.2846 9.22 91.2846 9.45C91.2846 9.64 91.3546 9.8 91.4946 9.93C91.6446 10.05 91.8446 10.11 92.0946 10.11C92.3246 10.11 92.5346 10.05 92.7246 9.93C92.9246 9.8 93.0696 9.6 93.1596 9.33L93.5946 10.335C93.4646 10.945 93.1896 11.4 92.7696 11.7C92.3496 12 91.7846 12.15 91.0746 12.15ZM108.875 3.645C109.495 3.645 110.05 3.775 110.54 4.035C111.04 4.285 111.43 4.68 111.71 5.22C112 5.76 112.145 6.46 112.145 7.32V12H108.755V7.905C108.755 7.395 108.67 7.035 108.5 6.825C108.33 6.605 108.11 6.495 107.84 6.495C107.64 6.495 107.46 6.545 107.3 6.645C107.14 6.745 107.01 6.905 106.91 7.125C106.82 7.335 106.775 7.625 106.775 7.995V12H103.385V7.905C103.385 7.395 103.305 7.035 103.145 6.825C102.985 6.605 102.76 6.495 102.47 6.495C102.27 6.495 102.09 6.545 101.93 6.645C101.77 6.745 101.64 6.905 101.54 7.125C101.45 7.335 101.405 7.625 101.405 7.995V12H98.0146V3.795H101.24V6.15L100.58 5.49C100.89 4.87 101.305 4.41 101.825 4.11C102.345 3.8 102.925 3.645 103.565 3.645C104.285 3.645 104.92 3.835 105.47 4.215C106.03 4.585 106.405 5.175 106.595 5.985L105.56 5.82C105.86 5.14 106.295 4.61 106.865 4.23C107.445 3.84 108.115 3.645 108.875 3.645Z" fill="#4EC79F"/>
</svg>
