<svg width="193" height="19" viewBox="0 0 193 19" fill="none" xmlns="http://www.w3.org/2000/svg">
<path d="M0.434203 15V2.4H4.6822V15H0.434203ZM13.4412 4.974C14.1972 4.974 14.8812 5.13 15.4932 5.442C16.1052 5.742 16.5852 6.216 16.9332 6.864C17.2932 7.512 17.4732 8.352 17.4732 9.384V15H13.4052V10.086C13.4052 9.474 13.2972 9.042 13.0812 8.79C12.8652 8.526 12.5712 8.394 12.1992 8.394C11.9232 8.394 11.6652 8.46 11.4252 8.592C11.1972 8.712 11.0112 8.916 10.8672 9.204C10.7352 9.492 10.6692 9.882 10.6692 10.374V15H6.60117V5.154H10.4712V8.034L9.69717 7.206C10.0812 6.462 10.5972 5.904 11.2452 5.532C11.9052 5.16 12.6372 4.974 13.4412 4.974ZM24.7076 15.18C23.5796 15.18 22.5776 14.964 21.7016 14.532C20.8256 14.1 20.1356 13.5 19.6316 12.732C19.1396 11.952 18.8936 11.064 18.8936 10.068C18.8936 9.072 19.1396 8.19 19.6316 7.422C20.1356 6.654 20.8256 6.054 21.7016 5.622C22.5776 5.19 23.5796 4.974 24.7076 4.974C25.9076 4.974 26.9336 5.232 27.7856 5.748C28.6376 6.264 29.2256 6.978 29.5496 7.89L26.3996 9.438C26.1956 8.982 25.9436 8.652 25.6436 8.448C25.3556 8.244 25.0376 8.142 24.6896 8.142C24.3896 8.142 24.1076 8.214 23.8436 8.358C23.5916 8.502 23.3876 8.718 23.2316 9.006C23.0876 9.282 23.0156 9.636 23.0156 10.068C23.0156 10.5 23.0876 10.86 23.2316 11.148C23.3876 11.436 23.5916 11.652 23.8436 11.796C24.1076 11.94 24.3896 12.012 24.6896 12.012C25.0376 12.012 25.3556 11.91 25.6436 11.706C25.9436 11.502 26.1956 11.172 26.3996 10.716L29.5496 12.264C29.2256 13.176 28.6376 13.89 27.7856 14.406C26.9336 14.922 25.9076 15.18 24.7076 15.18ZM35.604 15.18C34.488 15.18 33.498 14.964 32.634 14.532C31.782 14.088 31.11 13.482 30.618 12.714C30.126 11.946 29.88 11.064 29.88 10.068C29.88 9.072 30.126 8.19 30.618 7.422C31.11 6.654 31.782 6.054 32.634 5.622C33.498 5.19 34.488 4.974 35.604 4.974C36.72 4.974 37.71 5.19 38.574 5.622C39.438 6.054 40.11 6.654 40.59 7.422C41.082 8.19 41.328 9.072 41.328 10.068C41.328 11.064 41.082 11.946 40.59 12.714C40.11 13.482 39.438 14.088 38.574 14.532C37.71 14.964 36.72 15.18 35.604 15.18ZM35.604 12.012C35.904 12.012 36.174 11.94 36.414 11.796C36.654 11.652 36.846 11.436 36.99 11.148C37.134 10.848 37.206 10.488 37.206 10.068C37.206 9.636 37.134 9.282 36.99 9.006C36.846 8.718 36.654 8.502 36.414 8.358C36.174 8.214 35.904 8.142 35.604 8.142C35.304 8.142 35.034 8.214 34.794 8.358C34.554 8.502 34.362 8.718 34.218 9.006C34.074 9.282 34.002 9.636 34.002 10.068C34.002 10.488 34.074 10.848 34.218 11.148C34.362 11.436 34.554 11.652 34.794 11.796C35.034 11.94 35.304 12.012 35.604 12.012ZM49.4412 4.974C50.1972 4.974 50.8812 5.13 51.4932 5.442C52.1052 5.742 52.5852 6.216 52.9332 6.864C53.2932 7.512 53.4732 8.352 53.4732 9.384V15H49.4052V10.086C49.4052 9.474 49.2972 9.042 49.0812 8.79C48.8652 8.526 48.5712 8.394 48.1992 8.394C47.9232 8.394 47.6652 8.46 47.4252 8.592C47.1972 8.712 47.0112 8.916 46.8672 9.204C46.7352 9.492 46.6692 9.882 46.6692 10.374V15H42.6012V5.154H46.4712V8.034L45.6972 7.206C46.0812 6.462 46.5972 5.904 47.2452 5.532C47.9052 5.16 48.6372 4.974 49.4412 4.974ZM59.9918 15.18C58.6358 15.18 57.5798 14.856 56.8238 14.208C56.0678 13.548 55.6898 12.54 55.6898 11.184V2.94H59.7578V11.148C59.7578 11.448 59.8358 11.682 59.9918 11.85C60.1598 12.018 60.3638 12.102 60.6038 12.102C60.9518 12.102 61.2578 12.012 61.5218 11.832L62.4938 14.658C62.1818 14.838 61.8038 14.97 61.3598 15.054C60.9278 15.138 60.4718 15.18 59.9918 15.18ZM54.3398 8.664V5.694H61.7738V8.664H54.3398ZM63.5191 15V5.154H67.3891V8.124L66.7591 7.278C67.0591 6.51 67.5391 5.934 68.1991 5.55C68.8591 5.166 69.6511 4.974 70.5751 4.974V8.574C70.3951 8.55 70.2331 8.532 70.0891 8.52C69.9571 8.508 69.8191 8.502 69.6751 8.502C69.0631 8.502 68.5591 8.664 68.1631 8.988C67.7791 9.3 67.5871 9.846 67.5871 10.626V15H63.5191ZM71.7281 15V5.154H75.7961V15H71.7281ZM73.7621 4.362C73.0181 4.362 72.4241 4.164 71.9801 3.768C71.5361 3.372 71.3141 2.88 71.3141 2.292C71.3141 1.704 71.5361 1.212 71.9801 0.815999C72.4241 0.419999 73.0181 0.221999 73.7621 0.221999C74.5061 0.221999 75.1001 0.407999 75.5441 0.78C75.9881 1.152 76.2101 1.632 76.2101 2.22C76.2101 2.844 75.9881 3.36 75.5441 3.768C75.1001 4.164 74.5061 4.362 73.7621 4.362ZM88.2877 15.18C87.1597 15.18 86.1577 14.964 85.2817 14.532C84.4057 14.1 83.7157 13.5 83.2117 12.732C82.7197 11.952 82.4737 11.064 82.4737 10.068C82.4737 9.072 82.7197 8.19 83.2117 7.422C83.7157 6.654 84.4057 6.054 85.2817 5.622C86.1577 5.19 87.1597 4.974 88.2877 4.974C89.4877 4.974 90.5137 5.232 91.3657 5.748C92.2177 6.264 92.8057 6.978 93.1297 7.89L89.9797 9.438C89.7757 8.982 89.5237 8.652 89.2237 8.448C88.9357 8.244 88.6177 8.142 88.2697 8.142C87.9697 8.142 87.6877 8.214 87.4237 8.358C87.1717 8.502 86.9677 8.718 86.8117 9.006C86.6677 9.282 86.5957 9.636 86.5957 10.068C86.5957 10.5 86.6677 10.86 86.8117 11.148C86.9677 11.436 87.1717 11.652 87.4237 11.796C87.6877 11.94 87.9697 12.012 88.2697 12.012C88.6177 12.012 88.9357 11.91 89.2237 11.706C89.5237 11.502 89.7757 11.172 89.9797 10.716L93.1297 12.264C92.8057 13.176 92.2177 13.89 91.3657 14.406C90.5137 14.922 89.4877 15.18 88.2877 15.18ZM99.184 15.18C98.068 15.18 97.078 14.964 96.214 14.532C95.362 14.088 94.69 13.482 94.198 12.714C93.706 11.946 93.46 11.064 93.46 10.068C93.46 9.072 93.706 8.19 94.198 7.422C94.69 6.654 95.362 6.054 96.214 5.622C97.078 5.19 98.068 4.974 99.184 4.974C100.3 4.974 101.29 5.19 102.154 5.622C103.018 6.054 103.69 6.654 104.17 7.422C104.662 8.19 104.908 9.072 104.908 10.068C104.908 11.064 104.662 11.946 104.17 12.714C103.69 13.482 103.018 14.088 102.154 14.532C101.29 14.964 100.3 15.18 99.184 15.18ZM99.184 12.012C99.484 12.012 99.754 11.94 99.994 11.796C100.234 11.652 100.426 11.436 100.57 11.148C100.714 10.848 100.786 10.488 100.786 10.068C100.786 9.636 100.714 9.282 100.57 9.006C100.426 8.718 100.234 8.502 99.994 8.358C99.754 8.214 99.484 8.142 99.184 8.142C98.884 8.142 98.614 8.214 98.374 8.358C98.134 8.502 97.942 8.718 97.798 9.006C97.654 9.282 97.582 9.636 97.582 10.068C97.582 10.488 97.654 10.848 97.798 11.148C97.942 11.436 98.134 11.652 98.374 11.796C98.614 11.94 98.884 12.012 99.184 12.012ZM113.021 4.974C113.777 4.974 114.461 5.13 115.073 5.442C115.685 5.742 116.165 6.216 116.513 6.864C116.873 7.512 117.053 8.352 117.053 9.384V15H112.985V10.086C112.985 9.474 112.877 9.042 112.661 8.79C112.445 8.526 112.151 8.394 111.779 8.394C111.503 8.394 111.245 8.46 111.005 8.592C110.777 8.712 110.591 8.916 110.447 9.204C110.315 9.492 110.249 9.882 110.249 10.374V15H106.181V5.154H110.051V8.034L109.277 7.206C109.661 6.462 110.177 5.904 110.825 5.532C111.485 5.16 112.217 4.974 113.021 4.974ZM128.23 7.08H133.846V10.14H128.23V7.08ZM128.518 11.796H134.818V15H124.342V2.4H134.584V5.604H128.518V11.796ZM140.18 15.18C139.34 15.18 138.512 15.09 137.696 14.91C136.88 14.73 136.22 14.496 135.716 14.208L136.832 11.526C137.3 11.802 137.84 12.018 138.452 12.174C139.076 12.33 139.682 12.408 140.27 12.408C140.762 12.408 141.092 12.366 141.26 12.282C141.44 12.198 141.53 12.084 141.53 11.94C141.53 11.796 141.428 11.694 141.224 11.634C141.02 11.562 140.75 11.508 140.414 11.472C140.078 11.436 139.706 11.394 139.298 11.346C138.902 11.286 138.5 11.202 138.092 11.094C137.684 10.986 137.312 10.824 136.976 10.608C136.64 10.392 136.37 10.104 136.166 9.744C135.962 9.372 135.86 8.904 135.86 8.34C135.86 7.716 136.046 7.152 136.418 6.648C136.802 6.144 137.366 5.742 138.11 5.442C138.866 5.13 139.796 4.974 140.9 4.974C141.62 4.974 142.34 5.04 143.06 5.172C143.78 5.304 144.398 5.508 144.914 5.784L143.798 8.466C143.294 8.19 142.796 8.004 142.304 7.908C141.824 7.8 141.374 7.746 140.954 7.746C140.438 7.746 140.084 7.794 139.892 7.89C139.712 7.986 139.622 8.094 139.622 8.214C139.622 8.358 139.724 8.466 139.928 8.538C140.132 8.61 140.402 8.664 140.738 8.7C141.074 8.736 141.44 8.784 141.836 8.844C142.244 8.892 142.646 8.976 143.042 9.096C143.45 9.204 143.822 9.366 144.158 9.582C144.494 9.798 144.764 10.092 144.968 10.464C145.172 10.824 145.274 11.286 145.274 11.85C145.274 12.438 145.088 12.99 144.716 13.506C144.344 14.01 143.78 14.418 143.024 14.73C142.268 15.03 141.32 15.18 140.18 15.18ZM153.075 15.18C152.223 15.18 151.515 15 150.951 14.64C150.399 14.268 149.991 13.71 149.727 12.966C149.463 12.21 149.331 11.25 149.331 10.086C149.331 8.898 149.451 7.932 149.691 7.188C149.943 6.432 150.345 5.874 150.897 5.514C151.449 5.154 152.175 4.974 153.075 4.974C153.939 4.974 154.731 5.184 155.451 5.604C156.171 6.012 156.747 6.6 157.179 7.368C157.611 8.124 157.827 9.03 157.827 10.086C157.827 11.142 157.611 12.054 157.179 12.822C156.747 13.578 156.171 14.16 155.451 14.568C154.731 14.976 153.939 15.18 153.075 15.18ZM146.505 18.492V5.154H150.375V6.486L150.393 10.086L150.573 13.686V18.492H146.505ZM152.103 12.012C152.403 12.012 152.673 11.94 152.913 11.796C153.153 11.652 153.345 11.436 153.489 11.148C153.633 10.86 153.705 10.506 153.705 10.086C153.705 9.654 153.633 9.294 153.489 9.006C153.345 8.718 153.153 8.502 152.913 8.358C152.673 8.214 152.403 8.142 152.103 8.142C151.803 8.142 151.533 8.214 151.293 8.358C151.053 8.502 150.861 8.718 150.717 9.006C150.573 9.294 150.501 9.654 150.501 10.086C150.501 10.506 150.573 10.86 150.717 11.148C150.861 11.436 151.053 11.652 151.293 11.796C151.533 11.94 151.803 12.012 152.103 12.012ZM164.545 15.18C163.345 15.18 162.295 14.958 161.395 14.514C160.507 14.07 159.817 13.464 159.325 12.696C158.833 11.916 158.587 11.04 158.587 10.068C158.587 9.072 158.827 8.19 159.307 7.422C159.799 6.654 160.465 6.054 161.305 5.622C162.157 5.19 163.111 4.974 164.167 4.974C165.139 4.974 166.033 5.166 166.849 5.55C167.677 5.934 168.337 6.504 168.829 7.26C169.333 8.016 169.585 8.952 169.585 10.068C169.585 10.212 169.579 10.374 169.567 10.554C169.555 10.722 169.543 10.878 169.531 11.022H161.953V9.06H167.371L165.841 9.582C165.841 9.198 165.769 8.874 165.625 8.61C165.493 8.334 165.307 8.124 165.067 7.98C164.827 7.824 164.539 7.746 164.203 7.746C163.867 7.746 163.573 7.824 163.321 7.98C163.081 8.124 162.895 8.334 162.763 8.61C162.631 8.874 162.565 9.198 162.565 9.582V10.194C162.565 10.614 162.649 10.974 162.817 11.274C162.985 11.574 163.225 11.802 163.537 11.958C163.849 12.102 164.227 12.174 164.671 12.174C165.127 12.174 165.499 12.114 165.787 11.994C166.087 11.874 166.399 11.694 166.723 11.454L168.847 13.596C168.367 14.112 167.773 14.508 167.065 14.784C166.369 15.048 165.529 15.18 164.545 15.18ZM170.869 15V5.154H174.739V8.124L174.109 7.278C174.409 6.51 174.889 5.934 175.549 5.55C176.209 5.166 177.001 4.974 177.925 4.974V8.574C177.745 8.55 177.583 8.532 177.439 8.52C177.307 8.508 177.169 8.502 177.025 8.502C176.413 8.502 175.909 8.664 175.513 8.988C175.129 9.3 174.937 9.846 174.937 10.626V15H170.869ZM184.093 15.18C182.737 15.18 181.681 14.856 180.925 14.208C180.169 13.548 179.791 12.54 179.791 11.184V2.94H183.859V11.148C183.859 11.448 183.937 11.682 184.093 11.85C184.261 12.018 184.465 12.102 184.705 12.102C185.053 12.102 185.359 12.012 185.623 11.832L186.595 14.658C186.283 14.838 185.905 14.97 185.461 15.054C185.029 15.138 184.573 15.18 184.093 15.18ZM178.441 8.664V5.694H185.875V8.664H178.441ZM187.621 15V5.154H191.689V15H187.621ZM189.655 4.362C188.911 4.362 188.317 4.164 187.873 3.768C187.429 3.372 187.207 2.88 187.207 2.292C187.207 1.704 187.429 1.212 187.873 0.815999C188.317 0.419999 188.911 0.221999 189.655 0.221999C190.399 0.221999 190.993 0.407999 191.437 0.78C191.881 1.152 192.103 1.632 192.103 2.22C192.103 2.844 191.881 3.36 191.437 3.768C190.993 4.164 190.399 4.362 189.655 4.362Z" fill="#4EC79F"/>
</svg>
