<svg width="189" height="19" viewBox="0 0 189 19" fill="none" xmlns="http://www.w3.org/2000/svg">
<path d="M0.486328 18V0.499999H5.43633V14.075H13.7863V18H0.486328ZM22.5713 18.225C20.9713 18.225 19.5713 17.925 18.3713 17.325C17.188 16.7083 16.263 15.875 15.5963 14.825C14.9463 13.7583 14.6213 12.55 14.6213 11.2C14.6213 9.85 14.938 8.65 15.5713 7.6C16.2213 6.53333 17.113 5.70833 18.2463 5.125C19.3796 4.525 20.6546 4.225 22.0713 4.225C23.4046 4.225 24.6213 4.5 25.7213 5.05C26.8213 5.58333 27.6963 6.375 28.3463 7.425C28.9963 8.475 29.3213 9.75 29.3213 11.25C29.3213 11.4167 29.313 11.6083 29.2963 11.825C29.2796 12.0417 29.263 12.2417 29.2463 12.425H18.5213V9.925H26.7213L24.9213 10.625C24.938 10.0083 24.8213 9.475 24.5713 9.025C24.338 8.575 24.0046 8.225 23.5713 7.975C23.1546 7.725 22.663 7.6 22.0963 7.6C21.5296 7.6 21.0296 7.725 20.5963 7.975C20.1796 8.225 19.8546 8.58333 19.6213 9.05C19.388 9.5 19.2713 10.0333 19.2713 10.65V11.375C19.2713 12.0417 19.4046 12.6167 19.6713 13.1C19.9546 13.5833 20.3546 13.9583 20.8713 14.225C21.388 14.475 22.0046 14.6 22.7213 14.6C23.388 14.6 23.9546 14.5083 24.4213 14.325C24.9046 14.125 25.3796 13.825 25.8463 13.425L28.3463 16.025C27.6963 16.7417 26.8963 17.2917 25.9463 17.675C24.9963 18.0417 23.8713 18.225 22.5713 18.225ZM47.6117 4.225C48.6617 4.225 49.6117 4.44167 50.4617 4.875C51.3117 5.29167 51.9784 5.94167 52.4617 6.825C52.9617 7.70833 53.2117 8.85 53.2117 10.25V18H48.4617V11.025C48.4617 10.0583 48.2617 9.35833 47.8617 8.925C47.4784 8.475 46.9367 8.25 46.2367 8.25C45.7367 8.25 45.2784 8.36667 44.8617 8.6C44.4451 8.81667 44.1201 9.15833 43.8867 9.625C43.6534 10.0917 43.5367 10.7 43.5367 11.45V18H38.7867V4.45H43.3117V8.3L42.4367 7.175C42.9534 6.19167 43.6617 5.45833 44.5617 4.975C45.4617 4.475 46.4784 4.225 47.6117 4.225ZM63.1648 18.225C61.6815 18.225 60.3648 17.925 59.2148 17.325C58.0648 16.725 57.1565 15.9 56.4898 14.85C55.8398 13.7833 55.5148 12.5667 55.5148 11.2C55.5148 9.83333 55.8398 8.625 56.4898 7.575C57.1565 6.525 58.0648 5.70833 59.2148 5.125C60.3648 4.525 61.6815 4.225 63.1648 4.225C64.6482 4.225 65.9648 4.525 67.1148 5.125C68.2815 5.70833 69.1898 6.525 69.8398 7.575C70.4898 8.625 70.8148 9.83333 70.8148 11.2C70.8148 12.5667 70.4898 13.7833 69.8398 14.85C69.1898 15.9 68.2815 16.725 67.1148 17.325C65.9648 17.925 64.6482 18.225 63.1648 18.225ZM63.1648 14.45C63.7148 14.45 64.1982 14.325 64.6148 14.075C65.0482 13.825 65.3898 13.4583 65.6398 12.975C65.8898 12.475 66.0148 11.8833 66.0148 11.2C66.0148 10.5167 65.8898 9.94167 65.6398 9.475C65.3898 8.99167 65.0482 8.625 64.6148 8.375C64.1982 8.125 63.7148 8 63.1648 8C62.6315 8 62.1482 8.125 61.7148 8.375C61.2982 8.625 60.9565 8.99167 60.6898 9.475C60.4398 9.94167 60.3148 10.5167 60.3148 11.2C60.3148 11.8833 60.4398 12.475 60.6898 12.975C60.9565 13.4583 61.2982 13.825 61.7148 14.075C62.1482 14.325 62.6315 14.45 63.1648 14.45ZM77.9402 18.225C76.7902 18.225 75.6652 18.0917 74.5652 17.825C73.4819 17.5583 72.6069 17.225 71.9402 16.825L73.3652 13.575C73.9986 13.9583 74.7402 14.2667 75.5902 14.5C76.4402 14.7167 77.2736 14.825 78.0902 14.825C78.8902 14.825 79.4402 14.7417 79.7402 14.575C80.0569 14.4083 80.2152 14.1833 80.2152 13.9C80.2152 13.6333 80.0652 13.4417 79.7652 13.325C79.4819 13.1917 79.0986 13.0917 78.6152 13.025C78.1486 12.9583 77.6319 12.8833 77.0652 12.8C76.4986 12.7167 75.9236 12.6083 75.3402 12.475C74.7736 12.325 74.2486 12.1083 73.7652 11.825C73.2986 11.525 72.9236 11.125 72.6402 10.625C72.3569 10.125 72.2152 9.49167 72.2152 8.725C72.2152 7.85833 72.4652 7.09167 72.9652 6.425C73.4819 5.74167 74.2319 5.20833 75.2152 4.825C76.1986 4.425 77.3986 4.225 78.8152 4.225C79.7652 4.225 80.7236 4.325 81.6902 4.525C82.6736 4.70833 83.4986 4.99167 84.1652 5.375L82.7402 8.6C82.0736 8.21667 81.4069 7.95833 80.7402 7.825C80.0736 7.675 79.4402 7.6 78.8402 7.6C78.0402 7.6 77.4736 7.69167 77.1402 7.875C76.8236 8.05833 76.6652 8.28333 76.6652 8.55C76.6652 8.81667 76.8069 9.025 77.0902 9.175C77.3736 9.30833 77.7486 9.41667 78.2152 9.5C78.6986 9.56667 79.2236 9.64167 79.7902 9.725C80.3569 9.79167 80.9236 9.9 81.4902 10.05C82.0736 10.2 82.5986 10.425 83.0652 10.725C83.5486 11.0083 83.9319 11.4 84.2152 11.9C84.4986 12.3833 84.6402 13.0083 84.6402 13.775C84.6402 14.6083 84.3819 15.3583 83.8652 16.025C83.3652 16.6917 82.6152 17.225 81.6152 17.625C80.6319 18.025 79.4069 18.225 77.9402 18.225ZM92.7371 18.225C91.0038 18.225 89.6538 17.8 88.6871 16.95C87.7204 16.0833 87.2371 14.7833 87.2371 13.05V1.425H91.9871V13C91.9871 13.4833 92.1204 13.8667 92.3871 14.15C92.6538 14.4167 92.9954 14.55 93.4121 14.55C93.9788 14.55 94.4621 14.4083 94.8621 14.125L96.0371 17.45C95.6371 17.7167 95.1454 17.9083 94.5621 18.025C93.9788 18.1583 93.3704 18.225 92.7371 18.225ZM85.2621 8.5V4.95H95.0871V8.5H85.2621ZM97.8688 18V4.45H102.394V8.4L101.719 7.275C102.119 6.25833 102.769 5.5 103.669 5C104.569 4.48333 105.66 4.225 106.944 4.225V8.5C106.727 8.46667 106.535 8.45 106.369 8.45C106.219 8.43333 106.052 8.425 105.869 8.425C104.902 8.425 104.119 8.69167 103.519 9.225C102.919 9.74167 102.619 10.5917 102.619 11.775V18H97.8688ZM115.882 18.225C114.282 18.225 112.882 17.925 111.682 17.325C110.499 16.7083 109.574 15.875 108.907 14.825C108.257 13.7583 107.932 12.55 107.932 11.2C107.932 9.85 108.249 8.65 108.882 7.6C109.532 6.53333 110.424 5.70833 111.557 5.125C112.69 4.525 113.965 4.225 115.382 4.225C116.715 4.225 117.932 4.5 119.032 5.05C120.132 5.58333 121.007 6.375 121.657 7.425C122.307 8.475 122.632 9.75 122.632 11.25C122.632 11.4167 122.624 11.6083 122.607 11.825C122.59 12.0417 122.574 12.2417 122.557 12.425H111.832V9.925H120.032L118.232 10.625C118.249 10.0083 118.132 9.475 117.882 9.025C117.649 8.575 117.315 8.225 116.882 7.975C116.465 7.725 115.974 7.6 115.407 7.6C114.84 7.6 114.34 7.725 113.907 7.975C113.49 8.225 113.165 8.58333 112.932 9.05C112.699 9.5 112.582 10.0333 112.582 10.65V11.375C112.582 12.0417 112.715 12.6167 112.982 13.1C113.265 13.5833 113.665 13.9583 114.182 14.225C114.699 14.475 115.315 14.6 116.032 14.6C116.699 14.6 117.265 14.5083 117.732 14.325C118.215 14.125 118.69 13.825 119.157 13.425L121.657 16.025C121.007 16.7417 120.207 17.2917 119.257 17.675C118.307 18.0417 117.182 18.225 115.882 18.225ZM140.372 18V15.475L140.047 14.85V10.2C140.047 9.45 139.814 8.875 139.347 8.475C138.897 8.05833 138.172 7.85 137.172 7.85C136.522 7.85 135.864 7.95833 135.197 8.175C134.531 8.375 133.964 8.65833 133.497 9.025L131.897 5.8C132.664 5.3 133.581 4.91667 134.647 4.65C135.731 4.36667 136.806 4.225 137.872 4.225C140.072 4.225 141.772 4.73333 142.972 5.75C144.189 6.75 144.797 8.325 144.797 10.475V18H140.372ZM136.372 18.225C135.289 18.225 134.372 18.0417 133.622 17.675C132.872 17.3083 132.297 16.8083 131.897 16.175C131.514 15.5417 131.322 14.8333 131.322 14.05C131.322 13.2167 131.531 12.5 131.947 11.9C132.381 11.2833 133.039 10.8167 133.922 10.5C134.806 10.1667 135.947 10 137.347 10H140.547V12.475H137.997C137.231 12.475 136.689 12.6 136.372 12.85C136.072 13.1 135.922 13.4333 135.922 13.85C135.922 14.2667 136.081 14.6 136.397 14.85C136.714 15.1 137.147 15.225 137.697 15.225C138.214 15.225 138.681 15.1 139.097 14.85C139.531 14.5833 139.847 14.1833 140.047 13.65L140.697 15.4C140.447 16.3333 139.956 17.0417 139.222 17.525C138.506 17.9917 137.556 18.225 136.372 18.225ZM147.796 18V4.45H152.321V8.4L151.646 7.275C152.046 6.25833 152.696 5.5 153.596 5C154.496 4.48333 155.587 4.225 156.871 4.225V8.5C156.654 8.46667 156.462 8.45 156.296 8.45C156.146 8.43333 155.979 8.425 155.796 8.425C154.829 8.425 154.046 8.69167 153.446 9.225C152.846 9.74167 152.546 10.5917 152.546 11.775V18H147.796ZM165.809 18.225C164.209 18.225 162.809 17.925 161.609 17.325C160.425 16.7083 159.5 15.875 158.834 14.825C158.184 13.7583 157.859 12.55 157.859 11.2C157.859 9.85 158.175 8.65 158.809 7.6C159.459 6.53333 160.35 5.70833 161.484 5.125C162.617 4.525 163.892 4.225 165.309 4.225C166.642 4.225 167.859 4.5 168.959 5.05C170.059 5.58333 170.934 6.375 171.584 7.425C172.234 8.475 172.559 9.75 172.559 11.25C172.559 11.4167 172.55 11.6083 172.534 11.825C172.517 12.0417 172.5 12.2417 172.484 12.425H161.759V9.925H169.959L168.159 10.625C168.175 10.0083 168.059 9.475 167.809 9.025C167.575 8.575 167.242 8.225 166.809 7.975C166.392 7.725 165.9 7.6 165.334 7.6C164.767 7.6 164.267 7.725 163.834 7.975C163.417 8.225 163.092 8.58333 162.859 9.05C162.625 9.5 162.509 10.0333 162.509 10.65V11.375C162.509 12.0417 162.642 12.6167 162.909 13.1C163.192 13.5833 163.592 13.9583 164.109 14.225C164.625 14.475 165.242 14.6 165.959 14.6C166.625 14.6 167.192 14.5083 167.659 14.325C168.142 14.125 168.617 13.825 169.084 13.425L171.584 16.025C170.934 16.7417 170.134 17.2917 169.184 17.675C168.234 18.0417 167.109 18.225 165.809 18.225ZM181.849 18.225C180.249 18.225 178.849 17.925 177.649 17.325C176.465 16.7083 175.54 15.875 174.874 14.825C174.224 13.7583 173.899 12.55 173.899 11.2C173.899 9.85 174.215 8.65 174.849 7.6C175.499 6.53333 176.39 5.70833 177.524 5.125C178.657 4.525 179.932 4.225 181.349 4.225C182.682 4.225 183.899 4.5 184.999 5.05C186.099 5.58333 186.974 6.375 187.624 7.425C188.274 8.475 188.599 9.75 188.599 11.25C188.599 11.4167 188.59 11.6083 188.574 11.825C188.557 12.0417 188.54 12.2417 188.524 12.425H177.799V9.925H185.999L184.199 10.625C184.215 10.0083 184.099 9.475 183.849 9.025C183.615 8.575 183.282 8.225 182.849 7.975C182.432 7.725 181.94 7.6 181.374 7.6C180.807 7.6 180.307 7.725 179.874 7.975C179.457 8.225 179.132 8.58333 178.899 9.05C178.665 9.5 178.549 10.0333 178.549 10.65V11.375C178.549 12.0417 178.682 12.6167 178.949 13.1C179.232 13.5833 179.632 13.9583 180.149 14.225C180.665 14.475 181.282 14.6 181.999 14.6C182.665 14.6 183.232 14.5083 183.699 14.325C184.182 14.125 184.657 13.825 185.124 13.425L187.624 16.025C186.974 16.7417 186.174 17.2917 185.224 17.675C184.274 18.0417 183.149 18.225 181.849 18.225Z" fill="#FF6474"/>
</svg>
