<svg width="333" height="143" viewBox="0 0 333 143" fill="none" xmlns="http://www.w3.org/2000/svg">
<rect y="7.93726" width="322.515" height="135.063" rx="34" fill="#FF6474"/>
<rect x="9.6543" width="322.515" height="135.063" rx="34" fill="white"/>
<path d="M30.3945 63V45.5H34.4695L41.7195 57.4H39.5695L46.6195 45.5H50.6945L50.7445 63H46.1945L46.1445 52.425H46.9195L41.6445 61.275H39.4445L34.0195 52.425H34.9695V63H30.3945ZM62.2971 63V60.475L61.9721 59.85V55.2C61.9721 54.45 61.7387 53.875 61.2721 53.475C60.8221 53.0583 60.0971 52.85 59.0971 52.85C58.4471 52.85 57.7887 52.9583 57.1221 53.175C56.4554 53.375 55.8887 53.6583 55.4221 54.025L53.8221 50.8C54.5887 50.3 55.5054 49.9167 56.5721 49.65C57.6554 49.3667 58.7304 49.225 59.7971 49.225C61.9971 49.225 63.6971 49.7333 64.8971 50.75C66.1137 51.75 66.7221 53.325 66.7221 55.475V63H62.2971ZM58.2971 63.225C57.2137 63.225 56.2971 63.0417 55.5471 62.675C54.7971 62.3083 54.2221 61.8083 53.8221 61.175C53.4387 60.5417 53.2471 59.8333 53.2471 59.05C53.2471 58.2167 53.4554 57.5 53.8721 56.9C54.3054 56.2833 54.9637 55.8167 55.8471 55.5C56.7304 55.1667 57.8721 55 59.2721 55H62.4721V57.475H59.9221C59.1554 57.475 58.6137 57.6 58.2971 57.85C57.9971 58.1 57.8471 58.4333 57.8471 58.85C57.8471 59.2667 58.0054 59.6 58.3221 59.85C58.6387 60.1 59.0721 60.225 59.6221 60.225C60.1387 60.225 60.6054 60.1 61.0221 59.85C61.4554 59.5833 61.7721 59.1833 61.9721 58.65L62.6221 60.4C62.3721 61.3333 61.8804 62.0417 61.1471 62.525C60.4304 62.9917 59.4804 63.225 58.2971 63.225ZM69.7203 63V49.45H74.2453V53.4L73.5703 52.275C73.9703 51.2583 74.6203 50.5 75.5203 50C76.4203 49.4833 77.512 49.225 78.7953 49.225V53.5C78.5786 53.4667 78.387 53.45 78.2203 53.45C78.0703 53.4333 77.9036 53.425 77.7203 53.425C76.7536 53.425 75.9703 53.6917 75.3703 54.225C74.7703 54.7417 74.4703 55.5917 74.4703 56.775V63H69.7203ZM87.5584 63.225C86.0584 63.225 84.7167 62.925 83.5334 62.325C82.3667 61.725 81.4501 60.9 80.7834 59.85C80.1167 58.7833 79.7834 57.5667 79.7834 56.2C79.7834 54.8333 80.1167 53.625 80.7834 52.575C81.4501 51.525 82.3667 50.7083 83.5334 50.125C84.7167 49.525 86.0584 49.225 87.5584 49.225C89.0917 49.225 90.4167 49.55 91.5334 50.2C92.6501 50.85 93.4417 51.7667 93.9084 52.95L90.2334 54.825C89.9167 54.1917 89.5251 53.7333 89.0584 53.45C88.5917 53.15 88.0834 53 87.5334 53C86.9834 53 86.4834 53.125 86.0334 53.375C85.5834 53.625 85.2251 53.9917 84.9584 54.475C84.7084 54.9417 84.5834 55.5167 84.5834 56.2C84.5834 56.9 84.7084 57.4917 84.9584 57.975C85.2251 58.4583 85.5834 58.825 86.0334 59.075C86.4834 59.325 86.9834 59.45 87.5334 59.45C88.0834 59.45 88.5917 59.3083 89.0584 59.025C89.5251 58.725 89.9167 58.2583 90.2334 57.625L93.9084 59.5C93.4417 60.6833 92.6501 61.6 91.5334 62.25C90.4167 62.9 89.0917 63.225 87.5584 63.225ZM102.65 63.225C101.05 63.225 99.6504 62.925 98.4504 62.325C97.2671 61.7083 96.3421 60.875 95.6754 59.825C95.0254 58.7583 94.7004 57.55 94.7004 56.2C94.7004 54.85 95.0171 53.65 95.6504 52.6C96.3004 51.5333 97.1921 50.7083 98.3254 50.125C99.4587 49.525 100.734 49.225 102.15 49.225C103.484 49.225 104.7 49.5 105.8 50.05C106.9 50.5833 107.775 51.375 108.425 52.425C109.075 53.475 109.4 54.75 109.4 56.25C109.4 56.4167 109.392 56.6083 109.375 56.825C109.359 57.0417 109.342 57.2417 109.325 57.425H98.6004V54.925H106.8L105 55.625C105.017 55.0083 104.9 54.475 104.65 54.025C104.417 53.575 104.084 53.225 103.65 52.975C103.234 52.725 102.742 52.6 102.175 52.6C101.609 52.6 101.109 52.725 100.675 52.975C100.259 53.225 99.9337 53.5833 99.7004 54.05C99.4671 54.5 99.3504 55.0333 99.3504 55.65V56.375C99.3504 57.0417 99.4837 57.6167 99.7504 58.1C100.034 58.5833 100.434 58.9583 100.95 59.225C101.467 59.475 102.084 59.6 102.8 59.6C103.467 59.6 104.034 59.5083 104.5 59.325C104.984 59.125 105.459 58.825 105.925 58.425L108.425 61.025C107.775 61.7417 106.975 62.2917 106.025 62.675C105.075 63.0417 103.95 63.225 102.65 63.225ZM111.59 63V44.45H116.34V63H111.59ZM119.427 63V44.45H124.177V63H119.427ZM134.064 63.225C132.581 63.225 131.264 62.925 130.114 62.325C128.964 61.725 128.056 60.9 127.389 59.85C126.739 58.7833 126.414 57.5667 126.414 56.2C126.414 54.8333 126.739 53.625 127.389 52.575C128.056 51.525 128.964 50.7083 130.114 50.125C131.264 49.525 132.581 49.225 134.064 49.225C135.548 49.225 136.864 49.525 138.014 50.125C139.181 50.7083 140.089 51.525 140.739 52.575C141.389 53.625 141.714 54.8333 141.714 56.2C141.714 57.5667 141.389 58.7833 140.739 59.85C140.089 60.9 139.181 61.725 138.014 62.325C136.864 62.925 135.548 63.225 134.064 63.225ZM134.064 59.45C134.614 59.45 135.098 59.325 135.514 59.075C135.948 58.825 136.289 58.4583 136.539 57.975C136.789 57.475 136.914 56.8833 136.914 56.2C136.914 55.5167 136.789 54.9417 136.539 54.475C136.289 53.9917 135.948 53.625 135.514 53.375C135.098 53.125 134.614 53 134.064 53C133.531 53 133.048 53.125 132.614 53.375C132.198 53.625 131.856 53.9917 131.589 54.475C131.339 54.9417 131.214 55.5167 131.214 56.2C131.214 56.8833 131.339 57.475 131.589 57.975C131.856 58.4583 132.198 58.825 132.614 59.075C133.048 59.325 133.531 59.45 134.064 59.45Z" fill="#4EC79F"/>
<path d="M40.0192 81.5H42.9892V92H40.0192V81.5ZM35.9692 92H32.9992V81.5H35.9692V92ZM40.2292 87.905H35.7592V85.445H40.2292V87.905ZM49.2092 92.135C48.2492 92.135 47.4092 91.955 46.6892 91.595C45.9792 91.225 45.4242 90.725 45.0242 90.095C44.6342 89.455 44.4392 88.73 44.4392 87.92C44.4392 87.11 44.6292 86.39 45.0092 85.76C45.3992 85.12 45.9342 84.625 46.6142 84.275C47.2942 83.915 48.0592 83.735 48.9092 83.735C49.7092 83.735 50.4392 83.9 51.0992 84.23C51.7592 84.55 52.2842 85.025 52.6742 85.655C53.0642 86.285 53.2592 87.05 53.2592 87.95C53.2592 88.05 53.2542 88.165 53.2442 88.295C53.2342 88.425 53.2242 88.545 53.2142 88.655H46.7792V87.155H51.6992L50.6192 87.575C50.6292 87.205 50.5592 86.885 50.4092 86.615C50.2692 86.345 50.0692 86.135 49.8092 85.985C49.5592 85.835 49.2642 85.76 48.9242 85.76C48.5842 85.76 48.2842 85.835 48.0242 85.985C47.7742 86.135 47.5792 86.35 47.4392 86.63C47.2992 86.9 47.2292 87.22 47.2292 87.59V88.025C47.2292 88.425 47.3092 88.77 47.4692 89.06C47.6392 89.35 47.8792 89.575 48.1892 89.735C48.4992 89.885 48.8692 89.96 49.2992 89.96C49.6992 89.96 50.0392 89.905 50.3192 89.795C50.6092 89.675 50.8942 89.495 51.1742 89.255L52.6742 90.815C52.2842 91.245 51.8042 91.575 51.2342 91.805C50.6642 92.025 49.9892 92.135 49.2092 92.135ZM59.3185 92V90.485L59.1235 90.11V87.32C59.1235 86.87 58.9835 86.525 58.7035 86.285C58.4335 86.035 57.9985 85.91 57.3985 85.91C57.0085 85.91 56.6135 85.975 56.2135 86.105C55.8135 86.225 55.4735 86.395 55.1935 86.615L54.2335 84.68C54.6935 84.38 55.2435 84.15 55.8835 83.99C56.5335 83.82 57.1785 83.735 57.8185 83.735C59.1385 83.735 60.1585 84.04 60.8785 84.65C61.6085 85.25 61.9735 86.195 61.9735 87.485V92H59.3185ZM56.9185 92.135C56.2685 92.135 55.7185 92.025 55.2685 91.805C54.8185 91.585 54.4735 91.285 54.2335 90.905C54.0035 90.525 53.8885 90.1 53.8885 89.63C53.8885 89.13 54.0135 88.7 54.2635 88.34C54.5235 87.97 54.9185 87.69 55.4485 87.5C55.9785 87.3 56.6635 87.2 57.5035 87.2H59.4235V88.685H57.8935C57.4335 88.685 57.1085 88.76 56.9185 88.91C56.7385 89.06 56.6485 89.26 56.6485 89.51C56.6485 89.76 56.7435 89.96 56.9335 90.11C57.1235 90.26 57.3835 90.335 57.7135 90.335C58.0235 90.335 58.3035 90.26 58.5535 90.11C58.8135 89.95 59.0035 89.71 59.1235 89.39L59.5135 90.44C59.3635 91 59.0685 91.425 58.6285 91.715C58.1985 91.995 57.6285 92.135 56.9185 92.135ZM67.415 92.135C66.675 92.135 66 91.965 65.39 91.625C64.79 91.275 64.31 90.79 63.95 90.17C63.59 89.54 63.41 88.79 63.41 87.92C63.41 87.06 63.59 86.32 63.95 85.7C64.31 85.07 64.79 84.585 65.39 84.245C66 83.905 66.675 83.735 67.415 83.735C68.115 83.735 68.705 83.885 69.185 84.185C69.675 84.485 70.045 84.945 70.295 85.565C70.545 86.185 70.67 86.97 70.67 87.92C70.67 88.89 70.55 89.685 70.31 90.305C70.07 90.925 69.71 91.385 69.23 91.685C68.75 91.985 68.145 92.135 67.415 92.135ZM68.015 89.87C68.335 89.87 68.62 89.795 68.87 89.645C69.13 89.495 69.335 89.275 69.485 88.985C69.635 88.685 69.71 88.33 69.71 87.92C69.71 87.51 69.635 87.165 69.485 86.885C69.335 86.595 69.13 86.375 68.87 86.225C68.62 86.075 68.335 86 68.015 86C67.685 86 67.39 86.075 67.13 86.225C66.88 86.375 66.68 86.595 66.53 86.885C66.38 87.165 66.305 87.51 66.305 87.92C66.305 88.33 66.38 88.685 66.53 88.985C66.68 89.275 66.88 89.495 67.13 89.645C67.39 89.795 67.685 89.87 68.015 89.87ZM69.8 92V90.605L69.815 87.92L69.665 85.235V80.87H72.515V92H69.8ZM77.5888 92L82.2238 81.5H85.1488L89.7988 92H86.7088L83.0788 82.955H84.2488L80.6188 92H77.5888ZM80.1238 89.96L80.8888 87.77H86.0188L86.7838 89.96H80.1238ZM90.5058 92V83.87H93.2208V86.24L92.8158 85.565C93.0558 84.955 93.4458 84.5 93.9858 84.2C94.5258 83.89 95.1808 83.735 95.9508 83.735V86.3C95.8208 86.28 95.7058 86.27 95.6058 86.27C95.5158 86.26 95.4158 86.255 95.3058 86.255C94.7258 86.255 94.2558 86.415 93.8958 86.735C93.5358 87.045 93.3558 87.555 93.3558 88.265V92H90.5058ZM101.314 92.135C100.354 92.135 99.5137 91.955 98.7937 91.595C98.0837 91.225 97.5287 90.725 97.1287 90.095C96.7387 89.455 96.5437 88.73 96.5437 87.92C96.5437 87.11 96.7337 86.39 97.1137 85.76C97.5037 85.12 98.0387 84.625 98.7187 84.275C99.3987 83.915 100.164 83.735 101.014 83.735C101.814 83.735 102.544 83.9 103.204 84.23C103.864 84.55 104.389 85.025 104.779 85.655C105.169 86.285 105.364 87.05 105.364 87.95C105.364 88.05 105.359 88.165 105.349 88.295C105.339 88.425 105.329 88.545 105.319 88.655H98.8837V87.155H103.804L102.724 87.575C102.734 87.205 102.664 86.885 102.514 86.615C102.374 86.345 102.174 86.135 101.914 85.985C101.664 85.835 101.369 85.76 101.029 85.76C100.689 85.76 100.389 85.835 100.129 85.985C99.8787 86.135 99.6837 86.35 99.5437 86.63C99.4037 86.9 99.3337 87.22 99.3337 87.59V88.025C99.3337 88.425 99.4137 88.77 99.5737 89.06C99.7437 89.35 99.9837 89.575 100.294 89.735C100.604 89.885 100.974 89.96 101.404 89.96C101.804 89.96 102.144 89.905 102.424 89.795C102.714 89.675 102.999 89.495 103.279 89.255L104.779 90.815C104.389 91.245 103.909 91.575 103.339 91.805C102.769 92.025 102.094 92.135 101.314 92.135ZM111.423 92V90.485L111.228 90.11V87.32C111.228 86.87 111.088 86.525 110.808 86.285C110.538 86.035 110.103 85.91 109.503 85.91C109.113 85.91 108.718 85.975 108.318 86.105C107.918 86.225 107.578 86.395 107.298 86.615L106.338 84.68C106.798 84.38 107.348 84.15 107.988 83.99C108.638 83.82 109.283 83.735 109.923 83.735C111.243 83.735 112.263 84.04 112.983 84.65C113.713 85.25 114.078 86.195 114.078 87.485V92H111.423ZM109.023 92.135C108.373 92.135 107.823 92.025 107.373 91.805C106.923 91.585 106.578 91.285 106.338 90.905C106.108 90.525 105.993 90.1 105.993 89.63C105.993 89.13 106.118 88.7 106.368 88.34C106.628 87.97 107.023 87.69 107.553 87.5C108.083 87.3 108.768 87.2 109.608 87.2H111.528V88.685H109.998C109.538 88.685 109.213 88.76 109.023 88.91C108.843 89.06 108.753 89.26 108.753 89.51C108.753 89.76 108.848 89.96 109.038 90.11C109.228 90.26 109.488 90.335 109.818 90.335C110.128 90.335 110.408 90.26 110.658 90.11C110.918 89.95 111.108 89.71 111.228 89.39L111.618 90.44C111.468 91 111.173 91.425 110.733 91.715C110.303 91.995 109.733 92.135 109.023 92.135ZM125.612 92.21C124.782 92.21 124.012 92.08 123.302 91.82C122.602 91.55 121.992 91.17 121.472 90.68C120.962 90.19 120.562 89.615 120.272 88.955C119.982 88.285 119.837 87.55 119.837 86.75C119.837 85.95 119.982 85.22 120.272 84.56C120.562 83.89 120.962 83.31 121.472 82.82C121.992 82.33 122.602 81.955 123.302 81.695C124.012 81.425 124.782 81.29 125.612 81.29C126.582 81.29 127.447 81.46 128.207 81.8C128.977 82.14 129.617 82.63 130.127 83.27L128.237 84.98C127.897 84.58 127.522 84.275 127.112 84.065C126.712 83.855 126.262 83.75 125.762 83.75C125.332 83.75 124.937 83.82 124.577 83.96C124.217 84.1 123.907 84.305 123.647 84.575C123.397 84.835 123.197 85.15 123.047 85.52C122.907 85.89 122.837 86.3 122.837 86.75C122.837 87.2 122.907 87.61 123.047 87.98C123.197 88.35 123.397 88.67 123.647 88.94C123.907 89.2 124.217 89.4 124.577 89.54C124.937 89.68 125.332 89.75 125.762 89.75C126.262 89.75 126.712 89.645 127.112 89.435C127.522 89.225 127.897 88.92 128.237 88.52L130.127 90.23C129.617 90.86 128.977 91.35 128.207 91.7C127.447 92.04 126.582 92.21 125.612 92.21ZM135.133 92.135C134.243 92.135 133.453 91.955 132.763 91.595C132.073 91.235 131.528 90.74 131.128 90.11C130.738 89.47 130.543 88.74 130.543 87.92C130.543 87.1 130.738 86.375 131.128 85.745C131.528 85.115 132.073 84.625 132.763 84.275C133.453 83.915 134.243 83.735 135.133 83.735C136.023 83.735 136.813 83.915 137.503 84.275C138.203 84.625 138.748 85.115 139.138 85.745C139.528 86.375 139.723 87.1 139.723 87.92C139.723 88.74 139.528 89.47 139.138 90.11C138.748 90.74 138.203 91.235 137.503 91.595C136.813 91.955 136.023 92.135 135.133 92.135ZM135.133 89.87C135.463 89.87 135.753 89.795 136.003 89.645C136.263 89.495 136.468 89.275 136.618 88.985C136.768 88.685 136.843 88.33 136.843 87.92C136.843 87.51 136.768 87.165 136.618 86.885C136.468 86.595 136.263 86.375 136.003 86.225C135.753 86.075 135.463 86 135.133 86C134.813 86 134.523 86.075 134.263 86.225C134.013 86.375 133.808 86.595 133.648 86.885C133.498 87.165 133.423 87.51 133.423 87.92C133.423 88.33 133.498 88.685 133.648 88.985C133.808 89.275 134.013 89.495 134.263 89.645C134.523 89.795 134.813 89.87 135.133 89.87ZM151.633 83.735C152.263 83.735 152.823 83.865 153.313 84.125C153.813 84.375 154.203 84.765 154.483 85.295C154.773 85.825 154.918 86.51 154.918 87.35V92H152.068V87.815C152.068 87.235 151.958 86.815 151.738 86.555C151.518 86.285 151.218 86.15 150.838 86.15C150.568 86.15 150.323 86.215 150.103 86.345C149.883 86.475 149.713 86.675 149.593 86.945C149.473 87.205 149.413 87.545 149.413 87.965V92H146.563V87.815C146.563 87.235 146.453 86.815 146.233 86.555C146.023 86.285 145.723 86.15 145.333 86.15C145.053 86.15 144.803 86.215 144.583 86.345C144.373 86.475 144.203 86.675 144.073 86.945C143.953 87.205 143.893 87.545 143.893 87.965V92H141.043V83.87H143.758V86.135L143.218 85.49C143.518 84.91 143.928 84.475 144.448 84.185C144.968 83.885 145.548 83.735 146.188 83.735C146.918 83.735 147.558 83.925 148.108 84.305C148.668 84.675 149.043 85.255 149.233 86.045L148.303 85.85C148.593 85.19 149.028 84.675 149.608 84.305C150.198 83.925 150.873 83.735 151.633 83.735ZM160.137 92.135C159.477 92.135 158.882 92.005 158.352 91.745C157.832 91.485 157.422 91.08 157.122 90.53C156.832 89.97 156.687 89.265 156.687 88.415V83.87H159.537V87.95C159.537 88.58 159.652 89.03 159.882 89.3C160.122 89.57 160.457 89.705 160.887 89.705C161.167 89.705 161.422 89.64 161.652 89.51C161.882 89.38 162.067 89.175 162.207 88.895C162.347 88.605 162.417 88.235 162.417 87.785V83.87H165.267V92H162.552V89.705L163.077 90.35C162.797 90.95 162.392 91.4 161.862 91.7C161.332 91.99 160.757 92.135 160.137 92.135ZM172.398 83.735C173.028 83.735 173.598 83.865 174.107 84.125C174.618 84.375 175.018 84.765 175.308 85.295C175.608 85.825 175.758 86.51 175.758 87.35V92H172.908V87.815C172.908 87.235 172.788 86.815 172.548 86.555C172.318 86.285 171.993 86.15 171.573 86.15C171.273 86.15 170.998 86.22 170.748 86.36C170.498 86.49 170.303 86.695 170.163 86.975C170.023 87.255 169.953 87.62 169.953 88.07V92H167.103V83.87H169.818V86.18L169.293 85.505C169.603 84.915 170.028 84.475 170.568 84.185C171.108 83.885 171.718 83.735 172.398 83.735ZM177.547 92V83.87H180.397V92H177.547ZM178.972 82.97C178.452 82.97 178.032 82.825 177.712 82.535C177.392 82.245 177.232 81.885 177.232 81.455C177.232 81.025 177.392 80.665 177.712 80.375C178.032 80.085 178.452 79.94 178.972 79.94C179.492 79.94 179.912 80.08 180.232 80.36C180.552 80.63 180.712 80.98 180.712 81.41C180.712 81.86 180.552 82.235 180.232 82.535C179.922 82.825 179.502 82.97 178.972 82.97ZM186.404 92.135C185.504 92.135 184.699 91.955 183.989 91.595C183.289 91.235 182.739 90.74 182.339 90.11C181.939 89.47 181.739 88.74 181.739 87.92C181.739 87.1 181.939 86.375 182.339 85.745C182.739 85.115 183.289 84.625 183.989 84.275C184.699 83.915 185.504 83.735 186.404 83.735C187.324 83.735 188.119 83.93 188.789 84.32C189.459 84.71 189.934 85.26 190.214 85.97L188.009 87.095C187.819 86.715 187.584 86.44 187.304 86.27C187.024 86.09 186.719 86 186.389 86C186.059 86 185.759 86.075 185.489 86.225C185.219 86.375 185.004 86.595 184.844 86.885C184.694 87.165 184.619 87.51 184.619 87.92C184.619 88.34 184.694 88.695 184.844 88.985C185.004 89.275 185.219 89.495 185.489 89.645C185.759 89.795 186.059 89.87 186.389 89.87C186.719 89.87 187.024 89.785 187.304 89.615C187.584 89.435 187.819 89.155 188.009 88.775L190.214 89.9C189.934 90.61 189.459 91.16 188.789 91.55C188.119 91.94 187.324 92.135 186.404 92.135ZM196.252 92V90.485L196.057 90.11V87.32C196.057 86.87 195.917 86.525 195.637 86.285C195.367 86.035 194.932 85.91 194.332 85.91C193.942 85.91 193.547 85.975 193.147 86.105C192.747 86.225 192.407 86.395 192.127 86.615L191.167 84.68C191.627 84.38 192.177 84.15 192.817 83.99C193.467 83.82 194.112 83.735 194.752 83.735C196.072 83.735 197.092 84.04 197.812 84.65C198.542 85.25 198.907 86.195 198.907 87.485V92H196.252ZM193.852 92.135C193.202 92.135 192.652 92.025 192.202 91.805C191.752 91.585 191.407 91.285 191.167 90.905C190.937 90.525 190.822 90.1 190.822 89.63C190.822 89.13 190.947 88.7 191.197 88.34C191.457 87.97 191.852 87.69 192.382 87.5C192.912 87.3 193.597 87.2 194.437 87.2H196.357V88.685H194.827C194.367 88.685 194.042 88.76 193.852 88.91C193.672 89.06 193.582 89.26 193.582 89.51C193.582 89.76 193.677 89.96 193.867 90.11C194.057 90.26 194.317 90.335 194.647 90.335C194.957 90.335 195.237 90.26 195.487 90.11C195.747 89.95 195.937 89.71 196.057 89.39L196.447 90.44C196.297 91 196.002 91.425 195.562 91.715C195.132 91.995 194.562 92.135 193.852 92.135ZM200.286 92V90.32L204.846 85.07L205.326 85.985H200.391V83.87H207.636V85.535L203.061 90.8L202.581 89.87H207.786V92H200.286ZM209.041 92V83.87H211.891V92H209.041ZM210.466 82.97C209.946 82.97 209.526 82.825 209.206 82.535C208.886 82.245 208.726 81.885 208.726 81.455C208.726 81.025 208.886 80.665 209.206 80.375C209.526 80.085 209.946 79.94 210.466 79.94C210.986 79.94 211.406 80.08 211.726 80.36C212.046 80.63 212.206 80.98 212.206 81.41C212.206 81.86 212.046 82.235 211.726 82.535C211.416 82.825 210.996 82.97 210.466 82.97ZM217.823 92.135C216.933 92.135 216.143 91.955 215.453 91.595C214.763 91.235 214.218 90.74 213.818 90.11C213.428 89.47 213.233 88.74 213.233 87.92C213.233 87.1 213.428 86.375 213.818 85.745C214.218 85.115 214.763 84.625 215.453 84.275C216.143 83.915 216.933 83.735 217.823 83.735C218.713 83.735 219.503 83.915 220.193 84.275C220.893 84.625 221.438 85.115 221.828 85.745C222.218 86.375 222.413 87.1 222.413 87.92C222.413 88.74 222.218 89.47 221.828 90.11C221.438 90.74 220.893 91.235 220.193 91.595C219.503 91.955 218.713 92.135 217.823 92.135ZM217.823 89.87C218.153 89.87 218.443 89.795 218.693 89.645C218.953 89.495 219.158 89.275 219.308 88.985C219.458 88.685 219.533 88.33 219.533 87.92C219.533 87.51 219.458 87.165 219.308 86.885C219.158 86.595 218.953 86.375 218.693 86.225C218.443 86.075 218.153 86 217.823 86C217.503 86 217.213 86.075 216.953 86.225C216.703 86.375 216.498 86.595 216.338 86.885C216.188 87.165 216.113 87.51 216.113 87.92C216.113 88.33 216.188 88.685 216.338 88.985C216.498 89.275 216.703 89.495 216.953 89.645C217.213 89.795 217.503 89.87 217.823 89.87ZM229.028 83.735C229.658 83.735 230.228 83.865 230.738 84.125C231.248 84.375 231.648 84.765 231.938 85.295C232.238 85.825 232.388 86.51 232.388 87.35V92H229.538V87.815C229.538 87.235 229.418 86.815 229.178 86.555C228.948 86.285 228.623 86.15 228.203 86.15C227.903 86.15 227.628 86.22 227.378 86.36C227.128 86.49 226.933 86.695 226.793 86.975C226.653 87.255 226.583 87.62 226.583 88.07V92H223.733V83.87H226.448V86.18L225.923 85.505C226.233 84.915 226.658 84.475 227.198 84.185C227.738 83.885 228.348 83.735 229.028 83.735ZM238.54 92.135C237.58 92.135 236.74 91.955 236.02 91.595C235.31 91.225 234.755 90.725 234.355 90.095C233.965 89.455 233.77 88.73 233.77 87.92C233.77 87.11 233.96 86.39 234.34 85.76C234.73 85.12 235.265 84.625 235.945 84.275C236.625 83.915 237.39 83.735 238.24 83.735C239.04 83.735 239.77 83.9 240.43 84.23C241.09 84.55 241.615 85.025 242.005 85.655C242.395 86.285 242.59 87.05 242.59 87.95C242.59 88.05 242.585 88.165 242.575 88.295C242.565 88.425 242.555 88.545 242.545 88.655H236.11V87.155H241.03L239.95 87.575C239.96 87.205 239.89 86.885 239.74 86.615C239.6 86.345 239.4 86.135 239.14 85.985C238.89 85.835 238.595 85.76 238.255 85.76C237.915 85.76 237.615 85.835 237.355 85.985C237.105 86.135 236.91 86.35 236.77 86.63C236.63 86.9 236.56 87.22 236.56 87.59V88.025C236.56 88.425 236.64 88.77 236.8 89.06C236.97 89.35 237.21 89.575 237.52 89.735C237.83 89.885 238.2 89.96 238.63 89.96C239.03 89.96 239.37 89.905 239.65 89.795C239.94 89.675 240.225 89.495 240.505 89.255L242.005 90.815C241.615 91.245 241.135 91.575 240.565 91.805C239.995 92.025 239.32 92.135 238.54 92.135Z" fill="black"/>
</svg>
