<svg width="90" height="16" viewBox="0 0 90 16" fill="none" xmlns="http://www.w3.org/2000/svg">
<path d="M0.4 15V0.999999H3.66L9.46 10.52H7.74L13.38 0.999999H16.64L16.68 15H13.04L13 6.54H13.62L9.4 13.62H7.64L3.3 6.54H4.06V15H0.4ZM25.922 15V12.98L25.662 12.48V8.76C25.662 8.16 25.4754 7.7 25.102 7.38C24.742 7.04667 24.162 6.88 23.362 6.88C22.842 6.88 22.3154 6.96667 21.782 7.14C21.2487 7.3 20.7954 7.52667 20.422 7.82L19.142 5.24C19.7554 4.84 20.4887 4.53333 21.342 4.32C22.2087 4.09333 23.0687 3.98 23.922 3.98C25.682 3.98 27.042 4.38667 28.002 5.2C28.9754 6 29.462 7.26 29.462 8.98V15H25.922ZM22.722 15.18C21.8554 15.18 21.122 15.0333 20.522 14.74C19.922 14.4467 19.462 14.0467 19.142 13.54C18.8354 13.0333 18.682 12.4667 18.682 11.84C18.682 11.1733 18.8487 10.6 19.182 10.12C19.5287 9.62667 20.0554 9.25333 20.762 9C21.4687 8.73333 22.382 8.6 23.502 8.6H26.062V10.58H24.022C23.4087 10.58 22.9754 10.68 22.722 10.88C22.482 11.08 22.362 11.3467 22.362 11.68C22.362 12.0133 22.4887 12.28 22.742 12.48C22.9954 12.68 23.342 12.78 23.782 12.78C24.1954 12.78 24.5687 12.68 24.902 12.48C25.2487 12.2667 25.502 11.9467 25.662 11.52L26.182 12.92C25.982 13.6667 25.5887 14.2333 25.002 14.62C24.4287 14.9933 23.6687 15.18 22.722 15.18ZM31.8606 15V4.16H35.4806V7.32L34.9406 6.42C35.2606 5.60667 35.7806 5 36.5006 4.6C37.2206 4.18667 38.094 3.98 39.1206 3.98V7.4C38.9473 7.37333 38.794 7.36 38.6606 7.36C38.5406 7.34667 38.4073 7.34 38.2606 7.34C37.4873 7.34 36.8606 7.55333 36.3806 7.98C35.9006 8.39333 35.6606 9.07333 35.6606 10.02V15H31.8606ZM46.1311 15.18C44.9311 15.18 43.8578 14.94 42.9111 14.46C41.9778 13.98 41.2444 13.32 40.7111 12.48C40.1778 11.6267 39.9111 10.6533 39.9111 9.56C39.9111 8.46667 40.1778 7.5 40.7111 6.66C41.2444 5.82 41.9778 5.16667 42.9111 4.7C43.8578 4.22 44.9311 3.98 46.1311 3.98C47.3578 3.98 48.4178 4.24 49.3111 4.76C50.2044 5.28 50.8378 6.01333 51.2111 6.96L48.2711 8.46C48.0178 7.95333 47.7044 7.58667 47.3311 7.36C46.9578 7.12 46.5511 7 46.1111 7C45.6711 7 45.2711 7.1 44.9111 7.3C44.5511 7.5 44.2644 7.79333 44.0511 8.18C43.8511 8.55333 43.7511 9.01333 43.7511 9.56C43.7511 10.12 43.8511 10.5933 44.0511 10.98C44.2644 11.3667 44.5511 11.66 44.9111 11.86C45.2711 12.06 45.6711 12.16 46.1111 12.16C46.5511 12.16 46.9578 12.0467 47.3311 11.82C47.7044 11.58 48.0178 11.2067 48.2711 10.7L51.2111 12.2C50.8378 13.1467 50.2044 13.88 49.3111 14.4C48.4178 14.92 47.3578 15.18 46.1311 15.18ZM58.2047 15.18C56.9247 15.18 55.8047 14.94 54.8447 14.46C53.898 13.9667 53.158 13.3 52.6247 12.46C52.1047 11.6067 51.8447 10.64 51.8447 9.56C51.8447 8.48 52.098 7.52 52.6047 6.68C53.1247 5.82667 53.838 5.16667 54.7447 4.7C55.6514 4.22 56.6714 3.98 57.8047 3.98C58.8714 3.98 59.8447 4.2 60.7247 4.64C61.6047 5.06667 62.3047 5.7 62.8247 6.54C63.3447 7.38 63.6047 8.4 63.6047 9.6C63.6047 9.73333 63.598 9.88667 63.5847 10.06C63.5714 10.2333 63.558 10.3933 63.5447 10.54H54.9647V8.54H61.5247L60.0847 9.1C60.098 8.60667 60.0047 8.18 59.8047 7.82C59.618 7.46 59.3514 7.18 59.0047 6.98C58.6714 6.78 58.278 6.68 57.8247 6.68C57.3714 6.68 56.9714 6.78 56.6247 6.98C56.2914 7.18 56.0314 7.46667 55.8447 7.84C55.658 8.2 55.5647 8.62667 55.5647 9.12V9.7C55.5647 10.2333 55.6714 10.6933 55.8847 11.08C56.1114 11.4667 56.4314 11.7667 56.8447 11.98C57.258 12.18 57.7514 12.28 58.3247 12.28C58.858 12.28 59.3114 12.2067 59.6847 12.06C60.0714 11.9 60.4514 11.66 60.8247 11.34L62.8247 13.42C62.3047 13.9933 61.6647 14.4333 60.9047 14.74C60.1447 15.0333 59.2447 15.18 58.2047 15.18ZM65.3567 15V0.159999H69.1567V15H65.3567ZM71.6263 15V0.159999H75.4263V15H71.6263ZM83.3358 15.18C82.1491 15.18 81.0958 14.94 80.1758 14.46C79.2558 13.98 78.5291 13.32 77.9958 12.48C77.4758 11.6267 77.2158 10.6533 77.2158 9.56C77.2158 8.46667 77.4758 7.5 77.9958 6.66C78.5291 5.82 79.2558 5.16667 80.1758 4.7C81.0958 4.22 82.1491 3.98 83.3358 3.98C84.5224 3.98 85.5758 4.22 86.4958 4.7C87.4291 5.16667 88.1558 5.82 88.6758 6.66C89.1958 7.5 89.4558 8.46667 89.4558 9.56C89.4558 10.6533 89.1958 11.6267 88.6758 12.48C88.1558 13.32 87.4291 13.98 86.4958 14.46C85.5758 14.94 84.5224 15.18 83.3358 15.18ZM83.3358 12.16C83.7758 12.16 84.1624 12.06 84.4958 11.86C84.8424 11.66 85.1158 11.3667 85.3158 10.98C85.5158 10.58 85.6158 10.1067 85.6158 9.56C85.6158 9.01333 85.5158 8.55333 85.3158 8.18C85.1158 7.79333 84.8424 7.5 84.4958 7.3C84.1624 7.1 83.7758 7 83.3358 7C82.9091 7 82.5224 7.1 82.1758 7.3C81.8424 7.5 81.5691 7.79333 81.3558 8.18C81.1558 8.55333 81.0558 9.01333 81.0558 9.56C81.0558 10.1067 81.1558 10.58 81.3558 10.98C81.5691 11.3667 81.8424 11.66 82.1758 11.86C82.5224 12.06 82.9091 12.16 83.3358 12.16Z" fill="#4EC79F"/>
</svg>
