<svg width="116" height="19" viewBox="0 0 116 19" fill="none" xmlns="http://www.w3.org/2000/svg">
<path d="M0.842406 15V2.4H4.33441L10.7424 10.068H9.12241V2.4H13.2624V15H9.77041L3.36241 7.332H4.98241V15H0.842406ZM20.6192 15.18C19.4192 15.18 18.3692 14.958 17.4692 14.514C16.5812 14.07 15.8912 13.464 15.3992 12.696C14.9072 11.916 14.6612 11.04 14.6612 10.068C14.6612 9.072 14.9012 8.19 15.3812 7.422C15.8732 6.654 16.5392 6.054 17.3792 5.622C18.2312 5.19 19.1852 4.974 20.2412 4.974C21.2132 4.974 22.1072 5.166 22.9232 5.55C23.7512 5.934 24.4112 6.504 24.9032 7.26C25.4072 8.016 25.6592 8.952 25.6592 10.068C25.6592 10.212 25.6532 10.374 25.6412 10.554C25.6292 10.722 25.6172 10.878 25.6052 11.022H18.0272V9.06H23.4452L21.9152 9.582C21.9152 9.198 21.8432 8.874 21.6992 8.61C21.5672 8.334 21.3812 8.124 21.1412 7.98C20.9012 7.824 20.6132 7.746 20.2772 7.746C19.9412 7.746 19.6472 7.824 19.3952 7.98C19.1552 8.124 18.9692 8.334 18.8372 8.61C18.7052 8.874 18.6392 9.198 18.6392 9.582V10.194C18.6392 10.614 18.7232 10.974 18.8912 11.274C19.0592 11.574 19.2992 11.802 19.6112 11.958C19.9232 12.102 20.3012 12.174 20.7452 12.174C21.2012 12.174 21.5732 12.114 21.8612 11.994C22.1612 11.874 22.4732 11.694 22.7972 11.454L24.9212 13.596C24.4412 14.112 23.8472 14.508 23.1392 14.784C22.4432 15.048 21.6032 15.18 20.6192 15.18ZM31.695 15.18C30.339 15.18 29.283 14.856 28.527 14.208C27.771 13.548 27.393 12.54 27.393 11.184V2.94H31.461V11.148C31.461 11.448 31.539 11.682 31.695 11.85C31.863 12.018 32.067 12.102 32.307 12.102C32.655 12.102 32.961 12.012 33.225 11.832L34.197 14.658C33.885 14.838 33.507 14.97 33.063 15.054C32.631 15.138 32.175 15.18 31.695 15.18ZM26.043 8.664V5.694H33.477V8.664H26.043ZM37.4585 15L34.0385 5.154H37.8905L40.4825 13.146H38.6285L41.3465 5.154H44.8025L47.3945 13.146H45.5945L48.2765 5.154H51.8405L48.4205 15H44.4605L42.3905 8.664H43.5785L41.4185 15H37.4585ZM57.5629 15.18C56.4469 15.18 55.4569 14.964 54.5929 14.532C53.7409 14.088 53.0689 13.482 52.5769 12.714C52.0849 11.946 51.8389 11.064 51.8389 10.068C51.8389 9.072 52.0849 8.19 52.5769 7.422C53.0689 6.654 53.7409 6.054 54.5929 5.622C55.4569 5.19 56.4469 4.974 57.5629 4.974C58.6789 4.974 59.6689 5.19 60.5329 5.622C61.3969 6.054 62.0689 6.654 62.5489 7.422C63.0409 8.19 63.2869 9.072 63.2869 10.068C63.2869 11.064 63.0409 11.946 62.5489 12.714C62.0689 13.482 61.3969 14.088 60.5329 14.532C59.6689 14.964 58.6789 15.18 57.5629 15.18ZM57.5629 12.012C57.8629 12.012 58.1329 11.94 58.3729 11.796C58.6129 11.652 58.8049 11.436 58.9489 11.148C59.0929 10.848 59.1649 10.488 59.1649 10.068C59.1649 9.636 59.0929 9.282 58.9489 9.006C58.8049 8.718 58.6129 8.502 58.3729 8.358C58.1329 8.214 57.8629 8.142 57.5629 8.142C57.2629 8.142 56.9929 8.214 56.7529 8.358C56.5129 8.502 56.3209 8.718 56.1769 9.006C56.0329 9.282 55.9609 9.636 55.9609 10.068C55.9609 10.488 56.0329 10.848 56.1769 11.148C56.3209 11.436 56.5129 11.652 56.7529 11.796C56.9929 11.94 57.2629 12.012 57.5629 12.012ZM64.5602 15V5.154H68.4302V8.124L67.8002 7.278C68.1002 6.51 68.5802 5.934 69.2402 5.55C69.9002 5.166 70.6922 4.974 71.6162 4.974V8.574C71.4362 8.55 71.2742 8.532 71.1302 8.52C70.9982 8.508 70.8602 8.502 70.7162 8.502C70.1042 8.502 69.6002 8.664 69.2042 8.988C68.8202 9.3 68.6282 9.846 68.6282 10.626V15H64.5602ZM76.1711 13.38L76.2611 8.592L79.6631 5.154H84.4691L79.9691 9.87L77.9351 11.508L76.1711 13.38ZM72.7691 15V1.644H76.8371V15H72.7691ZM79.8791 15L77.1791 11.58L79.6811 8.502L84.7931 15H79.8791ZM85.6012 15V5.154H89.6692V15H85.6012ZM87.6352 4.362C86.8912 4.362 86.2972 4.164 85.8532 3.768C85.4092 3.372 85.1872 2.88 85.1872 2.292C85.1872 1.704 85.4092 1.212 85.8532 0.815999C86.2972 0.419999 86.8912 0.221999 87.6352 0.221999C88.3792 0.221999 88.9732 0.407999 89.4172 0.78C89.8612 1.152 90.0832 1.632 90.0832 2.22C90.0832 2.844 89.8612 3.36 89.4172 3.768C88.9732 4.164 88.3792 4.362 87.6352 4.362ZM98.3123 4.974C99.0683 4.974 99.7523 5.13 100.364 5.442C100.976 5.742 101.456 6.216 101.804 6.864C102.164 7.512 102.344 8.352 102.344 9.384V15H98.2763V10.086C98.2763 9.474 98.1683 9.042 97.9523 8.79C97.7363 8.526 97.4423 8.394 97.0703 8.394C96.7943 8.394 96.5363 8.46 96.2963 8.592C96.0683 8.712 95.8823 8.916 95.7383 9.204C95.6063 9.492 95.5403 9.882 95.5403 10.374V15H91.4723V5.154H95.3423V8.034L94.5683 7.206C94.9523 6.462 95.4683 5.904 96.1163 5.532C96.7763 5.16 97.5083 4.974 98.3123 4.974ZM109.291 18.672C108.319 18.672 107.407 18.57 106.555 18.366C105.703 18.162 104.971 17.856 104.359 17.448L105.727 14.676C106.111 14.976 106.597 15.21 107.185 15.378C107.785 15.558 108.349 15.648 108.877 15.648C109.717 15.648 110.317 15.468 110.677 15.108C111.037 14.76 111.217 14.256 111.217 13.596V12.768L111.397 9.708L111.415 6.648V5.154H115.285V13.038C115.285 14.946 114.757 16.362 113.701 17.286C112.645 18.21 111.175 18.672 109.291 18.672ZM108.499 14.46C107.671 14.46 106.897 14.268 106.177 13.884C105.457 13.488 104.875 12.936 104.431 12.228C103.987 11.52 103.765 10.68 103.765 9.708C103.765 8.736 103.987 7.896 104.431 7.188C104.875 6.48 105.457 5.934 106.177 5.55C106.897 5.166 107.671 4.974 108.499 4.974C109.351 4.974 110.047 5.142 110.587 5.478C111.139 5.814 111.547 6.336 111.811 7.044C112.075 7.74 112.207 8.628 112.207 9.708C112.207 10.788 112.075 11.682 111.811 12.39C111.547 13.086 111.139 13.608 110.587 13.956C110.047 14.292 109.351 14.46 108.499 14.46ZM109.579 11.292C109.903 11.292 110.191 11.226 110.443 11.094C110.695 10.962 110.893 10.776 111.037 10.536C111.181 10.296 111.253 10.02 111.253 9.708C111.253 9.384 111.181 9.108 111.037 8.88C110.893 8.64 110.695 8.46 110.443 8.34C110.191 8.208 109.903 8.142 109.579 8.142C109.267 8.142 108.979 8.208 108.715 8.34C108.463 8.46 108.259 8.64 108.103 8.88C107.959 9.108 107.887 9.384 107.887 9.708C107.887 10.02 107.959 10.296 108.103 10.536C108.259 10.776 108.463 10.962 108.715 11.094C108.979 11.226 109.267 11.292 109.579 11.292Z" fill="#4EC79F"/>
</svg>
