<svg width="162" height="18" viewBox="0 0 162 18" fill="none" xmlns="http://www.w3.org/2000/svg">
<path d="M6.32 17.28C5.17333 17.28 4.06667 17.14 3 16.86C1.94667 16.5667 1.08667 16.1933 0.42 15.74L1.72 12.82C2.34667 13.22 3.06667 13.5533 3.88 13.82C4.70667 14.0733 5.52667 14.2 6.34 14.2C6.88667 14.2 7.32667 14.1533 7.66 14.06C7.99333 13.9533 8.23333 13.82 8.38 13.66C8.54 13.4867 8.62 13.2867 8.62 13.06C8.62 12.74 8.47333 12.4867 8.18 12.3C7.88667 12.1133 7.50667 11.96 7.04 11.84C6.57333 11.72 6.05333 11.6 5.48 11.48C4.92 11.36 4.35333 11.2067 3.78 11.02C3.22 10.8333 2.70667 10.5933 2.24 10.3C1.77333 9.99333 1.39333 9.6 1.1 9.12C0.806667 8.62667 0.66 8.00667 0.66 7.26C0.66 6.42 0.886667 5.66 1.34 4.98C1.80667 4.3 2.5 3.75333 3.42 3.34C4.34 2.92667 5.48667 2.72 6.86 2.72C7.78 2.72 8.68 2.82667 9.56 3.04C10.4533 3.24 11.2467 3.54 11.94 3.94L10.72 6.88C10.0533 6.52 9.39333 6.25333 8.74 6.08C8.08667 5.89333 7.45333 5.8 6.84 5.8C6.29333 5.8 5.85333 5.86 5.52 5.98C5.18667 6.08667 4.94667 6.23333 4.8 6.42C4.65333 6.60667 4.58 6.82 4.58 7.06C4.58 7.36667 4.72 7.61333 5 7.8C5.29333 7.97333 5.67333 8.12 6.14 8.24C6.62 8.34667 7.14 8.46 7.7 8.58C8.27333 8.7 8.84 8.85333 9.4 9.04C9.97333 9.21333 10.4933 9.45333 10.96 9.76C11.4267 10.0533 11.8 10.4467 12.08 10.94C12.3733 11.42 12.52 12.0267 12.52 12.76C12.52 13.5733 12.2867 14.3267 11.82 15.02C11.3667 15.7 10.68 16.2467 9.76 16.66C8.85333 17.0733 7.70667 17.28 6.32 17.28ZM20.7892 17V14.98L20.5292 14.48V10.76C20.5292 10.16 20.3426 9.7 19.9692 9.38C19.6092 9.04667 19.0292 8.88 18.2292 8.88C17.7092 8.88 17.1826 8.96667 16.6492 9.14C16.1159 9.3 15.6626 9.52667 15.2892 9.82L14.0092 7.24C14.6226 6.84 15.3559 6.53333 16.2092 6.32C17.0759 6.09333 17.9359 5.98 18.7892 5.98C20.5492 5.98 21.9092 6.38667 22.8692 7.2C23.8426 8 24.3292 9.26 24.3292 10.98V17H20.7892ZM17.5892 17.18C16.7226 17.18 15.9892 17.0333 15.3892 16.74C14.7892 16.4467 14.3292 16.0467 14.0092 15.54C13.7026 15.0333 13.5492 14.4667 13.5492 13.84C13.5492 13.1733 13.7159 12.6 14.0492 12.12C14.3959 11.6267 14.9226 11.2533 15.6292 11C16.3359 10.7333 17.2492 10.6 18.3692 10.6H20.9292V12.58H18.8892C18.2759 12.58 17.8426 12.68 17.5892 12.88C17.3492 13.08 17.2292 13.3467 17.2292 13.68C17.2292 14.0133 17.3559 14.28 17.6092 14.48C17.8626 14.68 18.2092 14.78 18.6492 14.78C19.0626 14.78 19.4359 14.68 19.7692 14.48C20.1159 14.2667 20.3692 13.9467 20.5292 13.52L21.0492 14.92C20.8492 15.6667 20.4559 16.2333 19.8692 16.62C19.2959 16.9933 18.5359 17.18 17.5892 17.18ZM40.8478 5.98C41.6878 5.98 42.4345 6.15333 43.0878 6.5C43.7545 6.83333 44.2745 7.35333 44.6478 8.06C45.0345 8.76667 45.2278 9.68 45.2278 10.8V17H41.4278V11.42C41.4278 10.6467 41.2811 10.0867 40.9878 9.74C40.6945 9.38 40.2945 9.2 39.7878 9.2C39.4278 9.2 39.1011 9.28667 38.8078 9.46C38.5145 9.63333 38.2878 9.9 38.1278 10.26C37.9678 10.6067 37.8878 11.06 37.8878 11.62V17H34.0878V11.42C34.0878 10.6467 33.9411 10.0867 33.6478 9.74C33.3678 9.38 32.9678 9.2 32.4478 9.2C32.0745 9.2 31.7411 9.28667 31.4478 9.46C31.1678 9.63333 30.9411 9.9 30.7678 10.26C30.6078 10.6067 30.5278 11.06 30.5278 11.62V17H26.7278V6.16H30.3478V9.18L29.6278 8.32C30.0278 7.54667 30.5745 6.96667 31.2678 6.58C31.9611 6.18 32.7345 5.98 33.5878 5.98C34.5611 5.98 35.4145 6.23333 36.1478 6.74C36.8945 7.23333 37.3945 8.00667 37.6478 9.06L36.4078 8.8C36.7945 7.92 37.3745 7.23333 38.1478 6.74C38.9345 6.23333 39.8345 5.98 40.8478 5.98ZM52.1863 17.18C51.3063 17.18 50.5129 17.0067 49.8063 16.66C49.1129 16.3133 48.5663 15.7733 48.1663 15.04C47.7796 14.2933 47.5863 13.3533 47.5863 12.22V6.16H51.3863V11.6C51.3863 12.44 51.5396 13.04 51.8463 13.4C52.1663 13.76 52.6129 13.94 53.1863 13.94C53.5596 13.94 53.8996 13.8533 54.2063 13.68C54.5129 13.5067 54.7596 13.2333 54.9463 12.86C55.1329 12.4733 55.2263 11.98 55.2263 11.38V6.16H59.0263V17H55.4063V13.94L56.1063 14.8C55.7329 15.6 55.1929 16.2 54.4863 16.6C53.7796 16.9867 53.0129 17.18 52.1863 17.18ZM67.1539 17.18C65.8739 17.18 64.7539 16.94 63.7939 16.46C62.8472 15.9667 62.1072 15.3 61.5739 14.46C61.0539 13.6067 60.7939 12.64 60.7939 11.56C60.7939 10.48 61.0472 9.52 61.5539 8.68C62.0739 7.82667 62.7872 7.16667 63.6939 6.7C64.6006 6.22 65.6206 5.98 66.7539 5.98C67.8206 5.98 68.7939 6.2 69.6739 6.64C70.5539 7.06667 71.2539 7.7 71.7739 8.54C72.2939 9.38 72.5539 10.4 72.5539 11.6C72.5539 11.7333 72.5472 11.8867 72.5339 12.06C72.5206 12.2333 72.5072 12.3933 72.4939 12.54H63.9139V10.54H70.4739L69.0339 11.1C69.0472 10.6067 68.9539 10.18 68.7539 9.82C68.5672 9.46 68.3006 9.18 67.9539 8.98C67.6206 8.78 67.2272 8.68 66.7739 8.68C66.3206 8.68 65.9206 8.78 65.5739 8.98C65.2406 9.18 64.9806 9.46667 64.7939 9.84C64.6072 10.2 64.5139 10.6267 64.5139 11.12V11.7C64.5139 12.2333 64.6206 12.6933 64.8339 13.08C65.0606 13.4667 65.3806 13.7667 65.7939 13.98C66.2072 14.18 66.7006 14.28 67.2739 14.28C67.8072 14.28 68.2606 14.2067 68.6339 14.06C69.0206 13.9 69.4006 13.66 69.7739 13.34L71.7739 15.42C71.2539 15.9933 70.6139 16.4333 69.8539 16.74C69.0939 17.0333 68.1939 17.18 67.1539 17.18ZM74.3059 17V2.16H78.1059V17H74.3059ZM86.2555 17.18C84.9755 17.18 83.8555 16.94 82.8955 16.46C81.9488 15.9667 81.2088 15.3 80.6755 14.46C80.1555 13.6067 79.8955 12.64 79.8955 11.56C79.8955 10.48 80.1488 9.52 80.6555 8.68C81.1755 7.82667 81.8888 7.16667 82.7955 6.7C83.7021 6.22 84.7221 5.98 85.8555 5.98C86.9221 5.98 87.8955 6.2 88.7755 6.64C89.6555 7.06667 90.3555 7.7 90.8755 8.54C91.3955 9.38 91.6555 10.4 91.6555 11.6C91.6555 11.7333 91.6488 11.8867 91.6355 12.06C91.6221 12.2333 91.6088 12.3933 91.5955 12.54H83.0155V10.54H89.5755L88.1355 11.1C88.1488 10.6067 88.0555 10.18 87.8555 9.82C87.6688 9.46 87.4021 9.18 87.0555 8.98C86.7221 8.78 86.3288 8.68 85.8755 8.68C85.4221 8.68 85.0221 8.78 84.6755 8.98C84.3421 9.18 84.0821 9.46667 83.8955 9.84C83.7088 10.2 83.6155 10.6267 83.6155 11.12V11.7C83.6155 12.2333 83.7221 12.6933 83.9355 13.08C84.1621 13.4667 84.4821 13.7667 84.8955 13.98C85.3088 14.18 85.8021 14.28 86.3755 14.28C86.9088 14.28 87.3621 14.2067 87.7355 14.06C88.1221 13.9 88.5021 13.66 88.8755 13.34L90.8755 15.42C90.3555 15.9933 89.7155 16.4333 88.9555 16.74C88.1955 17.0333 87.2955 17.18 86.2555 17.18ZM99.4078 17V3H105.808C107.088 3 108.188 3.20667 109.108 3.62C110.041 4.03333 110.761 4.63333 111.268 5.42C111.774 6.19333 112.028 7.11333 112.028 8.18C112.028 9.23333 111.774 10.1467 111.268 10.92C110.761 11.6933 110.041 12.2933 109.108 12.72C108.188 13.1333 107.088 13.34 105.808 13.34H101.608L103.368 11.62V17H99.4078ZM103.368 12.04L101.608 10.22H105.568C106.394 10.22 107.008 10.04 107.408 9.68C107.821 9.32 108.028 8.82 108.028 8.18C108.028 7.52667 107.821 7.02 107.408 6.66C107.008 6.3 106.394 6.12 105.568 6.12H101.608L103.368 4.3V12.04ZM119.439 17.18C118.159 17.18 117.039 16.94 116.079 16.46C115.132 15.9667 114.392 15.3 113.859 14.46C113.339 13.6067 113.079 12.64 113.079 11.56C113.079 10.48 113.332 9.52 113.839 8.68C114.359 7.82667 115.072 7.16667 115.979 6.7C116.886 6.22 117.906 5.98 119.039 5.98C120.106 5.98 121.079 6.2 121.959 6.64C122.839 7.06667 123.539 7.7 124.059 8.54C124.579 9.38 124.839 10.4 124.839 11.6C124.839 11.7333 124.832 11.8867 124.819 12.06C124.806 12.2333 124.792 12.3933 124.779 12.54H116.199V10.54H122.759L121.319 11.1C121.332 10.6067 121.239 10.18 121.039 9.82C120.852 9.46 120.586 9.18 120.239 8.98C119.906 8.78 119.512 8.68 119.059 8.68C118.606 8.68 118.206 8.78 117.859 8.98C117.526 9.18 117.266 9.46667 117.079 9.84C116.892 10.2 116.799 10.6267 116.799 11.12V11.7C116.799 12.2333 116.906 12.6933 117.119 13.08C117.346 13.4667 117.666 13.7667 118.079 13.98C118.492 14.18 118.986 14.28 119.559 14.28C120.092 14.28 120.546 14.2067 120.919 14.06C121.306 13.9 121.686 13.66 122.059 13.34L124.059 15.42C123.539 15.9933 122.899 16.4333 122.139 16.74C121.379 17.0333 120.479 17.18 119.439 17.18ZM126.591 17V2.16H130.391V17H126.591ZM137.421 17.18C136.541 17.18 135.747 17.0067 135.041 16.66C134.347 16.3133 133.801 15.7733 133.401 15.04C133.014 14.2933 132.821 13.3533 132.821 12.22V6.16H136.621V11.6C136.621 12.44 136.774 13.04 137.081 13.4C137.401 13.76 137.847 13.94 138.421 13.94C138.794 13.94 139.134 13.8533 139.441 13.68C139.747 13.5067 139.994 13.2333 140.181 12.86C140.367 12.4733 140.461 11.98 140.461 11.38V6.16H144.261V17H140.641V13.94L141.341 14.8C140.967 15.6 140.427 16.2 139.721 16.6C139.014 16.9867 138.247 17.18 137.421 17.18ZM150.648 17.18C149.728 17.18 148.828 17.0733 147.948 16.86C147.082 16.6467 146.382 16.38 145.848 16.06L146.988 13.46C147.495 13.7667 148.088 14.0133 148.768 14.2C149.448 14.3733 150.115 14.46 150.768 14.46C151.408 14.46 151.848 14.3933 152.088 14.26C152.342 14.1267 152.468 13.9467 152.468 13.72C152.468 13.5067 152.348 13.3533 152.108 13.26C151.882 13.1533 151.575 13.0733 151.188 13.02C150.815 12.9667 150.402 12.9067 149.948 12.84C149.495 12.7733 149.035 12.6867 148.568 12.58C148.115 12.46 147.695 12.2867 147.308 12.06C146.935 11.82 146.635 11.5 146.408 11.1C146.182 10.7 146.068 10.1933 146.068 9.58C146.068 8.88667 146.268 8.27333 146.668 7.74C147.082 7.19333 147.682 6.76667 148.468 6.46C149.255 6.14 150.215 5.98 151.348 5.98C152.108 5.98 152.875 6.06 153.648 6.22C154.435 6.36667 155.095 6.59333 155.628 6.9L154.488 9.48C153.955 9.17333 153.422 8.96667 152.888 8.86C152.355 8.74 151.848 8.68 151.368 8.68C150.728 8.68 150.275 8.75333 150.008 8.9C149.755 9.04667 149.628 9.22667 149.628 9.44C149.628 9.65333 149.742 9.82 149.968 9.94C150.195 10.0467 150.495 10.1333 150.868 10.2C151.255 10.2533 151.675 10.3133 152.128 10.38C152.582 10.4333 153.035 10.52 153.488 10.64C153.955 10.76 154.375 10.94 154.748 11.18C155.135 11.4067 155.442 11.72 155.668 12.12C155.895 12.5067 156.008 13.0067 156.008 13.62C156.008 14.2867 155.802 14.8867 155.388 15.42C154.988 15.9533 154.388 16.38 153.588 16.7C152.802 17.02 151.822 17.18 150.648 17.18ZM157.646 17V6.16H161.446V17H157.646ZM159.546 4.96C158.852 4.96 158.292 4.76667 157.866 4.38C157.439 3.99333 157.226 3.51333 157.226 2.94C157.226 2.36667 157.439 1.88667 157.866 1.5C158.292 1.11333 158.852 0.92 159.546 0.92C160.239 0.92 160.799 1.10667 161.226 1.48C161.652 1.84 161.866 2.30667 161.866 2.88C161.866 3.48 161.652 3.98 161.226 4.38C160.812 4.76667 160.252 4.96 159.546 4.96Z" fill="#4EC79F"/>
</svg>
