<svg width="333" height="143" viewBox="0 0 333 143" fill="none" xmlns="http://www.w3.org/2000/svg">
<rect y="7.93726" width="322.51" height="135.063" rx="34" fill="#FF6474"/>
<rect x="9.65625" width="322.513" height="135.063" rx="34" fill="white"/>
<path d="M49.9 63.35C48.4667 63.35 47.0833 63.175 45.75 62.825C44.4333 62.4583 43.3583 61.9917 42.525 61.425L44.15 57.775C44.9333 58.275 45.8333 58.6917 46.85 59.025C47.8833 59.3417 48.9083 59.5 49.925 59.5C50.6083 59.5 51.1583 59.4417 51.575 59.325C51.9917 59.1917 52.2917 59.025 52.475 58.825C52.675 58.6083 52.775 58.3583 52.775 58.075C52.775 57.675 52.5917 57.3583 52.225 57.125C51.8583 56.8917 51.3833 56.7 50.8 56.55C50.2167 56.4 49.5667 56.25 48.85 56.1C48.15 55.95 47.4417 55.7583 46.725 55.525C46.025 55.2917 45.3833 54.9917 44.8 54.625C44.2167 54.2417 43.7417 53.75 43.375 53.15C43.0083 52.5333 42.825 51.7583 42.825 50.825C42.825 49.775 43.1083 48.825 43.675 47.975C44.2583 47.125 45.125 46.4417 46.275 45.925C47.425 45.4083 48.8583 45.15 50.575 45.15C51.725 45.15 52.85 45.2833 53.95 45.55C55.0667 45.8 56.0583 46.175 56.925 46.675L55.4 50.35C54.5667 49.9 53.7417 49.5667 52.925 49.35C52.1083 49.1167 51.3167 49 50.55 49C49.8667 49 49.3167 49.075 48.9 49.225C48.4833 49.3583 48.1833 49.5417 48 49.775C47.8167 50.0083 47.725 50.275 47.725 50.575C47.725 50.9583 47.9 51.2667 48.25 51.5C48.6167 51.7167 49.0917 51.9 49.675 52.05C50.275 52.1833 50.925 52.325 51.625 52.475C52.3417 52.625 53.05 52.8167 53.75 53.05C54.4667 53.2667 55.1167 53.5667 55.7 53.95C56.2833 54.3167 56.75 54.8083 57.1 55.425C57.4667 56.025 57.65 56.7833 57.65 57.7C57.65 58.7167 57.3583 59.6583 56.775 60.525C56.2083 61.375 55.35 62.0583 54.2 62.575C53.0667 63.0917 51.6333 63.35 49.9 63.35ZM67.9865 63V60.475L67.6615 59.85V55.2C67.6615 54.45 67.4282 53.875 66.9615 53.475C66.5115 53.0583 65.7865 52.85 64.7865 52.85C64.1365 52.85 63.4782 52.9583 62.8115 53.175C62.1449 53.375 61.5782 53.6583 61.1115 54.025L59.5115 50.8C60.2782 50.3 61.1949 49.9167 62.2615 49.65C63.3449 49.3667 64.4199 49.225 65.4865 49.225C67.6865 49.225 69.3865 49.7333 70.5865 50.75C71.8032 51.75 72.4115 53.325 72.4115 55.475V63H67.9865ZM63.9865 63.225C62.9032 63.225 61.9865 63.0417 61.2365 62.675C60.4865 62.3083 59.9115 61.8083 59.5115 61.175C59.1282 60.5417 58.9365 59.8333 58.9365 59.05C58.9365 58.2167 59.1449 57.5 59.5615 56.9C59.9949 56.2833 60.6532 55.8167 61.5365 55.5C62.4199 55.1667 63.5615 55 64.9615 55H68.1615V57.475H65.6115C64.8449 57.475 64.3032 57.6 63.9865 57.85C63.6865 58.1 63.5365 58.4333 63.5365 58.85C63.5365 59.2667 63.6949 59.6 64.0115 59.85C64.3282 60.1 64.7615 60.225 65.3115 60.225C65.8282 60.225 66.2949 60.1 66.7115 59.85C67.1449 59.5833 67.4615 59.1833 67.6615 58.65L68.3115 60.4C68.0615 61.3333 67.5699 62.0417 66.8365 62.525C66.1199 62.9917 65.1699 63.225 63.9865 63.225ZM93.0598 49.225C94.1098 49.225 95.0431 49.4417 95.8598 49.875C96.6931 50.2917 97.3431 50.9417 97.8098 51.825C98.2931 52.7083 98.5348 53.85 98.5348 55.25V63H93.7848V56.025C93.7848 55.0583 93.6014 54.3583 93.2348 53.925C92.8681 53.475 92.3681 53.25 91.7348 53.25C91.2848 53.25 90.8764 53.3583 90.5098 53.575C90.1431 53.7917 89.8598 54.125 89.6598 54.575C89.4598 55.0083 89.3598 55.575 89.3598 56.275V63H84.6098V56.025C84.6098 55.0583 84.4264 54.3583 84.0598 53.925C83.7098 53.475 83.2098 53.25 82.5598 53.25C82.0931 53.25 81.6764 53.3583 81.3098 53.575C80.9598 53.7917 80.6764 54.125 80.4598 54.575C80.2598 55.0083 80.1598 55.575 80.1598 56.275V63H75.4098V49.45H79.9348V53.225L79.0348 52.15C79.5348 51.1833 80.2181 50.4583 81.0848 49.975C81.9514 49.475 82.9181 49.225 83.9848 49.225C85.2014 49.225 86.2681 49.5417 87.1848 50.175C88.1181 50.7917 88.7431 51.7583 89.0598 53.075L87.5098 52.75C87.9931 51.65 88.7181 50.7917 89.6848 50.175C90.6681 49.5417 91.7931 49.225 93.0598 49.225ZM107.233 63.225C106.133 63.225 105.141 63.0083 104.258 62.575C103.391 62.1417 102.708 61.4667 102.208 60.55C101.724 59.6167 101.483 58.4417 101.483 57.025V49.45H106.233V56.25C106.233 57.3 106.424 58.05 106.808 58.5C107.208 58.95 107.766 59.175 108.483 59.175C108.949 59.175 109.374 59.0667 109.758 58.85C110.141 58.6333 110.449 58.2917 110.683 57.825C110.916 57.3417 111.033 56.725 111.033 55.975V49.45H115.783V63H111.258V59.175L112.133 60.25C111.666 61.25 110.991 62 110.108 62.5C109.224 62.9833 108.266 63.225 107.233 63.225ZM125.942 63.225C124.342 63.225 122.942 62.925 121.742 62.325C120.559 61.7083 119.634 60.875 118.967 59.825C118.317 58.7583 117.992 57.55 117.992 56.2C117.992 54.85 118.309 53.65 118.942 52.6C119.592 51.5333 120.484 50.7083 121.617 50.125C122.751 49.525 124.026 49.225 125.442 49.225C126.776 49.225 127.992 49.5 129.092 50.05C130.192 50.5833 131.067 51.375 131.717 52.425C132.367 53.475 132.692 54.75 132.692 56.25C132.692 56.4167 132.684 56.6083 132.667 56.825C132.651 57.0417 132.634 57.2417 132.617 57.425H121.892V54.925H130.092L128.292 55.625C128.309 55.0083 128.192 54.475 127.942 54.025C127.709 53.575 127.376 53.225 126.942 52.975C126.526 52.725 126.034 52.6 125.467 52.6C124.901 52.6 124.401 52.725 123.967 52.975C123.551 53.225 123.226 53.5833 122.992 54.05C122.759 54.5 122.642 55.0333 122.642 55.65V56.375C122.642 57.0417 122.776 57.6167 123.042 58.1C123.326 58.5833 123.726 58.9583 124.242 59.225C124.759 59.475 125.376 59.6 126.092 59.6C126.759 59.6 127.326 59.5083 127.792 59.325C128.276 59.125 128.751 58.825 129.217 58.425L131.717 61.025C131.067 61.7417 130.267 62.2917 129.317 62.675C128.367 63.0417 127.242 63.225 125.942 63.225ZM134.882 63V44.45H139.632V63H134.882ZM149.819 63.225C148.219 63.225 146.819 62.925 145.619 62.325C144.436 61.7083 143.511 60.875 142.844 59.825C142.194 58.7583 141.869 57.55 141.869 56.2C141.869 54.85 142.186 53.65 142.819 52.6C143.469 51.5333 144.361 50.7083 145.494 50.125C146.628 49.525 147.903 49.225 149.319 49.225C150.653 49.225 151.869 49.5 152.969 50.05C154.069 50.5833 154.944 51.375 155.594 52.425C156.244 53.475 156.569 54.75 156.569 56.25C156.569 56.4167 156.561 56.6083 156.544 56.825C156.528 57.0417 156.511 57.2417 156.494 57.425H145.769V54.925H153.969L152.169 55.625C152.186 55.0083 152.069 54.475 151.819 54.025C151.586 53.575 151.253 53.225 150.819 52.975C150.403 52.725 149.911 52.6 149.344 52.6C148.778 52.6 148.278 52.725 147.844 52.975C147.428 53.225 147.103 53.5833 146.869 54.05C146.636 54.5 146.519 55.0333 146.519 55.65V56.375C146.519 57.0417 146.653 57.6167 146.919 58.1C147.203 58.5833 147.603 58.9583 148.119 59.225C148.636 59.475 149.253 59.6 149.969 59.6C150.636 59.6 151.203 59.5083 151.669 59.325C152.153 59.125 152.628 58.825 153.094 58.425L155.594 61.025C154.944 61.7417 154.144 62.2917 153.194 62.675C152.244 63.0417 151.119 63.225 149.819 63.225ZM166.26 63V45.5H174.26C175.86 45.5 177.235 45.7583 178.385 46.275C179.551 46.7917 180.451 47.5417 181.085 48.525C181.718 49.4917 182.035 50.6417 182.035 51.975C182.035 53.2917 181.718 54.4333 181.085 55.4C180.451 56.3667 179.551 57.1167 178.385 57.65C177.235 58.1667 175.86 58.425 174.26 58.425H169.01L171.21 56.275V63H166.26ZM171.21 56.8L169.01 54.525H173.96C174.993 54.525 175.76 54.3 176.26 53.85C176.776 53.4 177.035 52.775 177.035 51.975C177.035 51.1583 176.776 50.525 176.26 50.075C175.76 49.625 174.993 49.4 173.96 49.4H169.01L171.21 47.125V56.8ZM191.299 63.225C189.699 63.225 188.299 62.925 187.099 62.325C185.915 61.7083 184.99 60.875 184.324 59.825C183.674 58.7583 183.349 57.55 183.349 56.2C183.349 54.85 183.665 53.65 184.299 52.6C184.949 51.5333 185.84 50.7083 186.974 50.125C188.107 49.525 189.382 49.225 190.799 49.225C192.132 49.225 193.349 49.5 194.449 50.05C195.549 50.5833 196.424 51.375 197.074 52.425C197.724 53.475 198.049 54.75 198.049 56.25C198.049 56.4167 198.04 56.6083 198.024 56.825C198.007 57.0417 197.99 57.2417 197.974 57.425H187.249V54.925H195.449L193.649 55.625C193.665 55.0083 193.549 54.475 193.299 54.025C193.065 53.575 192.732 53.225 192.299 52.975C191.882 52.725 191.39 52.6 190.824 52.6C190.257 52.6 189.757 52.725 189.324 52.975C188.907 53.225 188.582 53.5833 188.349 54.05C188.115 54.5 187.999 55.0333 187.999 55.65V56.375C187.999 57.0417 188.132 57.6167 188.399 58.1C188.682 58.5833 189.082 58.9583 189.599 59.225C190.115 59.475 190.732 59.6 191.449 59.6C192.115 59.6 192.682 59.5083 193.149 59.325C193.632 59.125 194.107 58.825 194.574 58.425L197.074 61.025C196.424 61.7417 195.624 62.2917 194.674 62.675C193.724 63.0417 192.599 63.225 191.299 63.225ZM200.239 63V44.45H204.989V63H200.239ZM213.776 63.225C212.676 63.225 211.684 63.0083 210.801 62.575C209.934 62.1417 209.251 61.4667 208.751 60.55C208.267 59.6167 208.026 58.4417 208.026 57.025V49.45H212.776V56.25C212.776 57.3 212.967 58.05 213.351 58.5C213.751 58.95 214.309 59.175 215.026 59.175C215.492 59.175 215.917 59.0667 216.301 58.85C216.684 58.6333 216.992 58.2917 217.226 57.825C217.459 57.3417 217.576 56.725 217.576 55.975V49.45H222.326V63H217.801V59.175L218.676 60.25C218.209 61.25 217.534 62 216.651 62.5C215.767 62.9833 214.809 63.225 213.776 63.225ZM230.31 63.225C229.16 63.225 228.035 63.0917 226.935 62.825C225.852 62.5583 224.977 62.225 224.31 61.825L225.735 58.575C226.369 58.9583 227.11 59.2667 227.96 59.5C228.81 59.7167 229.644 59.825 230.46 59.825C231.26 59.825 231.81 59.7417 232.11 59.575C232.427 59.4083 232.585 59.1833 232.585 58.9C232.585 58.6333 232.435 58.4417 232.135 58.325C231.852 58.1917 231.469 58.0917 230.985 58.025C230.519 57.9583 230.002 57.8833 229.435 57.8C228.869 57.7167 228.294 57.6083 227.71 57.475C227.144 57.325 226.619 57.1083 226.135 56.825C225.669 56.525 225.294 56.125 225.01 55.625C224.727 55.125 224.585 54.4917 224.585 53.725C224.585 52.8583 224.835 52.0917 225.335 51.425C225.852 50.7417 226.602 50.2083 227.585 49.825C228.569 49.425 229.769 49.225 231.185 49.225C232.135 49.225 233.094 49.325 234.06 49.525C235.044 49.7083 235.869 49.9917 236.535 50.375L235.11 53.6C234.444 53.2167 233.777 52.9583 233.11 52.825C232.444 52.675 231.81 52.6 231.21 52.6C230.41 52.6 229.844 52.6917 229.51 52.875C229.194 53.0583 229.035 53.2833 229.035 53.55C229.035 53.8167 229.177 54.025 229.46 54.175C229.744 54.3083 230.119 54.4167 230.585 54.5C231.069 54.5667 231.594 54.6417 232.16 54.725C232.727 54.7917 233.294 54.9 233.86 55.05C234.444 55.2 234.969 55.425 235.435 55.725C235.919 56.0083 236.302 56.4 236.585 56.9C236.869 57.3833 237.01 58.0083 237.01 58.775C237.01 59.6083 236.752 60.3583 236.235 61.025C235.735 61.6917 234.985 62.225 233.985 62.625C233.002 63.025 231.777 63.225 230.31 63.225ZM239.057 63V49.45H243.807V63H239.057ZM241.432 47.95C240.566 47.95 239.866 47.7083 239.332 47.225C238.799 46.7417 238.532 46.1417 238.532 45.425C238.532 44.7083 238.799 44.1083 239.332 43.625C239.866 43.1417 240.566 42.9 241.432 42.9C242.299 42.9 242.999 43.1333 243.532 43.6C244.066 44.05 244.332 44.6333 244.332 45.35C244.332 46.1 244.066 46.725 243.532 47.225C243.016 47.7083 242.316 47.95 241.432 47.95Z" fill="#4EC79F"/>
<path d="M53.07 81.5H56.04V92H53.07V81.5ZM49.02 92H46.05V81.5H49.02V92ZM53.28 87.905H48.81V85.445H53.28V87.905ZM62.26 92.135C61.3 92.135 60.46 91.955 59.74 91.595C59.03 91.225 58.475 90.725 58.075 90.095C57.685 89.455 57.49 88.73 57.49 87.92C57.49 87.11 57.68 86.39 58.06 85.76C58.45 85.12 58.985 84.625 59.665 84.275C60.345 83.915 61.11 83.735 61.96 83.735C62.76 83.735 63.49 83.9 64.15 84.23C64.81 84.55 65.335 85.025 65.725 85.655C66.115 86.285 66.31 87.05 66.31 87.95C66.31 88.05 66.305 88.165 66.295 88.295C66.285 88.425 66.275 88.545 66.265 88.655H59.83V87.155H64.75L63.67 87.575C63.68 87.205 63.61 86.885 63.46 86.615C63.32 86.345 63.12 86.135 62.86 85.985C62.61 85.835 62.315 85.76 61.975 85.76C61.635 85.76 61.335 85.835 61.075 85.985C60.825 86.135 60.63 86.35 60.49 86.63C60.35 86.9 60.28 87.22 60.28 87.59V88.025C60.28 88.425 60.36 88.77 60.52 89.06C60.69 89.35 60.93 89.575 61.24 89.735C61.55 89.885 61.92 89.96 62.35 89.96C62.75 89.96 63.09 89.905 63.37 89.795C63.66 89.675 63.945 89.495 64.225 89.255L65.725 90.815C65.335 91.245 64.855 91.575 64.285 91.805C63.715 92.025 63.04 92.135 62.26 92.135ZM72.3693 92V90.485L72.1743 90.11V87.32C72.1743 86.87 72.0343 86.525 71.7543 86.285C71.4843 86.035 71.0493 85.91 70.4493 85.91C70.0593 85.91 69.6643 85.975 69.2643 86.105C68.8643 86.225 68.5243 86.395 68.2443 86.615L67.2843 84.68C67.7443 84.38 68.2943 84.15 68.9343 83.99C69.5843 83.82 70.2293 83.735 70.8693 83.735C72.1893 83.735 73.2093 84.04 73.9293 84.65C74.6593 85.25 75.0243 86.195 75.0243 87.485V92H72.3693ZM69.9693 92.135C69.3193 92.135 68.7693 92.025 68.3193 91.805C67.8693 91.585 67.5243 91.285 67.2843 90.905C67.0543 90.525 66.9393 90.1 66.9393 89.63C66.9393 89.13 67.0643 88.7 67.3143 88.34C67.5743 87.97 67.9693 87.69 68.4993 87.5C69.0293 87.3 69.7143 87.2 70.5543 87.2H72.4743V88.685H70.9443C70.4843 88.685 70.1593 88.76 69.9693 88.91C69.7893 89.06 69.6993 89.26 69.6993 89.51C69.6993 89.76 69.7943 89.96 69.9843 90.11C70.1743 90.26 70.4343 90.335 70.7643 90.335C71.0743 90.335 71.3543 90.26 71.6043 90.11C71.8643 89.95 72.0543 89.71 72.1743 89.39L72.5643 90.44C72.4143 91 72.1193 91.425 71.6793 91.715C71.2493 91.995 70.6793 92.135 69.9693 92.135ZM80.4657 92.135C79.7257 92.135 79.0507 91.965 78.4407 91.625C77.8407 91.275 77.3607 90.79 77.0007 90.17C76.6407 89.54 76.4607 88.79 76.4607 87.92C76.4607 87.06 76.6407 86.32 77.0007 85.7C77.3607 85.07 77.8407 84.585 78.4407 84.245C79.0507 83.905 79.7257 83.735 80.4657 83.735C81.1657 83.735 81.7557 83.885 82.2357 84.185C82.7257 84.485 83.0957 84.945 83.3457 85.565C83.5957 86.185 83.7207 86.97 83.7207 87.92C83.7207 88.89 83.6007 89.685 83.3607 90.305C83.1207 90.925 82.7607 91.385 82.2807 91.685C81.8007 91.985 81.1957 92.135 80.4657 92.135ZM81.0657 89.87C81.3857 89.87 81.6707 89.795 81.9207 89.645C82.1807 89.495 82.3857 89.275 82.5357 88.985C82.6857 88.685 82.7607 88.33 82.7607 87.92C82.7607 87.51 82.6857 87.165 82.5357 86.885C82.3857 86.595 82.1807 86.375 81.9207 86.225C81.6707 86.075 81.3857 86 81.0657 86C80.7357 86 80.4407 86.075 80.1807 86.225C79.9307 86.375 79.7307 86.595 79.5807 86.885C79.4307 87.165 79.3557 87.51 79.3557 87.92C79.3557 88.33 79.4307 88.685 79.5807 88.985C79.7307 89.275 79.9307 89.495 80.1807 89.645C80.4407 89.795 80.7357 89.87 81.0657 89.87ZM82.8507 92V90.605L82.8657 87.92L82.7157 85.235V80.87H85.5657V92H82.8507ZM90.6396 92L95.2746 81.5H98.1996L102.85 92H99.7596L96.1296 82.955H97.2996L93.6696 92H90.6396ZM93.1746 89.96L93.9396 87.77H99.0696L99.8346 89.96H93.1746ZM103.557 92V83.87H106.272V86.24L105.867 85.565C106.107 84.955 106.497 84.5 107.037 84.2C107.577 83.89 108.232 83.735 109.002 83.735V86.3C108.872 86.28 108.757 86.27 108.657 86.27C108.567 86.26 108.467 86.255 108.357 86.255C107.777 86.255 107.307 86.415 106.947 86.735C106.587 87.045 106.407 87.555 106.407 88.265V92H103.557ZM114.364 92.135C113.404 92.135 112.564 91.955 111.844 91.595C111.134 91.225 110.579 90.725 110.179 90.095C109.789 89.455 109.594 88.73 109.594 87.92C109.594 87.11 109.784 86.39 110.164 85.76C110.554 85.12 111.089 84.625 111.769 84.275C112.449 83.915 113.214 83.735 114.064 83.735C114.864 83.735 115.594 83.9 116.254 84.23C116.914 84.55 117.439 85.025 117.829 85.655C118.219 86.285 118.414 87.05 118.414 87.95C118.414 88.05 118.409 88.165 118.399 88.295C118.389 88.425 118.379 88.545 118.369 88.655H111.934V87.155H116.854L115.774 87.575C115.784 87.205 115.714 86.885 115.564 86.615C115.424 86.345 115.224 86.135 114.964 85.985C114.714 85.835 114.419 85.76 114.079 85.76C113.739 85.76 113.439 85.835 113.179 85.985C112.929 86.135 112.734 86.35 112.594 86.63C112.454 86.9 112.384 87.22 112.384 87.59V88.025C112.384 88.425 112.464 88.77 112.624 89.06C112.794 89.35 113.034 89.575 113.344 89.735C113.654 89.885 114.024 89.96 114.454 89.96C114.854 89.96 115.194 89.905 115.474 89.795C115.764 89.675 116.049 89.495 116.329 89.255L117.829 90.815C117.439 91.245 116.959 91.575 116.389 91.805C115.819 92.025 115.144 92.135 114.364 92.135ZM124.474 92V90.485L124.279 90.11V87.32C124.279 86.87 124.139 86.525 123.859 86.285C123.589 86.035 123.154 85.91 122.554 85.91C122.164 85.91 121.769 85.975 121.369 86.105C120.969 86.225 120.629 86.395 120.349 86.615L119.389 84.68C119.849 84.38 120.399 84.15 121.039 83.99C121.689 83.82 122.334 83.735 122.974 83.735C124.294 83.735 125.314 84.04 126.034 84.65C126.764 85.25 127.129 86.195 127.129 87.485V92H124.474ZM122.074 92.135C121.424 92.135 120.874 92.025 120.424 91.805C119.974 91.585 119.629 91.285 119.389 90.905C119.159 90.525 119.044 90.1 119.044 89.63C119.044 89.13 119.169 88.7 119.419 88.34C119.679 87.97 120.074 87.69 120.604 87.5C121.134 87.3 121.819 87.2 122.659 87.2H124.579V88.685H123.049C122.589 88.685 122.264 88.76 122.074 88.91C121.894 89.06 121.804 89.26 121.804 89.51C121.804 89.76 121.899 89.96 122.089 90.11C122.279 90.26 122.539 90.335 122.869 90.335C123.179 90.335 123.459 90.26 123.709 90.11C123.969 89.95 124.159 89.71 124.279 89.39L124.669 90.44C124.519 91 124.224 91.425 123.784 91.715C123.354 91.995 122.784 92.135 122.074 92.135ZM140.448 81.5H143.418V92H140.448V81.5ZM136.398 92H133.428V81.5H136.398V92ZM140.658 87.905H136.188V85.445H140.658V87.905ZM145.513 92V81.5H150.313C151.273 81.5 152.098 81.655 152.788 81.965C153.488 82.275 154.028 82.725 154.408 83.315C154.788 83.895 154.978 84.585 154.978 85.385C154.978 86.175 154.788 86.86 154.408 87.44C154.028 88.01 153.488 88.45 152.788 88.76C152.098 89.06 151.273 89.21 150.313 89.21H147.163L148.483 87.965V92H145.513ZM152.008 92L149.398 88.175H152.563L155.188 92H152.008ZM148.483 88.28L147.163 86.915H150.133C150.753 86.915 151.213 86.78 151.513 86.51C151.823 86.24 151.978 85.865 151.978 85.385C151.978 84.895 151.823 84.515 151.513 84.245C151.213 83.975 150.753 83.84 150.133 83.84H147.163L148.483 82.475V88.28Z" fill="black"/>
</svg>
