<svg width="179" height="18" viewBox="0 0 179 18" fill="none" xmlns="http://www.w3.org/2000/svg">
<path d="M6.32 17.28C5.17333 17.28 4.06667 17.14 3 16.86C1.94667 16.5667 1.08667 16.1933 0.42 15.74L1.72 12.82C2.34667 13.22 3.06667 13.5533 3.88 13.82C4.70667 14.0733 5.52667 14.2 6.34 14.2C6.88667 14.2 7.32667 14.1533 7.66 14.06C7.99333 13.9533 8.23333 13.82 8.38 13.66C8.54 13.4867 8.62 13.2867 8.62 13.06C8.62 12.74 8.47333 12.4867 8.18 12.3C7.88667 12.1133 7.50667 11.96 7.04 11.84C6.57333 11.72 6.05333 11.6 5.48 11.48C4.92 11.36 4.35333 11.2067 3.78 11.02C3.22 10.8333 2.70667 10.5933 2.24 10.3C1.77333 9.99333 1.39333 9.6 1.1 9.12C0.806667 8.62667 0.66 8.00667 0.66 7.26C0.66 6.42 0.886667 5.66 1.34 4.98C1.80667 4.3 2.5 3.75333 3.42 3.34C4.34 2.92667 5.48667 2.72 6.86 2.72C7.78 2.72 8.68 2.82667 9.56 3.04C10.4533 3.24 11.2467 3.54 11.94 3.94L10.72 6.88C10.0533 6.52 9.39333 6.25333 8.74 6.08C8.08667 5.89333 7.45333 5.8 6.84 5.8C6.29333 5.8 5.85333 5.86 5.52 5.98C5.18667 6.08667 4.94667 6.23333 4.8 6.42C4.65333 6.60667 4.58 6.82 4.58 7.06C4.58 7.36667 4.72 7.61333 5 7.8C5.29333 7.97333 5.67333 8.12 6.14 8.24C6.62 8.34667 7.14 8.46 7.7 8.58C8.27333 8.7 8.84 8.85333 9.4 9.04C9.97333 9.21333 10.4933 9.45333 10.96 9.76C11.4267 10.0533 11.8 10.4467 12.08 10.94C12.3733 11.42 12.52 12.0267 12.52 12.76C12.52 13.5733 12.2867 14.3267 11.82 15.02C11.3667 15.7 10.68 16.2467 9.76 16.66C8.85333 17.0733 7.70667 17.28 6.32 17.28ZM14.1692 17V6.16H17.9692V17H14.1692ZM16.0692 4.96C15.3759 4.96 14.8159 4.76667 14.3892 4.38C13.9626 3.99333 13.7492 3.51333 13.7492 2.94C13.7492 2.36667 13.9626 1.88667 14.3892 1.5C14.8159 1.11333 15.3759 0.92 16.0692 0.92C16.7626 0.92 17.3226 1.10667 17.7492 1.48C18.1759 1.84 18.3892 2.30667 18.3892 2.88C18.3892 3.48 18.1759 3.98 17.7492 4.38C17.3359 4.76667 16.7759 4.96 16.0692 4.96ZM34.5588 5.98C35.3988 5.98 36.1454 6.15333 36.7988 6.5C37.4654 6.83333 37.9854 7.35333 38.3588 8.06C38.7454 8.76667 38.9388 9.68 38.9388 10.8V17H35.1388V11.42C35.1388 10.6467 34.9921 10.0867 34.6988 9.74C34.4054 9.38 34.0054 9.2 33.4988 9.2C33.1388 9.2 32.8121 9.28667 32.5188 9.46C32.2254 9.63333 31.9988 9.9 31.8388 10.26C31.6788 10.6067 31.5988 11.06 31.5988 11.62V17H27.7988V11.42C27.7988 10.6467 27.6521 10.0867 27.3588 9.74C27.0788 9.38 26.6788 9.2 26.1588 9.2C25.7854 9.2 25.4521 9.28667 25.1588 9.46C24.8788 9.63333 24.6521 9.9 24.4788 10.26C24.3188 10.6067 24.2388 11.06 24.2388 11.62V17H20.4388V6.16H24.0588V9.18L23.3388 8.32C23.7388 7.54667 24.2854 6.96667 24.9788 6.58C25.6721 6.18 26.4454 5.98 27.2988 5.98C28.2721 5.98 29.1254 6.23333 29.8588 6.74C30.6054 7.23333 31.1054 8.00667 31.3588 9.06L30.1188 8.8C30.5054 7.92 31.0854 7.23333 31.8588 6.74C32.6454 6.23333 33.5454 5.98 34.5588 5.98ZM46.9139 17.18C45.7272 17.18 44.6739 16.94 43.7539 16.46C42.8339 15.98 42.1072 15.32 41.5739 14.48C41.0539 13.6267 40.7939 12.6533 40.7939 11.56C40.7939 10.4667 41.0539 9.5 41.5739 8.66C42.1072 7.82 42.8339 7.16667 43.7539 6.7C44.6739 6.22 45.7272 5.98 46.9139 5.98C48.1006 5.98 49.1539 6.22 50.0739 6.7C51.0072 7.16667 51.7339 7.82 52.2539 8.66C52.7739 9.5 53.0339 10.4667 53.0339 11.56C53.0339 12.6533 52.7739 13.6267 52.2539 14.48C51.7339 15.32 51.0072 15.98 50.0739 16.46C49.1539 16.94 48.1006 17.18 46.9139 17.18ZM46.9139 14.16C47.3539 14.16 47.7406 14.06 48.0739 13.86C48.4206 13.66 48.6939 13.3667 48.8939 12.98C49.0939 12.58 49.1939 12.1067 49.1939 11.56C49.1939 11.0133 49.0939 10.5533 48.8939 10.18C48.6939 9.79333 48.4206 9.5 48.0739 9.3C47.7406 9.1 47.3539 9 46.9139 9C46.4872 9 46.1006 9.1 45.7539 9.3C45.4206 9.5 45.1472 9.79333 44.9339 10.18C44.7339 10.5533 44.6339 11.0133 44.6339 11.56C44.6339 12.1067 44.7339 12.58 44.9339 12.98C45.1472 13.3667 45.4206 13.66 45.7539 13.86C46.1006 14.06 46.4872 14.16 46.9139 14.16ZM61.8542 5.98C62.6942 5.98 63.4542 6.15333 64.1342 6.5C64.8142 6.83333 65.3476 7.35333 65.7342 8.06C66.1342 8.76667 66.3342 9.68 66.3342 10.8V17H62.5342V11.42C62.5342 10.6467 62.3742 10.0867 62.0542 9.74C61.7476 9.38 61.3142 9.2 60.7542 9.2C60.3542 9.2 59.9876 9.29333 59.6542 9.48C59.3209 9.65333 59.0609 9.92667 58.8742 10.3C58.6876 10.6733 58.5942 11.16 58.5942 11.76V17H54.7942V6.16H58.4142V9.24L57.7142 8.34C58.1276 7.55333 58.6942 6.96667 59.4142 6.58C60.1342 6.18 60.9476 5.98 61.8542 5.98ZM74.5367 17.18C73.2567 17.18 72.1367 16.94 71.1767 16.46C70.2301 15.9667 69.4901 15.3 68.9567 14.46C68.4367 13.6067 68.1767 12.64 68.1767 11.56C68.1767 10.48 68.4301 9.52 68.9367 8.68C69.4567 7.82667 70.1701 7.16667 71.0767 6.7C71.9834 6.22 73.0034 5.98 74.1367 5.98C75.2034 5.98 76.1767 6.2 77.0567 6.64C77.9367 7.06667 78.6367 7.7 79.1567 8.54C79.6767 9.38 79.9367 10.4 79.9367 11.6C79.9367 11.7333 79.9301 11.8867 79.9167 12.06C79.9034 12.2333 79.8901 12.3933 79.8767 12.54H71.2967V10.54H77.8567L76.4167 11.1C76.4301 10.6067 76.3367 10.18 76.1367 9.82C75.9501 9.46 75.6834 9.18 75.3367 8.98C75.0034 8.78 74.6101 8.68 74.1567 8.68C73.7034 8.68 73.3034 8.78 72.9567 8.98C72.6234 9.18 72.3634 9.46667 72.1767 9.84C71.9901 10.2 71.8967 10.6267 71.8967 11.12V11.7C71.8967 12.2333 72.0034 12.6933 72.2167 13.08C72.4434 13.4667 72.7634 13.7667 73.1767 13.98C73.5901 14.18 74.0834 14.28 74.6567 14.28C75.1901 14.28 75.6434 14.2067 76.0167 14.06C76.4034 13.9 76.7834 13.66 77.1567 13.34L79.1567 15.42C78.6367 15.9933 77.9967 16.4333 77.2367 16.74C76.4767 17.0333 75.5767 17.18 74.5367 17.18ZM86.0091 17L92.1891 3H96.0891L102.289 17H98.1691L93.3291 4.94H94.8891L90.0491 17H86.0091ZM89.3891 14.28L90.4091 11.36H97.2491L98.2691 14.28H89.3891ZM105.666 17L101.206 6.16H105.106L108.666 15.22H106.706L110.446 6.16H114.066L109.586 17H105.666ZM121.297 17V14.98L121.037 14.48V10.76C121.037 10.16 120.85 9.7 120.477 9.38C120.117 9.04667 119.537 8.88 118.737 8.88C118.217 8.88 117.69 8.96667 117.157 9.14C116.624 9.3 116.17 9.52667 115.797 9.82L114.517 7.24C115.13 6.84 115.864 6.53333 116.717 6.32C117.584 6.09333 118.444 5.98 119.297 5.98C121.057 5.98 122.417 6.38667 123.377 7.2C124.35 8 124.837 9.26 124.837 10.98V17H121.297ZM118.097 17.18C117.23 17.18 116.497 17.0333 115.897 16.74C115.297 16.4467 114.837 16.0467 114.517 15.54C114.21 15.0333 114.057 14.4667 114.057 13.84C114.057 13.1733 114.224 12.6 114.557 12.12C114.904 11.6267 115.43 11.2533 116.137 11C116.844 10.7333 117.757 10.6 118.877 10.6H121.437V12.58H119.397C118.784 12.58 118.35 12.68 118.097 12.88C117.857 13.08 117.737 13.3467 117.737 13.68C117.737 14.0133 117.864 14.28 118.117 14.48C118.37 14.68 118.717 14.78 119.157 14.78C119.57 14.78 119.944 14.68 120.277 14.48C120.624 14.2667 120.877 13.9467 121.037 13.52L121.557 14.92C121.357 15.6667 120.964 16.2333 120.377 16.62C119.804 16.9933 119.044 17.18 118.097 17.18ZM127.236 17V2.16H131.036V17H127.236ZM133.505 17V2.16H137.305V17H133.505ZM145.215 17.18C144.028 17.18 142.975 16.94 142.055 16.46C141.135 15.98 140.408 15.32 139.875 14.48C139.355 13.6267 139.095 12.6533 139.095 11.56C139.095 10.4667 139.355 9.5 139.875 8.66C140.408 7.82 141.135 7.16667 142.055 6.7C142.975 6.22 144.028 5.98 145.215 5.98C146.401 5.98 147.455 6.22 148.375 6.7C149.308 7.16667 150.035 7.82 150.555 8.66C151.075 9.5 151.335 10.4667 151.335 11.56C151.335 12.6533 151.075 13.6267 150.555 14.48C150.035 15.32 149.308 15.98 148.375 16.46C147.455 16.94 146.401 17.18 145.215 17.18ZM145.215 14.16C145.655 14.16 146.041 14.06 146.375 13.86C146.721 13.66 146.995 13.3667 147.195 12.98C147.395 12.58 147.495 12.1067 147.495 11.56C147.495 11.0133 147.395 10.5533 147.195 10.18C146.995 9.79333 146.721 9.5 146.375 9.3C146.041 9.1 145.655 9 145.215 9C144.788 9 144.401 9.1 144.055 9.3C143.721 9.5 143.448 9.79333 143.235 10.18C143.035 10.5533 142.935 11.0133 142.935 11.56C142.935 12.1067 143.035 12.58 143.235 12.98C143.448 13.3667 143.721 13.66 144.055 13.86C144.401 14.06 144.788 14.16 145.215 14.16ZM160.155 5.98C160.995 5.98 161.755 6.15333 162.435 6.5C163.115 6.83333 163.648 7.35333 164.035 8.06C164.435 8.76667 164.635 9.68 164.635 10.8V17H160.835V11.42C160.835 10.6467 160.675 10.0867 160.355 9.74C160.048 9.38 159.615 9.2 159.055 9.2C158.655 9.2 158.288 9.29333 157.955 9.48C157.622 9.65333 157.362 9.92667 157.175 10.3C156.988 10.6733 156.895 11.16 156.895 11.76V17H153.095V6.16H156.715V9.24L156.015 8.34C156.428 7.55333 156.995 6.96667 157.715 6.58C158.435 6.18 159.248 5.98 160.155 5.98ZM172.838 17.18C171.558 17.18 170.438 16.94 169.478 16.46C168.531 15.9667 167.791 15.3 167.257 14.46C166.738 13.6067 166.478 12.64 166.478 11.56C166.478 10.48 166.731 9.52 167.238 8.68C167.758 7.82667 168.471 7.16667 169.378 6.7C170.284 6.22 171.304 5.98 172.438 5.98C173.504 5.98 174.478 6.2 175.358 6.64C176.238 7.06667 176.938 7.7 177.458 8.54C177.978 9.38 178.238 10.4 178.238 11.6C178.238 11.7333 178.231 11.8867 178.218 12.06C178.204 12.2333 178.191 12.3933 178.178 12.54H169.598V10.54H176.158L174.718 11.1C174.731 10.6067 174.638 10.18 174.438 9.82C174.251 9.46 173.984 9.18 173.638 8.98C173.304 8.78 172.911 8.68 172.458 8.68C172.004 8.68 171.604 8.78 171.258 8.98C170.924 9.18 170.664 9.46667 170.478 9.84C170.291 10.2 170.198 10.6267 170.198 11.12V11.7C170.198 12.2333 170.304 12.6933 170.518 13.08C170.744 13.4667 171.064 13.7667 171.478 13.98C171.891 14.18 172.384 14.28 172.958 14.28C173.491 14.28 173.944 14.2067 174.318 14.06C174.704 13.9 175.084 13.66 175.458 13.34L177.458 15.42C176.938 15.9933 176.298 16.4333 175.538 16.74C174.778 17.0333 173.878 17.18 172.838 17.18Z" fill="#4EC79F"/>
</svg>
