<svg width="333" height="144" viewBox="0 0 333 144" fill="none" xmlns="http://www.w3.org/2000/svg">
<rect y="8.32593" width="322.513" height="135.063" rx="34" fill="#FF6474"/>
<rect x="9.65625" width="322.513" height="135.063" rx="34" fill="white"/>
<path d="M44.9 59.35C43.4667 59.35 42.0833 59.175 40.75 58.825C39.4333 58.4583 38.3583 57.9917 37.525 57.425L39.15 53.775C39.9333 54.275 40.8333 54.6917 41.85 55.025C42.8833 55.3417 43.9083 55.5 44.925 55.5C45.6083 55.5 46.1583 55.4417 46.575 55.325C46.9917 55.1917 47.2917 55.025 47.475 54.825C47.675 54.6083 47.775 54.3583 47.775 54.075C47.775 53.675 47.5917 53.3583 47.225 53.125C46.8583 52.8917 46.3833 52.7 45.8 52.55C45.2167 52.4 44.5667 52.25 43.85 52.1C43.15 51.95 42.4417 51.7583 41.725 51.525C41.025 51.2917 40.3833 50.9917 39.8 50.625C39.2167 50.2417 38.7417 49.75 38.375 49.15C38.0083 48.5333 37.825 47.7583 37.825 46.825C37.825 45.775 38.1083 44.825 38.675 43.975C39.2583 43.125 40.125 42.4417 41.275 41.925C42.425 41.4083 43.8583 41.15 45.575 41.15C46.725 41.15 47.85 41.2833 48.95 41.55C50.0667 41.8 51.0583 42.175 51.925 42.675L50.4 46.35C49.5667 45.9 48.7417 45.5667 47.925 45.35C47.1083 45.1167 46.3167 45 45.55 45C44.8667 45 44.3167 45.075 43.9 45.225C43.4833 45.3583 43.1833 45.5417 43 45.775C42.8167 46.0083 42.725 46.275 42.725 46.575C42.725 46.9583 42.9 47.2667 43.25 47.5C43.6167 47.7167 44.0917 47.9 44.675 48.05C45.275 48.1833 45.925 48.325 46.625 48.475C47.3417 48.625 48.05 48.8167 48.75 49.05C49.4667 49.2667 50.1167 49.5667 50.7 49.95C51.2833 50.3167 51.75 50.8083 52.1 51.425C52.4667 52.025 52.65 52.7833 52.65 53.7C52.65 54.7167 52.3583 55.6583 51.775 56.525C51.2083 57.375 50.35 58.0583 49.2 58.575C48.0667 59.0917 46.6333 59.35 44.9 59.35ZM54.7115 59V45.45H59.4615V59H54.7115ZM57.0865 43.95C56.2199 43.95 55.5199 43.7083 54.9865 43.225C54.4532 42.7417 54.1865 42.1417 54.1865 41.425C54.1865 40.7083 54.4532 40.1083 54.9865 39.625C55.5199 39.1417 56.2199 38.9 57.0865 38.9C57.9532 38.9 58.6532 39.1333 59.1865 39.6C59.7199 40.05 59.9865 40.6333 59.9865 41.35C59.9865 42.1 59.7199 42.725 59.1865 43.225C58.6699 43.7083 57.9699 43.95 57.0865 43.95ZM80.1984 45.225C81.2484 45.225 82.1818 45.4417 82.9984 45.875C83.8318 46.2917 84.4818 46.9417 84.9484 47.825C85.4318 48.7083 85.6734 49.85 85.6734 51.25V59H80.9234V52.025C80.9234 51.0583 80.7401 50.3583 80.3734 49.925C80.0068 49.475 79.5068 49.25 78.8734 49.25C78.4234 49.25 78.0151 49.3583 77.6484 49.575C77.2818 49.7917 76.9984 50.125 76.7984 50.575C76.5984 51.0083 76.4984 51.575 76.4984 52.275V59H71.7484V52.025C71.7484 51.0583 71.5651 50.3583 71.1984 49.925C70.8484 49.475 70.3484 49.25 69.6984 49.25C69.2318 49.25 68.8151 49.3583 68.4484 49.575C68.0984 49.7917 67.8151 50.125 67.5984 50.575C67.3984 51.0083 67.2984 51.575 67.2984 52.275V59H62.5484V45.45H67.0734V49.225L66.1734 48.15C66.6734 47.1833 67.3568 46.4583 68.2234 45.975C69.0901 45.475 70.0568 45.225 71.1234 45.225C72.3401 45.225 73.4068 45.5417 74.3234 46.175C75.2568 46.7917 75.8818 47.7583 76.1984 49.075L74.6484 48.75C75.1318 47.65 75.8568 46.7917 76.8234 46.175C77.8068 45.5417 78.9318 45.225 80.1984 45.225ZM95.6424 59.225C94.159 59.225 92.8424 58.925 91.6924 58.325C90.5424 57.725 89.634 56.9 88.9674 55.85C88.3174 54.7833 87.9924 53.5667 87.9924 52.2C87.9924 50.8333 88.3174 49.625 88.9674 48.575C89.634 47.525 90.5424 46.7083 91.6924 46.125C92.8424 45.525 94.159 45.225 95.6424 45.225C97.1257 45.225 98.4424 45.525 99.5924 46.125C100.759 46.7083 101.667 47.525 102.317 48.575C102.967 49.625 103.292 50.8333 103.292 52.2C103.292 53.5667 102.967 54.7833 102.317 55.85C101.667 56.9 100.759 57.725 99.5924 58.325C98.4424 58.925 97.1257 59.225 95.6424 59.225ZM95.6424 55.45C96.1924 55.45 96.6757 55.325 97.0924 55.075C97.5257 54.825 97.8674 54.4583 98.1174 53.975C98.3674 53.475 98.4924 52.8833 98.4924 52.2C98.4924 51.5167 98.3674 50.9417 98.1174 50.475C97.8674 49.9917 97.5257 49.625 97.0924 49.375C96.6757 49.125 96.1924 49 95.6424 49C95.109 49 94.6257 49.125 94.1924 49.375C93.7757 49.625 93.434 49.9917 93.1674 50.475C92.9174 50.9417 92.7924 51.5167 92.7924 52.2C92.7924 52.8833 92.9174 53.475 93.1674 53.975C93.434 54.4583 93.7757 54.825 94.1924 55.075C94.6257 55.325 95.109 55.45 95.6424 55.45ZM114.318 45.225C115.368 45.225 116.318 45.4417 117.168 45.875C118.018 46.2917 118.684 46.9417 119.168 47.825C119.668 48.7083 119.918 49.85 119.918 51.25V59H115.168V52.025C115.168 51.0583 114.968 50.3583 114.568 49.925C114.184 49.475 113.643 49.25 112.943 49.25C112.443 49.25 111.984 49.3667 111.568 49.6C111.151 49.8167 110.826 50.1583 110.593 50.625C110.359 51.0917 110.243 51.7 110.243 52.45V59H105.493V45.45H110.018V49.3L109.143 48.175C109.659 47.1917 110.368 46.4583 111.268 45.975C112.168 45.475 113.184 45.225 114.318 45.225ZM130.171 59.225C128.571 59.225 127.171 58.925 125.971 58.325C124.788 57.7083 123.863 56.875 123.196 55.825C122.546 54.7583 122.221 53.55 122.221 52.2C122.221 50.85 122.538 49.65 123.171 48.6C123.821 47.5333 124.713 46.7083 125.846 46.125C126.979 45.525 128.254 45.225 129.671 45.225C131.004 45.225 132.221 45.5 133.321 46.05C134.421 46.5833 135.296 47.375 135.946 48.425C136.596 49.475 136.921 50.75 136.921 52.25C136.921 52.4167 136.913 52.6083 136.896 52.825C136.879 53.0417 136.863 53.2417 136.846 53.425H126.121V50.925H134.321L132.521 51.625C132.538 51.0083 132.421 50.475 132.171 50.025C131.938 49.575 131.604 49.225 131.171 48.975C130.754 48.725 130.263 48.6 129.696 48.6C129.129 48.6 128.629 48.725 128.196 48.975C127.779 49.225 127.454 49.5833 127.221 50.05C126.988 50.5 126.871 51.0333 126.871 51.65V52.375C126.871 53.0417 127.004 53.6167 127.271 54.1C127.554 54.5833 127.954 54.9583 128.471 55.225C128.988 55.475 129.604 55.6 130.321 55.6C130.988 55.6 131.554 55.5083 132.021 55.325C132.504 55.125 132.979 54.825 133.446 54.425L135.946 57.025C135.296 57.7417 134.496 58.2917 133.546 58.675C132.596 59.0417 131.471 59.225 130.171 59.225ZM144.511 59L152.236 41.5H157.111L164.861 59H159.711L153.661 43.925H155.611L149.561 59H144.511ZM148.736 55.6L150.011 51.95H158.561L159.836 55.6H148.736ZM169.082 59L163.507 45.45H168.382L172.832 56.775H170.382L175.057 45.45H179.582L173.982 59H169.082ZM188.621 59V56.475L188.296 55.85V51.2C188.296 50.45 188.063 49.875 187.596 49.475C187.146 49.0583 186.421 48.85 185.421 48.85C184.771 48.85 184.113 48.9583 183.446 49.175C182.78 49.375 182.213 49.6583 181.746 50.025L180.146 46.8C180.913 46.3 181.83 45.9167 182.896 45.65C183.98 45.3667 185.055 45.225 186.121 45.225C188.321 45.225 190.021 45.7333 191.221 46.75C192.438 47.75 193.046 49.325 193.046 51.475V59H188.621ZM184.621 59.225C183.538 59.225 182.621 59.0417 181.871 58.675C181.121 58.3083 180.546 57.8083 180.146 57.175C179.763 56.5417 179.571 55.8333 179.571 55.05C179.571 54.2167 179.78 53.5 180.196 52.9C180.63 52.2833 181.288 51.8167 182.171 51.5C183.055 51.1667 184.196 51 185.596 51H188.796V53.475H186.246C185.48 53.475 184.938 53.6 184.621 53.85C184.321 54.1 184.171 54.4333 184.171 54.85C184.171 55.2667 184.33 55.6 184.646 55.85C184.963 56.1 185.396 56.225 185.946 56.225C186.463 56.225 186.93 56.1 187.346 55.85C187.78 55.5833 188.096 55.1833 188.296 54.65L188.946 56.4C188.696 57.3333 188.205 58.0417 187.471 58.525C186.755 58.9917 185.805 59.225 184.621 59.225ZM196.045 59V40.45H200.795V59H196.045ZM203.881 59V40.45H208.631V59H203.881ZM218.518 59.225C217.035 59.225 215.718 58.925 214.568 58.325C213.418 57.725 212.51 56.9 211.843 55.85C211.193 54.7833 210.868 53.5667 210.868 52.2C210.868 50.8333 211.193 49.625 211.843 48.575C212.51 47.525 213.418 46.7083 214.568 46.125C215.718 45.525 217.035 45.225 218.518 45.225C220.002 45.225 221.318 45.525 222.468 46.125C223.635 46.7083 224.543 47.525 225.193 48.575C225.843 49.625 226.168 50.8333 226.168 52.2C226.168 53.5667 225.843 54.7833 225.193 55.85C224.543 56.9 223.635 57.725 222.468 58.325C221.318 58.925 220.002 59.225 218.518 59.225ZM218.518 55.45C219.068 55.45 219.552 55.325 219.968 55.075C220.402 54.825 220.743 54.4583 220.993 53.975C221.243 53.475 221.368 52.8833 221.368 52.2C221.368 51.5167 221.243 50.9417 220.993 50.475C220.743 49.9917 220.402 49.625 219.968 49.375C219.552 49.125 219.068 49 218.518 49C217.985 49 217.502 49.125 217.068 49.375C216.652 49.625 216.31 49.9917 216.043 50.475C215.793 50.9417 215.668 51.5167 215.668 52.2C215.668 52.8833 215.793 53.475 216.043 53.975C216.31 54.4583 216.652 54.825 217.068 55.075C217.502 55.325 217.985 55.45 218.518 55.45ZM237.194 45.225C238.244 45.225 239.194 45.4417 240.044 45.875C240.894 46.2917 241.56 46.9417 242.044 47.825C242.544 48.7083 242.794 49.85 242.794 51.25V59H238.044V52.025C238.044 51.0583 237.844 50.3583 237.444 49.925C237.06 49.475 236.519 49.25 235.819 49.25C235.319 49.25 234.86 49.3667 234.444 49.6C234.027 49.8167 233.702 50.1583 233.469 50.625C233.235 51.0917 233.119 51.7 233.119 52.45V59H228.369V45.45H232.894V49.3L232.019 48.175C232.535 47.1917 233.244 46.4583 234.144 45.975C235.044 45.475 236.06 45.225 237.194 45.225ZM253.047 59.225C251.447 59.225 250.047 58.925 248.847 58.325C247.664 57.7083 246.739 56.875 246.072 55.825C245.422 54.7583 245.097 53.55 245.097 52.2C245.097 50.85 245.414 49.65 246.047 48.6C246.697 47.5333 247.589 46.7083 248.722 46.125C249.855 45.525 251.13 45.225 252.547 45.225C253.88 45.225 255.097 45.5 256.197 46.05C257.297 46.5833 258.172 47.375 258.822 48.425C259.472 49.475 259.797 50.75 259.797 52.25C259.797 52.4167 259.789 52.6083 259.772 52.825C259.755 53.0417 259.739 53.2417 259.722 53.425H248.997V50.925H257.197L255.397 51.625C255.414 51.0083 255.297 50.475 255.047 50.025C254.814 49.575 254.48 49.225 254.047 48.975C253.63 48.725 253.139 48.6 252.572 48.6C252.005 48.6 251.505 48.725 251.072 48.975C250.655 49.225 250.33 49.5833 250.097 50.05C249.864 50.5 249.747 51.0333 249.747 51.65V52.375C249.747 53.0417 249.88 53.6167 250.147 54.1C250.43 54.5833 250.83 54.9583 251.347 55.225C251.864 55.475 252.48 55.6 253.197 55.6C253.864 55.6 254.43 55.5083 254.897 55.325C255.38 55.125 255.855 54.825 256.322 54.425L258.822 57.025C258.172 57.7417 257.372 58.2917 256.422 58.675C255.472 59.0417 254.347 59.225 253.047 59.225Z" fill="#4EC79F"/>
<path d="M44.275 84L39.79 73.5H43L46.78 82.59H44.89L48.76 73.5H51.7L47.2 84H44.275ZM52.3847 84V75.87H55.2347V84H52.3847ZM53.8097 74.97C53.2897 74.97 52.8697 74.825 52.5497 74.535C52.2297 74.245 52.0697 73.885 52.0697 73.455C52.0697 73.025 52.2297 72.665 52.5497 72.375C52.8697 72.085 53.2897 71.94 53.8097 71.94C54.3297 71.94 54.7497 72.08 55.0697 72.36C55.3897 72.63 55.5497 72.98 55.5497 73.41C55.5497 73.86 55.3897 74.235 55.0697 74.535C54.7597 74.825 54.3397 74.97 53.8097 74.97ZM61.2419 84.135C60.3419 84.135 59.5369 83.955 58.8269 83.595C58.1269 83.235 57.5769 82.74 57.1769 82.11C56.7769 81.47 56.5769 80.74 56.5769 79.92C56.5769 79.1 56.7769 78.375 57.1769 77.745C57.5769 77.115 58.1269 76.625 58.8269 76.275C59.5369 75.915 60.3419 75.735 61.2419 75.735C62.1619 75.735 62.9569 75.93 63.6269 76.32C64.2969 76.71 64.7719 77.26 65.0519 77.97L62.8469 79.095C62.6569 78.715 62.4219 78.44 62.1419 78.27C61.8619 78.09 61.5569 78 61.2269 78C60.8969 78 60.5969 78.075 60.3269 78.225C60.0569 78.375 59.8419 78.595 59.6819 78.885C59.5319 79.165 59.4569 79.51 59.4569 79.92C59.4569 80.34 59.5319 80.695 59.6819 80.985C59.8419 81.275 60.0569 81.495 60.3269 81.645C60.5969 81.795 60.8969 81.87 61.2269 81.87C61.5569 81.87 61.8619 81.785 62.1419 81.615C62.4219 81.435 62.6569 81.155 62.8469 80.775L65.0519 81.9C64.7719 82.61 64.2969 83.16 63.6269 83.55C62.9569 83.94 62.1619 84.135 61.2419 84.135ZM70.2971 84.135C69.3371 84.135 68.4971 83.955 67.7771 83.595C67.0671 83.225 66.5121 82.725 66.1121 82.095C65.7221 81.455 65.5271 80.73 65.5271 79.92C65.5271 79.11 65.7171 78.39 66.0971 77.76C66.4871 77.12 67.0221 76.625 67.7021 76.275C68.3821 75.915 69.1471 75.735 69.9971 75.735C70.7971 75.735 71.5271 75.9 72.1871 76.23C72.8471 76.55 73.3721 77.025 73.7621 77.655C74.1521 78.285 74.3471 79.05 74.3471 79.95C74.3471 80.05 74.3421 80.165 74.3321 80.295C74.3221 80.425 74.3121 80.545 74.3021 80.655H67.8671V79.155H72.7871L71.7071 79.575C71.7171 79.205 71.6471 78.885 71.4971 78.615C71.3571 78.345 71.1571 78.135 70.8971 77.985C70.6471 77.835 70.3521 77.76 70.0121 77.76C69.6721 77.76 69.3721 77.835 69.1121 77.985C68.8621 78.135 68.6671 78.35 68.5271 78.63C68.3871 78.9 68.3171 79.22 68.3171 79.59V80.025C68.3171 80.425 68.3971 80.77 68.5571 81.06C68.7271 81.35 68.9671 81.575 69.2771 81.735C69.5871 81.885 69.9571 81.96 70.3871 81.96C70.7871 81.96 71.1271 81.905 71.4071 81.795C71.6971 81.675 71.9821 81.495 72.2621 81.255L73.7621 82.815C73.3721 83.245 72.8921 83.575 72.3221 83.805C71.7521 84.025 71.0771 84.135 70.2971 84.135ZM80.7761 84.135C80.0861 84.135 79.4961 83.985 79.0061 83.685C78.5161 83.375 78.1411 82.915 77.8811 82.305C77.6311 81.685 77.5061 80.895 77.5061 79.935C77.5061 78.965 77.6261 78.175 77.8661 77.565C78.1061 76.945 78.4661 76.485 78.9461 76.185C79.4361 75.885 80.0461 75.735 80.7761 75.735C81.5161 75.735 82.1861 75.91 82.7861 76.26C83.3961 76.6 83.8761 77.085 84.2261 77.715C84.5861 78.335 84.7661 79.075 84.7661 79.935C84.7661 80.795 84.5861 81.54 84.2261 82.17C83.8761 82.8 83.3961 83.285 82.7861 83.625C82.1861 83.965 81.5161 84.135 80.7761 84.135ZM75.6611 86.91V75.87H78.3761V77.25L78.3611 79.935L78.5111 82.635V86.91H75.6611ZM80.1761 81.87C80.4961 81.87 80.7811 81.795 81.0311 81.645C81.2911 81.495 81.4961 81.275 81.6461 80.985C81.8061 80.695 81.8861 80.345 81.8861 79.935C81.8861 79.525 81.8061 79.175 81.6461 78.885C81.4961 78.595 81.2911 78.375 81.0311 78.225C80.7811 78.075 80.4961 78 80.1761 78C79.8561 78 79.5661 78.075 79.3061 78.225C79.0561 78.375 78.8511 78.595 78.6911 78.885C78.5411 79.175 78.4661 79.525 78.4661 79.935C78.4661 80.345 78.5411 80.695 78.6911 80.985C78.8511 81.275 79.0561 81.495 79.3061 81.645C79.5661 81.795 79.8561 81.87 80.1761 81.87ZM86.0908 84V75.87H88.8058V78.24L88.4008 77.565C88.6408 76.955 89.0308 76.5 89.5708 76.2C90.1108 75.89 90.7658 75.735 91.5358 75.735V78.3C91.4058 78.28 91.2908 78.27 91.1908 78.27C91.1008 78.26 91.0008 78.255 90.8908 78.255C90.3108 78.255 89.8408 78.415 89.4808 78.735C89.1208 79.045 88.9408 79.555 88.9408 80.265V84H86.0908ZM96.8986 84.135C95.9386 84.135 95.0986 83.955 94.3786 83.595C93.6686 83.225 93.1136 82.725 92.7136 82.095C92.3236 81.455 92.1286 80.73 92.1286 79.92C92.1286 79.11 92.3186 78.39 92.6986 77.76C93.0886 77.12 93.6236 76.625 94.3036 76.275C94.9836 75.915 95.7486 75.735 96.5986 75.735C97.3986 75.735 98.1286 75.9 98.7886 76.23C99.4486 76.55 99.9736 77.025 100.364 77.655C100.754 78.285 100.949 79.05 100.949 79.95C100.949 80.05 100.944 80.165 100.934 80.295C100.924 80.425 100.914 80.545 100.904 80.655H94.4686V79.155H99.3886L98.3086 79.575C98.3186 79.205 98.2486 78.885 98.0986 78.615C97.9586 78.345 97.7586 78.135 97.4986 77.985C97.2486 77.835 96.9536 77.76 96.6136 77.76C96.2736 77.76 95.9736 77.835 95.7136 77.985C95.4636 78.135 95.2686 78.35 95.1286 78.63C94.9886 78.9 94.9186 79.22 94.9186 79.59V80.025C94.9186 80.425 94.9986 80.77 95.1586 81.06C95.3286 81.35 95.5686 81.575 95.8786 81.735C96.1886 81.885 96.5586 81.96 96.9886 81.96C97.3886 81.96 97.7286 81.905 98.0086 81.795C98.2986 81.675 98.5836 81.495 98.8636 81.255L100.364 82.815C99.9736 83.245 99.4936 83.575 98.9236 83.805C98.3536 84.025 97.6786 84.135 96.8986 84.135ZM105.218 84.135C104.528 84.135 103.853 84.055 103.193 83.895C102.543 83.735 102.018 83.535 101.618 83.295L102.473 81.345C102.853 81.575 103.298 81.76 103.808 81.9C104.318 82.03 104.818 82.095 105.308 82.095C105.788 82.095 106.118 82.045 106.298 81.945C106.488 81.845 106.583 81.71 106.583 81.54C106.583 81.38 106.493 81.265 106.313 81.195C106.143 81.115 105.913 81.055 105.623 81.015C105.343 80.975 105.033 80.93 104.693 80.88C104.353 80.83 104.008 80.765 103.658 80.685C103.318 80.595 103.003 80.465 102.713 80.295C102.433 80.115 102.208 79.875 102.038 79.575C101.868 79.275 101.783 78.895 101.783 78.435C101.783 77.915 101.933 77.455 102.233 77.055C102.543 76.645 102.993 76.325 103.583 76.095C104.173 75.855 104.893 75.735 105.743 75.735C106.313 75.735 106.888 75.795 107.468 75.915C108.058 76.025 108.553 76.195 108.953 76.425L108.098 78.36C107.698 78.13 107.298 77.975 106.898 77.895C106.498 77.805 106.118 77.76 105.758 77.76C105.278 77.76 104.938 77.815 104.738 77.925C104.548 78.035 104.453 78.17 104.453 78.33C104.453 78.49 104.538 78.615 104.708 78.705C104.878 78.785 105.103 78.85 105.383 78.9C105.673 78.94 105.988 78.985 106.328 79.035C106.668 79.075 107.008 79.14 107.348 79.23C107.698 79.32 108.013 79.455 108.293 79.635C108.583 79.805 108.813 80.04 108.983 80.34C109.153 80.63 109.238 81.005 109.238 81.465C109.238 81.965 109.083 82.415 108.773 82.815C108.473 83.215 108.023 83.535 107.423 83.775C106.833 84.015 106.098 84.135 105.218 84.135ZM110.466 84V75.87H113.316V84H110.466ZM111.891 74.97C111.371 74.97 110.951 74.825 110.631 74.535C110.311 74.245 110.151 73.885 110.151 73.455C110.151 73.025 110.311 72.665 110.631 72.375C110.951 72.085 111.371 71.94 111.891 71.94C112.411 71.94 112.831 72.08 113.151 72.36C113.471 72.63 113.631 72.98 113.631 73.41C113.631 73.86 113.471 74.235 113.151 74.535C112.841 74.825 112.421 74.97 111.891 74.97ZM118.708 84.135C117.968 84.135 117.293 83.965 116.683 83.625C116.083 83.275 115.603 82.79 115.243 82.17C114.883 81.54 114.703 80.79 114.703 79.92C114.703 79.06 114.883 78.32 115.243 77.7C115.603 77.07 116.083 76.585 116.683 76.245C117.293 75.905 117.968 75.735 118.708 75.735C119.408 75.735 119.998 75.885 120.478 76.185C120.968 76.485 121.338 76.945 121.588 77.565C121.838 78.185 121.963 78.97 121.963 79.92C121.963 80.89 121.843 81.685 121.603 82.305C121.363 82.925 121.003 83.385 120.523 83.685C120.043 83.985 119.438 84.135 118.708 84.135ZM119.308 81.87C119.628 81.87 119.913 81.795 120.163 81.645C120.423 81.495 120.628 81.275 120.778 80.985C120.928 80.685 121.003 80.33 121.003 79.92C121.003 79.51 120.928 79.165 120.778 78.885C120.628 78.595 120.423 78.375 120.163 78.225C119.913 78.075 119.628 78 119.308 78C118.978 78 118.683 78.075 118.423 78.225C118.173 78.375 117.973 78.595 117.823 78.885C117.673 79.165 117.598 79.51 117.598 79.92C117.598 80.33 117.673 80.685 117.823 80.985C117.973 81.275 118.173 81.495 118.423 81.645C118.683 81.795 118.978 81.87 119.308 81.87ZM121.093 84V82.605L121.108 79.92L120.958 77.235V72.87H123.808V84H121.093ZM129.902 84.135C128.942 84.135 128.102 83.955 127.382 83.595C126.672 83.225 126.117 82.725 125.717 82.095C125.327 81.455 125.132 80.73 125.132 79.92C125.132 79.11 125.322 78.39 125.702 77.76C126.092 77.12 126.627 76.625 127.307 76.275C127.987 75.915 128.752 75.735 129.602 75.735C130.402 75.735 131.132 75.9 131.792 76.23C132.452 76.55 132.977 77.025 133.367 77.655C133.757 78.285 133.952 79.05 133.952 79.95C133.952 80.05 133.947 80.165 133.937 80.295C133.927 80.425 133.917 80.545 133.907 80.655H127.472V79.155H132.392L131.312 79.575C131.322 79.205 131.252 78.885 131.102 78.615C130.962 78.345 130.762 78.135 130.502 77.985C130.252 77.835 129.957 77.76 129.617 77.76C129.277 77.76 128.977 77.835 128.717 77.985C128.467 78.135 128.272 78.35 128.132 78.63C127.992 78.9 127.922 79.22 127.922 79.59V80.025C127.922 80.425 128.002 80.77 128.162 81.06C128.332 81.35 128.572 81.575 128.882 81.735C129.192 81.885 129.562 81.96 129.992 81.96C130.392 81.96 130.732 81.905 131.012 81.795C131.302 81.675 131.587 81.495 131.867 81.255L133.367 82.815C132.977 83.245 132.497 83.575 131.927 83.805C131.357 84.025 130.682 84.135 129.902 84.135ZM140.561 75.735C141.191 75.735 141.761 75.865 142.271 76.125C142.781 76.375 143.181 76.765 143.471 77.295C143.771 77.825 143.921 78.51 143.921 79.35V84H141.071V79.815C141.071 79.235 140.951 78.815 140.711 78.555C140.481 78.285 140.156 78.15 139.736 78.15C139.436 78.15 139.161 78.22 138.911 78.36C138.661 78.49 138.466 78.695 138.326 78.975C138.186 79.255 138.116 79.62 138.116 80.07V84H135.266V75.87H137.981V78.18L137.456 77.505C137.766 76.915 138.191 76.475 138.731 76.185C139.271 75.885 139.881 75.735 140.561 75.735ZM149.34 84.135C148.3 84.135 147.49 83.88 146.91 83.37C146.33 82.85 146.04 82.07 146.04 81.03V74.055H148.89V81C148.89 81.29 148.97 81.52 149.13 81.69C149.29 81.85 149.495 81.93 149.745 81.93C150.085 81.93 150.375 81.845 150.615 81.675L151.32 83.67C151.08 83.83 150.785 83.945 150.435 84.015C150.085 84.095 149.72 84.135 149.34 84.135ZM144.855 78.3V76.17H150.75V78.3H144.855ZM156.445 84.135C155.485 84.135 154.645 83.955 153.925 83.595C153.215 83.225 152.66 82.725 152.26 82.095C151.87 81.455 151.675 80.73 151.675 79.92C151.675 79.11 151.865 78.39 152.245 77.76C152.635 77.12 153.17 76.625 153.85 76.275C154.53 75.915 155.295 75.735 156.145 75.735C156.945 75.735 157.675 75.9 158.335 76.23C158.995 76.55 159.52 77.025 159.91 77.655C160.3 78.285 160.495 79.05 160.495 79.95C160.495 80.05 160.49 80.165 160.48 80.295C160.47 80.425 160.46 80.545 160.45 80.655H154.015V79.155H158.935L157.855 79.575C157.865 79.205 157.795 78.885 157.645 78.615C157.505 78.345 157.305 78.135 157.045 77.985C156.795 77.835 156.5 77.76 156.16 77.76C155.82 77.76 155.52 77.835 155.26 77.985C155.01 78.135 154.815 78.35 154.675 78.63C154.535 78.9 154.465 79.22 154.465 79.59V80.025C154.465 80.425 154.545 80.77 154.705 81.06C154.875 81.35 155.115 81.575 155.425 81.735C155.735 81.885 156.105 81.96 156.535 81.96C156.935 81.96 157.275 81.905 157.555 81.795C157.845 81.675 158.13 81.495 158.41 81.255L159.91 82.815C159.52 83.245 159.04 83.575 158.47 83.805C157.9 84.025 157.225 84.135 156.445 84.135ZM169.999 84.21C169.139 84.21 168.309 84.105 167.509 83.895C166.719 83.675 166.074 83.395 165.574 83.055L166.549 80.865C167.019 81.165 167.559 81.415 168.169 81.615C168.789 81.805 169.404 81.9 170.014 81.9C170.424 81.9 170.754 81.865 171.004 81.795C171.254 81.715 171.434 81.615 171.544 81.495C171.664 81.365 171.724 81.215 171.724 81.045C171.724 80.805 171.614 80.615 171.394 80.475C171.174 80.335 170.889 80.22 170.539 80.13C170.189 80.04 169.799 79.95 169.369 79.86C168.949 79.77 168.524 79.655 168.094 79.515C167.674 79.375 167.289 79.195 166.939 78.975C166.589 78.745 166.304 78.45 166.084 78.09C165.864 77.72 165.754 77.255 165.754 76.695C165.754 76.065 165.924 75.495 166.264 74.985C166.614 74.475 167.134 74.065 167.824 73.755C168.514 73.445 169.374 73.29 170.404 73.29C171.094 73.29 171.769 73.37 172.429 73.53C173.099 73.68 173.694 73.905 174.214 74.205L173.299 76.41C172.799 76.14 172.304 75.94 171.814 75.81C171.324 75.67 170.849 75.6 170.389 75.6C169.979 75.6 169.649 75.645 169.399 75.735C169.149 75.815 168.969 75.925 168.859 76.065C168.749 76.205 168.694 76.365 168.694 76.545C168.694 76.775 168.799 76.96 169.009 77.1C169.229 77.23 169.514 77.34 169.864 77.43C170.224 77.51 170.614 77.595 171.034 77.685C171.464 77.775 171.889 77.89 172.309 78.03C172.739 78.16 173.129 78.34 173.479 78.57C173.829 78.79 174.109 79.085 174.319 79.455C174.539 79.815 174.649 80.27 174.649 80.82C174.649 81.43 174.474 81.995 174.124 82.515C173.784 83.025 173.269 83.435 172.579 83.745C171.899 84.055 171.039 84.21 169.999 84.21ZM178.781 78.105H183.626V80.4H178.781V78.105ZM178.991 84H176.021V73.5H184.256V75.795H178.991V84ZM195.245 84.21C194.415 84.21 193.645 84.08 192.935 83.82C192.235 83.55 191.625 83.17 191.105 82.68C190.595 82.19 190.195 81.615 189.905 80.955C189.615 80.285 189.47 79.55 189.47 78.75C189.47 77.95 189.615 77.22 189.905 76.56C190.195 75.89 190.595 75.31 191.105 74.82C191.625 74.33 192.235 73.955 192.935 73.695C193.645 73.425 194.415 73.29 195.245 73.29C196.215 73.29 197.08 73.46 197.84 73.8C198.61 74.14 199.25 74.63 199.76 75.27L197.87 76.98C197.53 76.58 197.155 76.275 196.745 76.065C196.345 75.855 195.895 75.75 195.395 75.75C194.965 75.75 194.57 75.82 194.21 75.96C193.85 76.1 193.54 76.305 193.28 76.575C193.03 76.835 192.83 77.15 192.68 77.52C192.54 77.89 192.47 78.3 192.47 78.75C192.47 79.2 192.54 79.61 192.68 79.98C192.83 80.35 193.03 80.67 193.28 80.94C193.54 81.2 193.85 81.4 194.21 81.54C194.57 81.68 194.965 81.75 195.395 81.75C195.895 81.75 196.345 81.645 196.745 81.435C197.155 81.225 197.53 80.92 197.87 80.52L199.76 82.23C199.25 82.86 198.61 83.35 197.84 83.7C197.08 84.04 196.215 84.21 195.245 84.21ZM200.949 84V72.87H203.799V84H200.949ZM209.071 84.135C208.411 84.135 207.816 84.005 207.286 83.745C206.766 83.485 206.356 83.08 206.056 82.53C205.766 81.97 205.621 81.265 205.621 80.415V75.87H208.471V79.95C208.471 80.58 208.586 81.03 208.816 81.3C209.056 81.57 209.391 81.705 209.821 81.705C210.101 81.705 210.356 81.64 210.586 81.51C210.816 81.38 211.001 81.175 211.141 80.895C211.281 80.605 211.351 80.235 211.351 79.785V75.87H214.201V84H211.486V81.705L212.011 82.35C211.731 82.95 211.326 83.4 210.796 83.7C210.266 83.99 209.691 84.135 209.071 84.135ZM221.152 84.135C220.422 84.135 219.812 83.985 219.322 83.685C218.842 83.385 218.482 82.925 218.242 82.305C218.002 81.685 217.882 80.89 217.882 79.92C217.882 78.97 218.007 78.185 218.257 77.565C218.517 76.945 218.892 76.485 219.382 76.185C219.872 75.885 220.462 75.735 221.152 75.735C221.892 75.735 222.562 75.905 223.162 76.245C223.772 76.585 224.252 77.07 224.602 77.7C224.962 78.32 225.142 79.06 225.142 79.92C225.142 80.79 224.962 81.54 224.602 82.17C224.252 82.79 223.772 83.275 223.162 83.625C222.562 83.965 221.892 84.135 221.152 84.135ZM216.037 84V72.87H218.887V77.235L218.737 79.92L218.752 82.605V84H216.037ZM220.552 81.87C220.872 81.87 221.157 81.795 221.407 81.645C221.667 81.495 221.872 81.275 222.022 80.985C222.182 80.685 222.262 80.33 222.262 79.92C222.262 79.51 222.182 79.165 222.022 78.885C221.872 78.595 221.667 78.375 221.407 78.225C221.157 78.075 220.872 78 220.552 78C220.232 78 219.942 78.075 219.682 78.225C219.432 78.375 219.227 78.595 219.067 78.885C218.917 79.165 218.842 79.51 218.842 79.92C218.842 80.33 218.917 80.685 219.067 80.985C219.227 81.275 219.432 81.495 219.682 81.645C219.942 81.795 220.232 81.87 220.552 81.87ZM44.74 102.21C43.88 102.21 43.05 102.105 42.25 101.895C41.46 101.675 40.815 101.395 40.315 101.055L41.29 98.865C41.76 99.165 42.3 99.415 42.91 99.615C43.53 99.805 44.145 99.9 44.755 99.9C45.165 99.9 45.495 99.865 45.745 99.795C45.995 99.715 46.175 99.615 46.285 99.495C46.405 99.365 46.465 99.215 46.465 99.045C46.465 98.805 46.355 98.615 46.135 98.475C45.915 98.335 45.63 98.22 45.28 98.13C44.93 98.04 44.54 97.95 44.11 97.86C43.69 97.77 43.265 97.655 42.835 97.515C42.415 97.375 42.03 97.195 41.68 96.975C41.33 96.745 41.045 96.45 40.825 96.09C40.605 95.72 40.495 95.255 40.495 94.695C40.495 94.065 40.665 93.495 41.005 92.985C41.355 92.475 41.875 92.065 42.565 91.755C43.255 91.445 44.115 91.29 45.145 91.29C45.835 91.29 46.51 91.37 47.17 91.53C47.84 91.68 48.435 91.905 48.955 92.205L48.04 94.41C47.54 94.14 47.045 93.94 46.555 93.81C46.065 93.67 45.59 93.6 45.13 93.6C44.72 93.6 44.39 93.645 44.14 93.735C43.89 93.815 43.71 93.925 43.6 94.065C43.49 94.205 43.435 94.365 43.435 94.545C43.435 94.775 43.54 94.96 43.75 95.1C43.97 95.23 44.255 95.34 44.605 95.43C44.965 95.51 45.355 95.595 45.775 95.685C46.205 95.775 46.63 95.89 47.05 96.03C47.48 96.16 47.87 96.34 48.22 96.57C48.57 96.79 48.85 97.085 49.06 97.455C49.28 97.815 49.39 98.27 49.39 98.82C49.39 99.43 49.215 99.995 48.865 100.515C48.525 101.025 48.01 101.435 47.32 101.745C46.64 102.055 45.78 102.21 44.74 102.21ZM54.2569 102.135C53.2169 102.135 52.4069 101.88 51.8269 101.37C51.2469 100.85 50.9569 100.07 50.9569 99.03V92.055H53.8069V99C53.8069 99.29 53.8869 99.52 54.0469 99.69C54.2069 99.85 54.4119 99.93 54.6619 99.93C55.0019 99.93 55.2919 99.845 55.5319 99.675L56.2369 101.67C55.9969 101.83 55.7019 101.945 55.3519 102.015C55.0019 102.095 54.6369 102.135 54.2569 102.135ZM49.7719 96.3V94.17H55.6669V96.3H49.7719ZM62.3009 102V100.485L62.1059 100.11V97.32C62.1059 96.87 61.9659 96.525 61.6859 96.285C61.4159 96.035 60.9809 95.91 60.3809 95.91C59.9909 95.91 59.5959 95.975 59.1959 96.105C58.7959 96.225 58.4559 96.395 58.1759 96.615L57.2159 94.68C57.6759 94.38 58.2259 94.15 58.8659 93.99C59.5159 93.82 60.1609 93.735 60.8009 93.735C62.1209 93.735 63.1409 94.04 63.8609 94.65C64.5909 95.25 64.9559 96.195 64.9559 97.485V102H62.3009ZM59.9009 102.135C59.2509 102.135 58.7009 102.025 58.2509 101.805C57.8009 101.585 57.4559 101.285 57.2159 100.905C56.9859 100.525 56.8709 100.1 56.8709 99.63C56.8709 99.13 56.9959 98.7 57.2459 98.34C57.5059 97.97 57.9009 97.69 58.4309 97.5C58.9609 97.3 59.6459 97.2 60.4859 97.2H62.4059V98.685H60.8759C60.4159 98.685 60.0909 98.76 59.9009 98.91C59.7209 99.06 59.6309 99.26 59.6309 99.51C59.6309 99.76 59.7259 99.96 59.9159 100.11C60.1059 100.26 60.3659 100.335 60.6959 100.335C61.0059 100.335 61.2859 100.26 61.5359 100.11C61.7959 99.95 61.9859 99.71 62.1059 99.39L62.4959 100.44C62.3459 101 62.0509 101.425 61.6109 101.715C61.1809 101.995 60.6109 102.135 59.9009 102.135ZM70.3848 102.135C69.3448 102.135 68.5348 101.88 67.9548 101.37C67.3748 100.85 67.0848 100.07 67.0848 99.03V92.055H69.9348V99C69.9348 99.29 70.0148 99.52 70.1748 99.69C70.3348 99.85 70.5398 99.93 70.7898 99.93C71.1298 99.93 71.4198 99.845 71.6598 99.675L72.3648 101.67C72.1248 101.83 71.8298 101.945 71.4798 102.015C71.1298 102.095 70.7648 102.135 70.3848 102.135ZM65.8998 96.3V94.17H71.7948V96.3H65.8998ZM78.4288 102V100.485L78.2338 100.11V97.32C78.2338 96.87 78.0938 96.525 77.8138 96.285C77.5438 96.035 77.1088 95.91 76.5088 95.91C76.1188 95.91 75.7238 95.975 75.3238 96.105C74.9238 96.225 74.5838 96.395 74.3038 96.615L73.3438 94.68C73.8038 94.38 74.3538 94.15 74.9938 93.99C75.6438 93.82 76.2888 93.735 76.9288 93.735C78.2488 93.735 79.2688 94.04 79.9888 94.65C80.7188 95.25 81.0838 96.195 81.0838 97.485V102H78.4288ZM76.0288 102.135C75.3788 102.135 74.8288 102.025 74.3788 101.805C73.9288 101.585 73.5838 101.285 73.3438 100.905C73.1138 100.525 72.9988 100.1 72.9988 99.63C72.9988 99.13 73.1238 98.7 73.3738 98.34C73.6338 97.97 74.0288 97.69 74.5588 97.5C75.0888 97.3 75.7738 97.2 76.6138 97.2H78.5338V98.685H77.0038C76.5438 98.685 76.2188 98.76 76.0288 98.91C75.8488 99.06 75.7588 99.26 75.7588 99.51C75.7588 99.76 75.8538 99.96 76.0438 100.11C76.2338 100.26 76.4938 100.335 76.8238 100.335C77.1338 100.335 77.4138 100.26 77.6638 100.11C77.9238 99.95 78.1138 99.71 78.2338 99.39L78.6238 100.44C78.4738 101 78.1788 101.425 77.7388 101.715C77.3088 101.995 76.7388 102.135 76.0288 102.135ZM82.8828 102V90.87H85.7328V102H82.8828ZM91.8449 102.135C90.8849 102.135 90.0449 101.955 89.3249 101.595C88.6149 101.225 88.0599 100.725 87.6599 100.095C87.2699 99.455 87.0749 98.73 87.0749 97.92C87.0749 97.11 87.2649 96.39 87.6449 95.76C88.0349 95.12 88.5699 94.625 89.2499 94.275C89.9299 93.915 90.6949 93.735 91.5449 93.735C92.3449 93.735 93.0749 93.9 93.7349 94.23C94.3949 94.55 94.9199 95.025 95.3099 95.655C95.6999 96.285 95.8949 97.05 95.8949 97.95C95.8949 98.05 95.8899 98.165 95.8799 98.295C95.8699 98.425 95.8599 98.545 95.8499 98.655H89.4149V97.155H94.3349L93.2549 97.575C93.2649 97.205 93.1949 96.885 93.0449 96.615C92.9049 96.345 92.7049 96.135 92.4449 95.985C92.1949 95.835 91.8999 95.76 91.5599 95.76C91.2199 95.76 90.9199 95.835 90.6599 95.985C90.4099 96.135 90.2149 96.35 90.0749 96.63C89.9349 96.9 89.8649 97.22 89.8649 97.59V98.025C89.8649 98.425 89.9449 98.77 90.1049 99.06C90.2749 99.35 90.5149 99.575 90.8249 99.735C91.1349 99.885 91.5049 99.96 91.9349 99.96C92.3349 99.96 92.6749 99.905 92.9549 99.795C93.2449 99.675 93.5299 99.495 93.8099 99.255L95.3099 100.815C94.9199 101.245 94.4399 101.575 93.8699 101.805C93.2999 102.025 92.6249 102.135 91.8449 102.135ZM105.309 102.21C104.509 102.21 103.794 102.085 103.164 101.835C102.534 101.575 102.034 101.22 101.664 100.77C101.304 100.32 101.124 99.815 101.124 99.255C101.124 98.705 101.244 98.215 101.484 97.785C101.734 97.355 102.114 96.96 102.624 96.6C103.144 96.24 103.804 95.895 104.604 95.565C105.134 95.335 105.549 95.13 105.849 94.95C106.149 94.77 106.359 94.6 106.479 94.44C106.609 94.27 106.674 94.1 106.674 93.93C106.674 93.72 106.604 93.55 106.464 93.42C106.324 93.29 106.114 93.225 105.834 93.225C105.544 93.225 105.314 93.3 105.144 93.45C104.984 93.6 104.904 93.785 104.904 94.005C104.904 94.135 104.929 94.265 104.979 94.395C105.039 94.525 105.149 94.675 105.309 94.845C105.479 95.015 105.714 95.235 106.014 95.505L111.549 100.425L110.019 102.18L103.779 96.615C103.439 96.315 103.159 96.025 102.939 95.745C102.729 95.465 102.569 95.185 102.459 94.905C102.359 94.625 102.309 94.34 102.309 94.05C102.309 93.51 102.454 93.04 102.744 92.64C103.034 92.23 103.444 91.915 103.974 91.695C104.504 91.465 105.124 91.35 105.834 91.35C106.484 91.35 107.049 91.45 107.529 91.65C108.019 91.85 108.399 92.14 108.669 92.52C108.939 92.9 109.074 93.35 109.074 93.87C109.074 94.33 108.954 94.75 108.714 95.13C108.484 95.51 108.124 95.86 107.634 96.18C107.154 96.5 106.539 96.815 105.789 97.125C105.329 97.315 104.959 97.505 104.679 97.695C104.409 97.885 104.214 98.08 104.094 98.28C103.974 98.47 103.914 98.69 103.914 98.94C103.914 99.14 103.979 99.325 104.109 99.495C104.239 99.665 104.424 99.8 104.664 99.9C104.904 99.99 105.189 100.035 105.519 100.035C106.099 100.035 106.634 99.895 107.124 99.615C107.614 99.325 108.034 98.905 108.384 98.355C108.744 97.805 108.989 97.14 109.119 96.36L111.414 97.05C111.194 98.08 110.794 98.98 110.214 99.75C109.644 100.52 108.939 101.125 108.099 101.565C107.269 101.995 106.339 102.21 105.309 102.21ZM124.374 91.5H127.344V102H124.374V91.5ZM120.324 102H117.354V91.5H120.324V102ZM124.584 97.905H120.114V95.445H124.584V97.905ZM133.564 102.135C132.604 102.135 131.764 101.955 131.044 101.595C130.334 101.225 129.779 100.725 129.379 100.095C128.989 99.455 128.794 98.73 128.794 97.92C128.794 97.11 128.984 96.39 129.364 95.76C129.754 95.12 130.289 94.625 130.969 94.275C131.649 93.915 132.414 93.735 133.264 93.735C134.064 93.735 134.794 93.9 135.454 94.23C136.114 94.55 136.639 95.025 137.029 95.655C137.419 96.285 137.614 97.05 137.614 97.95C137.614 98.05 137.609 98.165 137.599 98.295C137.589 98.425 137.579 98.545 137.569 98.655H131.134V97.155H136.054L134.974 97.575C134.984 97.205 134.914 96.885 134.764 96.615C134.624 96.345 134.424 96.135 134.164 95.985C133.914 95.835 133.619 95.76 133.279 95.76C132.939 95.76 132.639 95.835 132.379 95.985C132.129 96.135 131.934 96.35 131.794 96.63C131.654 96.9 131.584 97.22 131.584 97.59V98.025C131.584 98.425 131.664 98.77 131.824 99.06C131.994 99.35 132.234 99.575 132.544 99.735C132.854 99.885 133.224 99.96 133.654 99.96C134.054 99.96 134.394 99.905 134.674 99.795C134.964 99.675 135.249 99.495 135.529 99.255L137.029 100.815C136.639 101.245 136.159 101.575 135.589 101.805C135.019 102.025 134.344 102.135 133.564 102.135ZM143.673 102V100.485L143.478 100.11V97.32C143.478 96.87 143.338 96.525 143.058 96.285C142.788 96.035 142.353 95.91 141.753 95.91C141.363 95.91 140.968 95.975 140.568 96.105C140.168 96.225 139.828 96.395 139.548 96.615L138.588 94.68C139.048 94.38 139.598 94.15 140.238 93.99C140.888 93.82 141.533 93.735 142.173 93.735C143.493 93.735 144.513 94.04 145.233 94.65C145.963 95.25 146.328 96.195 146.328 97.485V102H143.673ZM141.273 102.135C140.623 102.135 140.073 102.025 139.623 101.805C139.173 101.585 138.828 101.285 138.588 100.905C138.358 100.525 138.243 100.1 138.243 99.63C138.243 99.13 138.368 98.7 138.618 98.34C138.878 97.97 139.273 97.69 139.803 97.5C140.333 97.3 141.018 97.2 141.858 97.2H143.778V98.685H142.248C141.788 98.685 141.463 98.76 141.273 98.91C141.093 99.06 141.003 99.26 141.003 99.51C141.003 99.76 141.098 99.96 141.288 100.11C141.478 100.26 141.738 100.335 142.068 100.335C142.378 100.335 142.658 100.26 142.908 100.11C143.168 99.95 143.358 99.71 143.478 99.39L143.868 100.44C143.718 101 143.423 101.425 142.983 101.715C142.553 101.995 141.983 102.135 141.273 102.135ZM151.769 102.135C151.029 102.135 150.354 101.965 149.744 101.625C149.144 101.275 148.664 100.79 148.304 100.17C147.944 99.54 147.764 98.79 147.764 97.92C147.764 97.06 147.944 96.32 148.304 95.7C148.664 95.07 149.144 94.585 149.744 94.245C150.354 93.905 151.029 93.735 151.769 93.735C152.469 93.735 153.059 93.885 153.539 94.185C154.029 94.485 154.399 94.945 154.649 95.565C154.899 96.185 155.024 96.97 155.024 97.92C155.024 98.89 154.904 99.685 154.664 100.305C154.424 100.925 154.064 101.385 153.584 101.685C153.104 101.985 152.499 102.135 151.769 102.135ZM152.369 99.87C152.689 99.87 152.974 99.795 153.224 99.645C153.484 99.495 153.689 99.275 153.839 98.985C153.989 98.685 154.064 98.33 154.064 97.92C154.064 97.51 153.989 97.165 153.839 96.885C153.689 96.595 153.484 96.375 153.224 96.225C152.974 96.075 152.689 96 152.369 96C152.039 96 151.744 96.075 151.484 96.225C151.234 96.375 151.034 96.595 150.884 96.885C150.734 97.165 150.659 97.51 150.659 97.92C150.659 98.33 150.734 98.685 150.884 98.985C151.034 99.275 151.234 99.495 151.484 99.645C151.744 99.795 152.039 99.87 152.369 99.87ZM154.154 102V100.605L154.169 97.92L154.019 95.235V90.87H156.869V102H154.154ZM161.943 102L166.578 91.5H169.503L174.153 102H171.063L167.433 92.955H168.603L164.973 102H161.943ZM164.478 99.96L165.243 97.77H170.373L171.138 99.96H164.478ZM174.86 102V93.87H177.575V96.24L177.17 95.565C177.41 94.955 177.8 94.5 178.34 94.2C178.88 93.89 179.535 93.735 180.305 93.735V96.3C180.175 96.28 180.06 96.27 179.96 96.27C179.87 96.26 179.77 96.255 179.66 96.255C179.08 96.255 178.61 96.415 178.25 96.735C177.89 97.045 177.71 97.555 177.71 98.265V102H174.86ZM185.668 102.135C184.708 102.135 183.868 101.955 183.148 101.595C182.438 101.225 181.883 100.725 181.483 100.095C181.093 99.455 180.898 98.73 180.898 97.92C180.898 97.11 181.088 96.39 181.468 95.76C181.858 95.12 182.393 94.625 183.073 94.275C183.753 93.915 184.518 93.735 185.368 93.735C186.168 93.735 186.898 93.9 187.558 94.23C188.218 94.55 188.743 95.025 189.133 95.655C189.523 96.285 189.718 97.05 189.718 97.95C189.718 98.05 189.713 98.165 189.703 98.295C189.693 98.425 189.683 98.545 189.673 98.655H183.238V97.155H188.158L187.078 97.575C187.088 97.205 187.018 96.885 186.868 96.615C186.728 96.345 186.528 96.135 186.268 95.985C186.018 95.835 185.723 95.76 185.383 95.76C185.043 95.76 184.743 95.835 184.483 95.985C184.233 96.135 184.038 96.35 183.898 96.63C183.758 96.9 183.688 97.22 183.688 97.59V98.025C183.688 98.425 183.768 98.77 183.928 99.06C184.098 99.35 184.338 99.575 184.648 99.735C184.958 99.885 185.328 99.96 185.758 99.96C186.158 99.96 186.498 99.905 186.778 99.795C187.068 99.675 187.353 99.495 187.633 99.255L189.133 100.815C188.743 101.245 188.263 101.575 187.693 101.805C187.123 102.025 186.448 102.135 185.668 102.135ZM195.777 102V100.485L195.582 100.11V97.32C195.582 96.87 195.442 96.525 195.162 96.285C194.892 96.035 194.457 95.91 193.857 95.91C193.467 95.91 193.072 95.975 192.672 96.105C192.272 96.225 191.932 96.395 191.652 96.615L190.692 94.68C191.152 94.38 191.702 94.15 192.342 93.99C192.992 93.82 193.637 93.735 194.277 93.735C195.597 93.735 196.617 94.04 197.337 94.65C198.067 95.25 198.432 96.195 198.432 97.485V102H195.777ZM193.377 102.135C192.727 102.135 192.177 102.025 191.727 101.805C191.277 101.585 190.932 101.285 190.692 100.905C190.462 100.525 190.347 100.1 190.347 99.63C190.347 99.13 190.472 98.7 190.722 98.34C190.982 97.97 191.377 97.69 191.907 97.5C192.437 97.3 193.122 97.2 193.962 97.2H195.882V98.685H194.352C193.892 98.685 193.567 98.76 193.377 98.91C193.197 99.06 193.107 99.26 193.107 99.51C193.107 99.76 193.202 99.96 193.392 100.11C193.582 100.26 193.842 100.335 194.172 100.335C194.482 100.335 194.762 100.26 195.012 100.11C195.272 99.95 195.462 99.71 195.582 99.39L195.972 100.44C195.822 101 195.527 101.425 195.087 101.715C194.657 101.995 194.087 102.135 193.377 102.135ZM207.462 95.565H212.337V97.785H207.462V95.565ZM207.672 99.705H213.162V102H204.732V91.5H212.967V93.795H207.672V99.705ZM216.91 102L213.565 93.87H216.49L219.16 100.665H217.69L220.495 93.87H223.21L219.85 102H216.91ZM227.988 102.135C227.028 102.135 226.188 101.955 225.468 101.595C224.758 101.225 224.203 100.725 223.802 100.095C223.413 99.455 223.218 98.73 223.218 97.92C223.218 97.11 223.408 96.39 223.788 95.76C224.178 95.12 224.713 94.625 225.393 94.275C226.073 93.915 226.838 93.735 227.688 93.735C228.488 93.735 229.218 93.9 229.878 94.23C230.538 94.55 231.063 95.025 231.453 95.655C231.843 96.285 232.038 97.05 232.038 97.95C232.038 98.05 232.033 98.165 232.023 98.295C232.013 98.425 232.003 98.545 231.993 98.655H225.558V97.155H230.478L229.398 97.575C229.408 97.205 229.338 96.885 229.188 96.615C229.048 96.345 228.848 96.135 228.588 95.985C228.338 95.835 228.043 95.76 227.703 95.76C227.363 95.76 227.063 95.835 226.803 95.985C226.553 96.135 226.358 96.35 226.218 96.63C226.078 96.9 226.008 97.22 226.008 97.59V98.025C226.008 98.425 226.088 98.77 226.248 99.06C226.418 99.35 226.658 99.575 226.968 99.735C227.278 99.885 227.648 99.96 228.078 99.96C228.478 99.96 228.818 99.905 229.098 99.795C229.388 99.675 229.673 99.495 229.953 99.255L231.453 100.815C231.063 101.245 230.583 101.575 230.013 101.805C229.443 102.025 228.768 102.135 227.988 102.135ZM238.647 93.735C239.277 93.735 239.847 93.865 240.357 94.125C240.867 94.375 241.267 94.765 241.557 95.295C241.857 95.825 242.007 96.51 242.007 97.35V102H239.157V97.815C239.157 97.235 239.037 96.815 238.797 96.555C238.567 96.285 238.242 96.15 237.822 96.15C237.522 96.15 237.247 96.22 236.997 96.36C236.747 96.49 236.552 96.695 236.412 96.975C236.272 97.255 236.202 97.62 236.202 98.07V102H233.352V93.87H236.067V96.18L235.542 95.505C235.852 94.915 236.277 94.475 236.817 94.185C237.357 93.885 237.967 93.735 238.647 93.735ZM247.426 102.135C246.386 102.135 245.576 101.88 244.996 101.37C244.416 100.85 244.126 100.07 244.126 99.03V92.055H246.976V99C246.976 99.29 247.056 99.52 247.216 99.69C247.376 99.85 247.581 99.93 247.831 99.93C248.171 99.93 248.461 99.845 248.701 99.675L249.406 101.67C249.166 101.83 248.871 101.945 248.521 102.015C248.171 102.095 247.806 102.135 247.426 102.135ZM242.941 96.3V94.17H248.836V96.3H242.941ZM250.505 102V93.87H253.355V102H250.505ZM251.93 92.97C251.41 92.97 250.99 92.825 250.67 92.535C250.35 92.245 250.19 91.885 250.19 91.455C250.19 91.025 250.35 90.665 250.67 90.375C250.99 90.085 251.41 89.94 251.93 89.94C252.45 89.94 252.87 90.08 253.19 90.36C253.51 90.63 253.67 90.98 253.67 91.41C253.67 91.86 253.51 92.235 253.19 92.535C252.88 92.825 252.46 92.97 251.93 92.97Z" fill="black"/>
</svg>
