<svg width="298" height="50" viewBox="0 0 298 50" fill="none" xmlns="http://www.w3.org/2000/svg">
<path d="M135.814 44.352C134.582 44.352 133.438 44.1613 132.382 43.78C131.34 43.384 130.431 42.8267 129.654 42.108C128.891 41.3893 128.297 40.5387 127.872 39.556C127.446 38.5733 127.234 37.488 127.234 36.3C127.234 35.112 127.446 34.0267 127.872 33.044C128.297 32.0613 128.891 31.2107 129.654 30.492C130.431 29.7733 131.34 29.2233 132.382 28.842C133.438 28.446 134.582 28.248 135.814 28.248C137.324 28.248 138.659 28.512 139.818 29.04C140.991 29.568 141.959 30.3307 142.722 31.328L139.444 34.254C138.989 33.682 138.483 33.242 137.926 32.934C137.383 32.6113 136.767 32.45 136.078 32.45C135.535 32.45 135.044 32.538 134.604 32.714C134.164 32.89 133.782 33.1467 133.46 33.484C133.152 33.8213 132.91 34.232 132.734 34.716C132.558 35.1853 132.47 35.7133 132.47 36.3C132.47 36.8867 132.558 37.422 132.734 37.906C132.91 38.3753 133.152 38.7787 133.46 39.116C133.782 39.4533 134.164 39.71 134.604 39.886C135.044 40.062 135.535 40.15 136.078 40.15C136.767 40.15 137.383 39.996 137.926 39.688C138.483 39.3653 138.989 38.918 139.444 38.346L142.722 41.272C141.959 42.2547 140.991 43.0173 139.818 43.56C138.659 44.088 137.324 44.352 135.814 44.352ZM144.067 44V27.676H149.039V44H144.067ZM156.259 44.22C155.305 44.22 154.44 44.0293 153.663 43.648C152.9 43.252 152.299 42.6433 151.859 41.822C151.419 40.986 151.199 39.9153 151.199 38.61V31.966H156.171V37.752C156.171 38.6027 156.31 39.1967 156.589 39.534C156.867 39.8713 157.249 40.04 157.733 40.04C158.026 40.04 158.297 39.9667 158.547 39.82C158.811 39.6587 159.023 39.402 159.185 39.05C159.346 38.6833 159.427 38.2067 159.427 37.62V31.966H164.399V44H159.669V40.524L160.615 41.47C160.189 42.4087 159.581 43.1053 158.789 43.56C158.011 44 157.168 44.22 156.259 44.22ZM174.634 44.22C173.534 44.22 172.647 44 171.972 43.56C171.297 43.12 170.806 42.438 170.498 41.514C170.205 40.59 170.058 39.4093 170.058 37.972C170.058 36.5493 170.219 35.3833 170.542 34.474C170.865 33.55 171.363 32.868 172.038 32.428C172.727 31.9733 173.593 31.746 174.634 31.746C175.69 31.746 176.658 31.9953 177.538 32.494C178.418 32.9927 179.122 33.7113 179.65 34.65C180.178 35.574 180.442 36.6813 180.442 37.972C180.442 39.2627 180.178 40.3773 179.65 41.316C179.122 42.24 178.418 42.9587 177.538 43.472C176.658 43.9707 175.69 44.22 174.634 44.22ZM166.604 44V27.676H171.576V33.572L171.356 37.972L171.334 42.372V44H166.604ZM173.446 40.348C173.813 40.348 174.143 40.26 174.436 40.084C174.729 39.908 174.964 39.644 175.14 39.292C175.316 38.9253 175.404 38.4853 175.404 37.972C175.404 37.444 175.316 37.0113 175.14 36.674C174.964 36.322 174.729 36.058 174.436 35.882C174.143 35.706 173.813 35.618 173.446 35.618C173.079 35.618 172.749 35.706 172.456 35.882C172.163 36.058 171.928 36.322 171.752 36.674C171.576 37.0113 171.488 37.444 171.488 37.972C171.488 38.4853 171.576 38.9253 171.752 39.292C171.928 39.644 172.163 39.908 172.456 40.084C172.749 40.26 173.079 40.348 173.446 40.348ZM194.5 44.352C193.209 44.352 191.963 44.2053 190.76 43.912C189.557 43.6187 188.567 43.2373 187.79 42.768L189.462 38.984C190.195 39.4093 191.009 39.754 191.904 40.018C192.813 40.2673 193.693 40.392 194.544 40.392C195.043 40.392 195.431 40.3627 195.71 40.304C196.003 40.2307 196.216 40.1353 196.348 40.018C196.48 39.886 196.546 39.732 196.546 39.556C196.546 39.2773 196.392 39.0573 196.084 38.896C195.776 38.7347 195.365 38.6027 194.852 38.5C194.353 38.3827 193.803 38.2653 193.202 38.148C192.601 38.016 191.992 37.8473 191.376 37.642C190.775 37.4367 190.217 37.1653 189.704 36.828C189.205 36.4907 188.802 36.0507 188.494 35.508C188.186 34.9507 188.032 34.2613 188.032 33.44C188.032 32.4867 188.296 31.6213 188.824 30.844C189.367 30.052 190.166 29.4213 191.222 28.952C192.293 28.4827 193.62 28.248 195.204 28.248C196.245 28.248 197.272 28.358 198.284 28.578C199.296 28.798 200.205 29.1353 201.012 29.59L199.45 33.352C198.687 32.9707 197.947 32.6847 197.228 32.494C196.524 32.3033 195.835 32.208 195.16 32.208C194.661 32.208 194.265 32.252 193.972 32.34C193.679 32.428 193.466 32.5453 193.334 32.692C193.217 32.8387 193.158 33 193.158 33.176C193.158 33.44 193.312 33.6527 193.62 33.814C193.928 33.9607 194.331 34.0853 194.83 34.188C195.343 34.2907 195.901 34.4007 196.502 34.518C197.118 34.6353 197.727 34.7967 198.328 35.002C198.929 35.2073 199.479 35.4787 199.978 35.816C200.491 36.1533 200.902 36.5933 201.21 37.136C201.518 37.6787 201.672 38.3533 201.672 39.16C201.672 40.0987 201.401 40.964 200.858 41.756C200.33 42.5333 199.538 43.164 198.482 43.648C197.426 44.1173 196.099 44.352 194.5 44.352ZM208.871 44.22C207.214 44.22 205.923 43.824 204.999 43.032C204.075 42.2253 203.613 40.9933 203.613 39.336V29.26H208.585V39.292C208.585 39.6587 208.68 39.9447 208.871 40.15C209.076 40.3553 209.326 40.458 209.619 40.458C210.044 40.458 210.418 40.348 210.741 40.128L211.929 43.582C211.548 43.802 211.086 43.9633 210.543 44.066C210.015 44.1687 209.458 44.22 208.871 44.22ZM201.963 36.256V32.626H211.049V36.256H201.963ZM220.464 44V41.866L220.112 41.294V37.246C220.112 36.6593 219.929 36.212 219.562 35.904C219.21 35.596 218.631 35.442 217.824 35.442C217.281 35.442 216.731 35.53 216.174 35.706C215.617 35.8673 215.14 36.0947 214.744 36.388L213.16 33.11C213.864 32.67 214.707 32.3327 215.69 32.098C216.673 31.8633 217.633 31.746 218.572 31.746C220.64 31.746 222.239 32.208 223.368 33.132C224.512 34.056 225.084 35.5227 225.084 37.532V44H220.464ZM217.054 44.22C216.071 44.22 215.25 44.0513 214.59 43.714C213.93 43.3767 213.431 42.9293 213.094 42.372C212.757 41.8 212.588 41.1693 212.588 40.48C212.588 39.7027 212.786 39.0427 213.182 38.5C213.578 37.9573 214.179 37.5467 214.986 37.268C215.807 36.9893 216.841 36.85 218.088 36.85H220.596V39.248H218.88C218.352 39.248 217.963 39.336 217.714 39.512C217.479 39.6733 217.362 39.9227 217.362 40.26C217.362 40.5387 217.465 40.7733 217.67 40.964C217.89 41.14 218.183 41.228 218.55 41.228C218.887 41.228 219.195 41.14 219.474 40.964C219.767 40.7733 219.98 40.48 220.112 40.084L220.75 41.558C220.559 42.4527 220.156 43.12 219.54 43.56C218.924 44 218.095 44.22 217.054 44.22ZM233.041 44.22C231.383 44.22 230.093 43.824 229.169 43.032C228.245 42.2253 227.783 40.9933 227.783 39.336V29.26H232.755V39.292C232.755 39.6587 232.85 39.9447 233.041 40.15C233.246 40.3553 233.495 40.458 233.789 40.458C234.214 40.458 234.588 40.348 234.911 40.128L236.099 43.582C235.717 43.802 235.255 43.9633 234.713 44.066C234.185 44.1687 233.627 44.22 233.041 44.22ZM226.133 36.256V32.626H235.219V36.256H226.133ZM244.634 44V41.866L244.282 41.294V37.246C244.282 36.6593 244.099 36.212 243.732 35.904C243.38 35.596 242.801 35.442 241.994 35.442C241.451 35.442 240.901 35.53 240.344 35.706C239.787 35.8673 239.31 36.0947 238.914 36.388L237.33 33.11C238.034 32.67 238.877 32.3327 239.86 32.098C240.843 31.8633 241.803 31.746 242.742 31.746C244.81 31.746 246.409 32.208 247.538 33.132C248.682 34.056 249.254 35.5227 249.254 37.532V44H244.634ZM241.224 44.22C240.241 44.22 239.42 44.0513 238.76 43.714C238.1 43.3767 237.601 42.9293 237.264 42.372C236.927 41.8 236.758 41.1693 236.758 40.48C236.758 39.7027 236.956 39.0427 237.352 38.5C237.748 37.9573 238.349 37.5467 239.156 37.268C239.977 36.9893 241.011 36.85 242.258 36.85H244.766V39.248H243.05C242.522 39.248 242.133 39.336 241.884 39.512C241.649 39.6733 241.532 39.9227 241.532 40.26C241.532 40.5387 241.635 40.7733 241.84 40.964C242.06 41.14 242.353 41.228 242.72 41.228C243.057 41.228 243.365 41.14 243.644 40.964C243.937 40.7733 244.15 40.48 244.282 40.084L244.92 41.558C244.729 42.4527 244.326 43.12 243.71 43.56C243.094 44 242.265 44.22 241.224 44.22ZM251.403 44V27.676H256.375V44H251.403ZM265.223 44.22C263.756 44.22 262.473 43.9487 261.373 43.406C260.287 42.8633 259.444 42.1227 258.843 41.184C258.241 40.2307 257.941 39.16 257.941 37.972C257.941 36.7547 258.234 35.6767 258.821 34.738C259.422 33.7993 260.236 33.066 261.263 32.538C262.304 32.01 263.47 31.746 264.761 31.746C265.949 31.746 267.041 31.9807 268.039 32.45C269.051 32.9193 269.857 33.616 270.459 34.54C271.075 35.464 271.383 36.608 271.383 37.972C271.383 38.148 271.375 38.346 271.361 38.566C271.346 38.7713 271.331 38.962 271.317 39.138H262.055V36.74H268.677L266.807 37.378C266.807 36.9087 266.719 36.5127 266.543 36.19C266.381 35.8527 266.154 35.596 265.861 35.42C265.567 35.2293 265.215 35.134 264.805 35.134C264.394 35.134 264.035 35.2293 263.727 35.42C263.433 35.596 263.206 35.8527 263.045 36.19C262.883 36.5127 262.803 36.9087 262.803 37.378V38.126C262.803 38.6393 262.905 39.0793 263.111 39.446C263.316 39.8127 263.609 40.0913 263.991 40.282C264.372 40.458 264.834 40.546 265.377 40.546C265.934 40.546 266.389 40.4727 266.741 40.326C267.107 40.1793 267.489 39.9593 267.885 39.666L270.481 42.284C269.894 42.9147 269.168 43.3987 268.303 43.736C267.452 44.0587 266.425 44.22 265.223 44.22Z" fill="#004082"/>
<path d="M31.4465 35.156H38.2225V39.072H31.4465V35.156ZM31.7985 44H26.6065V28.6H39.1245V32.516H31.7985V44ZM40.6107 44V31.966H45.5827V44H40.6107ZM43.0967 30.998C42.1874 30.998 41.4614 30.756 40.9187 30.272C40.3761 29.788 40.1047 29.1867 40.1047 28.468C40.1047 27.7493 40.3761 27.148 40.9187 26.664C41.4614 26.18 42.1874 25.938 43.0967 25.938C44.0061 25.938 44.7321 26.1653 45.2747 26.62C45.8174 27.0747 46.0887 27.6613 46.0887 28.38C46.0887 29.1427 45.8174 29.7733 45.2747 30.272C44.7321 30.756 44.0061 30.998 43.0967 30.998ZM56.1465 31.746C57.0705 31.746 57.9065 31.9367 58.6545 32.318C59.4025 32.6847 59.9892 33.264 60.4145 34.056C60.8545 34.848 61.0745 35.8747 61.0745 37.136V44H56.1025V37.994C56.1025 37.246 55.9705 36.718 55.7065 36.41C55.4425 36.0873 55.0832 35.926 54.6285 35.926C54.2912 35.926 53.9759 36.0067 53.6825 36.168C53.4039 36.3147 53.1765 36.564 53.0005 36.916C52.8392 37.268 52.7585 37.7447 52.7585 38.346V44H47.7865V31.966H52.5165V35.486L51.5705 34.474C52.0399 33.5647 52.6705 32.8827 53.4625 32.428C54.2692 31.9733 55.1639 31.746 56.1465 31.746ZM70.5158 44V41.866L70.1638 41.294V37.246C70.1638 36.6593 69.9805 36.212 69.6138 35.904C69.2618 35.596 68.6825 35.442 67.8758 35.442C67.3331 35.442 66.7831 35.53 66.2258 35.706C65.6685 35.8673 65.1918 36.0947 64.7958 36.388L63.2118 33.11C63.9158 32.67 64.7591 32.3327 65.7418 32.098C66.7245 31.8633 67.6851 31.746 68.6238 31.746C70.6918 31.746 72.2905 32.208 73.4198 33.132C74.5638 34.056 75.1358 35.5227 75.1358 37.532V44H70.5158ZM67.1058 44.22C66.1231 44.22 65.3018 44.0513 64.6418 43.714C63.9818 43.3767 63.4831 42.9293 63.1458 42.372C62.8085 41.8 62.6398 41.1693 62.6398 40.48C62.6398 39.7027 62.8378 39.0427 63.2338 38.5C63.6298 37.9573 64.2311 37.5467 65.0378 37.268C65.8591 36.9893 66.8931 36.85 68.1398 36.85H70.6478V39.248H68.9318C68.4038 39.248 68.0151 39.336 67.7658 39.512C67.5311 39.6733 67.4138 39.9227 67.4138 40.26C67.4138 40.5387 67.5165 40.7733 67.7218 40.964C67.9418 41.14 68.2351 41.228 68.6018 41.228C68.9391 41.228 69.2471 41.14 69.5258 40.964C69.8191 40.7733 70.0318 40.48 70.1638 40.084L70.8018 41.558C70.6111 42.4527 70.2078 43.12 69.5918 43.56C68.9758 44 68.1471 44.22 67.1058 44.22ZM85.6446 31.746C86.5686 31.746 87.4046 31.9367 88.1526 32.318C88.9006 32.6847 89.4872 33.264 89.9126 34.056C90.3526 34.848 90.5726 35.8747 90.5726 37.136V44H85.6006V37.994C85.6006 37.246 85.4686 36.718 85.2046 36.41C84.9406 36.0873 84.5812 35.926 84.1266 35.926C83.7892 35.926 83.4739 36.0067 83.1806 36.168C82.9019 36.3147 82.6746 36.564 82.4986 36.916C82.3372 37.268 82.2566 37.7447 82.2566 38.346V44H77.2846V31.966H82.0146V35.486L81.0686 34.474C81.5379 33.5647 82.1686 32.8827 82.9606 32.428C83.7672 31.9733 84.6619 31.746 85.6446 31.746ZM99.4147 44.22C98.036 44.22 96.8113 43.956 95.7407 43.428C94.67 42.9 93.8267 42.1667 93.2107 41.228C92.6093 40.2747 92.3087 39.1893 92.3087 37.972C92.3087 36.7547 92.6093 35.6767 93.2107 34.738C93.8267 33.7993 94.67 33.066 95.7407 32.538C96.8113 32.01 98.036 31.746 99.4147 31.746C100.881 31.746 102.135 32.0613 103.177 32.692C104.218 33.3227 104.937 34.1953 105.333 35.31L101.483 37.202C101.233 36.6447 100.925 36.2413 100.559 35.992C100.207 35.7427 99.818 35.618 99.3927 35.618C99.026 35.618 98.6813 35.706 98.3587 35.882C98.0507 36.058 97.8013 36.322 97.6107 36.674C97.4347 37.0113 97.3467 37.444 97.3467 37.972C97.3467 38.5 97.4347 38.94 97.6107 39.292C97.8013 39.644 98.0507 39.908 98.3587 40.084C98.6813 40.26 99.026 40.348 99.3927 40.348C99.818 40.348 100.207 40.2233 100.559 39.974C100.925 39.7247 101.233 39.3213 101.483 38.764L105.333 40.656C104.937 41.7707 104.218 42.6433 103.177 43.274C102.135 43.9047 100.881 44.22 99.4147 44.22ZM113.018 44.22C111.552 44.22 110.268 43.9487 109.168 43.406C108.083 42.8633 107.24 42.1227 106.638 41.184C106.037 40.2307 105.736 39.16 105.736 37.972C105.736 36.7547 106.03 35.6767 106.616 34.738C107.218 33.7993 108.032 33.066 109.058 32.538C110.1 32.01 111.266 31.746 112.556 31.746C113.744 31.746 114.837 31.9807 115.834 32.45C116.846 32.9193 117.653 33.616 118.254 34.54C118.87 35.464 119.178 36.608 119.178 37.972C119.178 38.148 119.171 38.346 119.156 38.566C119.142 38.7713 119.127 38.962 119.112 39.138H109.85V36.74H116.472L114.602 37.378C114.602 36.9087 114.514 36.5127 114.338 36.19C114.177 35.8527 113.95 35.596 113.656 35.42C113.363 35.2293 113.011 35.134 112.6 35.134C112.19 35.134 111.83 35.2293 111.522 35.42C111.229 35.596 111.002 35.8527 110.84 36.19C110.679 36.5127 110.598 36.9087 110.598 37.378V38.126C110.598 38.6393 110.701 39.0793 110.906 39.446C111.112 39.8127 111.405 40.0913 111.786 40.282C112.168 40.458 112.63 40.546 113.172 40.546C113.73 40.546 114.184 40.4727 114.536 40.326C114.903 40.1793 115.284 39.9593 115.68 39.666L118.276 42.284C117.69 42.9147 116.964 43.3987 116.098 43.736C115.248 44.0587 114.221 44.22 113.018 44.22Z" fill="#4EC79F"/>
<path d="M18.3829 19V3.6H26.6109C28.7376 3.6 30.3069 3.98133 31.3189 4.744C32.3309 5.492 32.8369 6.45267 32.8369 7.626C32.8369 8.40333 32.6169 9.1 32.1769 9.716C31.7516 10.3173 31.1282 10.794 30.3069 11.146C29.4856 11.498 28.4736 11.674 27.2709 11.674L27.7109 10.486C28.9136 10.486 29.9476 10.6547 30.8129 10.992C31.6929 11.3293 32.3676 11.8207 32.8369 12.466C33.3209 13.0967 33.5629 13.8593 33.5629 14.754C33.5629 16.0887 33.0056 17.13 31.8909 17.878C30.7909 18.626 29.1776 19 27.0509 19H18.3829ZM23.4869 15.37H26.6109C27.1829 15.37 27.6082 15.2673 27.8869 15.062C28.1802 14.8567 28.3269 14.556 28.3269 14.16C28.3269 13.764 28.1802 13.4633 27.8869 13.258C27.6082 13.0527 27.1829 12.95 26.6109 12.95H23.1349V9.518H25.9069C26.4936 9.518 26.9189 9.42267 27.1829 9.232C27.4616 9.02667 27.6009 8.74067 27.6009 8.374C27.6009 7.99267 27.4616 7.70667 27.1829 7.516C26.9189 7.32533 26.4936 7.23 25.9069 7.23H23.4869V15.37ZM41.8885 19.22C40.4219 19.22 39.1385 18.9487 38.0385 18.406C36.9532 17.8633 36.1099 17.1227 35.5085 16.184C34.9072 15.2307 34.6065 14.16 34.6065 12.972C34.6065 11.7547 34.8999 10.6767 35.4865 9.738C36.0879 8.79933 36.9019 8.066 37.9285 7.538C38.9699 7.01 40.1359 6.746 41.4265 6.746C42.6145 6.746 43.7072 6.98067 44.7045 7.45C45.7165 7.91933 46.5232 8.616 47.1245 9.54C47.7405 10.464 48.0485 11.608 48.0485 12.972C48.0485 13.148 48.0412 13.346 48.0265 13.566C48.0119 13.7713 47.9972 13.962 47.9825 14.138H38.7205V11.74H45.3425L43.4725 12.378C43.4725 11.9087 43.3845 11.5127 43.2085 11.19C43.0472 10.8527 42.8199 10.596 42.5265 10.42C42.2332 10.2293 41.8812 10.134 41.4705 10.134C41.0599 10.134 40.7005 10.2293 40.3925 10.42C40.0992 10.596 39.8719 10.8527 39.7105 11.19C39.5492 11.5127 39.4685 11.9087 39.4685 12.378V13.126C39.4685 13.6393 39.5712 14.0793 39.7765 14.446C39.9819 14.8127 40.2752 15.0913 40.6565 15.282C41.0379 15.458 41.4999 15.546 42.0425 15.546C42.5999 15.546 43.0545 15.4727 43.4065 15.326C43.7732 15.1793 44.1545 14.9593 44.5505 14.666L47.1465 17.284C46.5599 17.9147 45.8339 18.3987 44.9685 18.736C44.1179 19.0587 43.0912 19.22 41.8885 19.22ZM57.9776 6.746C58.9016 6.746 59.7376 6.93667 60.4856 7.318C61.2336 7.68467 61.8202 8.264 62.2456 9.056C62.6856 9.848 62.9056 10.8747 62.9056 12.136V19H57.9336V12.994C57.9336 12.246 57.8016 11.718 57.5376 11.41C57.2736 11.0873 56.9142 10.926 56.4596 10.926C56.1222 10.926 55.8069 11.0067 55.5136 11.168C55.2349 11.3147 55.0076 11.564 54.8316 11.916C54.6702 12.268 54.5896 12.7447 54.5896 13.346V19H49.6176V6.966H54.3476V10.486L53.4016 9.474C53.8709 8.56467 54.5016 7.88267 55.2936 7.428C56.1002 6.97333 56.9949 6.746 57.9776 6.746ZM68.26 19L63.42 6.966H68.524L72.198 16.734H69.624L73.54 6.966H78.248L73.408 19H68.26ZM85.3299 19.22C83.8633 19.22 82.5799 18.9487 81.4799 18.406C80.3946 17.8633 79.5513 17.1227 78.9499 16.184C78.3486 15.2307 78.0479 14.16 78.0479 12.972C78.0479 11.7547 78.3413 10.6767 78.9279 9.738C79.5293 8.79933 80.3433 8.066 81.3699 7.538C82.4113 7.01 83.5773 6.746 84.8679 6.746C86.0559 6.746 87.1486 6.98067 88.1459 7.45C89.1579 7.91933 89.9646 8.616 90.5659 9.54C91.1819 10.464 91.4899 11.608 91.4899 12.972C91.4899 13.148 91.4826 13.346 91.4679 13.566C91.4533 13.7713 91.4386 13.962 91.4239 14.138H82.1619V11.74H88.7839L86.9139 12.378C86.9139 11.9087 86.8259 11.5127 86.6499 11.19C86.4886 10.8527 86.2613 10.596 85.9679 10.42C85.6746 10.2293 85.3226 10.134 84.9119 10.134C84.5013 10.134 84.1419 10.2293 83.8339 10.42C83.5406 10.596 83.3133 10.8527 83.1519 11.19C82.9906 11.5127 82.9099 11.9087 82.9099 12.378V13.126C82.9099 13.6393 83.0126 14.0793 83.2179 14.446C83.4233 14.8127 83.7166 15.0913 84.0979 15.282C84.4793 15.458 84.9413 15.546 85.4839 15.546C86.0413 15.546 86.4959 15.4727 86.8479 15.326C87.2146 15.1793 87.5959 14.9593 87.9919 14.666L90.5879 17.284C90.0013 17.9147 89.2753 18.3987 88.4099 18.736C87.5593 19.0587 86.5326 19.22 85.3299 19.22ZM101.419 6.746C102.343 6.746 103.179 6.93667 103.927 7.318C104.675 7.68467 105.262 8.264 105.687 9.056C106.127 9.848 106.347 10.8747 106.347 12.136V19H101.375V12.994C101.375 12.246 101.243 11.718 100.979 11.41C100.715 11.0873 100.356 10.926 99.901 10.926C99.5637 10.926 99.2483 11.0067 98.955 11.168C98.6763 11.3147 98.449 11.564 98.273 11.916C98.1117 12.268 98.031 12.7447 98.031 13.346V19H93.059V6.966H97.789V10.486L96.843 9.474C97.3123 8.56467 97.943 7.88267 98.735 7.428C99.5417 6.97333 100.436 6.746 101.419 6.746ZM113.522 19.22C112.569 19.22 111.704 19.0293 110.926 18.648C110.164 18.252 109.562 17.6433 109.122 16.822C108.682 15.986 108.462 14.9153 108.462 13.61V6.966H113.434V12.752C113.434 13.6027 113.574 14.1967 113.852 14.534C114.131 14.8713 114.512 15.04 114.996 15.04C115.29 15.04 115.561 14.9667 115.81 14.82C116.074 14.6587 116.287 14.402 116.448 14.05C116.61 13.6833 116.69 13.2067 116.69 12.62V6.966H121.662V19H116.932V15.524L117.878 16.47C117.453 17.4087 116.844 18.1053 116.052 18.56C115.275 19 114.432 19.22 113.522 19.22ZM129.676 19.22C128.018 19.22 126.728 18.824 125.804 18.032C124.88 17.2253 124.418 15.9933 124.418 14.336V4.26H129.39V14.292C129.39 14.6587 129.485 14.9447 129.676 15.15C129.881 15.3553 130.13 15.458 130.424 15.458C130.849 15.458 131.223 15.348 131.546 15.128L132.734 18.582C132.352 18.802 131.89 18.9633 131.348 19.066C130.82 19.1687 130.262 19.22 129.676 19.22ZM122.768 11.256V7.626H131.854V11.256H122.768ZM140.022 19.22C138.658 19.22 137.448 18.956 136.392 18.428C135.351 17.8853 134.53 17.1447 133.928 16.206C133.327 15.2673 133.026 14.1893 133.026 12.972C133.026 11.7547 133.327 10.6767 133.928 9.738C134.53 8.79933 135.351 8.066 136.392 7.538C137.448 7.01 138.658 6.746 140.022 6.746C141.386 6.746 142.596 7.01 143.652 7.538C144.708 8.066 145.53 8.79933 146.116 9.738C146.718 10.6767 147.018 11.7547 147.018 12.972C147.018 14.1893 146.718 15.2673 146.116 16.206C145.53 17.1447 144.708 17.8853 143.652 18.428C142.596 18.956 141.386 19.22 140.022 19.22ZM140.022 15.348C140.389 15.348 140.719 15.26 141.012 15.084C141.306 14.908 141.54 14.644 141.716 14.292C141.892 13.9253 141.98 13.4853 141.98 12.972C141.98 12.444 141.892 12.0113 141.716 11.674C141.54 11.322 141.306 11.058 141.012 10.882C140.719 10.706 140.389 10.618 140.022 10.618C139.656 10.618 139.326 10.706 139.032 10.882C138.739 11.058 138.504 11.322 138.328 11.674C138.152 12.0113 138.064 12.444 138.064 12.972C138.064 13.4853 138.152 13.9253 138.328 14.292C138.504 14.644 138.739 14.908 139.032 15.084C139.326 15.26 139.656 15.348 140.022 15.348ZM155.17 19V6.966H160.142V19H155.17ZM157.656 5.998C156.747 5.998 156.021 5.756 155.478 5.272C154.936 4.788 154.664 4.18667 154.664 3.468C154.664 2.74933 154.936 2.148 155.478 1.664C156.021 1.18 156.747 0.937999 157.656 0.937999C158.566 0.937999 159.292 1.16533 159.834 1.62C160.377 2.07467 160.648 2.66133 160.648 3.38C160.648 4.14267 160.377 4.77333 159.834 5.272C159.292 5.756 158.566 5.998 157.656 5.998ZM170.706 6.746C171.63 6.746 172.466 6.93667 173.214 7.318C173.962 7.68467 174.549 8.264 174.974 9.056C175.414 9.848 175.634 10.8747 175.634 12.136V19H170.662V12.994C170.662 12.246 170.53 11.718 170.266 11.41C170.002 11.0873 169.643 10.926 169.188 10.926C168.851 10.926 168.535 11.0067 168.242 11.168C167.963 11.3147 167.736 11.564 167.56 11.916C167.399 12.268 167.318 12.7447 167.318 13.346V19H162.346V6.966H167.076V10.486L166.13 9.474C166.599 8.56467 167.23 7.88267 168.022 7.428C168.829 6.97333 169.723 6.746 170.706 6.746ZM190.285 19.352C188.994 19.352 187.748 19.2053 186.545 18.912C185.342 18.6187 184.352 18.2373 183.575 17.768L185.247 13.984C185.98 14.4093 186.794 14.754 187.689 15.018C188.598 15.2673 189.478 15.392 190.329 15.392C190.828 15.392 191.216 15.3627 191.495 15.304C191.788 15.2307 192.001 15.1353 192.133 15.018C192.265 14.886 192.331 14.732 192.331 14.556C192.331 14.2773 192.177 14.0573 191.869 13.896C191.561 13.7347 191.15 13.6027 190.637 13.5C190.138 13.3827 189.588 13.2653 188.987 13.148C188.386 13.016 187.777 12.8473 187.161 12.642C186.56 12.4367 186.002 12.1653 185.489 11.828C184.99 11.4907 184.587 11.0507 184.279 10.508C183.971 9.95067 183.817 9.26133 183.817 8.44C183.817 7.48667 184.081 6.62133 184.609 5.844C185.152 5.052 185.951 4.42133 187.007 3.952C188.078 3.48267 189.405 3.248 190.989 3.248C192.03 3.248 193.057 3.358 194.069 3.578C195.081 3.798 195.99 4.13533 196.797 4.59L195.235 8.352C194.472 7.97067 193.732 7.68467 193.013 7.494C192.309 7.30333 191.62 7.208 190.945 7.208C190.446 7.208 190.05 7.252 189.757 7.34C189.464 7.428 189.251 7.54533 189.119 7.692C189.002 7.83867 188.943 8 188.943 8.176C188.943 8.44 189.097 8.65267 189.405 8.814C189.713 8.96067 190.116 9.08533 190.615 9.188C191.128 9.29067 191.686 9.40067 192.287 9.518C192.903 9.63533 193.512 9.79667 194.113 10.002C194.714 10.2073 195.264 10.4787 195.763 10.816C196.276 11.1533 196.687 11.5933 196.995 12.136C197.303 12.6787 197.457 13.3533 197.457 14.16C197.457 15.0987 197.186 15.964 196.643 16.756C196.115 17.5333 195.323 18.164 194.267 18.648C193.211 19.1173 191.884 19.352 190.285 19.352ZM204.656 19.22C202.999 19.22 201.708 18.824 200.784 18.032C199.86 17.2253 199.398 15.9933 199.398 14.336V4.26H204.37V14.292C204.37 14.6587 204.465 14.9447 204.656 15.15C204.861 15.3553 205.111 15.458 205.404 15.458C205.829 15.458 206.203 15.348 206.526 15.128L207.714 18.582C207.333 18.802 206.871 18.9633 206.328 19.066C205.8 19.1687 205.243 19.22 204.656 19.22ZM197.748 11.256V7.626H206.834V11.256H197.748ZM216.249 19V16.866L215.897 16.294V12.246C215.897 11.6593 215.714 11.212 215.347 10.904C214.995 10.596 214.416 10.442 213.609 10.442C213.067 10.442 212.517 10.53 211.959 10.706C211.402 10.8673 210.925 11.0947 210.529 11.388L208.945 8.11C209.649 7.67 210.493 7.33267 211.475 7.098C212.458 6.86333 213.419 6.746 214.357 6.746C216.425 6.746 218.024 7.208 219.153 8.132C220.297 9.056 220.869 10.5227 220.869 12.532V19H216.249ZM212.839 19.22C211.857 19.22 211.035 19.0513 210.375 18.714C209.715 18.3767 209.217 17.9293 208.879 17.372C208.542 16.8 208.373 16.1693 208.373 15.48C208.373 14.7027 208.571 14.0427 208.967 13.5C209.363 12.9573 209.965 12.5467 210.771 12.268C211.593 11.9893 212.627 11.85 213.873 11.85H216.381V14.248H214.665C214.137 14.248 213.749 14.336 213.499 14.512C213.265 14.6733 213.147 14.9227 213.147 15.26C213.147 15.5387 213.25 15.7733 213.455 15.964C213.675 16.14 213.969 16.228 214.335 16.228C214.673 16.228 214.981 16.14 215.259 15.964C215.553 15.7733 215.765 15.48 215.897 15.084L216.535 16.558C216.345 17.4527 215.941 18.12 215.325 18.56C214.709 19 213.881 19.22 212.839 19.22ZM223.018 19V6.966H227.748V10.596L226.978 9.562C227.345 8.62333 227.931 7.91933 228.738 7.45C229.545 6.98067 230.513 6.746 231.642 6.746V11.146C231.422 11.1167 231.224 11.0947 231.048 11.08C230.887 11.0653 230.718 11.058 230.542 11.058C229.794 11.058 229.178 11.256 228.694 11.652C228.225 12.0333 227.99 12.7007 227.99 13.654V19H223.018ZM239.181 19.22C237.524 19.22 236.233 18.824 235.309 18.032C234.385 17.2253 233.923 15.9933 233.923 14.336V4.26H238.895V14.292C238.895 14.6587 238.991 14.9447 239.181 15.15C239.387 15.3553 239.636 15.458 239.929 15.458C240.355 15.458 240.729 15.348 241.051 15.128L242.239 18.582C241.858 18.802 241.396 18.9633 240.853 19.066C240.325 19.1687 239.768 19.22 239.181 19.22ZM232.273 11.256V7.626H241.359V11.256H232.273ZM243.493 19V6.966H248.465V19H243.493ZM245.979 5.998C245.069 5.998 244.343 5.756 243.801 5.272C243.258 4.788 242.987 4.18667 242.987 3.468C242.987 2.74933 243.258 2.148 243.801 1.664C244.343 1.18 245.069 0.937999 245.979 0.937999C246.888 0.937999 247.614 1.16533 248.157 1.62C248.699 2.07467 248.971 2.66133 248.971 3.38C248.971 4.14267 248.699 4.77333 248.157 5.272C247.614 5.756 246.888 5.998 245.979 5.998ZM259.028 6.746C259.952 6.746 260.788 6.93667 261.536 7.318C262.284 7.68467 262.871 8.264 263.296 9.056C263.736 9.848 263.956 10.8747 263.956 12.136V19H258.984V12.994C258.984 12.246 258.852 11.718 258.588 11.41C258.324 11.0873 257.965 10.926 257.51 10.926C257.173 10.926 256.858 11.0067 256.564 11.168C256.286 11.3147 256.058 11.564 255.882 11.916C255.721 12.268 255.64 12.7447 255.64 13.346V19H250.668V6.966H255.398V10.486L254.452 9.474C254.922 8.56467 255.552 7.88267 256.344 7.428C257.151 6.97333 258.046 6.746 259.028 6.746ZM272.446 23.488C271.258 23.488 270.144 23.3633 269.102 23.114C268.061 22.8647 267.166 22.4907 266.418 21.992L268.09 18.604C268.56 18.9707 269.154 19.2567 269.872 19.462C270.606 19.682 271.295 19.792 271.94 19.792C272.967 19.792 273.7 19.572 274.14 19.132C274.58 18.7067 274.8 18.0907 274.8 17.284V16.272L275.02 12.532L275.042 8.792V6.966H279.772V16.602C279.772 18.934 279.127 20.6647 277.836 21.794C276.546 22.9233 274.749 23.488 272.446 23.488ZM271.478 18.34C270.466 18.34 269.52 18.1053 268.64 17.636C267.76 17.152 267.049 16.4773 266.506 15.612C265.964 14.7467 265.692 13.72 265.692 12.532C265.692 11.344 265.964 10.3173 266.506 9.452C267.049 8.58667 267.76 7.91933 268.64 7.45C269.52 6.98067 270.466 6.746 271.478 6.746C272.52 6.746 273.37 6.95133 274.03 7.362C274.705 7.77267 275.204 8.41067 275.526 9.276C275.849 10.1267 276.01 11.212 276.01 12.532C276.01 13.852 275.849 14.9447 275.526 15.81C275.204 16.6607 274.705 17.2987 274.03 17.724C273.37 18.1347 272.52 18.34 271.478 18.34ZM272.798 14.468C273.194 14.468 273.546 14.3873 273.854 14.226C274.162 14.0647 274.404 13.8373 274.58 13.544C274.756 13.2507 274.844 12.9133 274.844 12.532C274.844 12.136 274.756 11.7987 274.58 11.52C274.404 11.2267 274.162 11.0067 273.854 10.86C273.546 10.6987 273.194 10.618 272.798 10.618C272.417 10.618 272.065 10.6987 271.742 10.86C271.434 11.0067 271.185 11.2267 270.994 11.52C270.818 11.7987 270.73 12.136 270.73 12.532C270.73 12.9133 270.818 13.2507 270.994 13.544C271.185 13.8373 271.434 14.0647 271.742 14.226C272.065 14.3873 272.417 14.468 272.798 14.468Z" fill="#4EC79F"/>
</svg>
