<svg width="333" height="144" viewBox="0 0 333 144" fill="none" xmlns="http://www.w3.org/2000/svg">
<rect y="8.32593" width="322.515" height="135.063" rx="34" fill="#FF6474"/>
<rect x="9.6543" width="322.515" height="135.063" rx="34" fill="white"/>
<path d="M34.1195 63V49.425H28.7445V45.5H44.4195V49.425H39.0695V63H34.1195ZM51.4715 63.225C49.9882 63.225 48.6715 62.925 47.5215 62.325C46.3715 61.725 45.4632 60.9 44.7965 59.85C44.1465 58.7833 43.8215 57.5667 43.8215 56.2C43.8215 54.8333 44.1465 53.625 44.7965 52.575C45.4632 51.525 46.3715 50.7083 47.5215 50.125C48.6715 49.525 49.9882 49.225 51.4715 49.225C52.9548 49.225 54.2715 49.525 55.4215 50.125C56.5882 50.7083 57.4965 51.525 58.1465 52.575C58.7965 53.625 59.1215 54.8333 59.1215 56.2C59.1215 57.5667 58.7965 58.7833 58.1465 59.85C57.4965 60.9 56.5882 61.725 55.4215 62.325C54.2715 62.925 52.9548 63.225 51.4715 63.225ZM51.4715 59.45C52.0215 59.45 52.5048 59.325 52.9215 59.075C53.3548 58.825 53.6965 58.4583 53.9465 57.975C54.1965 57.475 54.3215 56.8833 54.3215 56.2C54.3215 55.5167 54.1965 54.9417 53.9465 54.475C53.6965 53.9917 53.3548 53.625 52.9215 53.375C52.5048 53.125 52.0215 53 51.4715 53C50.9382 53 50.4548 53.125 50.0215 53.375C49.6048 53.625 49.2632 53.9917 48.9965 54.475C48.7465 54.9417 48.6215 55.5167 48.6215 56.2C48.6215 56.8833 48.7465 57.475 48.9965 57.975C49.2632 58.4583 49.6048 58.825 50.0215 59.075C50.4548 59.325 50.9382 59.45 51.4715 59.45ZM78.9719 49.225C80.0219 49.225 80.9552 49.4417 81.7719 49.875C82.6052 50.2917 83.2552 50.9417 83.7219 51.825C84.2052 52.7083 84.4469 53.85 84.4469 55.25V63H79.6969V56.025C79.6969 55.0583 79.5135 54.3583 79.1469 53.925C78.7802 53.475 78.2802 53.25 77.6469 53.25C77.1969 53.25 76.7885 53.3583 76.4219 53.575C76.0552 53.7917 75.7719 54.125 75.5719 54.575C75.3719 55.0083 75.2719 55.575 75.2719 56.275V63H70.5219V56.025C70.5219 55.0583 70.3385 54.3583 69.9719 53.925C69.6219 53.475 69.1219 53.25 68.4719 53.25C68.0052 53.25 67.5885 53.3583 67.2219 53.575C66.8719 53.7917 66.5885 54.125 66.3719 54.575C66.1719 55.0083 66.0719 55.575 66.0719 56.275V63H61.3219V49.45H65.8469V53.225L64.9469 52.15C65.4469 51.1833 66.1302 50.4583 66.9969 49.975C67.8635 49.475 68.8302 49.225 69.8969 49.225C71.1135 49.225 72.1802 49.5417 73.0969 50.175C74.0302 50.7917 74.6552 51.7583 74.9719 53.075L73.4219 52.75C73.9052 51.65 74.6302 50.7917 75.5969 50.175C76.5802 49.5417 77.7052 49.225 78.9719 49.225ZM105.095 49.225C106.145 49.225 107.078 49.4417 107.895 49.875C108.728 50.2917 109.378 50.9417 109.845 51.825C110.328 52.7083 110.57 53.85 110.57 55.25V63H105.82V56.025C105.82 55.0583 105.637 54.3583 105.27 53.925C104.903 53.475 104.403 53.25 103.77 53.25C103.32 53.25 102.912 53.3583 102.545 53.575C102.178 53.7917 101.895 54.125 101.695 54.575C101.495 55.0083 101.395 55.575 101.395 56.275V63H96.6449V56.025C96.6449 55.0583 96.4616 54.3583 96.0949 53.925C95.7449 53.475 95.2449 53.25 94.5949 53.25C94.1283 53.25 93.7116 53.3583 93.3449 53.575C92.9949 53.7917 92.7116 54.125 92.4949 54.575C92.2949 55.0083 92.1949 55.575 92.1949 56.275V63H87.4449V49.45H91.9699V53.225L91.0699 52.15C91.5699 51.1833 92.2533 50.4583 93.1199 49.975C93.9866 49.475 94.9533 49.225 96.0199 49.225C97.2366 49.225 98.3033 49.5417 99.2199 50.175C100.153 50.7917 100.778 51.7583 101.095 53.075L99.5449 52.75C100.028 51.65 100.753 50.7917 101.72 50.175C102.703 49.5417 103.828 49.225 105.095 49.225ZM121.843 63V60.475L121.518 59.85V55.2C121.518 54.45 121.285 53.875 120.818 53.475C120.368 53.0583 119.643 52.85 118.643 52.85C117.993 52.85 117.335 52.9583 116.668 53.175C116.001 53.375 115.435 53.6583 114.968 54.025L113.368 50.8C114.135 50.3 115.051 49.9167 116.118 49.65C117.201 49.3667 118.276 49.225 119.343 49.225C121.543 49.225 123.243 49.7333 124.443 50.75C125.66 51.75 126.268 53.325 126.268 55.475V63H121.843ZM117.843 63.225C116.76 63.225 115.843 63.0417 115.093 62.675C114.343 62.3083 113.768 61.8083 113.368 61.175C112.985 60.5417 112.793 59.8333 112.793 59.05C112.793 58.2167 113.001 57.5 113.418 56.9C113.851 56.2833 114.51 55.8167 115.393 55.5C116.276 55.1667 117.418 55 118.818 55H122.018V57.475H119.468C118.701 57.475 118.16 57.6 117.843 57.85C117.543 58.1 117.393 58.4333 117.393 58.85C117.393 59.2667 117.551 59.6 117.868 59.85C118.185 60.1 118.618 60.225 119.168 60.225C119.685 60.225 120.151 60.1 120.568 59.85C121.001 59.5833 121.318 59.1833 121.518 58.65L122.168 60.4C121.918 61.3333 121.426 62.0417 120.693 62.525C119.976 62.9917 119.026 63.225 117.843 63.225ZM134.191 63.225C133.041 63.225 131.916 63.0917 130.816 62.825C129.733 62.5583 128.858 62.225 128.191 61.825L129.616 58.575C130.25 58.9583 130.991 59.2667 131.841 59.5C132.691 59.7167 133.525 59.825 134.341 59.825C135.141 59.825 135.691 59.7417 135.991 59.575C136.308 59.4083 136.466 59.1833 136.466 58.9C136.466 58.6333 136.316 58.4417 136.016 58.325C135.733 58.1917 135.35 58.0917 134.866 58.025C134.4 57.9583 133.883 57.8833 133.316 57.8C132.75 57.7167 132.175 57.6083 131.591 57.475C131.025 57.325 130.5 57.1083 130.016 56.825C129.55 56.525 129.175 56.125 128.891 55.625C128.608 55.125 128.466 54.4917 128.466 53.725C128.466 52.8583 128.716 52.0917 129.216 51.425C129.733 50.7417 130.483 50.2083 131.466 49.825C132.45 49.425 133.65 49.225 135.066 49.225C136.016 49.225 136.975 49.325 137.941 49.525C138.925 49.7083 139.75 49.9917 140.416 50.375L138.991 53.6C138.325 53.2167 137.658 52.9583 136.991 52.825C136.325 52.675 135.691 52.6 135.091 52.6C134.291 52.6 133.725 52.6917 133.391 52.875C133.075 53.0583 132.916 53.2833 132.916 53.55C132.916 53.8167 133.058 54.025 133.341 54.175C133.625 54.3083 134 54.4167 134.466 54.5C134.95 54.5667 135.475 54.6417 136.041 54.725C136.608 54.7917 137.175 54.9 137.741 55.05C138.325 55.2 138.85 55.425 139.316 55.725C139.8 56.0083 140.183 56.4 140.466 56.9C140.75 57.3833 140.891 58.0083 140.891 58.775C140.891 59.6083 140.633 60.3583 140.116 61.025C139.616 61.6917 138.866 62.225 137.866 62.625C136.883 63.025 135.658 63.225 134.191 63.225ZM149.738 63.225C148.255 63.225 146.938 62.925 145.788 62.325C144.638 61.725 143.73 60.9 143.063 59.85C142.413 58.7833 142.088 57.5667 142.088 56.2C142.088 54.8333 142.413 53.625 143.063 52.575C143.73 51.525 144.638 50.7083 145.788 50.125C146.938 49.525 148.255 49.225 149.738 49.225C151.221 49.225 152.538 49.525 153.688 50.125C154.855 50.7083 155.763 51.525 156.413 52.575C157.063 53.625 157.388 54.8333 157.388 56.2C157.388 57.5667 157.063 58.7833 156.413 59.85C155.763 60.9 154.855 61.725 153.688 62.325C152.538 62.925 151.221 63.225 149.738 63.225ZM149.738 59.45C150.288 59.45 150.771 59.325 151.188 59.075C151.621 58.825 151.963 58.4583 152.213 57.975C152.463 57.475 152.588 56.8833 152.588 56.2C152.588 55.5167 152.463 54.9417 152.213 54.475C151.963 53.9917 151.621 53.625 151.188 53.375C150.771 53.125 150.288 53 149.738 53C149.205 53 148.721 53.125 148.288 53.375C147.871 53.625 147.53 53.9917 147.263 54.475C147.013 54.9417 146.888 55.5167 146.888 56.2C146.888 56.8833 147.013 57.475 147.263 57.975C147.53 58.4583 147.871 58.825 148.288 59.075C148.721 59.325 149.205 59.45 149.738 59.45ZM170.814 63V49.425H165.439V45.5H181.114V49.425H175.764V63H170.814ZM188.166 63.225C186.682 63.225 185.366 62.925 184.216 62.325C183.066 61.725 182.157 60.9 181.491 59.85C180.841 58.7833 180.516 57.5667 180.516 56.2C180.516 54.8333 180.841 53.625 181.491 52.575C182.157 51.525 183.066 50.7083 184.216 50.125C185.366 49.525 186.682 49.225 188.166 49.225C189.649 49.225 190.966 49.525 192.116 50.125C193.282 50.7083 194.191 51.525 194.841 52.575C195.491 53.625 195.816 54.8333 195.816 56.2C195.816 57.5667 195.491 58.7833 194.841 59.85C194.191 60.9 193.282 61.725 192.116 62.325C190.966 62.925 189.649 63.225 188.166 63.225ZM188.166 59.45C188.716 59.45 189.199 59.325 189.616 59.075C190.049 58.825 190.391 58.4583 190.641 57.975C190.891 57.475 191.016 56.8833 191.016 56.2C191.016 55.5167 190.891 54.9417 190.641 54.475C190.391 53.9917 190.049 53.625 189.616 53.375C189.199 53.125 188.716 53 188.166 53C187.632 53 187.149 53.125 186.716 53.375C186.299 53.625 185.957 53.9917 185.691 54.475C185.441 54.9417 185.316 55.5167 185.316 56.2C185.316 56.8833 185.441 57.475 185.691 57.975C185.957 58.4583 186.299 58.825 186.716 59.075C187.149 59.325 187.632 59.45 188.166 59.45ZM206.541 63.225C205.391 63.225 204.408 62.975 203.591 62.475C202.775 61.9583 202.15 61.1917 201.716 60.175C201.3 59.1417 201.091 57.825 201.091 56.225C201.091 54.6083 201.291 53.2917 201.691 52.275C202.091 51.2417 202.691 50.475 203.491 49.975C204.308 49.475 205.325 49.225 206.541 49.225C207.775 49.225 208.891 49.5167 209.891 50.1C210.908 50.6667 211.708 51.475 212.291 52.525C212.891 53.5583 213.191 54.7917 213.191 56.225C213.191 57.6583 212.891 58.9 212.291 59.95C211.708 61 210.908 61.8083 209.891 62.375C208.891 62.9417 207.775 63.225 206.541 63.225ZM198.016 67.85V49.45H202.541V51.75L202.516 56.225L202.766 60.725V67.85H198.016ZM205.541 59.45C206.075 59.45 206.55 59.325 206.966 59.075C207.4 58.825 207.741 58.4583 207.991 57.975C208.258 57.4917 208.391 56.9083 208.391 56.225C208.391 55.5417 208.258 54.9583 207.991 54.475C207.741 53.9917 207.4 53.625 206.966 53.375C206.55 53.125 206.075 53 205.541 53C205.008 53 204.525 53.125 204.091 53.375C203.675 53.625 203.333 53.9917 203.066 54.475C202.816 54.9583 202.691 55.5417 202.691 56.225C202.691 56.9083 202.816 57.4917 203.066 57.975C203.333 58.4583 203.675 58.825 204.091 59.075C204.525 59.325 205.008 59.45 205.541 59.45ZM223.381 63V60.475L223.056 59.85V55.2C223.056 54.45 222.823 53.875 222.356 53.475C221.906 53.0583 221.181 52.85 220.181 52.85C219.531 52.85 218.873 52.9583 218.206 53.175C217.539 53.375 216.973 53.6583 216.506 54.025L214.906 50.8C215.673 50.3 216.589 49.9167 217.656 49.65C218.739 49.3667 219.814 49.225 220.881 49.225C223.081 49.225 224.781 49.7333 225.981 50.75C227.198 51.75 227.806 53.325 227.806 55.475V63H223.381ZM219.381 63.225C218.298 63.225 217.381 63.0417 216.631 62.675C215.881 62.3083 215.306 61.8083 214.906 61.175C214.523 60.5417 214.331 59.8333 214.331 59.05C214.331 58.2167 214.539 57.5 214.956 56.9C215.389 56.2833 216.048 55.8167 216.931 55.5C217.814 55.1667 218.956 55 220.356 55H223.556V57.475H221.006C220.239 57.475 219.698 57.6 219.381 57.85C219.081 58.1 218.931 58.4333 218.931 58.85C218.931 59.2667 219.089 59.6 219.406 59.85C219.723 60.1 220.156 60.225 220.706 60.225C221.223 60.225 221.689 60.1 222.106 59.85C222.539 59.5833 222.856 59.1833 223.056 58.65L223.706 60.4C223.456 61.3333 222.964 62.0417 222.231 62.525C221.514 62.9917 220.564 63.225 219.381 63.225Z" fill="#4EC79F"/>
<path d="M32.9992 92V81.5H37.7992C38.7592 81.5 39.5842 81.655 40.2742 81.965C40.9742 82.275 41.5142 82.725 41.8942 83.315C42.2742 83.895 42.4642 84.585 42.4642 85.385C42.4642 86.175 42.2742 86.86 41.8942 87.44C41.5142 88.02 40.9742 88.47 40.2742 88.79C39.5842 89.1 38.7592 89.255 37.7992 89.255H34.6492L35.9692 87.965V92H32.9992ZM35.9692 88.28L34.6492 86.915H37.6192C38.2392 86.915 38.6992 86.78 38.9992 86.51C39.3092 86.24 39.4642 85.865 39.4642 85.385C39.4642 84.895 39.3092 84.515 38.9992 84.245C38.6992 83.975 38.2392 83.84 37.6192 83.84H34.6492L35.9692 82.475V88.28ZM43.8359 92V83.87H46.5509V86.24L46.1459 85.565C46.3859 84.955 46.7759 84.5 47.3159 84.2C47.8559 83.89 48.5109 83.735 49.2809 83.735V86.3C49.1509 86.28 49.0359 86.27 48.9359 86.27C48.8459 86.26 48.7459 86.255 48.6359 86.255C48.0559 86.255 47.5859 86.415 47.2259 86.735C46.8659 87.045 46.6859 87.555 46.6859 88.265V92H43.8359ZM54.6438 92.135C53.6838 92.135 52.8438 91.955 52.1238 91.595C51.4138 91.225 50.8588 90.725 50.4587 90.095C50.0688 89.455 49.8738 88.73 49.8738 87.92C49.8738 87.11 50.0638 86.39 50.4438 85.76C50.8338 85.12 51.3688 84.625 52.0488 84.275C52.7288 83.915 53.4938 83.735 54.3438 83.735C55.1438 83.735 55.8738 83.9 56.5338 84.23C57.1938 84.55 57.7188 85.025 58.1088 85.655C58.4988 86.285 58.6938 87.05 58.6938 87.95C58.6938 88.05 58.6888 88.165 58.6788 88.295C58.6688 88.425 58.6588 88.545 58.6488 88.655H52.2138V87.155H57.1338L56.0538 87.575C56.0638 87.205 55.9938 86.885 55.8438 86.615C55.7038 86.345 55.5038 86.135 55.2438 85.985C54.9938 85.835 54.6988 85.76 54.3588 85.76C54.0188 85.76 53.7188 85.835 53.4588 85.985C53.2088 86.135 53.0138 86.35 52.8738 86.63C52.7338 86.9 52.6638 87.22 52.6638 87.59V88.025C52.6638 88.425 52.7438 88.77 52.9038 89.06C53.0738 89.35 53.3138 89.575 53.6238 89.735C53.9338 89.885 54.3038 89.96 54.7338 89.96C55.1338 89.96 55.4738 89.905 55.7538 89.795C56.0438 89.675 56.3288 89.495 56.6088 89.255L58.1088 90.815C57.7188 91.245 57.2388 91.575 56.6688 91.805C56.0988 92.025 55.4238 92.135 54.6438 92.135ZM62.9628 92.135C62.2728 92.135 61.5978 92.055 60.9378 91.895C60.2878 91.735 59.7628 91.535 59.3628 91.295L60.2178 89.345C60.5978 89.575 61.0428 89.76 61.5528 89.9C62.0628 90.03 62.5628 90.095 63.0528 90.095C63.5328 90.095 63.8628 90.045 64.0428 89.945C64.2328 89.845 64.3278 89.71 64.3278 89.54C64.3278 89.38 64.2378 89.265 64.0578 89.195C63.8878 89.115 63.6578 89.055 63.3678 89.015C63.0878 88.975 62.7778 88.93 62.4378 88.88C62.0978 88.83 61.7528 88.765 61.4028 88.685C61.0628 88.595 60.7478 88.465 60.4578 88.295C60.1778 88.115 59.9528 87.875 59.7828 87.575C59.6128 87.275 59.5278 86.895 59.5278 86.435C59.5278 85.915 59.6778 85.455 59.9778 85.055C60.2878 84.645 60.7378 84.325 61.3278 84.095C61.9178 83.855 62.6378 83.735 63.4878 83.735C64.0578 83.735 64.6328 83.795 65.2128 83.915C65.8028 84.025 66.2978 84.195 66.6978 84.425L65.8428 86.36C65.4428 86.13 65.0428 85.975 64.6428 85.895C64.2428 85.805 63.8628 85.76 63.5028 85.76C63.0228 85.76 62.6828 85.815 62.4828 85.925C62.2928 86.035 62.1978 86.17 62.1978 86.33C62.1978 86.49 62.2828 86.615 62.4528 86.705C62.6228 86.785 62.8478 86.85 63.1278 86.9C63.4178 86.94 63.7328 86.985 64.0728 87.035C64.4128 87.075 64.7528 87.14 65.0928 87.23C65.4428 87.32 65.7578 87.455 66.0378 87.635C66.3278 87.805 66.5578 88.04 66.7278 88.34C66.8978 88.63 66.9828 89.005 66.9828 89.465C66.9828 89.965 66.8278 90.415 66.5178 90.815C66.2178 91.215 65.7678 91.535 65.1678 91.775C64.5778 92.015 63.8428 92.135 62.9628 92.135ZM68.2109 92V83.87H71.0609V92H68.2109ZM69.6359 82.97C69.1159 82.97 68.6959 82.825 68.3759 82.535C68.0559 82.245 67.8959 81.885 67.8959 81.455C67.8959 81.025 68.0559 80.665 68.3759 80.375C68.6959 80.085 69.1159 79.94 69.6359 79.94C70.1559 79.94 70.5759 80.08 70.8959 80.36C71.2159 80.63 71.3759 80.98 71.3759 81.41C71.3759 81.86 71.2159 82.235 70.8959 82.535C70.5859 82.825 70.1659 82.97 69.6359 82.97ZM76.453 92.135C75.713 92.135 75.038 91.965 74.428 91.625C73.828 91.275 73.348 90.79 72.988 90.17C72.628 89.54 72.448 88.79 72.448 87.92C72.448 87.06 72.628 86.32 72.988 85.7C73.348 85.07 73.828 84.585 74.428 84.245C75.038 83.905 75.713 83.735 76.453 83.735C77.153 83.735 77.743 83.885 78.223 84.185C78.713 84.485 79.083 84.945 79.333 85.565C79.583 86.185 79.708 86.97 79.708 87.92C79.708 88.89 79.588 89.685 79.348 90.305C79.108 90.925 78.748 91.385 78.268 91.685C77.788 91.985 77.183 92.135 76.453 92.135ZM77.053 89.87C77.373 89.87 77.658 89.795 77.908 89.645C78.168 89.495 78.373 89.275 78.523 88.985C78.673 88.685 78.748 88.33 78.748 87.92C78.748 87.51 78.673 87.165 78.523 86.885C78.373 86.595 78.168 86.375 77.908 86.225C77.658 86.075 77.373 86 77.053 86C76.723 86 76.428 86.075 76.168 86.225C75.918 86.375 75.718 86.595 75.568 86.885C75.418 87.165 75.343 87.51 75.343 87.92C75.343 88.33 75.418 88.685 75.568 88.985C75.718 89.275 75.918 89.495 76.168 89.645C76.428 89.795 76.723 89.87 77.053 89.87ZM78.838 92V90.605L78.853 87.92L78.703 85.235V80.87H81.553V92H78.838ZM87.6467 92.135C86.6867 92.135 85.8467 91.955 85.1267 91.595C84.4167 91.225 83.8617 90.725 83.4617 90.095C83.0717 89.455 82.8767 88.73 82.8767 87.92C82.8767 87.11 83.0667 86.39 83.4467 85.76C83.8367 85.12 84.3717 84.625 85.0517 84.275C85.7317 83.915 86.4967 83.735 87.3467 83.735C88.1467 83.735 88.8767 83.9 89.5367 84.23C90.1967 84.55 90.7217 85.025 91.1117 85.655C91.5017 86.285 91.6967 87.05 91.6967 87.95C91.6967 88.05 91.6917 88.165 91.6817 88.295C91.6717 88.425 91.6617 88.545 91.6517 88.655H85.2167V87.155H90.1367L89.0567 87.575C89.0667 87.205 88.9967 86.885 88.8467 86.615C88.7067 86.345 88.5067 86.135 88.2467 85.985C87.9967 85.835 87.7017 85.76 87.3617 85.76C87.0217 85.76 86.7217 85.835 86.4617 85.985C86.2117 86.135 86.0167 86.35 85.8767 86.63C85.7367 86.9 85.6667 87.22 85.6667 87.59V88.025C85.6667 88.425 85.7467 88.77 85.9067 89.06C86.0767 89.35 86.3167 89.575 86.6267 89.735C86.9367 89.885 87.3067 89.96 87.7367 89.96C88.1367 89.96 88.4767 89.905 88.7567 89.795C89.0467 89.675 89.3317 89.495 89.6117 89.255L91.1117 90.815C90.7217 91.245 90.2417 91.575 89.6717 91.805C89.1017 92.025 88.4267 92.135 87.6467 92.135ZM98.3057 83.735C98.9357 83.735 99.5057 83.865 100.016 84.125C100.526 84.375 100.926 84.765 101.216 85.295C101.516 85.825 101.666 86.51 101.666 87.35V92H98.8157V87.815C98.8157 87.235 98.6957 86.815 98.4557 86.555C98.2257 86.285 97.9007 86.15 97.4807 86.15C97.1807 86.15 96.9057 86.22 96.6557 86.36C96.4057 86.49 96.2107 86.695 96.0707 86.975C95.9307 87.255 95.8607 87.62 95.8607 88.07V92H93.0107V83.87H95.7257V86.18L95.2007 85.505C95.5107 84.915 95.9357 84.475 96.4757 84.185C97.0157 83.885 97.6257 83.735 98.3057 83.735ZM107.085 92.135C106.045 92.135 105.235 91.88 104.655 91.37C104.075 90.85 103.785 90.07 103.785 89.03V82.055H106.635V89C106.635 89.29 106.715 89.52 106.875 89.69C107.035 89.85 107.24 89.93 107.49 89.93C107.83 89.93 108.12 89.845 108.36 89.675L109.065 91.67C108.825 91.83 108.53 91.945 108.18 92.015C107.83 92.095 107.465 92.135 107.085 92.135ZM102.6 86.3V84.17H108.495V86.3H102.6ZM114.19 92.135C113.23 92.135 112.39 91.955 111.67 91.595C110.96 91.225 110.405 90.725 110.005 90.095C109.615 89.455 109.42 88.73 109.42 87.92C109.42 87.11 109.61 86.39 109.99 85.76C110.38 85.12 110.915 84.625 111.595 84.275C112.275 83.915 113.04 83.735 113.89 83.735C114.69 83.735 115.42 83.9 116.08 84.23C116.74 84.55 117.265 85.025 117.655 85.655C118.045 86.285 118.24 87.05 118.24 87.95C118.24 88.05 118.235 88.165 118.225 88.295C118.215 88.425 118.205 88.545 118.195 88.655H111.76V87.155H116.68L115.6 87.575C115.61 87.205 115.54 86.885 115.39 86.615C115.25 86.345 115.05 86.135 114.79 85.985C114.54 85.835 114.245 85.76 113.905 85.76C113.565 85.76 113.265 85.835 113.005 85.985C112.755 86.135 112.56 86.35 112.42 86.63C112.28 86.9 112.21 87.22 112.21 87.59V88.025C112.21 88.425 112.29 88.77 112.45 89.06C112.62 89.35 112.86 89.575 113.17 89.735C113.48 89.885 113.85 89.96 114.28 89.96C114.68 89.96 115.02 89.905 115.3 89.795C115.59 89.675 115.875 89.495 116.155 89.255L117.655 90.815C117.265 91.245 116.785 91.575 116.215 91.805C115.645 92.025 114.97 92.135 114.19 92.135ZM127.744 92.21C126.884 92.21 126.054 92.105 125.254 91.895C124.464 91.675 123.819 91.395 123.319 91.055L124.294 88.865C124.764 89.165 125.304 89.415 125.914 89.615C126.534 89.805 127.149 89.9 127.759 89.9C128.169 89.9 128.499 89.865 128.749 89.795C128.999 89.715 129.179 89.615 129.289 89.495C129.409 89.365 129.469 89.215 129.469 89.045C129.469 88.805 129.359 88.615 129.139 88.475C128.919 88.335 128.634 88.22 128.284 88.13C127.934 88.04 127.544 87.95 127.114 87.86C126.694 87.77 126.269 87.655 125.839 87.515C125.419 87.375 125.034 87.195 124.684 86.975C124.334 86.745 124.049 86.45 123.829 86.09C123.609 85.72 123.499 85.255 123.499 84.695C123.499 84.065 123.669 83.495 124.009 82.985C124.359 82.475 124.879 82.065 125.569 81.755C126.259 81.445 127.119 81.29 128.149 81.29C128.839 81.29 129.514 81.37 130.174 81.53C130.844 81.68 131.439 81.905 131.959 82.205L131.044 84.41C130.544 84.14 130.049 83.94 129.559 83.81C129.069 83.67 128.594 83.6 128.134 83.6C127.724 83.6 127.394 83.645 127.144 83.735C126.894 83.815 126.714 83.925 126.604 84.065C126.494 84.205 126.439 84.365 126.439 84.545C126.439 84.775 126.544 84.96 126.754 85.1C126.974 85.23 127.259 85.34 127.609 85.43C127.969 85.51 128.359 85.595 128.779 85.685C129.209 85.775 129.634 85.89 130.054 86.03C130.484 86.16 130.874 86.34 131.224 86.57C131.574 86.79 131.854 87.085 132.064 87.455C132.284 87.815 132.394 88.27 132.394 88.82C132.394 89.43 132.219 89.995 131.869 90.515C131.529 91.025 131.014 91.435 130.324 91.745C129.644 92.055 128.784 92.21 127.744 92.21ZM136.526 86.105H141.371V88.4H136.526V86.105ZM136.736 92H133.766V81.5H142.001V83.795H136.736V92ZM152.99 92.21C152.16 92.21 151.39 92.08 150.68 91.82C149.98 91.55 149.37 91.17 148.85 90.68C148.34 90.19 147.94 89.615 147.65 88.955C147.36 88.285 147.215 87.55 147.215 86.75C147.215 85.95 147.36 85.22 147.65 84.56C147.94 83.89 148.34 83.31 148.85 82.82C149.37 82.33 149.98 81.955 150.68 81.695C151.39 81.425 152.16 81.29 152.99 81.29C153.96 81.29 154.825 81.46 155.585 81.8C156.355 82.14 156.995 82.63 157.505 83.27L155.615 84.98C155.275 84.58 154.9 84.275 154.49 84.065C154.09 83.855 153.64 83.75 153.14 83.75C152.71 83.75 152.315 83.82 151.955 83.96C151.595 84.1 151.285 84.305 151.025 84.575C150.775 84.835 150.575 85.15 150.425 85.52C150.285 85.89 150.215 86.3 150.215 86.75C150.215 87.2 150.285 87.61 150.425 87.98C150.575 88.35 150.775 88.67 151.025 88.94C151.285 89.2 151.595 89.4 151.955 89.54C152.315 89.68 152.71 89.75 153.14 89.75C153.64 89.75 154.09 89.645 154.49 89.435C154.9 89.225 155.275 88.92 155.615 88.52L157.505 90.23C156.995 90.86 156.355 91.35 155.585 91.7C154.825 92.04 153.96 92.21 152.99 92.21ZM158.694 92V80.87H161.544V92H158.694ZM166.816 92.135C166.156 92.135 165.561 92.005 165.031 91.745C164.511 91.485 164.101 91.08 163.801 90.53C163.511 89.97 163.366 89.265 163.366 88.415V83.87H166.216V87.95C166.216 88.58 166.331 89.03 166.561 89.3C166.801 89.57 167.136 89.705 167.566 89.705C167.846 89.705 168.101 89.64 168.331 89.51C168.561 89.38 168.746 89.175 168.886 88.895C169.026 88.605 169.096 88.235 169.096 87.785V83.87H171.946V92H169.231V89.705L169.756 90.35C169.476 90.95 169.071 91.4 168.541 91.7C168.011 91.99 167.436 92.135 166.816 92.135ZM178.897 92.135C178.167 92.135 177.557 91.985 177.067 91.685C176.587 91.385 176.227 90.925 175.987 90.305C175.747 89.685 175.627 88.89 175.627 87.92C175.627 86.97 175.752 86.185 176.002 85.565C176.262 84.945 176.637 84.485 177.127 84.185C177.617 83.885 178.207 83.735 178.897 83.735C179.637 83.735 180.307 83.905 180.907 84.245C181.517 84.585 181.997 85.07 182.347 85.7C182.707 86.32 182.887 87.06 182.887 87.92C182.887 88.79 182.707 89.54 182.347 90.17C181.997 90.79 181.517 91.275 180.907 91.625C180.307 91.965 179.637 92.135 178.897 92.135ZM173.782 92V80.87H176.632V85.235L176.482 87.92L176.497 90.605V92H173.782ZM178.297 89.87C178.617 89.87 178.902 89.795 179.152 89.645C179.412 89.495 179.617 89.275 179.767 88.985C179.927 88.685 180.007 88.33 180.007 87.92C180.007 87.51 179.927 87.165 179.767 86.885C179.617 86.595 179.412 86.375 179.152 86.225C178.902 86.075 178.617 86 178.297 86C177.977 86 177.687 86.075 177.427 86.225C177.177 86.375 176.972 86.595 176.812 86.885C176.662 87.165 176.587 87.51 176.587 87.92C176.587 88.33 176.662 88.685 176.812 88.985C176.972 89.275 177.177 89.495 177.427 89.645C177.687 89.795 177.977 89.87 178.297 89.87ZM192.402 92.21C191.542 92.21 190.712 92.105 189.912 91.895C189.122 91.675 188.477 91.395 187.977 91.055L188.952 88.865C189.422 89.165 189.962 89.415 190.572 89.615C191.192 89.805 191.807 89.9 192.417 89.9C192.827 89.9 193.157 89.865 193.407 89.795C193.657 89.715 193.837 89.615 193.947 89.495C194.067 89.365 194.127 89.215 194.127 89.045C194.127 88.805 194.017 88.615 193.797 88.475C193.577 88.335 193.292 88.22 192.942 88.13C192.592 88.04 192.202 87.95 191.772 87.86C191.352 87.77 190.927 87.655 190.497 87.515C190.077 87.375 189.692 87.195 189.342 86.975C188.992 86.745 188.707 86.45 188.487 86.09C188.267 85.72 188.157 85.255 188.157 84.695C188.157 84.065 188.327 83.495 188.667 82.985C189.017 82.475 189.537 82.065 190.227 81.755C190.917 81.445 191.777 81.29 192.807 81.29C193.497 81.29 194.172 81.37 194.832 81.53C195.502 81.68 196.097 81.905 196.617 82.205L195.702 84.41C195.202 84.14 194.707 83.94 194.217 83.81C193.727 83.67 193.252 83.6 192.792 83.6C192.382 83.6 192.052 83.645 191.802 83.735C191.552 83.815 191.372 83.925 191.262 84.065C191.152 84.205 191.097 84.365 191.097 84.545C191.097 84.775 191.202 84.96 191.412 85.1C191.632 85.23 191.917 85.34 192.267 85.43C192.627 85.51 193.017 85.595 193.437 85.685C193.867 85.775 194.292 85.89 194.712 86.03C195.142 86.16 195.532 86.34 195.882 86.57C196.232 86.79 196.512 87.085 196.722 87.455C196.942 87.815 197.052 88.27 197.052 88.82C197.052 89.43 196.877 89.995 196.527 90.515C196.187 91.025 195.672 91.435 194.982 91.745C194.302 92.055 193.442 92.21 192.402 92.21ZM201.919 92.135C200.879 92.135 200.069 91.88 199.489 91.37C198.909 90.85 198.619 90.07 198.619 89.03V82.055H201.469V89C201.469 89.29 201.549 89.52 201.709 89.69C201.869 89.85 202.074 89.93 202.324 89.93C202.664 89.93 202.954 89.845 203.194 89.675L203.899 91.67C203.659 91.83 203.364 91.945 203.014 92.015C202.664 92.095 202.299 92.135 201.919 92.135ZM197.434 86.3V84.17H203.329V86.3H197.434ZM209.963 92V90.485L209.768 90.11V87.32C209.768 86.87 209.628 86.525 209.348 86.285C209.078 86.035 208.643 85.91 208.043 85.91C207.653 85.91 207.258 85.975 206.858 86.105C206.458 86.225 206.118 86.395 205.838 86.615L204.878 84.68C205.338 84.38 205.888 84.15 206.528 83.99C207.178 83.82 207.823 83.735 208.463 83.735C209.783 83.735 210.803 84.04 211.523 84.65C212.253 85.25 212.618 86.195 212.618 87.485V92H209.963ZM207.563 92.135C206.913 92.135 206.363 92.025 205.913 91.805C205.463 91.585 205.118 91.285 204.878 90.905C204.648 90.525 204.533 90.1 204.533 89.63C204.533 89.13 204.658 88.7 204.908 88.34C205.168 87.97 205.563 87.69 206.093 87.5C206.623 87.3 207.308 87.2 208.148 87.2H210.068V88.685H208.538C208.078 88.685 207.753 88.76 207.563 88.91C207.383 89.06 207.293 89.26 207.293 89.51C207.293 89.76 207.388 89.96 207.578 90.11C207.768 90.26 208.028 90.335 208.358 90.335C208.668 90.335 208.948 90.26 209.198 90.11C209.458 89.95 209.648 89.71 209.768 89.39L210.158 90.44C210.008 91 209.713 91.425 209.273 91.715C208.843 91.995 208.273 92.135 207.563 92.135ZM218.047 92.135C217.007 92.135 216.197 91.88 215.617 91.37C215.037 90.85 214.747 90.07 214.747 89.03V82.055H217.597V89C217.597 89.29 217.677 89.52 217.837 89.69C217.997 89.85 218.202 89.93 218.452 89.93C218.792 89.93 219.082 89.845 219.322 89.675L220.027 91.67C219.787 91.83 219.492 91.945 219.142 92.015C218.792 92.095 218.427 92.135 218.047 92.135ZM213.562 86.3V84.17H219.457V86.3H213.562ZM226.091 92V90.485L225.896 90.11V87.32C225.896 86.87 225.756 86.525 225.476 86.285C225.206 86.035 224.771 85.91 224.171 85.91C223.781 85.91 223.386 85.975 222.986 86.105C222.586 86.225 222.246 86.395 221.966 86.615L221.006 84.68C221.466 84.38 222.016 84.15 222.656 83.99C223.306 83.82 223.951 83.735 224.591 83.735C225.911 83.735 226.931 84.04 227.651 84.65C228.381 85.25 228.746 86.195 228.746 87.485V92H226.091ZM223.691 92.135C223.041 92.135 222.491 92.025 222.041 91.805C221.591 91.585 221.246 91.285 221.006 90.905C220.776 90.525 220.661 90.1 220.661 89.63C220.661 89.13 220.786 88.7 221.036 88.34C221.296 87.97 221.691 87.69 222.221 87.5C222.751 87.3 223.436 87.2 224.276 87.2H226.196V88.685H224.666C224.206 88.685 223.881 88.76 223.691 88.91C223.511 89.06 223.421 89.26 223.421 89.51C223.421 89.76 223.516 89.96 223.706 90.11C223.896 90.26 224.156 90.335 224.486 90.335C224.796 90.335 225.076 90.26 225.326 90.11C225.586 89.95 225.776 89.71 225.896 89.39L226.286 90.44C226.136 91 225.841 91.425 225.401 91.715C224.971 91.995 224.401 92.135 223.691 92.135ZM230.545 92V80.87H233.395V92H230.545ZM239.507 92.135C238.547 92.135 237.707 91.955 236.987 91.595C236.277 91.225 235.722 90.725 235.322 90.095C234.932 89.455 234.737 88.73 234.737 87.92C234.737 87.11 234.927 86.39 235.307 85.76C235.697 85.12 236.232 84.625 236.912 84.275C237.592 83.915 238.357 83.735 239.207 83.735C240.007 83.735 240.737 83.9 241.397 84.23C242.057 84.55 242.582 85.025 242.972 85.655C243.362 86.285 243.557 87.05 243.557 87.95C243.557 88.05 243.552 88.165 243.542 88.295C243.532 88.425 243.522 88.545 243.512 88.655H237.077V87.155H241.997L240.917 87.575C240.927 87.205 240.857 86.885 240.707 86.615C240.567 86.345 240.367 86.135 240.107 85.985C239.857 85.835 239.562 85.76 239.222 85.76C238.882 85.76 238.582 85.835 238.322 85.985C238.072 86.135 237.877 86.35 237.737 86.63C237.597 86.9 237.527 87.22 237.527 87.59V88.025C237.527 88.425 237.607 88.77 237.767 89.06C237.937 89.35 238.177 89.575 238.487 89.735C238.797 89.885 239.167 89.96 239.597 89.96C239.997 89.96 240.337 89.905 240.617 89.795C240.907 89.675 241.192 89.495 241.472 89.255L242.972 90.815C242.582 91.245 242.102 91.575 241.532 91.805C240.962 92.025 240.287 92.135 239.507 92.135Z" fill="black"/>
</svg>
