<svg width="205" height="19" viewBox="0 0 205 19" fill="none" xmlns="http://www.w3.org/2000/svg">
<path d="M4.837 15L0.805 2.4H5.179L8.437 13.038H6.241L9.697 2.4H13.603L16.825 13.038H14.719L18.121 2.4H22.153L18.121 15H13.567L10.939 6.288H12.163L9.391 15H4.837ZM27.4516 15.18C26.3356 15.18 25.3456 14.964 24.4816 14.532C23.6296 14.088 22.9576 13.482 22.4656 12.714C21.9736 11.946 21.7276 11.064 21.7276 10.068C21.7276 9.072 21.9736 8.19 22.4656 7.422C22.9576 6.654 23.6296 6.054 24.4816 5.622C25.3456 5.19 26.3356 4.974 27.4516 4.974C28.5676 4.974 29.5576 5.19 30.4216 5.622C31.2856 6.054 31.9576 6.654 32.4376 7.422C32.9296 8.19 33.1756 9.072 33.1756 10.068C33.1756 11.064 32.9296 11.946 32.4376 12.714C31.9576 13.482 31.2856 14.088 30.4216 14.532C29.5576 14.964 28.5676 15.18 27.4516 15.18ZM27.4516 12.012C27.7516 12.012 28.0216 11.94 28.2616 11.796C28.5016 11.652 28.6936 11.436 28.8376 11.148C28.9816 10.848 29.0536 10.488 29.0536 10.068C29.0536 9.636 28.9816 9.282 28.8376 9.006C28.6936 8.718 28.5016 8.502 28.2616 8.358C28.0216 8.214 27.7516 8.142 27.4516 8.142C27.1516 8.142 26.8816 8.214 26.6416 8.358C26.4016 8.502 26.2096 8.718 26.0656 9.006C25.9216 9.282 25.8496 9.636 25.8496 10.068C25.8496 10.488 25.9216 10.848 26.0656 11.148C26.2096 11.436 26.4016 11.652 26.6416 11.796C26.8816 11.94 27.1516 12.012 27.4516 12.012ZM34.4488 15V5.154H38.3188V8.124L37.6888 7.278C37.9888 6.51 38.4688 5.934 39.1288 5.55C39.7888 5.166 40.5808 4.974 41.5048 4.974V8.574C41.3248 8.55 41.1628 8.532 41.0188 8.52C40.8868 8.508 40.7488 8.502 40.6048 8.502C39.9928 8.502 39.4888 8.664 39.0928 8.988C38.7088 9.3 38.5168 9.846 38.5168 10.626V15H34.4488ZM46.0598 13.38L46.1498 8.592L49.5518 5.154H54.3578L49.8578 9.87L47.8238 11.508L46.0598 13.38ZM42.6578 15V1.644H46.7258V15H42.6578ZM49.7678 15L47.0678 11.58L49.5698 8.502L54.6818 15H49.7678ZM60.3138 15.288C59.2578 15.288 58.2378 15.168 57.2538 14.928C56.2698 14.688 55.4598 14.376 54.8238 13.992L56.1918 10.896C56.7918 11.244 57.4578 11.526 58.1898 11.742C58.9338 11.946 59.6538 12.048 60.3498 12.048C60.7578 12.048 61.0758 12.024 61.3038 11.976C61.5438 11.916 61.7178 11.838 61.8258 11.742C61.9338 11.634 61.9878 11.508 61.9878 11.364C61.9878 11.136 61.8618 10.956 61.6098 10.824C61.3578 10.692 61.0218 10.584 60.6018 10.5C60.1938 10.404 59.7438 10.308 59.2518 10.212C58.7598 10.104 58.2618 9.966 57.7578 9.798C57.2658 9.63 56.8098 9.408 56.3898 9.132C55.9818 8.856 55.6518 8.496 55.3998 8.052C55.1478 7.596 55.0218 7.032 55.0218 6.36C55.0218 5.58 55.2378 4.872 55.6698 4.236C56.1138 3.588 56.7678 3.072 57.6318 2.688C58.5078 2.304 59.5938 2.112 60.8898 2.112C61.7418 2.112 62.5818 2.202 63.4098 2.382C64.2378 2.562 64.9818 2.838 65.6418 3.21L64.3638 6.288C63.7398 5.976 63.1338 5.742 62.5458 5.586C61.9698 5.43 61.4058 5.352 60.8538 5.352C60.4458 5.352 60.1218 5.388 59.8818 5.46C59.6418 5.532 59.4678 5.628 59.3598 5.748C59.2638 5.868 59.2158 6 59.2158 6.144C59.2158 6.36 59.3418 6.534 59.5938 6.666C59.8458 6.786 60.1758 6.888 60.5838 6.972C61.0038 7.056 61.4598 7.146 61.9518 7.242C62.4558 7.338 62.9538 7.47 63.4458 7.638C63.9378 7.806 64.3878 8.028 64.7958 8.304C65.2158 8.58 65.5518 8.94 65.8038 9.384C66.0558 9.828 66.1818 10.38 66.1818 11.04C66.1818 11.808 65.9598 12.516 65.5158 13.164C65.0838 13.8 64.4358 14.316 63.5718 14.712C62.7078 15.096 61.6218 15.288 60.3138 15.288ZM74.1599 4.974C74.9159 4.974 75.5999 5.13 76.2119 5.442C76.8239 5.742 77.3039 6.216 77.6519 6.864C78.0119 7.512 78.1919 8.352 78.1919 9.384V15H74.1239V10.086C74.1239 9.474 74.0159 9.042 73.7999 8.79C73.5839 8.526 73.2899 8.394 72.9179 8.394C72.6419 8.394 72.3839 8.46 72.1439 8.592C71.9159 8.712 71.7299 8.916 71.5859 9.204C71.4539 9.492 71.3879 9.882 71.3879 10.374V15H67.3199V1.644H71.3879V8.034L70.4159 7.206C70.7999 6.462 71.3159 5.904 71.9639 5.532C72.6239 5.16 73.3559 4.974 74.1599 4.974ZM85.3364 15.18C84.2204 15.18 83.2304 14.964 82.3664 14.532C81.5144 14.088 80.8424 13.482 80.3504 12.714C79.8584 11.946 79.6124 11.064 79.6124 10.068C79.6124 9.072 79.8584 8.19 80.3504 7.422C80.8424 6.654 81.5144 6.054 82.3664 5.622C83.2304 5.19 84.2204 4.974 85.3364 4.974C86.4524 4.974 87.4424 5.19 88.3064 5.622C89.1704 6.054 89.8424 6.654 90.3224 7.422C90.8144 8.19 91.0604 9.072 91.0604 10.068C91.0604 11.064 90.8144 11.946 90.3224 12.714C89.8424 13.482 89.1704 14.088 88.3064 14.532C87.4424 14.964 86.4524 15.18 85.3364 15.18ZM85.3364 12.012C85.6364 12.012 85.9064 11.94 86.1464 11.796C86.3864 11.652 86.5784 11.436 86.7224 11.148C86.8664 10.848 86.9384 10.488 86.9384 10.068C86.9384 9.636 86.8664 9.282 86.7224 9.006C86.5784 8.718 86.3864 8.502 86.1464 8.358C85.9064 8.214 85.6364 8.142 85.3364 8.142C85.0364 8.142 84.7664 8.214 84.5264 8.358C84.2864 8.502 84.0944 8.718 83.9504 9.006C83.8064 9.282 83.7344 9.636 83.7344 10.068C83.7344 10.488 83.8064 10.848 83.9504 11.148C84.0944 11.436 84.2864 11.652 84.5264 11.796C84.7664 11.94 85.0364 12.012 85.3364 12.012ZM98.9036 15.18C98.0516 15.18 97.3436 15 96.7796 14.64C96.2276 14.268 95.8196 13.71 95.5556 12.966C95.2916 12.21 95.1596 11.25 95.1596 10.086C95.1596 8.898 95.2796 7.932 95.5196 7.188C95.7716 6.432 96.1736 5.874 96.7256 5.514C97.2776 5.154 98.0036 4.974 98.9036 4.974C99.7676 4.974 100.56 5.184 101.28 5.604C102 6.012 102.576 6.6 103.008 7.368C103.44 8.124 103.656 9.03 103.656 10.086C103.656 11.142 103.44 12.054 103.008 12.822C102.576 13.578 102 14.16 101.28 14.568C100.56 14.976 99.7676 15.18 98.9036 15.18ZM92.3336 18.492V5.154H96.2036V6.486L96.2216 10.086L96.4016 13.686V18.492H92.3336ZM97.9316 12.012C98.2316 12.012 98.5016 11.94 98.7416 11.796C98.9816 11.652 99.1736 11.436 99.3176 11.148C99.4616 10.86 99.5336 10.506 99.5336 10.086C99.5336 9.654 99.4616 9.294 99.3176 9.006C99.1736 8.718 98.9816 8.502 98.7416 8.358C98.5016 8.214 98.2316 8.142 97.9316 8.142C97.6316 8.142 97.3616 8.214 97.1216 8.358C96.8816 8.502 96.6896 8.718 96.5456 9.006C96.4016 9.294 96.3296 9.654 96.3296 10.086C96.3296 10.506 96.4016 10.86 96.5456 11.148C96.6896 11.436 96.8816 11.652 97.1216 11.796C97.3616 11.94 97.6316 12.012 97.9316 12.012ZM114.42 7.764H119.964V10.968H114.42V7.764ZM114.708 15H110.46V2.4H120.702V5.604H114.708V15ZM121.918 15V5.154H125.986V15H121.918ZM123.952 4.362C123.208 4.362 122.614 4.164 122.17 3.768C121.726 3.372 121.504 2.88 121.504 2.292C121.504 1.704 121.726 1.212 122.17 0.815999C122.614 0.419999 123.208 0.221999 123.952 0.221999C124.696 0.221999 125.29 0.407999 125.734 0.78C126.178 1.152 126.4 1.632 126.4 2.22C126.4 2.844 126.178 3.36 125.734 3.768C125.29 4.164 124.696 4.362 123.952 4.362ZM134.629 4.974C135.385 4.974 136.069 5.13 136.681 5.442C137.293 5.742 137.773 6.216 138.121 6.864C138.481 7.512 138.661 8.352 138.661 9.384V15H134.593V10.086C134.593 9.474 134.485 9.042 134.269 8.79C134.053 8.526 133.759 8.394 133.387 8.394C133.111 8.394 132.853 8.46 132.613 8.592C132.385 8.712 132.199 8.916 132.055 9.204C131.923 9.492 131.857 9.882 131.857 10.374V15H127.789V5.154H131.659V8.034L130.885 7.206C131.269 6.462 131.785 5.904 132.433 5.532C133.093 5.16 133.825 4.974 134.629 4.974ZM146.385 15V13.254L146.097 12.786V9.474C146.097 8.994 145.947 8.628 145.647 8.376C145.359 8.124 144.885 7.998 144.225 7.998C143.781 7.998 143.331 8.07 142.875 8.214C142.419 8.346 142.029 8.532 141.705 8.772L140.409 6.09C140.985 5.73 141.675 5.454 142.479 5.262C143.283 5.07 144.069 4.974 144.837 4.974C146.529 4.974 147.837 5.352 148.761 6.108C149.697 6.864 150.165 8.064 150.165 9.708V15H146.385ZM143.595 15.18C142.791 15.18 142.119 15.042 141.579 14.766C141.039 14.49 140.631 14.124 140.355 13.668C140.079 13.2 139.941 12.684 139.941 12.12C139.941 11.484 140.103 10.944 140.427 10.5C140.751 10.056 141.243 9.72 141.903 9.492C142.575 9.264 143.421 9.15 144.441 9.15H146.493V11.112H145.089C144.657 11.112 144.339 11.184 144.135 11.328C143.943 11.46 143.847 11.664 143.847 11.94C143.847 12.168 143.931 12.36 144.099 12.516C144.279 12.66 144.519 12.732 144.819 12.732C145.095 12.732 145.347 12.66 145.575 12.516C145.815 12.36 145.989 12.12 146.097 11.796L146.619 13.002C146.463 13.734 146.133 14.28 145.629 14.64C145.125 15 144.447 15.18 143.595 15.18ZM158.763 4.974C159.519 4.974 160.203 5.13 160.815 5.442C161.427 5.742 161.907 6.216 162.255 6.864C162.615 7.512 162.795 8.352 162.795 9.384V15H158.727V10.086C158.727 9.474 158.619 9.042 158.403 8.79C158.187 8.526 157.893 8.394 157.521 8.394C157.245 8.394 156.987 8.46 156.747 8.592C156.519 8.712 156.333 8.916 156.189 9.204C156.057 9.492 155.991 9.882 155.991 10.374V15H151.923V5.154H155.793V8.034L155.019 7.206C155.403 6.462 155.919 5.904 156.567 5.532C157.227 5.16 157.959 4.974 158.763 4.974ZM164.202 15V12.66L169.44 6.828L170.106 8.124H164.346V5.154H173.4V7.494L168.162 13.326L167.496 12.03H173.598V15H164.202ZM174.828 15V5.154H178.896V15H174.828ZM176.862 4.362C176.118 4.362 175.524 4.164 175.08 3.768C174.636 3.372 174.414 2.88 174.414 2.292C174.414 1.704 174.636 1.212 175.08 0.815999C175.524 0.419999 176.118 0.221999 176.862 0.221999C177.606 0.221999 178.2 0.407999 178.644 0.78C179.088 1.152 179.31 1.632 179.31 2.22C179.31 2.844 179.088 3.36 178.644 3.768C178.2 4.164 177.606 4.362 176.862 4.362ZM186.657 15V13.254L186.369 12.786V9.474C186.369 8.994 186.219 8.628 185.919 8.376C185.631 8.124 185.157 7.998 184.497 7.998C184.053 7.998 183.603 8.07 183.147 8.214C182.691 8.346 182.301 8.532 181.977 8.772L180.681 6.09C181.257 5.73 181.947 5.454 182.751 5.262C183.555 5.07 184.341 4.974 185.109 4.974C186.801 4.974 188.109 5.352 189.033 6.108C189.969 6.864 190.437 8.064 190.437 9.708V15H186.657ZM183.867 15.18C183.063 15.18 182.391 15.042 181.851 14.766C181.311 14.49 180.903 14.124 180.627 13.668C180.351 13.2 180.213 12.684 180.213 12.12C180.213 11.484 180.375 10.944 180.699 10.5C181.023 10.056 181.515 9.72 182.175 9.492C182.847 9.264 183.693 9.15 184.713 9.15H186.765V11.112H185.361C184.929 11.112 184.611 11.184 184.407 11.328C184.215 11.46 184.119 11.664 184.119 11.94C184.119 12.168 184.203 12.36 184.371 12.516C184.551 12.66 184.791 12.732 185.091 12.732C185.367 12.732 185.619 12.66 185.847 12.516C186.087 12.36 186.261 12.12 186.369 11.796L186.891 13.002C186.735 13.734 186.405 14.28 185.901 14.64C185.397 15 184.719 15.18 183.867 15.18ZM192.195 15V5.154H196.065V8.124L195.435 7.278C195.735 6.51 196.215 5.934 196.875 5.55C197.535 5.166 198.327 4.974 199.251 4.974V8.574C199.071 8.55 198.909 8.532 198.765 8.52C198.633 8.508 198.495 8.502 198.351 8.502C197.739 8.502 197.235 8.664 196.839 8.988C196.455 9.3 196.263 9.846 196.263 10.626V15H192.195ZM200.404 15V5.154H204.472V15H200.404ZM202.438 4.362C201.694 4.362 201.1 4.164 200.656 3.768C200.212 3.372 199.99 2.88 199.99 2.292C199.99 1.704 200.212 1.212 200.656 0.815999C201.1 0.419999 201.694 0.221999 202.438 0.221999C203.182 0.221999 203.776 0.407999 204.22 0.78C204.664 1.152 204.886 1.632 204.886 2.22C204.886 2.844 204.664 3.36 204.22 3.768C203.776 4.164 203.182 4.362 202.438 4.362Z" fill="#4EC79F"/>
</svg>
